<svg width="370" height="101" viewBox="0 0 370 101" fill="none" xmlns="http://www.w3.org/2000/svg">
<g filter="url(#filter0_d)">
<rect x="20" y="20" width="325" height="55" rx="10" fill="white"/>
</g>
<rect x="20.5" y="20.5" width="324" height="54" rx="9.5" fill="white" stroke="#0C1248" stroke-dasharray="5 5"/>
<path d="M152.023 51.5181H147.617L146.695 54.1665H144.641L148.938 42.7915H150.711L155.016 54.1665H152.953L152.023 51.5181ZM148.172 49.9243H151.469L149.82 45.2056L148.172 49.9243ZM157.012 54.1665V42.7915H160.372C161.377 42.7915 162.268 43.0155 163.044 43.4634C163.825 43.9113 164.429 44.5467 164.856 45.3696C165.283 46.1925 165.497 47.1353 165.497 48.1978V48.7681C165.497 49.8462 165.281 50.7941 164.848 51.6118C164.421 52.4295 163.809 53.0597 163.012 53.5024C162.221 53.9451 161.312 54.1665 160.286 54.1665H157.012ZM158.989 44.3853V52.5884H160.278C161.315 52.5884 162.109 52.2655 162.661 51.6196C163.218 50.9686 163.502 50.0363 163.512 48.8228V48.1899C163.512 46.9556 163.244 46.0129 162.708 45.3618C162.171 44.7108 161.393 44.3853 160.372 44.3853H158.989ZM168.166 54.1665V42.7915H171.525C172.53 42.7915 173.421 43.0155 174.197 43.4634C174.978 43.9113 175.582 44.5467 176.009 45.3696C176.436 46.1925 176.65 47.1353 176.65 48.1978V48.7681C176.65 49.8462 176.434 50.7941 176.002 51.6118C175.574 52.4295 174.962 53.0597 174.166 53.5024C173.374 53.9451 172.465 54.1665 171.439 54.1665H168.166ZM170.142 44.3853V52.5884H171.431C172.468 52.5884 173.262 52.2655 173.814 51.6196C174.371 50.9686 174.655 50.0363 174.666 48.8228V48.1899C174.666 46.9556 174.397 46.0129 173.861 45.3618C173.324 44.7108 172.546 44.3853 171.525 44.3853H170.142ZM193.081 48.7759C193.081 49.8905 192.889 50.8696 192.503 51.7134C192.118 52.5519 191.566 53.1978 190.847 53.6509C190.133 54.0988 189.31 54.3228 188.378 54.3228C187.456 54.3228 186.633 54.0988 185.909 53.6509C185.191 53.1978 184.633 52.5545 184.237 51.7212C183.847 50.8879 183.649 49.9269 183.644 48.8384V48.1978C183.644 47.0884 183.839 46.1092 184.23 45.2603C184.626 44.4113 185.18 43.7629 185.894 43.3149C186.612 42.8618 187.435 42.6353 188.362 42.6353C189.29 42.6353 190.11 42.8592 190.823 43.3071C191.542 43.7498 192.097 44.3905 192.487 45.229C192.878 46.0623 193.076 47.0337 193.081 48.1431V48.7759ZM191.105 48.1821C191.105 46.9217 190.865 45.9556 190.386 45.2837C189.912 44.6118 189.237 44.2759 188.362 44.2759C187.508 44.2759 186.839 44.6118 186.355 45.2837C185.876 45.9504 185.631 46.8957 185.62 48.1196V48.7759C185.62 50.0259 185.862 50.992 186.347 51.6743C186.836 52.3566 187.514 52.6978 188.378 52.6978C189.253 52.6978 189.925 52.3644 190.394 51.6978C190.868 51.0311 191.105 50.0571 191.105 48.7759V48.1821ZM203.297 44.3853H199.75V54.1665H197.789V44.3853H194.273V42.7915H203.297V44.3853ZM214.528 54.1665H212.559V49.1118H207.473V54.1665H205.497V42.7915H207.473V47.5259H212.559V42.7915H214.528V54.1665ZM224.22 49.0884H219.548V52.5884H225.009V54.1665H217.572V42.7915H224.955V44.3853H219.548V47.5259H224.22V49.0884ZM231.498 49.7837H229.295V54.1665H227.319V42.7915H231.319C232.631 42.7915 233.644 43.0858 234.358 43.6743C235.071 44.2629 235.428 45.1144 235.428 46.229C235.428 46.9894 235.243 47.6274 234.873 48.1431C234.509 48.6535 233.998 49.0467 233.342 49.3228L235.897 54.0649V54.1665H233.78L231.498 49.7837ZM229.295 48.1978H231.327C231.993 48.1978 232.514 48.0311 232.889 47.6978C233.264 47.3592 233.452 46.8983 233.452 46.3149C233.452 45.7056 233.277 45.2342 232.928 44.9009C232.584 44.5675 232.069 44.3957 231.381 44.3853H229.295V48.1978ZM243.948 51.2368C243.948 50.7368 243.771 50.3514 243.417 50.0806C243.068 49.8097 242.435 49.5363 241.519 49.2603C240.602 48.9842 239.873 48.6769 239.331 48.3384C238.295 47.6873 237.777 46.8384 237.777 45.7915C237.777 44.8748 238.149 44.1196 238.894 43.5259C239.644 42.9321 240.615 42.6353 241.808 42.6353C242.599 42.6353 243.305 42.7811 243.925 43.0728C244.545 43.3644 245.032 43.7811 245.386 44.3228C245.74 44.8592 245.917 45.4556 245.917 46.1118H243.948C243.948 45.5181 243.761 45.0545 243.386 44.7212C243.016 44.3826 242.485 44.2134 241.792 44.2134C241.146 44.2134 240.644 44.3514 240.284 44.6274C239.93 44.9035 239.753 45.2889 239.753 45.7837C239.753 46.2004 239.946 46.5493 240.331 46.8306C240.717 47.1066 241.352 47.3774 242.238 47.6431C243.123 47.9035 243.834 48.203 244.37 48.5415C244.907 48.8748 245.3 49.2603 245.55 49.6978C245.8 50.13 245.925 50.6379 245.925 51.2212C245.925 52.1691 245.56 52.9243 244.831 53.4868C244.107 54.0441 243.123 54.3228 241.878 54.3228C241.055 54.3228 240.297 54.1717 239.605 53.8696C238.917 53.5623 238.381 53.1405 237.995 52.604C237.615 52.0675 237.425 51.4425 237.425 50.729H239.402C239.402 51.3748 239.615 51.8748 240.042 52.229C240.469 52.5832 241.081 52.7603 241.878 52.7603C242.566 52.7603 243.081 52.6222 243.425 52.3462C243.774 52.0649 243.948 51.6951 243.948 51.2368Z" fill="#0C1248"/>
<path d="M127.585 41.4102V53.7593" stroke="#0C1248" stroke-width="2" stroke-linecap="round" stroke-linejoin="round"/>
<path d="M121.41 47.585H133.759" stroke="#0C1248" stroke-width="2" stroke-linecap="round" stroke-linejoin="round"/>
<defs>
<filter id="filter0_d" x="0" y="0" width="371" height="101" filterUnits="userSpaceOnUse" color-interpolation-filters="sRGB">
<feFlood flood-opacity="0" result="BackgroundImageFix"/>
<feColorMatrix in="SourceAlpha" type="matrix" values="0 0 0 0 0 0 0 0 0 0 0 0 0 0 0 0 0 0 127 0"/>
<feMorphology radius="3" operator="dilate" in="SourceAlpha" result="effect1_dropShadow"/>
<feOffset dx="3" dy="3"/>
<feGaussianBlur stdDeviation="10"/>
<feColorMatrix type="matrix" values="0 0 0 0 0 0 0 0 0 0 0 0 0 0 0 0 0 0 0.04 0"/>
<feBlend mode="normal" in2="BackgroundImageFix" result="effect1_dropShadow"/>
<feBlend mode="normal" in="SourceGraphic" in2="effect1_dropShadow" result="shape"/>
</filter>
</defs>
</svg>
