<svg width="345" height="127" viewBox="0 0 345 127" fill="none" xmlns="http://www.w3.org/2000/svg">
<path d="M335.842 56.86C336.184 57.2385 336.446 57.6818 336.613 58.1638C336.78 58.6457 336.848 59.1563 336.814 59.6651C336.737 60.6837 336.428 61.6711 335.909 62.551C334.96 64.2759 333.185 65.677 331.483 66.6679C330.506 64.7141 331.109 62.2496 331.483 61.0215C332.088 59.0678 334.366 55.9334 335.831 56.86" fill="#F5F5F5" fill-opacity="0.2"/>
<path d="M332.027 70.38C332.136 69.8204 332.39 69.2994 332.765 68.87C333.14 68.4406 333.622 68.118 334.162 67.935C334.704 67.7601 335.275 67.6946 335.842 67.7426C336.41 67.7905 336.962 67.9508 337.467 68.2141C337.936 68.4486 338.399 68.8058 338.513 69.3306C338.55 69.5738 338.522 69.8225 338.432 70.0514C338.342 70.2803 338.193 70.4813 338 70.634C337.609 70.9358 337.144 71.1285 336.655 71.1922C334.98 71.4713 333.336 71.449 332.027 70.3884" fill="#F5F5F5" fill-opacity="0.2"/>
<path d="M327.796 75.122C327.855 75 327.924 74.8833 328.002 74.7731L328.6 73.8465C329.113 73.0762 329.822 71.9625 330.955 71.0554C331.904 70.2692 333.046 69.7507 334.263 69.5538C334.632 69.4996 335.007 69.4902 335.379 69.5259C335.479 69.5339 335.579 69.5479 335.678 69.5678C335.748 69.5678 335.781 69.5873 335.781 69.5929C335.282 69.5629 334.78 69.5835 334.285 69.6543C333.092 69.882 331.976 70.4093 331.042 71.1866C329.925 72.0658 329.216 73.1571 328.683 73.9135C328.418 74.2959 328.203 74.6057 328.047 74.815C327.974 74.9254 327.889 75.0282 327.796 75.122Z" fill="#C3D7FF"/>
<path d="M334.318 59.4083C334.306 59.4663 334.29 59.5233 334.268 59.5785L334.106 60.0558C333.961 60.4717 333.744 61.0662 333.47 61.8002C332.912 63.2683 332.133 65.2863 331.215 67.494C330.297 69.7017 329.42 71.6806 328.764 73.1096C328.438 73.8214 328.167 74.3935 327.977 74.7843C327.885 74.9685 327.81 75.1192 327.754 75.2364C327.73 75.2902 327.701 75.3416 327.667 75.3899C327.681 75.333 327.7 75.2778 327.726 75.2253C327.779 75.1052 327.843 74.9462 327.927 74.7592L328.672 73.0622C329.303 71.6276 330.165 69.6431 331.084 67.4354C332.002 65.2277 332.803 63.2181 333.375 61.7584L334.053 60.0307C334.131 59.8409 334.193 59.6846 334.243 59.5646C334.262 59.5098 334.288 59.4574 334.318 59.4083Z" fill="#C3D7FF"/>
<path d="M328.94 70.3995C329.208 69.2272 329.192 68.0079 328.894 66.8429C328.596 65.6779 328.024 64.6008 327.226 63.701C326.819 63.246 326.219 62.8162 325.644 63.0227C325.069 63.2293 324.885 63.9466 324.874 64.5578C324.872 65.8335 325.248 67.0811 325.955 68.1435C326.661 69.2058 327.666 70.0355 328.842 70.5279" fill="#F5F5F5" fill-opacity="0.2"/>
<path d="M326.783 65.5235C326.881 65.6062 326.97 65.6998 327.048 65.8026C327.149 65.9104 327.242 66.0251 327.327 66.1459C327.43 66.2883 327.559 66.439 327.673 66.6288C327.806 66.8288 327.928 67.0356 328.039 67.2484C328.171 67.4898 328.289 67.7386 328.393 67.9936C328.631 68.5808 328.802 69.1932 328.901 69.819C328.991 70.4457 329.007 71.0807 328.951 71.7113C328.926 71.9862 328.884 72.2593 328.826 72.5291C328.78 72.7652 328.719 72.9982 328.644 73.2269C328.588 73.4163 328.522 73.6027 328.446 73.7851C328.394 73.925 328.333 74.0611 328.262 74.1926C328.213 74.31 328.152 74.4221 328.08 74.5275C328.05 74.5275 328.309 74.0335 328.549 73.1962C328.615 72.9694 328.668 72.7393 328.708 72.5068C328.76 72.2401 328.797 71.9708 328.82 71.7001C328.869 71.0793 328.849 70.455 328.761 69.8385C328.662 69.2248 328.498 68.6233 328.273 68.0438C328.161 67.7787 328.058 67.5275 327.935 67.3014C327.83 67.089 327.713 66.8822 327.586 66.6818C327.118 65.9394 326.744 65.5431 326.783 65.5235Z" fill="#C3D7FF"/>
<path d="M167.398 47.3523C167.398 47.3523 165.343 48.0392 167.336 52.5501C169.328 57.0609 170.751 59.3232 170.751 59.3232C170.751 59.3232 171.093 60.3651 170.244 60.4841C169.395 60.6032 167.564 60.2117 167.135 61.2489C166.688 62.3228 167.425 63.3922 168.955 64.3745C170.485 65.3568 173.762 67.6305 174.057 67.8366C174.352 68.0427 174.624 68.5235 174.057 68.7067C173.49 68.8899 169.306 69.128 169.538 71.1568C169.77 73.1855 174.475 75.2097 174.98 75.4387C175.484 75.6676 175.603 75.8966 175.547 76.1897C175.491 76.4828 174.077 76.4187 172.889 76.5469C171.7 76.6751 170.345 77.0186 170.575 78.1772C170.805 79.3359 173.528 81.8798 180.376 82.901L183.579 83.1621L185.451 80.467C189.119 74.4518 188.985 70.6782 188.272 69.7486C187.56 68.8189 186.418 69.6524 185.563 70.5042C184.707 71.356 183.83 72.4963 183.579 72.352C183.329 72.2078 183.229 71.9697 183.385 71.4224C183.541 70.8751 185.085 65.8949 183.725 64.4019C182.364 62.909 179.481 66.0231 178.98 66.3528C178.48 66.6826 178.299 66.1468 178.335 65.7873C178.37 65.4278 178.795 61.3909 179.054 59.5591C179.313 57.7273 178.989 56.4679 177.906 56.1244C176.86 55.7855 175.962 57.4754 175.326 58.0616C174.689 58.6477 174.135 57.7066 174.135 57.7066C174.135 57.7066 173.373 55.1375 171.301 50.6587C169.228 46.1799 167.354 47.3866 167.354 47.3866" fill="#F5F5F5" fill-opacity="0.2"/>
<path d="M184.035 83.8152C182.481 80.5063 179.821 74.5823 177.51 69.5085C175.199 64.4348 173.104 59.8436 171.567 56.5301L169.745 52.6053L169.251 51.539L169.125 51.2587C169.107 51.2259 169.092 51.1922 169.079 51.1576C169.079 51.1576 169.097 51.1874 169.129 51.2495L169.265 51.5252C169.382 51.7711 169.554 52.1273 169.777 52.5846C170.22 53.5037 170.852 54.8388 171.629 56.491C173.182 59.7977 175.288 64.3842 177.602 69.458C179.915 74.5317 182.564 80.4695 184.101 83.7877" fill="#C3D7FF" fill-opacity="0.5"/>
<path d="M169.732 62.2612C169.806 62.2752 169.879 62.295 169.949 62.3204C170.084 62.3617 170.28 62.4281 170.519 62.5106C170.997 62.6775 171.652 62.9215 172.369 63.2014L174.2 63.9192L174.757 64.1345C174.827 64.1578 174.894 64.1867 174.957 64.2206C174.882 64.2091 174.809 64.1898 174.74 64.1632C174.603 64.122 174.409 64.0556 174.17 63.9712C173.691 63.7918 173.041 63.5495 172.326 63.2696L170.489 62.5519L169.932 62.3383C169.862 62.3189 169.795 62.293 169.732 62.2612Z" fill="#C3D7FF" fill-opacity="0.5"/>
<path d="M174.958 64.2206C174.927 64.2206 175.633 62.7393 176.533 60.9398C177.434 59.1403 178.206 57.6891 178.222 57.6891C178.239 57.6891 177.551 59.1705 176.647 60.9723C175.744 62.7741 174.991 64.2206 174.958 64.2206Z" fill="#C3D7FF" fill-opacity="0.5"/>
<path d="M178.223 72.0585C178.267 71.9941 178.318 71.9339 178.377 71.8789C178.494 71.75 178.644 71.5915 178.82 71.4035C179.192 71.0021 179.706 70.4443 180.247 69.8126C180.788 69.1809 181.256 68.5977 181.591 68.1709L181.987 67.666C182.032 67.6022 182.084 67.5421 182.142 67.4864C182.112 67.557 182.072 67.6238 182.022 67.685C181.939 67.8118 181.814 67.9892 181.655 68.2069C181.336 68.6442 180.879 69.2379 180.333 69.8696C179.787 70.5014 179.268 71.0549 178.879 71.4458C178.683 71.6401 178.524 71.7965 178.409 71.9021C178.354 71.9606 178.292 72.0131 178.223 72.0585Z" fill="#C3D7FF" fill-opacity="0.5"/>
<path d="M172.998 71.4068C173.069 71.403 173.14 71.4065 173.21 71.4171L173.772 71.4739C174.245 71.5272 174.898 71.6046 175.62 71.6941C176.341 71.7835 176.992 71.8661 177.463 71.9349L178.021 72.0174C178.09 72.0239 178.158 72.0372 178.223 72.057C178.152 72.0608 178.081 72.0573 178.011 72.0467L177.451 71.9899C176.975 71.9366 176.322 71.8592 175.601 71.7698C174.879 71.6803 174.228 71.5977 173.757 71.5289L173.201 71.4464C173.132 71.4394 173.063 71.4261 172.998 71.4068Z" fill="#C3D7FF" fill-opacity="0.5"/>
<path d="M174.957 78.5906C175.052 78.5876 175.147 78.5962 175.241 78.6164L176.015 78.7369C176.665 78.843 177.563 78.9979 178.555 79.1786C179.547 79.3593 180.445 79.5286 181.093 79.6605L181.862 79.8183C181.957 79.8346 182.05 79.8605 182.142 79.8957C182.046 79.8987 181.95 79.8901 181.855 79.8699L181.084 79.7494C180.434 79.6433 179.533 79.4855 178.541 79.3048C177.55 79.1241 176.651 78.9549 176.003 78.8258L175.237 78.6652C175.142 78.6514 175.048 78.6264 174.957 78.5906Z" fill="#C3D7FF" fill-opacity="0.5"/>
<path d="M180.215 78.6611C180.278 78.5517 180.35 78.448 180.43 78.3513C180.587 78.1391 180.793 77.8656 181.041 77.5335C181.558 76.8413 182.267 75.884 183.02 74.8038C183.774 73.7237 184.433 72.7301 184.902 72.0128L185.46 71.1559C185.523 71.0479 185.595 70.9452 185.675 70.8489C185.626 70.9645 185.567 71.0757 185.499 71.181C185.379 71.3903 185.2 71.6918 184.974 72.0574C184.522 72.7943 183.874 73.799 183.118 74.8792C182.362 75.9593 181.644 76.9139 181.108 77.5921C180.829 77.9298 180.62 78.2033 180.464 78.3875C180.39 78.4865 180.307 78.5781 180.215 78.6611Z" fill="#C3D7FF"/>
<path d="M250.134 72.4477C244.537 69.6392 242.431 63.2292 241.776 57.2898C241.666 56.2985 241.406 55.2745 241.752 54.3419C242.097 53.4094 243.108 52.6577 244.054 52.9475C244.838 53.185 245.282 53.9911 245.802 54.6361C246.487 55.4977 247.402 56.1481 248.443 56.512C249.12 56.7473 249.928 56.8345 250.501 56.4031C251.285 55.8104 251.215 54.6208 251.066 53.6404C250.79 51.8116 250.513 49.9843 250.236 48.1585C250.088 47.1781 249.941 46.178 250.112 45.2019C250.282 44.2258 250.833 43.265 251.731 42.8684C252.628 42.4719 253.865 42.8423 254.201 43.7748C254.341 44.1626 254.319 44.5897 254.407 44.9927C254.494 45.3958 254.747 45.8185 255.152 45.8773C255.556 45.9362 255.916 45.6006 256.167 45.2694C257.041 44.1343 257.544 42.7573 258.005 41.3956C258.466 40.0338 258.9 38.6437 259.665 37.4302C260.429 36.2166 261.581 35.1773 262.977 34.894C264.373 34.6108 266.002 35.2623 266.557 36.5913C267.112 37.9204 266.509 39.4434 265.79 40.6896C264.729 42.5407 263.405 44.2287 261.858 45.7008C261.578 45.9645 261.277 46.2499 261.203 46.6312C261.085 47.3153 261.799 47.8753 262.479 47.9973C263.247 48.1346 264.032 47.945 264.812 47.9232C265.591 47.9014 266.472 48.1215 266.867 48.7947C267.416 49.7403 266.727 50.9125 265.993 51.7208C264.537 53.3387 262.811 54.6942 260.893 55.7276C260.207 56.0959 259.479 56.4379 258.968 57.0349C258.457 57.6319 258.234 58.5601 258.686 59.1985C259.138 59.8368 260.076 59.9305 260.814 59.68C261.552 59.4294 262.171 58.9217 262.854 58.547C264.132 57.8432 265.891 57.6755 266.926 58.7235C267.606 59.4076 267.811 60.4665 267.656 61.423C267.501 62.3795 267.031 63.2466 266.516 64.0615C264.715 66.9092 262.238 69.3516 259.259 70.8877C256.279 72.4237 253.417 73.1362 250.136 72.4499" fill="#F5F5F5" fill-opacity="0.2"/>
<path d="M251.376 68.7664C251.891 65.3837 252.596 62.0335 253.489 58.7321L254.179 56.1293C254.407 55.2763 254.633 54.4299 254.904 53.6163C255.427 52.0543 256.037 50.5228 256.728 49.029C257.379 47.5993 258.045 46.2661 258.681 45.0228C259.317 43.7795 259.935 42.6348 260.538 41.6152C261.484 40.0013 262.556 38.4659 263.743 37.0234C264.161 36.5125 264.5 36.1266 264.732 35.87L264.997 35.5784C265.026 35.5434 265.058 35.5111 265.092 35.4819C265.069 35.5206 265.043 35.5567 265.012 35.5894L264.758 35.8942C264.541 36.1595 264.207 36.552 263.797 37.0695C262.635 38.523 261.582 40.0622 260.647 41.6744C260.05 42.6962 259.443 43.843 258.813 45.0864C258.184 46.3297 257.522 47.6651 256.878 49.0926C256.191 50.5856 255.586 52.1155 255.064 53.6756C254.795 54.4869 254.572 55.3245 254.344 56.1797C254.116 57.0349 253.891 57.9033 253.658 58.7804C252.766 62.0751 252.057 65.4178 251.534 68.7927" fill="#C3D7FF" fill-opacity="0.5"/>
<path d="M254.642 53.117C254.583 52.9898 254.537 52.8556 254.505 52.717C254.427 52.4568 254.315 52.0718 254.201 51.6051C253.957 50.6587 253.659 49.3425 253.335 47.8886C253.012 46.4347 252.696 45.1249 252.442 44.1872C252.314 43.7183 252.208 43.3398 252.132 43.0795C252.085 42.9464 252.05 42.808 252.029 42.6666C252.095 42.7883 252.149 42.9182 252.189 43.0537C252.284 43.3075 252.406 43.6817 252.548 44.1485C252.831 45.0776 253.164 46.3874 253.489 47.8434L254.309 51.5707C254.409 52.018 254.495 52.3937 254.566 52.6976C254.605 52.8337 254.631 52.9744 254.642 53.117Z" fill="#C3D7FF" fill-opacity="0.5"/>
<path d="M267.052 49.1981C266.89 49.2541 266.722 49.2958 266.552 49.3227C266.23 49.3942 265.761 49.4942 265.188 49.6351C264.038 49.9088 262.463 50.3377 260.749 50.8809C259.035 51.4241 257.506 51.9857 256.413 52.4166C255.864 52.6208 255.426 52.8128 255.122 52.9373C254.968 53.0113 254.808 53.0715 254.642 53.117C254.78 53.0241 254.928 52.9435 255.082 52.8761C255.378 52.7331 255.809 52.533 256.351 52.3043C257.435 51.8427 258.962 51.2668 260.68 50.7175C262.146 50.2462 263.638 49.8454 265.148 49.5167C265.728 49.3901 266.201 49.3125 266.53 49.2573C266.701 49.222 266.876 49.2022 267.052 49.1981Z" fill="#C3D7FF" fill-opacity="0.5"/>
<path d="M251.376 68.1396C251.331 68.0986 251.293 68.0522 251.261 68.0015C251.181 67.8872 251.084 67.747 250.965 67.5701C250.708 67.2033 250.352 66.664 249.923 65.9932C249.062 64.6493 247.935 62.7574 246.721 60.6542C245.507 58.5509 244.398 56.6613 243.568 55.313L242.581 53.7081L242.314 53.2767C242.28 53.227 242.252 53.1734 242.232 53.117C242.277 53.1584 242.316 53.2056 242.347 53.2572L242.643 53.6887C242.9 54.0554 243.255 54.5947 243.685 55.2677C244.545 56.6116 245.675 58.5035 246.898 60.6067C248.121 62.71 249.218 64.6061 250.049 65.9651L251.036 67.5722C251.144 67.747 251.231 67.8936 251.303 68.0037C251.332 68.0462 251.357 68.0918 251.376 68.1396Z" fill="#C3D7FF" fill-opacity="0.5"/>
<path d="M267.705 60.3017C267.656 60.3388 267.602 60.3696 267.545 60.3934L267.073 60.6184L265.326 61.4614C263.851 62.1755 261.823 63.1822 259.587 64.3004C257.351 65.4185 255.31 66.4056 253.819 67.0891C253.074 67.4298 252.469 67.7006 252.039 67.8797L251.552 68.0806C251.497 68.1091 251.437 68.129 251.376 68.1396C251.426 68.1031 251.479 68.0724 251.536 68.0478L252.008 67.8142L253.757 66.9712C255.232 66.2593 257.257 65.2525 259.496 64.1322C261.734 63.0119 263.771 62.027 265.261 61.3434C266.007 61.0027 266.612 60.7319 267.042 60.5529L267.529 60.352C267.585 60.3265 267.644 60.3096 267.705 60.3017Z" fill="#C3D7FF" fill-opacity="0.5"/>
<path d="M333.561 90.77H188.608V112.039H333.561V90.77Z" fill="#0C1248"/>
<g opacity="0.5">
<path opacity="0.5" d="M333.561 90.77H188.608V112.039H333.561V90.77Z" fill="black"/>
</g>
<path d="M209.026 125.84C216.729 125.322 222.552 118.658 222.034 110.956C221.516 103.254 214.852 97.4303 207.149 97.9486C199.447 98.4669 193.624 105.131 194.142 112.833C194.66 120.535 201.324 126.359 209.026 125.84Z" fill="#0C1248"/>
<path d="M194.113 111.658C194.113 111.671 194.113 111.684 194.113 111.694C194.086 113.53 194.421 115.353 195.099 117.059C195.777 118.765 196.784 120.321 198.064 121.637C199.343 122.954 200.869 124.006 202.554 124.733C204.24 125.46 206.052 125.848 207.888 125.874C209.723 125.901 211.546 125.566 213.252 124.888C214.958 124.21 216.514 123.203 217.831 121.924C219.147 120.645 220.199 119.119 220.926 117.433C221.653 115.747 222.041 113.935 222.068 112.099C222.068 112.086 222.068 112.073 222.068 112.063L194.113 111.658Z" fill="#0C1248"/>
<path d="M198.275 111.755C198.246 113.695 198.793 115.601 199.848 117.231C200.902 118.86 202.417 120.141 204.199 120.91C205.981 121.679 207.951 121.902 209.86 121.551C211.769 121.2 213.532 120.291 214.924 118.939C216.316 117.586 217.276 115.851 217.682 113.953C218.088 112.055 217.923 110.079 217.206 108.275C216.489 106.471 215.253 104.921 213.654 103.819C212.056 102.718 210.167 102.115 208.226 102.088C205.625 102.051 203.115 103.048 201.249 104.861C199.383 106.674 198.313 109.153 198.275 111.755Z" fill="#FAFAFA"/>
<path d="M208.226 102.085C205.625 102.048 203.115 103.045 201.248 104.858C199.382 106.67 198.312 109.15 198.275 111.752L217.898 112.037C217.935 109.434 216.937 106.924 215.123 105.058C213.309 103.192 210.828 102.122 208.226 102.085Z" fill="#F3F3F3"/>
<path d="M202.11 111.809C202.093 112.992 202.426 114.153 203.069 115.145C203.711 116.138 204.633 116.918 205.719 117.386C206.805 117.855 208.005 117.991 209.168 117.777C210.331 117.563 211.404 117.009 212.252 116.185C213.101 115.361 213.685 114.304 213.932 113.148C214.18 111.991 214.079 110.788 213.642 109.689C213.205 108.59 212.452 107.646 211.478 106.975C210.504 106.304 209.354 105.937 208.171 105.921C207.387 105.909 206.607 106.052 205.878 106.342C205.149 106.632 204.484 107.063 203.921 107.609C203.358 108.156 202.908 108.809 202.598 109.529C202.287 110.25 202.121 111.025 202.11 111.809Z" fill="#0C1248"/>
<path d="M315.784 125.836C323.49 125.389 329.375 118.779 328.928 111.072C328.481 103.366 321.871 97.4805 314.165 97.9275C306.458 98.3746 300.573 104.984 301.02 112.691C301.467 120.398 308.077 126.283 315.784 125.836Z" fill="#0C1248"/>
<path d="M300.995 111.658C300.995 111.671 300.995 111.684 300.995 111.694C300.968 113.53 301.303 115.353 301.981 117.059C302.659 118.765 303.666 120.321 304.946 121.637C306.225 122.954 307.751 124.006 309.436 124.733C311.122 125.46 312.934 125.848 314.77 125.874C316.605 125.901 318.428 125.566 320.134 124.888C321.84 124.21 323.396 123.203 324.713 121.924C326.029 120.645 327.081 119.119 327.808 117.433C328.535 115.747 328.923 113.935 328.95 112.099C328.95 112.086 328.95 112.073 328.95 112.063L300.995 111.658Z" fill="#0C1248"/>
<path d="M305.157 111.755C305.128 113.695 305.675 115.601 306.73 117.231C307.784 118.86 309.298 120.141 311.081 120.91C312.863 121.679 314.833 121.902 316.742 121.551C318.651 121.2 320.414 120.291 321.806 118.939C323.198 117.586 324.158 115.851 324.564 113.953C324.97 112.055 324.804 110.079 324.088 108.275C323.371 106.471 322.135 104.921 320.536 103.819C318.938 102.718 317.049 102.115 315.108 102.088C312.507 102.051 309.997 103.048 308.131 104.861C306.265 106.674 305.195 109.153 305.157 111.755Z" fill="#FAFAFA"/>
<path d="M315.108 102.085C312.507 102.048 309.997 103.045 308.13 104.858C306.264 106.67 305.194 109.15 305.157 111.752L324.78 112.037C324.817 109.434 323.819 106.924 322.005 105.058C320.191 103.192 317.71 102.122 315.108 102.085Z" fill="#F3F3F3"/>
<path d="M308.984 111.809C308.967 112.992 309.3 114.153 309.943 115.145C310.585 116.138 311.507 116.918 312.593 117.386C313.679 117.855 314.879 117.991 316.042 117.777C317.205 117.563 318.278 117.009 319.126 116.185C319.975 115.361 320.559 114.304 320.807 113.148C321.054 111.991 320.953 110.788 320.516 109.689C320.079 108.59 319.326 107.646 318.352 106.975C317.378 106.304 316.228 105.937 315.045 105.921C314.261 105.909 313.481 106.052 312.752 106.342C312.023 106.632 311.358 107.063 310.795 107.609C310.232 108.156 309.782 108.809 309.472 109.529C309.161 110.25 308.995 111.025 308.984 111.809Z" fill="#0C1248"/>
<path d="M226.407 78.8043C226.407 78.8043 205.825 80.3222 198.191 82.0334C192.814 83.2379 182.447 85.3201 182.573 91.8412L183.396 96.5178C183.396 96.5178 179.553 98.2734 179.553 102.757C179.553 107.24 178.615 114.189 187.592 114.469C189.07 114.513 191.879 114.469 191.879 114.469C191.879 114.469 190.157 95.3499 207.719 94.7908C225.587 94.2213 224.401 114.294 224.401 114.294H298.973C298.973 114.294 295.911 94.7386 315.145 94.6994C334.379 94.6602 331.453 114.422 331.453 114.422C331.453 114.422 338.528 115.033 341.819 109.087C345.111 103.141 344.257 98.8979 344.257 98.8979L344.147 95.1383C344.126 94.5213 343.872 93.9353 343.435 93.4988C342.999 93.0622 342.413 92.8078 341.796 92.787C341.796 92.787 343.081 83.3241 341.109 81.686C339.136 80.0479 328.328 70.1644 328.328 70.1644L328.85 69.843C329.044 69.7206 329.199 69.5457 329.298 69.3387C329.396 69.1318 329.434 68.9012 329.406 68.6736C329.379 68.4461 329.288 68.231 329.143 68.0532C328.998 67.8755 328.806 67.7424 328.589 67.6693C324.485 66.2585 316.37 63.4656 314.463 62.7994C314.177 62.6979 313.879 62.6346 313.577 62.6113C312.438 62.5251 309.214 62.3213 303.296 62.2586C296.088 62.1802 267.47 62.2586 267.47 62.2586C267.47 62.2586 257.62 63.0685 252.134 65.4826C246.381 68.022 226.407 78.8043 226.407 78.8043Z" fill="#162183"/>
<g opacity="0.4">
<path opacity="0.4" d="M184.773 102.234C184.025 102.083 182.881 102.07 182.312 102.574C181.888 102.95 181.776 103.559 181.713 104.12C181.593 104.89 181.611 105.675 181.766 106.438C181.844 106.819 182.001 107.18 182.226 107.498C182.451 107.816 182.739 108.084 183.072 108.285C183.756 108.656 184.692 108.596 185.222 108.024C185.708 107.501 185.763 106.717 185.745 106.02C185.726 105.011 185.807 104.157 185.622 103.167C185.581 102.957 185.491 102.759 185.36 102.589C185.295 102.488 185.208 102.403 185.104 102.341C185.001 102.279 184.885 102.241 184.765 102.232" fill="black"/>
</g>
<path d="M183.401 96.5178C185.585 96.5178 187.704 96.3976 189.886 96.2565C190.123 96.2669 190.357 96.196 190.549 96.0553C190.637 95.9462 190.702 95.8207 190.741 95.6862C190.78 95.5517 190.792 95.4107 190.777 95.2716C190.777 94.1011 190.729 92.7687 189.841 92.0058C189.298 91.5407 188.553 91.3944 187.84 91.3291C186.069 91.1378 184.277 91.3157 182.578 91.8516L183.401 96.5178Z" fill="#D03737" fill-opacity="0.15"/>
<path d="M228.777 113.696C228.777 113.696 228.777 113.633 228.761 113.508C228.746 113.382 228.74 113.197 228.725 112.959C228.698 112.473 228.659 111.765 228.61 110.851C228.56 109.936 228.497 108.815 228.367 107.519C228.232 106.052 227.974 104.599 227.596 103.175C227.119 101.454 226.412 99.8066 225.493 98.2761C224.452 96.5087 223.069 94.9667 221.425 93.7406C217.901 91.2325 213.138 89.8217 208.156 89.7537C203.173 89.6858 198.408 91.2612 194.97 93.9025C193.322 95.1218 191.878 96.5955 190.693 98.2682C189.658 99.7206 188.817 101.301 188.19 102.971C187.673 104.351 187.318 105.786 187.132 107.248C186.986 108.35 186.943 109.463 187.004 110.574C187.047 111.275 187.134 111.973 187.265 112.664C187.307 112.896 187.341 113.077 187.362 113.202C187.383 113.327 187.39 113.387 187.39 113.387C187.39 113.387 187.375 113.327 187.349 113.207L187.236 112.685C187.094 111.995 187 111.297 186.954 110.595C186.883 109.481 186.918 108.363 187.059 107.256C187.239 105.786 187.589 104.343 188.104 102.955C188.728 101.273 189.57 99.6784 190.607 98.2134C191.794 96.5271 193.244 95.0418 194.902 93.8137C198.356 91.1593 203.131 89.5682 208.153 89.6335C213.174 89.6989 217.945 91.1227 221.498 93.6544C223.152 94.8927 224.542 96.4489 225.587 98.2316C226.505 99.774 227.208 101.434 227.677 103.167C228.053 104.597 228.305 106.057 228.432 107.53C228.555 108.836 228.61 109.949 228.651 110.864C228.693 111.778 228.722 112.489 228.743 112.975C228.743 113.212 228.759 113.395 228.764 113.523C228.769 113.651 228.777 113.696 228.777 113.696Z" fill="white"/>
<path d="M229.561 114.02V113.863L229.545 113.4C229.532 112.988 229.514 112.384 229.487 111.595C229.443 110.009 229.378 107.692 229.294 104.742C229.211 101.793 229.114 98.2107 229.002 94.1089C228.973 93.0822 228.947 92.0188 228.915 90.9346C228.897 90.3805 228.921 89.8259 228.988 89.2756L229.106 88.4343L229.278 87.5905C229.549 86.4376 229.939 85.316 230.441 84.2437C230.958 83.1197 231.598 82.056 232.348 81.072L245.262 72.9363L248.75 70.7417C249.926 69.9606 251.16 69.2714 252.442 68.6804C253.753 68.0631 255.098 67.5214 256.471 67.0579C257.155 66.8176 257.858 66.6216 258.561 66.4126C259.263 66.2036 259.979 66.0312 260.706 65.8901C263.444 65.3042 266.228 64.9546 269.027 64.8451C271.712 64.7164 274.402 64.7251 277.087 64.8712H277.162L277.144 64.9469L273.675 80.4685C273.034 81.521 272.508 82.6396 272.107 83.8048C271.712 84.9099 271.535 86.081 271.584 87.2534C271.673 88.4004 271.705 89.5238 271.733 90.6132C271.762 91.7027 271.775 92.7582 271.796 93.785C271.856 97.8868 271.872 101.463 271.882 104.41C271.893 107.357 271.882 109.675 271.882 111.258C271.882 112.042 271.882 112.651 271.882 113.063C271.882 113.265 271.882 113.419 271.882 113.526C271.882 113.633 271.882 113.683 271.882 113.683C271.882 113.683 271.882 113.628 271.882 113.526C271.882 113.424 271.882 113.265 271.882 113.063C271.882 112.651 271.882 112.047 271.882 111.258C271.882 109.675 271.859 107.357 271.841 104.413C271.822 101.469 271.796 97.8815 271.726 93.785C271.705 92.7608 271.682 91.7045 271.658 90.6159C271.626 89.5264 271.595 88.4082 271.504 87.2613C271.45 86.0741 271.628 84.8879 272.026 83.7682C272.424 82.5936 272.95 81.4661 273.594 80.4058V80.4241C274.657 75.6456 275.82 70.4308 277.05 64.8999L277.11 64.9783C274.432 64.834 271.748 64.827 269.069 64.9574C266.277 65.0655 263.5 65.4151 260.768 66.0024C260.045 66.1461 259.339 66.3473 258.631 66.525C257.923 66.7026 257.231 66.9299 256.541 67.1677C255.168 67.6318 253.823 68.1744 252.512 68.7927C251.237 69.3798 250.009 70.0646 248.839 70.841L245.349 73.0356L232.435 81.153V81.1399C231.686 82.1174 231.048 83.175 230.533 84.2933C230.031 85.3574 229.642 86.4713 229.373 87.6166C228.785 89.8556 229.08 92.058 229.085 94.1089L229.346 104.742C229.417 107.689 229.472 110.009 229.508 111.593C229.527 112.376 229.537 112.988 229.548 113.4C229.548 113.601 229.548 113.755 229.548 113.863C229.561 113.967 229.561 114.02 229.561 114.02Z" fill="#0C1248"/>
<path d="M276.993 65.3023H277.115L277.473 65.2892L278.861 65.2553L284.005 65.156L301.347 64.8581H301.381L301.402 64.8843L303.832 67.86C306.293 70.8828 308.639 73.7567 310.771 76.3693L311.555 77.336C311.809 77.66 312.027 78.0103 312.205 78.381C312.529 79.0685 312.705 79.8162 312.722 80.5758C312.738 81.3355 312.595 82.0901 312.302 82.7911L311.518 84.6199L309.12 90.1691L308.462 91.674L308.287 92.0659C308.247 92.1521 308.224 92.1965 308.224 92.1965C308.224 92.1965 308.24 92.1495 308.273 92.0607C308.307 91.9718 308.368 91.8334 308.435 91.6636C308.584 91.3135 308.796 90.8014 309.07 90.1482L311.422 84.5834C311.871 83.4025 312.663 82.1589 312.608 80.6435C312.596 79.8734 312.418 79.1149 312.085 78.4202C311.91 78.0594 311.696 77.7187 311.448 77.4039L310.664 76.4372L303.717 67.9358L301.29 64.96L301.342 64.9862L283.997 65.2474L278.853 65.3075H277.466H277.11L276.993 65.3023Z" fill="#0C1248"/>
<path d="M268.227 88.3664C268.227 88.3664 268.3 88.3664 268.434 88.3351C268.63 88.3003 268.816 88.2256 268.982 88.1156C269.246 87.9438 269.443 87.6878 269.541 87.3893C269.601 87.2039 269.626 87.009 269.615 86.8145C269.608 86.5977 269.553 86.385 269.453 86.1927C269.336 85.9738 269.163 85.7903 268.951 85.6612C268.739 85.532 268.496 85.4621 268.248 85.4586H266.487H262.451C262.11 85.4591 261.782 85.5878 261.531 85.8191C261.287 86.0417 261.131 86.3451 261.092 86.6734C261.053 86.9907 261.111 87.3125 261.259 87.5957C261.411 87.8616 261.646 88.0701 261.928 88.1888C262.208 88.2846 262.504 88.321 262.798 88.2959H263.653H265.189L267.412 88.3168L268.016 88.3298C268.087 88.3284 268.157 88.3336 268.227 88.3455C268.157 88.3538 268.086 88.3581 268.016 88.3586H267.412L265.189 88.3795H263.653H262.798C262.649 88.3795 262.506 88.3795 262.346 88.3795C262.186 88.3697 262.029 88.3335 261.881 88.2724C261.571 88.1451 261.313 87.918 261.147 87.627C260.981 87.3214 260.916 86.9712 260.962 86.6264C261.003 86.2599 261.177 85.9213 261.452 85.6751C261.726 85.4289 262.082 85.2923 262.451 85.2914H266.487H268.251C268.517 85.297 268.778 85.3745 269.004 85.5156C269.23 85.6568 269.414 85.8564 269.536 86.0934C269.641 86.2992 269.697 86.5262 269.701 86.757C269.709 86.9609 269.68 87.1647 269.615 87.3579C269.504 87.6683 269.291 87.9319 269.011 88.1052C268.838 88.2151 268.643 88.2839 268.439 88.3063C268.371 88.3347 268.3 88.3549 268.227 88.3664Z" fill="#0C1248"/>
<path d="M306.894 88.3664C306.894 88.3664 306.967 88.3664 307.1 88.3351C307.296 88.3003 307.483 88.2256 307.649 88.1156C307.912 87.9438 308.109 87.6878 308.208 87.3893C308.268 87.2039 308.293 87.009 308.281 86.8145C308.275 86.5977 308.22 86.385 308.119 86.1927C308.003 85.9738 307.829 85.7903 307.617 85.6612C307.406 85.532 307.163 85.4621 306.915 85.4586H305.154H301.117C300.777 85.4591 300.448 85.5878 300.198 85.8191C299.953 86.0417 299.797 86.3451 299.759 86.6734C299.719 86.9907 299.778 87.3125 299.926 87.5957C300.078 87.8616 300.313 88.0701 300.595 88.1888C300.874 88.2846 301.171 88.321 301.465 88.2959H302.319H303.855L306.079 88.3168L306.682 88.3298C306.753 88.3284 306.824 88.3336 306.894 88.3455C306.824 88.3538 306.753 88.3581 306.682 88.3586H306.079L303.855 88.3795H302.319H301.465C301.316 88.3795 301.172 88.3795 301.013 88.3795C300.853 88.3697 300.696 88.3335 300.548 88.2724C300.238 88.1451 299.98 87.918 299.814 87.627C299.648 87.3214 299.583 86.9712 299.628 86.6264C299.669 86.2599 299.844 85.9213 300.118 85.6751C300.393 85.4289 300.749 85.2923 301.117 85.2914H305.154H306.917C307.184 85.297 307.444 85.3745 307.67 85.5156C307.897 85.6568 308.081 85.8564 308.203 86.0934C308.307 86.2992 308.364 86.5262 308.367 86.757C308.376 86.9609 308.347 87.1647 308.281 87.3579C308.171 87.6683 307.958 87.9319 307.678 88.1052C307.505 88.2151 307.309 88.2839 307.106 88.3063C307.038 88.3347 306.967 88.3549 306.894 88.3664Z" fill="#0C1248"/>
<path d="M340.777 82.0596H333.044C332.524 82.0595 332.014 82.2012 331.569 82.4697C331.123 82.7381 330.76 83.1229 330.517 83.5827C330.318 83.9632 330.207 84.3836 330.192 84.8129C330.178 85.2421 330.26 85.6691 330.434 86.0621L333.464 92.9516L341.208 92.8758C341.208 92.8758 342.857 84.1418 340.777 82.0596Z" fill="#D03737" fill-opacity="0.15"/>
<path d="M233.375 81.0851L273.278 80.3483L299.247 79.8728L307.811 74.9271C307.974 74.8323 308.115 74.704 308.224 74.5507C308.334 74.3974 308.409 74.2225 308.446 74.0378C308.483 73.853 308.48 73.6625 308.438 73.4789C308.395 73.2954 308.314 73.1229 308.2 72.9729L302.868 65.9685C302.594 65.6079 302.241 65.3148 301.836 65.1119C301.431 64.909 300.985 64.8017 300.532 64.7981L271.485 64.5629C271.485 64.5629 260.549 63.9254 251.93 68.7431C242.867 73.8299 233.375 81.0851 233.375 81.0851Z" fill="#0C1248"/>
<path d="M251.661 65.2866C251.661 65.2866 253.662 66.1984 252.361 67.0423C251.06 67.8862 230.844 80.6279 230.844 80.6279L226.196 78.5247C234.428 73.9448 242.741 69.4903 251.661 65.2866Z" fill="#C3D7FF" fill-opacity="0.83"/>
<path d="M231.497 80.9518L231.371 80.9832L231.003 81.0642L229.584 81.3568C228.351 81.6024 226.564 81.9472 224.359 82.3287C219.917 83.0916 213.773 83.9798 206.935 84.5703C205.224 84.7192 203.539 84.8315 201.94 84.9465C200.341 85.0615 198.768 85.1529 197.29 85.2861C194.33 85.5474 191.68 85.9759 189.528 86.616C187.816 87.0918 186.17 87.7743 184.624 88.6486C184.067 88.9412 183.67 89.2286 183.391 89.401L183.072 89.6022L182.959 89.6675C182.993 89.6405 183.028 89.6152 183.064 89.5917L183.375 89.3775C183.652 89.1972 184.044 88.902 184.598 88.5937C186.134 87.6956 187.777 86.9934 189.488 86.5036C191.646 85.8479 194.303 85.4063 197.266 85.1424C198.747 85.0014 200.305 84.9021 201.919 84.795C203.534 84.6879 205.203 84.5625 206.912 84.4135C213.746 83.8231 219.899 82.9505 224.333 82.2111C226.551 81.8427 228.338 81.5135 229.574 81.2836L230.998 81.0224L231.369 80.9544L231.497 80.9518Z" fill="#0C1248"/>
<path d="M343.868 98.8195C343.868 98.8587 341.208 98.8874 337.929 98.8874C334.65 98.8874 331.988 98.8587 331.988 98.8195C331.988 98.7803 334.648 98.7516 337.929 98.7516C341.211 98.7516 343.868 98.7829 343.868 98.8195Z" fill="#0C1248"/>
<path d="M295.213 105.607C295.213 105.646 280.201 105.675 261.685 105.675C243.17 105.675 228.155 105.646 228.155 105.607C228.155 105.568 243.165 105.539 261.685 105.539C280.206 105.539 295.213 105.57 295.213 105.607Z" fill="#0C1248"/>
<path d="M190.11 99.0442C190.11 99.0834 187.986 99.1121 185.368 99.1121C182.751 99.1121 180.626 99.0834 180.626 99.0442C180.626 99.005 182.751 98.9762 185.368 98.9762C187.986 98.9762 190.11 99.0076 190.11 99.0442Z" fill="#0C1248"/>
<path d="M328.127 69.8926C328.127 69.8926 326.345 71.8861 327.045 73.3491C327.745 74.8122 334.985 79.9381 334.985 79.9381L340.239 80.9231L328.127 69.8926Z" fill="#C3D7FF" fill-opacity="0.83"/>
<path d="M278.174 66.3212L276.993 79.0812L298.134 78.4777L306.654 73.5242L301.138 66.3212H278.174Z" fill="#C3D7FF" fill-opacity="0.83"/>
<path d="M238.381 79.7344C238.381 79.7344 251.136 70.5223 256.168 68.6909C261.024 66.9247 263.556 66.4806 268.118 66.3395C272.478 66.2141 275.135 66.3395 275.135 66.3395L271.765 79.3111L238.381 79.7344Z" fill="#C3D7FF" fill-opacity="0.83"/>
<path d="M236.516 79.7657C236.516 79.3691 236.621 78.9796 236.821 78.6371C237.022 78.2947 237.309 78.0116 237.655 77.8167L240.586 76.1708C241.421 75.7007 242.363 75.4541 243.321 75.4549C243.911 75.4557 244.498 75.5491 245.059 75.7318C245.67 75.9431 246.201 76.3357 246.583 76.8571C246.965 77.3786 247.179 78.0041 247.196 78.6501C247.212 79.0841 247.141 79.5169 246.986 79.9226C246.832 80.3284 246.597 80.6987 246.295 81.0115C245.994 81.3242 245.633 81.5729 245.233 81.7427C244.833 81.9125 244.404 81.9998 243.969 81.9995H238.744C238.153 81.9981 237.586 81.7621 237.168 81.3434C236.75 80.9246 236.516 80.3572 236.516 79.7657Z" fill="#0C1248"/>
<path d="M236.515 79.7657C236.515 79.7657 236.515 79.865 236.549 80.0479C236.589 80.3169 236.677 80.5764 236.811 80.8134C237.022 81.1866 237.333 81.4934 237.709 81.699C237.944 81.8219 238.199 81.9015 238.462 81.9342C238.762 81.9563 239.063 81.9625 239.363 81.9525L243.833 81.9368C244.257 81.9481 244.679 81.8789 245.077 81.733C245.497 81.5759 245.879 81.3318 246.198 81.0166C246.516 80.7014 246.765 80.3223 246.927 79.9042C247.091 79.4631 247.158 78.9915 247.123 78.5221C247.088 78.0594 246.951 77.6101 246.723 77.2061C246.495 76.802 246.181 76.453 245.803 76.1838C245.438 75.9316 245.027 75.754 244.594 75.6613C243.402 75.3795 242.151 75.4999 241.035 76.0035C240.698 76.1551 240.39 76.3458 240.084 76.5104L239.212 76.9963L237.709 77.8271C237.331 78.0306 237.02 78.3379 236.811 78.7128C236.679 78.9505 236.59 79.2097 236.549 79.4783C236.523 79.6612 236.526 79.7605 236.518 79.7605C236.508 79.6649 236.508 79.5686 236.518 79.4731C236.547 79.1989 236.629 78.9328 236.758 78.6893C236.964 78.2991 237.279 77.9776 237.665 77.7644L239.157 76.9153L240.024 76.4216C240.327 76.2543 240.636 76.061 240.98 75.899C242.117 75.3757 243.396 75.2469 244.615 75.5333C245.064 75.6226 245.491 75.8002 245.871 76.0558C246.266 76.3357 246.595 76.6992 246.833 77.1205C247.072 77.5419 247.214 78.0106 247.251 78.4934C247.289 78.9832 247.219 79.4755 247.047 79.9355C246.878 80.3723 246.619 80.7682 246.285 81.0971C245.952 81.4259 245.553 81.6801 245.114 81.8427C244.701 81.9914 244.264 82.0614 243.826 82.0491L239.355 82.0361C239.051 82.0426 238.747 82.033 238.444 82.0073C238.168 81.9691 237.903 81.8806 237.66 81.7461C237.275 81.5307 236.959 81.2098 236.751 80.8212C236.623 80.5771 236.542 80.3113 236.513 80.0374C236.507 79.9469 236.507 79.8561 236.515 79.7657Z" fill="#0C1248"/>
<path d="M334.781 113.813C334.781 113.813 334.781 113.753 334.781 113.633C334.781 113.513 334.802 113.333 334.818 113.11C334.833 112.888 334.859 112.588 334.875 112.248C334.891 111.909 334.901 111.512 334.914 111.07C334.927 110.628 334.914 110.132 334.914 109.594C334.914 109.056 334.875 108.468 334.802 107.841C334.683 106.42 334.43 105.013 334.047 103.64C333.821 102.839 333.543 102.053 333.213 101.288C332.864 100.462 332.443 99.6685 331.954 98.9161C330.865 97.2576 329.48 95.814 327.868 94.6576C326.094 93.3692 324.113 92.3921 322.011 91.768C319.832 91.1018 317.459 90.8589 315.045 90.8406C312.691 90.819 310.347 91.16 308.096 91.8516C307.03 92.1884 305.995 92.6158 305.002 93.1292C304.056 93.6321 303.157 94.2198 302.317 94.8849C300.754 96.1085 299.363 97.5354 298.178 99.1278C297.658 99.8585 297.198 100.631 296.804 101.437C296.445 102.185 296.127 102.951 295.853 103.734C295.018 106.092 294.51 108.553 294.343 111.049C294.301 111.935 294.306 112.617 294.33 113.092C294.343 113.322 294.353 113.497 294.359 113.615C294.364 113.732 294.359 113.795 294.359 113.795C294.359 113.795 294.359 113.735 294.338 113.615C294.317 113.495 294.312 113.314 294.293 113.092C294.259 112.411 294.259 111.728 294.293 111.047C294.438 108.537 294.933 106.059 295.764 103.687C296.039 102.901 296.354 102.13 296.71 101.377C297.107 100.565 297.569 99.7857 298.089 99.0468C299.278 97.4442 300.674 96.0069 302.241 94.7725C303.086 94.1022 303.991 93.5094 304.942 93.0012C305.942 92.4836 306.984 92.0527 308.057 91.7132C310.32 91.0134 312.679 90.6688 315.048 90.6916C317.472 90.7099 319.855 90.9529 322.052 91.627C324.168 92.2569 326.162 93.2429 327.946 94.5426C328.773 95.151 329.546 95.8293 330.256 96.57C330.931 97.265 331.532 98.0275 332.051 98.8456C332.541 99.6048 332.963 100.406 333.313 101.239C333.641 102.003 333.918 102.789 334.141 103.59C334.522 104.97 334.77 106.384 334.88 107.812C334.951 108.439 334.951 109.027 334.98 109.568C335.008 110.109 334.98 110.613 334.98 111.047C334.98 111.48 334.94 111.885 334.925 112.227C334.909 112.57 334.875 112.854 334.854 113.09C334.833 113.325 334.818 113.495 334.807 113.612C334.797 113.73 334.781 113.813 334.781 113.813Z" fill="white"/>
<path d="M271.206 81.0851H271.146H270.968L270.286 81.1007L267.781 81.1452C265.664 81.1843 262.743 81.2627 259.514 81.3516C256.285 81.4404 253.362 81.5005 251.245 81.5162C250.187 81.5162 249.33 81.5162 248.737 81.5162H248.055H247.88C247.86 81.5201 247.838 81.5201 247.818 81.5162C247.838 81.5128 247.86 81.5128 247.88 81.5162H248.055L248.737 81.5005L251.243 81.4561C253.359 81.4169 256.282 81.3385 259.512 81.2523C262.741 81.1661 265.664 81.1007 267.781 81.0851C268.826 81.0851 269.696 81.0851 270.286 81.0851H270.968H271.146H271.206Z" fill="white"/>
<path d="M267.741 85.0118C266.981 85.0807 266.216 85.1034 265.453 85.0798C264.689 85.1034 263.925 85.0807 263.164 85.0118C263.925 84.9445 264.689 84.9219 265.453 84.9439C266.216 84.9219 266.98 84.9445 267.741 85.0118Z" fill="white"/>
<path d="M268.583 71.0317C268.596 71.0657 265.756 72.2492 262.237 73.6731C258.717 75.097 255.854 76.2256 255.838 76.189C255.823 76.1525 258.665 74.9716 262.184 73.5477C265.704 72.1238 268.567 70.9978 268.583 71.0317Z" fill="white"/>
<path d="M262.825 71.9279C262.84 71.9644 260.134 73.1558 256.782 74.5901C253.43 76.0244 250.702 77.1609 250.686 77.127C250.671 77.093 253.377 75.9016 256.729 74.4647C260.081 73.0278 262.809 71.8887 262.825 71.9279Z" fill="white"/>
<path d="M299.338 70.5379C299.354 70.5719 296.512 71.7554 292.992 73.1793C289.473 74.6032 286.61 75.7292 286.594 75.6952C286.578 75.6613 289.421 74.4778 292.943 73.0539C296.465 71.63 299.317 70.5014 299.338 70.5379Z" fill="white"/>
<path d="M293.57 71.4288C293.585 71.4654 290.879 72.6568 287.529 74.0911C284.18 75.5254 281.447 76.6619 281.431 76.6279C281.416 76.594 284.122 75.4026 287.474 73.9657C290.826 72.5288 293.57 71.4053 293.57 71.4288Z" fill="white"/>
<path d="M299.895 81.072C299.895 81.1086 294.244 81.1739 287.273 81.2157C280.303 81.2575 274.652 81.2601 274.652 81.2157C274.652 81.1713 280.3 81.1138 287.273 81.0746C294.246 81.0354 299.895 81.0433 299.895 81.072Z" fill="white"/>
<path d="M306.152 84.795C306.152 84.8315 304.569 84.876 302.612 84.8943C300.655 84.9125 299.072 84.8943 299.072 84.8603C299.072 84.8263 300.655 84.7767 302.612 84.7584C304.569 84.7401 306.152 84.7558 306.152 84.795Z" fill="white"/>
<path d="M197.948 82.8616C197.898 82.8785 197.846 82.889 197.794 82.893L197.352 82.9505C197.159 82.9714 196.924 83.0001 196.652 83.0471C196.38 83.0942 196.07 83.1281 195.73 83.1961C195.048 83.3162 194.241 83.4939 193.358 83.7186C192.401 83.9825 191.458 84.2947 190.533 84.6539C189.551 85.0432 188.639 85.469 187.824 85.8897C187.009 86.3103 186.304 86.7335 185.734 87.1124C185.439 87.2926 185.183 87.4755 184.95 87.6349C184.718 87.7943 184.527 87.9249 184.37 88.0399L184.007 88.3011C183.966 88.3332 183.921 88.3612 183.874 88.3847C183.909 88.346 183.947 88.311 183.989 88.2802L184.339 88.0007C184.49 87.8805 184.679 87.7394 184.906 87.5748C185.133 87.4102 185.381 87.2273 185.69 87.0523C186.264 86.663 186.975 86.2371 187.78 85.8008C189.541 84.8591 191.407 84.1269 193.339 83.6193C194.228 83.3894 195.04 83.2196 195.727 83.1125C196.07 83.0498 196.38 83.0184 196.655 82.9818C196.929 82.9452 197.177 82.9217 197.358 82.9087L197.804 82.8747C197.852 82.867 197.9 82.8626 197.948 82.8616Z" fill="white"/>
<path d="M244.604 76.6985C244.604 76.6985 244.528 76.5966 244.343 76.4555C244.092 76.2637 243.794 76.1435 243.481 76.1081C243.01 76.0688 242.537 76.1194 242.086 76.257C240.495 76.6576 239.017 77.4183 237.767 78.4803C237.145 79.0028 236.816 79.3869 236.798 79.3686C236.861 79.2688 236.934 79.176 237.017 79.0917C237.233 78.8517 237.462 78.6232 237.702 78.4071C238.5 77.6963 239.406 77.1177 240.387 76.6933C240.926 76.4575 241.485 76.2713 242.057 76.1368C242.523 76.0012 243.011 75.9586 243.494 76.0114C243.822 76.0563 244.129 76.1972 244.377 76.4163C244.443 76.4754 244.501 76.5421 244.552 76.6149C244.594 76.6672 244.609 76.6959 244.604 76.6985Z" fill="white"/>
<path d="M328.72 69.7986C328.356 69.8866 327.981 69.9253 327.607 69.9135C327.167 69.9004 326.73 69.8462 326.3 69.7516C325.734 69.6183 325.177 69.4436 324.636 69.229C324.033 69.0017 323.39 68.7065 322.695 68.4165L321.611 67.9802C321.237 67.8313 320.843 67.7033 320.446 67.557C318.702 66.9664 316.924 66.4822 315.121 66.107C311.844 65.4248 308.517 65.0124 305.172 64.8738C304.53 64.8399 303.95 64.8399 303.438 64.8268H302.131L301.306 64.8451H301.016C301.04 64.8405 301.065 64.8405 301.089 64.8451L301.303 64.8294L302.131 64.785L303.438 64.7615C303.96 64.7615 304.53 64.7615 305.172 64.7928C308.526 64.9023 311.864 65.3044 315.147 65.9946C316.954 66.3657 318.735 66.8509 320.48 67.4472C320.877 67.5935 321.263 67.7242 321.647 67.8757L322.732 68.3225C323.427 68.6229 324.067 68.9155 324.665 69.148C325.199 69.3633 325.748 69.5379 326.308 69.6706C326.732 69.772 327.164 69.8333 327.599 69.8535C327.874 69.8629 328.149 69.8533 328.422 69.8247L328.634 69.7986H328.72Z" fill="#0C1248"/>
<path d="M203.019 70.1591C201.974 64.4427 201.271 63.5649 200.681 61.5976C200.09 59.6303 199.152 58.3527 197.985 57.9007C197.201 57.5976 193.264 56.179 191.895 56.6493C190.555 57.1255 189.28 57.7661 188.099 58.5565C187.182 59.1647 186.487 60.0539 186.118 61.0907L184.028 66.9874L187.707 70.645L189.551 66.7261L191.552 71.4288L191.257 76.1707L202.734 79.2588C203.769 77.5867 203.612 73.4013 203.019 70.1591Z" fill="#C3D7FF"/>
<g opacity="0.2">
<path opacity="0.2" d="M200.038 63.9228C199.531 66.8986 199.45 67.3192 198.943 70.2845C198.768 71.306 198.259 72.8971 197.533 73.6391C196.994 74.1851 196.467 74.7103 195.717 74.8879C195.022 75.0525 193.964 75.0708 193.311 74.7834C192.657 74.496 192.098 73.2159 192.367 72.5601C193.342 72.7691 193.642 73.0826 194.481 72.5601C195.213 72.095 196.252 71.0657 196.65 70.295C198.324 67.0553 198.787 66.9404 200.046 63.9228" fill="black"/>
</g>
<path d="M191.722 69.6888C191.537 69.4387 191.367 69.1769 191.215 68.905L190.035 66.9639L188.822 65.054C188.642 64.7971 188.478 64.5282 188.334 64.2494C188.397 64.3065 188.452 64.3715 188.498 64.4427C188.598 64.5707 188.736 64.7614 188.901 64.9992C189.235 65.4747 189.684 66.1409 190.15 66.8907C190.615 67.6405 191.02 68.3355 191.299 68.8449C191.44 69.1062 191.56 69.3048 191.623 69.4511C191.668 69.5247 191.702 69.6049 191.722 69.6888Z" fill="#263238"/>
<path d="M199.733 75.0264C199.649 75.0696 199.562 75.1038 199.471 75.1283C199.364 75.1641 199.255 75.1937 199.145 75.2171C199 75.2562 198.854 75.2868 198.706 75.3085C198.323 75.3767 197.935 75.4125 197.546 75.4157C197.068 75.4165 196.592 75.3754 196.122 75.2929C195.652 75.2044 195.191 75.0742 194.745 74.9036C194.384 74.7625 194.034 74.593 193.7 74.3967C193.554 74.3158 193.439 74.2269 193.324 74.1564C193.229 74.0945 193.137 74.0274 193.049 73.9552C192.97 73.9005 192.897 73.8365 192.833 73.7645C192.848 73.7436 193.172 73.997 193.747 74.3131C194.084 74.4948 194.433 74.6528 194.792 74.786C195.674 75.1148 196.607 75.2855 197.548 75.2903C197.932 75.2907 198.315 75.2654 198.695 75.2145C199.333 75.1231 199.725 75.0003 199.733 75.0264Z" fill="#263238"/>
<path d="M195.126 66.12C195.106 66.2219 193.872 68.6777 193.872 68.6777L188.052 65.6105L187.458 63.1024C187.361 62.6997 187.107 62.3521 186.754 62.1357C186.4 61.9193 185.975 61.8517 185.572 61.9477L183.856 62.6505C183.785 62.6781 183.722 62.7229 183.673 62.7808C183.624 62.8387 183.589 62.9079 183.574 62.9823C183.55 63.1077 183.574 63.2435 183.801 63.2148C184.227 63.1808 185.107 63.0868 185.107 63.0868L184.702 64.5159C184.595 64.8904 184.636 65.2916 184.817 65.6367L185.078 66.1305L185.645 67.0475H185.632C185.632 67.0475 191.291 72.8605 194.468 73.2394C196.378 73.4667 198.541 68.1134 198.541 68.1134L195.126 66.12Z" fill="#B78876"/>
<path d="M185.065 63.1834C185.065 63.1834 185.11 63.1233 185.206 63.058C185.336 62.9679 185.49 62.9204 185.648 62.9222C185.73 62.9268 185.81 62.9535 185.878 62.9994C185.947 63.0454 186.002 63.109 186.037 63.1834C186.092 63.301 186.055 63.3794 186.037 63.3741C186.019 63.3689 186.037 63.301 185.974 63.2122C185.936 63.1558 185.885 63.1088 185.826 63.0749C185.767 63.0409 185.7 63.0209 185.632 63.0162C185.491 63.0182 185.352 63.054 185.227 63.1207C185.146 63.1599 185.073 63.1939 185.065 63.1834Z" fill="#AA6550"/>
<path d="M185.799 64.0743C185.799 64.0743 185.76 64.0273 185.705 63.9568C185.635 63.8667 185.542 63.7972 185.436 63.7554C185.33 63.7136 185.214 63.701 185.102 63.719C185.013 63.719 184.958 63.7504 184.953 63.7399C184.948 63.7295 184.995 63.6903 185.089 63.6589C185.213 63.6226 185.346 63.6286 185.466 63.6758C185.587 63.7231 185.688 63.8091 185.755 63.9202C185.802 64.009 185.807 64.0717 185.799 64.0743Z" fill="#AA6550"/>
<path d="M196.334 58.3684L194.766 65.8378L198.946 68.3486L200.55 63.7582C200.55 63.7582 199.876 58.1829 196.334 58.3684Z" fill="#C3D7FF"/>
<path d="M198.586 58.499C198.586 58.499 198.552 58.5277 198.478 58.5669C198.405 58.6061 198.301 58.6636 198.162 58.7341C197.885 58.8752 197.478 59.0738 196.968 59.3011C195.644 59.9065 194.249 60.3453 192.817 60.6074C191.375 60.865 189.896 60.8151 188.475 60.4611C188.049 60.3494 187.635 60.1998 187.236 60.0143C187.093 59.9542 186.975 59.8889 186.915 59.8523C186.877 59.8336 186.842 59.8118 186.808 59.787C186.961 59.8388 187.111 59.899 187.257 59.9673C187.663 60.1313 188.081 60.2658 188.506 60.3696C189.916 60.6925 191.377 60.728 192.801 60.4741C194.224 60.2122 195.613 59.7888 196.94 59.2123C197.462 58.998 197.862 58.8125 198.147 58.6897C198.289 58.6165 198.435 58.5528 198.586 58.499Z" fill="#EBEBEB"/>
<path d="M199.685 59.3246C199.65 59.3569 199.61 59.385 199.568 59.4082L199.223 59.6303C199.041 59.7497 198.852 59.8595 198.659 59.9595C198.434 60.077 198.183 60.2207 197.888 60.3513L197.433 60.5604C197.274 60.6335 197.102 60.6936 196.927 60.7641C196.579 60.9078 196.192 61.0254 195.79 61.156C194.026 61.6881 192.182 61.9065 190.343 61.8013C189.919 61.7674 189.517 61.7439 189.146 61.6838C188.958 61.655 188.778 61.6367 188.605 61.6054L188.112 61.5061C187.798 61.4513 187.518 61.3676 187.273 61.3049C187.062 61.2539 186.853 61.192 186.648 61.1195L186.259 60.9836C186.213 60.9712 186.168 60.9527 186.126 60.9287C186.174 60.9314 186.222 60.941 186.267 60.9575L186.664 61.0672C186.834 61.1194 187.043 61.1795 187.291 61.2318C187.539 61.284 187.814 61.365 188.132 61.4121L188.624 61.5009C188.793 61.5322 188.974 61.5479 189.146 61.5714C189.517 61.6263 189.93 61.6472 190.335 61.6759C192.161 61.7688 193.989 61.5523 195.743 61.0358C196.143 60.9104 196.527 60.7981 196.874 60.657C197.047 60.5891 197.219 60.5316 197.378 60.4637L197.836 60.2625C198.131 60.1423 198.382 60.0013 198.619 59.8915C198.857 59.7818 199.04 59.6747 199.192 59.5858L199.552 59.3873C199.594 59.3605 199.638 59.3394 199.685 59.3246Z" fill="#EBEBEB"/>
<path d="M198.936 68.3486C198.819 68.2991 198.705 68.2415 198.596 68.1761L197.676 67.6536L194.541 65.8431L194.502 65.8196V65.7751C194.614 65.2187 194.735 64.6178 194.86 64.0012C195.048 63.0711 195.231 62.188 195.383 61.3886C195.469 60.9862 195.539 60.6048 195.618 60.2416C195.689 59.9059 195.801 59.5803 195.952 59.2723C196.171 58.8149 196.559 58.46 197.034 58.2822C197.162 58.2379 197.297 58.2158 197.433 58.2168C197.48 58.2136 197.527 58.219 197.572 58.2325C197.394 58.2385 197.217 58.272 197.049 58.3318C196.601 58.5211 196.239 58.8715 196.036 59.3141C195.894 59.6185 195.79 59.9386 195.725 60.2677C195.654 60.6257 195.581 61.0097 195.503 61.4095C195.341 62.2194 195.163 63.1024 194.98 64.0221C194.855 64.6413 194.732 65.2396 194.62 65.796L194.588 65.7281L197.705 67.5805L198.606 68.1291C198.722 68.1929 198.832 68.2664 198.936 68.3486Z" fill="#263238"/>
<path d="M200.213 63.5361C200.236 63.7686 200.229 64.003 200.192 64.2337C200.138 64.792 200.038 65.3451 199.894 65.8875C199.751 66.4304 199.566 66.9615 199.341 67.4759C199.259 67.6947 199.149 67.902 199.014 68.0925C199.078 67.8695 199.157 67.6513 199.252 67.4394C199.648 66.3998 199.932 65.3207 200.098 64.2206C200.122 63.9902 200.16 63.7616 200.213 63.5361Z" fill="#263238"/>
<path d="M177.549 105.084L177.502 109.071C177.502 109.071 173.431 110.365 173.353 111.101L181.081 111.467L181.41 105.257L177.549 105.084Z" fill="#455A64"/>
<path d="M179.921 108.849C179.994 108.875 180.055 108.928 180.093 108.996C180.13 109.065 180.14 109.145 180.122 109.22C180.099 109.295 180.048 109.358 179.98 109.395C179.912 109.433 179.832 109.444 179.756 109.424C179.679 109.396 179.615 109.34 179.576 109.267C179.537 109.194 179.526 109.11 179.545 109.03C179.578 108.955 179.638 108.896 179.714 108.864C179.789 108.833 179.874 108.833 179.95 108.862" fill="#E0E0E0"/>
<path d="M181.081 111.467V110.84L173.666 110.723C173.666 110.723 173.314 110.856 173.342 111.101L181.081 111.467Z" fill="#E0E0E0"/>
<path d="M177.379 109.027C177.379 109.063 177.567 109.09 177.745 109.22C177.922 109.351 178.006 109.513 178.053 109.5C178.1 109.487 178.053 109.267 177.821 109.113C177.588 108.959 177.371 108.99 177.379 109.027Z" fill="#263238"/>
<path d="M176.551 109.322C176.551 109.359 176.702 109.432 176.812 109.596C176.922 109.761 176.961 109.934 177 109.934C177.039 109.934 177.071 109.722 176.917 109.518C176.762 109.314 176.553 109.288 176.551 109.322Z" fill="#263238"/>
<path d="M176.044 110.271C176.078 110.271 176.141 110.095 176.044 109.884C175.947 109.672 175.783 109.583 175.767 109.623C175.751 109.662 175.853 109.769 175.921 109.944C175.989 110.119 176.002 110.265 176.044 110.271Z" fill="#263238"/>
<path d="M177.489 108.118C177.504 108.154 177.679 108.118 177.894 108.133C178.108 108.149 178.267 108.235 178.288 108.204C178.309 108.173 178.158 108.029 177.907 108.003C177.656 107.977 177.473 108.089 177.489 108.118Z" fill="#263238"/>
<g opacity="0.3">
<path opacity="0.3" d="M177.541 105.874L177.531 106.584L181.332 106.73L181.366 106.09L177.541 105.874Z" fill="black"/>
</g>
<path d="M177.515 107.313C177.64 107.355 177.773 107.361 177.902 107.331C178.042 107.313 178.18 107.277 178.312 107.224C178.39 107.195 178.466 107.159 178.539 107.117C178.584 107.096 178.626 107.068 178.662 107.034C178.688 107.008 178.705 106.974 178.71 106.937C178.714 106.901 178.707 106.864 178.688 106.832C178.67 106.805 178.646 106.783 178.618 106.766C178.59 106.75 178.558 106.74 178.526 106.738C178.477 106.736 178.428 106.74 178.38 106.751C178.297 106.767 178.215 106.791 178.137 106.822C178.004 106.875 177.88 106.948 177.768 107.039C177.58 107.198 177.507 107.337 177.525 107.344C177.544 107.352 177.635 107.243 177.823 107.115C177.934 107.041 178.053 106.981 178.178 106.937C178.252 106.912 178.327 106.893 178.403 106.879C178.487 106.861 178.557 106.864 178.576 106.9C178.594 106.937 178.576 106.921 178.576 106.945C178.549 106.969 178.519 106.99 178.487 107.007C178.416 107.047 178.346 107.083 178.278 107.115C178.155 107.168 178.027 107.21 177.896 107.24C177.768 107.256 177.64 107.28 177.515 107.313Z" fill="#263238"/>
<path d="M177.57 107.371C177.647 107.264 177.689 107.134 177.687 107.002C177.702 106.859 177.691 106.715 177.656 106.576C177.635 106.493 177.605 106.413 177.567 106.336C177.549 106.284 177.517 106.238 177.475 106.201C177.434 106.165 177.383 106.14 177.329 106.13C177.295 106.128 177.261 106.137 177.232 106.155C177.203 106.172 177.179 106.198 177.165 106.229C177.142 106.273 177.126 106.321 177.118 106.37C177.105 106.456 177.105 106.545 177.118 106.631C177.132 106.777 177.182 106.917 177.264 107.039C177.405 107.248 177.562 107.3 177.564 107.287C177.567 107.274 177.45 107.19 177.342 106.992C177.281 106.878 177.245 106.752 177.238 106.623C177.234 106.548 177.24 106.472 177.256 106.399C177.272 106.318 177.306 106.252 177.337 106.263C177.369 106.273 177.436 106.328 177.465 106.396C177.501 106.465 177.529 106.536 177.551 106.61C177.589 106.737 177.608 106.868 177.609 107C177.588 107.224 177.541 107.363 177.57 107.371Z" fill="#263238"/>
<path d="M193.303 76.2125C193.303 76.2125 181.227 71.144 177.491 70.9324C175.14 70.7966 173.374 72.3014 173.693 74.7259C173.852 75.9408 177.188 90.1404 177.188 90.1404L182.272 87.8204L179.827 77.9995L189.755 82.8224L193.303 76.2125Z" fill="#0C1248"/>
<path d="M178.309 75.515C178.27 75.5489 178.67 76.0636 179.093 76.7455C179.516 77.4274 179.798 78.0152 179.845 77.9969C179.892 77.9786 179.675 77.349 179.244 76.654C178.813 75.9591 178.353 75.4836 178.309 75.515Z" fill="#455A64"/>
<path d="M177.321 76.0793C177.295 76.1237 177.904 76.5104 178.628 77.0381C179.351 77.5658 179.895 78.0283 179.934 77.9917C179.973 77.9551 179.451 77.4143 178.724 76.8918C177.998 76.3693 177.342 76.0375 177.321 76.0793Z" fill="#455A64"/>
<path d="M202.721 79.2588C202.721 79.2588 201.203 81.2157 199.756 81.7513C197.927 82.4227 184.483 88.7687 184.483 88.7687C184.483 88.7687 182.042 106.898 182.236 106.14L176.606 106.004L177.217 89.3069C177.29 87.1698 179.004 84.714 180.846 83.6219L193.303 76.2125L202.721 79.2588Z" fill="#0C1248"/>
<path d="M177.11 92.3637C177.128 92.2884 177.136 92.2111 177.133 92.1338C177.133 91.9666 177.154 91.7497 177.167 91.478C177.199 90.6742 177.274 89.8728 177.392 89.077C177.557 87.901 177.974 86.7745 178.615 85.7747C179.011 85.1999 179.5 84.6949 180.062 84.2803C180.672 83.836 181.31 83.432 181.972 83.0706C184.681 81.5187 187.019 79.9355 188.749 78.8512C189.611 78.3026 190.317 77.8663 190.797 77.5685L191.356 77.2236C191.424 77.1863 191.488 77.1425 191.547 77.093C191.475 77.119 191.406 77.1523 191.341 77.1922C191.208 77.2628 191.012 77.3673 190.763 77.5084C190.264 77.7879 189.554 78.2112 188.673 78.7441C186.925 79.8048 184.574 81.3698 181.88 82.9243C181.212 83.2899 180.567 83.6992 179.952 84.1496C179.376 84.5768 178.877 85.0979 178.474 85.6911C177.829 86.717 177.418 87.872 177.269 89.0744C177.162 89.8755 177.106 90.6828 177.102 91.4911C177.102 91.7523 177.102 91.9796 177.102 92.1494C177.098 92.2209 177.101 92.2926 177.11 92.3637Z" fill="#455A64"/>
<path d="M197.752 81.1686C197.648 81.0069 197.533 80.8524 197.407 80.7062C197.148 80.3288 196.968 79.9027 196.878 79.4536C196.788 79.0044 196.79 78.5418 196.885 78.0936C196.943 77.9097 196.988 77.722 197.021 77.5319C196.894 77.6832 196.804 77.8622 196.759 78.0544C196.626 78.5183 196.606 79.0077 196.702 79.4809C196.796 79.9541 197.004 80.3972 197.308 80.7715C197.546 81.072 197.742 81.1843 197.752 81.1686Z" fill="#455A64"/>
<path d="M178.675 106.004C178.684 105.974 178.689 105.944 178.69 105.913C178.69 105.84 178.711 105.751 178.724 105.638C178.753 105.377 178.79 105.032 178.837 104.593C178.928 103.663 179.059 102.339 179.221 100.708C179.297 99.888 179.383 98.9893 179.482 98.0252C179.581 97.0611 179.673 96.0292 179.743 94.9423C179.814 93.8555 179.929 92.719 180.127 91.5459C180.321 90.3425 180.673 89.1698 181.172 88.0581C181.694 86.9595 182.384 85.9486 183.215 85.0614C183.995 84.2361 184.849 83.484 185.765 82.8146C187.337 81.708 188.969 80.6901 190.654 79.7656C192.083 78.9453 193.222 78.2451 193.977 77.7174C194.358 77.4561 194.646 77.2445 194.839 77.0956L195.056 76.9257C195.105 76.8874 195.128 76.8665 195.126 76.863C195.097 76.8748 195.07 76.8906 195.045 76.9101L194.818 77.0668C194.62 77.2053 194.324 77.4091 193.94 77.6625C193.172 78.1693 192.028 78.8512 190.591 79.6585C188.892 80.5695 187.249 81.5797 185.669 82.6839C184.74 83.355 183.875 84.1116 183.087 84.9438C182.241 85.843 181.54 86.8691 181.01 87.9849C180.509 89.1105 180.157 90.2972 179.965 91.5146C179.769 92.6902 179.67 93.832 179.589 94.911C179.508 95.99 179.427 97.0298 179.328 97.9938C179.229 98.9579 179.166 99.8566 179.095 100.68C178.957 102.312 178.834 103.637 178.769 104.57C178.734 105.019 178.708 105.368 178.69 105.615C178.69 105.727 178.677 105.819 178.672 105.889C178.667 105.96 178.67 106.004 178.675 106.004Z" fill="#455A64"/>
<path d="M191.939 47.4581C191.749 46.9698 191.392 46.5651 190.931 46.3166C190.47 46.0681 189.935 45.9921 189.423 46.1022C189.198 46.1846 188.962 46.2356 188.723 46.2537C188.433 46.204 188.148 46.1288 187.871 46.029C187.558 45.9782 187.236 46.0458 186.97 46.2186C186.703 46.3915 186.511 46.6573 186.429 46.9643C186.184 46.9047 185.928 46.8993 185.68 46.9485C185.433 46.9976 185.199 47.1002 184.995 47.2491C184.795 47.404 184.653 47.6218 184.591 47.8673C184.53 48.1128 184.554 48.3718 184.658 48.6024C184.76 48.7931 184.919 48.9447 185.021 49.1406C185.175 49.462 185.104 49.8486 185.212 50.1857C185.312 50.4308 185.48 50.6426 185.695 50.7969C185.91 50.9512 186.165 51.0418 186.429 51.0583C186.961 51.0856 187.493 51.0102 187.997 50.8362" fill="#263238"/>
<path d="M189.507 57.791C189.441 57.2841 189.4 56.9288 189.4 56.9288C189.4 56.9288 187.714 56.9288 187.048 54.8387C186.711 53.7937 186.487 52.0485 186.351 50.6063C186.321 50.2991 186.354 49.989 186.447 49.6949C186.541 49.4007 186.692 49.1284 186.894 48.8946C187.095 48.6607 187.342 48.47 187.619 48.334C187.896 48.1981 188.198 48.1196 188.506 48.1034L192.979 47.8709L193.076 48.5632L194.254 57.164C194.296 57.4758 194.277 57.793 194.197 58.0972C194.116 58.4015 193.976 58.6869 193.785 58.937C193.594 59.1871 193.356 59.3969 193.083 59.5545C192.811 59.712 192.51 59.8141 192.198 59.8549C191.885 59.8968 191.568 59.8765 191.263 59.7954C190.959 59.7142 190.674 59.5737 190.424 59.3819C190.174 59.1901 189.964 58.9509 189.806 58.6779C189.649 58.4049 189.547 58.1035 189.507 57.791Z" fill="#B78876"/>
<path d="M186.975 51.8368C186.986 51.9083 187.024 51.9727 187.082 52.0165C187.139 52.0604 187.212 52.0802 187.283 52.072C187.319 52.0697 187.354 52.0603 187.385 52.0441C187.417 52.028 187.445 52.0055 187.468 51.9781C187.491 51.9507 187.508 51.9189 187.518 51.8848C187.528 51.8506 187.531 51.8147 187.526 51.7794C187.517 51.7073 187.479 51.6421 187.421 51.598C187.363 51.5539 187.29 51.5346 187.218 51.5442C187.183 51.5465 187.148 51.5559 187.116 51.5721C187.084 51.5882 187.056 51.6107 187.033 51.6381C187.011 51.6655 186.994 51.6973 186.984 51.7314C186.974 51.7656 186.971 51.8015 186.975 51.8368Z" fill="#263238"/>
<path d="M186.86 51.4502C186.899 51.4789 187.082 51.2934 187.383 51.2464C187.683 51.1994 187.905 51.3143 187.944 51.2725C187.984 51.2307 187.913 51.1942 187.809 51.1419C187.667 51.0724 187.507 51.0495 187.351 51.0766C187.198 51.0996 187.055 51.172 186.946 51.283C186.86 51.3666 186.839 51.4371 186.86 51.4502Z" fill="#263238"/>
<path d="M189.776 51.3613C189.787 51.4326 189.825 51.4968 189.883 51.5402C189.94 51.5836 190.013 51.6029 190.084 51.5939C190.12 51.592 190.154 51.5828 190.186 51.567C190.218 51.5512 190.246 51.529 190.269 51.5018C190.292 51.4747 190.31 51.4431 190.32 51.4091C190.33 51.375 190.334 51.3392 190.33 51.3039C190.319 51.2324 190.28 51.168 190.223 51.1242C190.165 51.0803 190.093 51.0605 190.021 51.0687C189.986 51.0706 189.951 51.0798 189.919 51.0958C189.887 51.1118 189.858 51.1342 189.835 51.1617C189.812 51.1891 189.795 51.221 189.785 51.2554C189.775 51.2897 189.772 51.3258 189.776 51.3613Z" fill="#263238"/>
<path d="M189.771 51.0426C189.81 51.074 189.993 50.8858 190.293 50.8414C190.594 50.797 190.816 50.9068 190.855 50.865C190.894 50.8231 190.823 50.7892 190.719 50.7343C190.577 50.6671 190.417 50.6444 190.262 50.669C190.109 50.6938 189.967 50.7659 189.857 50.8754C189.771 50.959 189.752 51.0269 189.771 51.0426Z" fill="#263238"/>
<path d="M189.047 53.4044C188.883 53.3823 188.717 53.3823 188.553 53.4044C188.477 53.4044 188.404 53.4044 188.383 53.3548C188.359 53.2791 188.359 53.1979 188.383 53.1222C188.425 52.9289 188.47 52.7251 188.517 52.5135C188.644 51.9941 188.731 51.4657 188.778 50.9329C188.607 51.4442 188.476 51.9684 188.389 52.5004C188.347 52.7147 188.305 52.9185 188.268 53.1144C188.232 53.2112 188.232 53.318 188.268 53.4149C188.284 53.4396 188.304 53.4607 188.329 53.4765C188.353 53.4923 188.381 53.5025 188.409 53.5063C188.453 53.5118 188.497 53.5118 188.54 53.5063C188.713 53.4939 188.883 53.4597 189.047 53.4044Z" fill="#263238"/>
<path d="M189.4 56.9288C190.409 56.7839 191.359 56.3615 192.143 55.7087C192.143 55.7087 191.678 57.2972 189.507 57.4304L189.4 56.9288Z" fill="#AA6550"/>
<path d="M189.948 53.4697C189.899 53.4697 189.948 53.7937 189.713 54.0654C189.478 54.3371 189.128 54.3554 189.131 54.3998C189.133 54.4442 189.217 54.4521 189.363 54.4312C189.551 54.4059 189.724 54.313 189.849 54.1699C189.971 54.0344 190.035 53.8559 190.027 53.6735C190.019 53.5377 189.969 53.4645 189.948 53.4697Z" fill="#263238"/>
<path d="M189.509 49.8983C189.551 49.974 189.841 49.8983 190.194 49.8748C190.547 49.8513 190.842 49.9113 190.876 49.833C190.91 49.7546 190.831 49.7285 190.706 49.6684C190.54 49.5958 190.359 49.5625 190.178 49.5711C189.996 49.5797 189.82 49.63 189.661 49.718C189.546 49.7885 189.491 49.8617 189.509 49.8983Z" fill="#263238"/>
<path d="M186.831 50.5776C186.894 50.6351 187.093 50.5332 187.33 50.4914C187.568 50.4496 187.79 50.4652 187.827 50.3869C187.843 50.3503 187.798 50.2876 187.699 50.2405C187.565 50.1811 187.416 50.1647 187.273 50.1935C187.13 50.2188 186.998 50.2882 186.897 50.3921C186.821 50.4757 186.803 50.5488 186.831 50.5776Z" fill="#263238"/>
<path d="M186.116 49.6631C186.116 49.6631 187.299 50.0629 188.658 49.1537C189.549 48.558 190.63 48.1844 190.899 48.3464C191.168 48.5084 191.343 49.4803 192.323 49.6527C192.323 49.6527 192.496 51.5338 193.235 51.3718C193.757 51.2568 193.454 49.1824 193.235 47.9989C193.189 47.7701 193.068 47.5632 192.891 47.4112C192.714 47.2592 192.491 47.1709 192.258 47.1603L190.881 47.1054L189.162 47.5861L187.317 48.0877L185.912 48.6756L186.116 49.6631Z" fill="#263238"/>
<path d="M193.07 50.6063C193.096 50.588 194.238 49.9871 194.45 51.2333C194.661 52.4795 193.368 52.4325 193.358 52.3985C193.347 52.3646 193.07 50.6063 193.07 50.6063Z" fill="#B78876"/>
<path d="M193.658 51.8604C193.658 51.8604 193.684 51.8734 193.724 51.8839C193.779 51.8969 193.836 51.8885 193.885 51.8604C193.957 51.7954 194.009 51.713 194.039 51.6214C194.068 51.5297 194.073 51.4319 194.053 51.3378C194.038 51.2307 193.999 51.1281 193.94 51.0374C193.921 51.0007 193.894 50.9689 193.86 50.9449C193.827 50.9208 193.788 50.9051 193.747 50.8989C193.721 50.8967 193.695 50.9036 193.674 50.9183C193.652 50.9331 193.637 50.9549 193.629 50.9799C193.629 51.0165 193.629 51.04 193.629 51.0452C193.629 51.0504 193.601 51.0269 193.601 50.9747C193.603 50.9427 193.616 50.9123 193.637 50.8885C193.667 50.8569 193.709 50.8382 193.752 50.8362C193.805 50.8372 193.857 50.8519 193.903 50.8789C193.949 50.9059 193.987 50.9443 194.014 50.9904C194.085 51.089 194.131 51.204 194.147 51.3248C194.173 51.4348 194.165 51.55 194.125 51.6557C194.085 51.7613 194.014 51.8526 193.922 51.9178C193.89 51.9329 193.855 51.9408 193.82 51.9408C193.785 51.9408 193.75 51.9329 193.718 51.9178C193.666 51.8917 193.656 51.8656 193.658 51.8604Z" fill="#AA6550"/>
<path d="M186.714 46.5045C186.714 46.5045 186.756 46.5724 186.844 46.6717C186.972 46.8125 187.134 46.9171 187.315 46.9748C187.583 47.0615 187.87 47.0742 188.146 47.0114C188.488 46.9282 188.824 46.8217 189.151 46.6926C189.491 46.559 189.853 46.4942 190.217 46.5019C190.526 46.513 190.817 46.6443 191.03 46.8677C191.175 47.0134 191.263 47.2062 191.278 47.4111C191.289 47.4854 191.276 47.5613 191.242 47.6279C191.228 47.6279 191.242 47.5496 191.226 47.4163C191.193 47.2312 191.102 47.0616 190.965 46.933C190.763 46.7401 190.496 46.6308 190.217 46.6273C189.869 46.6276 189.525 46.6932 189.201 46.8206C188.868 46.9531 188.525 47.058 188.174 47.1341C187.879 47.1953 187.572 47.1718 187.289 47.0662C187.097 46.9957 186.929 46.8703 186.808 46.7057C186.714 46.5855 186.714 46.5071 186.714 46.5045Z" fill="#455A64"/>
<path d="M190.923 47.6984C190.923 47.6984 190.86 47.6331 190.729 47.5417C190.543 47.4277 190.329 47.368 190.11 47.3693C189.779 47.368 189.453 47.4479 189.159 47.6018C188.793 47.7997 188.414 47.9743 188.025 48.1243C187.657 48.2387 187.268 48.2762 186.885 48.2344C186.501 48.1926 186.13 48.0725 185.794 47.8813C185.591 47.7672 185.406 47.6246 185.243 47.4581C185.18 47.4015 185.127 47.3343 185.086 47.2595C185.317 47.464 185.57 47.6435 185.839 47.7951C186.499 48.1418 187.27 48.2141 187.984 47.9963C188.367 47.8413 188.742 47.6669 189.107 47.4738C189.419 47.316 189.766 47.2421 190.115 47.2595C190.353 47.2686 190.581 47.3518 190.769 47.4973C190.837 47.5492 190.89 47.6187 190.923 47.6984Z" fill="#455A64"/>
<path d="M187.053 68.9285L180.987 63.7582L178.986 64.2102C178.986 64.2102 181.094 68.5941 182.62 70.2009C182.62 70.2009 184.127 72.2178 186.615 71.3452C189.102 70.4726 187.053 68.9285 187.053 68.9285Z" fill="#B78876"/>
<path d="M180.527 58.0627H177.949C177.851 58.068 177.756 58.0949 177.671 58.1415C177.585 58.188 177.511 58.2531 177.454 58.3319C177.396 58.4107 177.357 58.5013 177.34 58.5971C177.322 58.6929 177.325 58.7915 177.35 58.8857L179.945 63.9359C179.994 64.032 180.069 64.1127 180.161 64.169C180.253 64.2252 180.359 64.2549 180.467 64.2546H183.602C183.676 64.2464 183.747 64.2201 183.808 64.178C183.869 64.1359 183.918 64.0793 183.952 64.0133C183.986 63.9474 184.003 63.874 184.002 63.7999C184 63.7258 183.981 63.6531 183.945 63.5884L181.444 58.6427C181.359 58.4713 181.229 58.3266 181.067 58.2244C180.905 58.1221 180.719 58.0662 180.527 58.0627Z" fill="#455A64"/>
<path d="M180.355 58.3684H177.776C177.702 58.3679 177.629 58.3865 177.564 58.4224C177.5 58.4582 177.445 58.5102 177.406 58.5732C177.368 58.6362 177.346 58.7081 177.343 58.7821C177.34 58.856 177.356 58.9295 177.389 58.9954L179.921 63.9358C179.971 64.0317 180.046 64.112 180.138 64.1682C180.23 64.2244 180.336 64.2543 180.444 64.2546H183.553C183.595 64.2528 183.637 64.2406 183.674 64.219C183.711 64.1974 183.742 64.1671 183.764 64.1307C183.786 64.0944 183.8 64.0531 183.802 64.0104C183.805 63.9678 183.797 63.9252 183.78 63.8862L181.277 58.9431C181.192 58.7707 181.061 58.6254 180.898 58.5237C180.735 58.4221 180.547 58.3683 180.355 58.3684Z" fill="#263238"/>
<path d="M180.135 60.4323L178.568 61.0594L178.233 62.3239L178.988 64.205L181.75 64.6125L180.94 63.7843L181.042 63.0606C181.042 63.0606 181.826 62.8177 181.826 62.7001C181.826 62.5825 181.729 62.1776 181.611 62.1645C181.302 62.2351 180.999 62.3304 180.705 62.4493C180.705 62.4493 181.664 61.689 181.638 61.5662C181.611 61.4434 181.507 61.1325 181.316 61.0959C181.125 61.0594 179.574 61.7935 179.574 61.7935L179.312 62.3657L179.093 61.4486C179.093 61.4486 180.475 61.062 180.135 60.4323Z" fill="#B78876"/>
<path d="M180.334 63.4003C180.334 63.4003 180.295 63.348 180.279 63.2435C180.262 63.1104 180.278 62.9753 180.323 62.8492C180.368 62.723 180.443 62.6093 180.54 62.5172C180.619 62.4493 180.679 62.4258 180.684 62.4336C180.565 62.5656 180.467 62.7155 180.394 62.8777C180.347 63.0478 180.327 63.2241 180.334 63.4003Z" fill="#AA6550"/>
<path d="M179.587 63.1259C179.617 62.9909 179.638 62.8538 179.649 62.7158C179.656 62.5615 179.682 62.4087 179.728 62.2612C179.758 62.1664 179.81 62.0802 179.88 62.0098C179.95 61.9393 180.036 61.8867 180.13 61.8562C180.504 61.7203 180.843 61.6106 181.089 61.5296C181.22 61.48 181.356 61.4424 181.494 61.4173C181.372 61.4867 181.243 61.5427 181.11 61.5845C180.867 61.6785 180.527 61.7987 180.159 61.932C180.073 61.9616 179.994 62.0098 179.929 62.073C179.871 62.1346 179.826 62.2075 179.798 62.2873C179.75 62.4285 179.72 62.575 179.707 62.7236C179.702 62.8658 179.66 63.0043 179.587 63.1259Z" fill="#AA6550"/>
<path d="M179.226 62.8438C179.201 62.7416 179.201 62.635 179.226 62.5329C179.255 62.3657 179.294 62.235 179.318 62.2376C179.342 62.3398 179.342 62.4464 179.318 62.5486C179.289 62.7158 179.25 62.8464 179.226 62.8438Z" fill="#AA6550"/>
<path d="M179.184 59.322C179.184 59.3871 179.204 59.4507 179.24 59.5049C179.276 59.559 179.327 59.6012 179.388 59.6261C179.448 59.651 179.514 59.6575 179.578 59.6448C179.642 59.6321 179.7 59.6008 179.746 59.5547C179.792 59.5087 179.824 59.45 179.836 59.3862C179.849 59.3223 179.843 59.2561 179.818 59.196C179.793 59.1358 179.751 59.0844 179.696 59.0483C179.642 59.0121 179.579 58.9928 179.514 58.9928C179.47 58.9924 179.427 59.0007 179.387 59.0171C179.347 59.0335 179.311 59.0578 179.28 59.0884C179.249 59.1191 179.225 59.1555 179.209 59.1956C179.192 59.2357 179.184 59.2786 179.184 59.322Z" fill="#FAFAFA"/>
<path d="M7.64001 99.744C8.26654 99.9382 8.8474 100.257 9.34778 100.681C9.84816 101.105 10.2578 101.626 10.552 102.212C11.1351 103.39 11.4403 104.686 11.444 106C11.524 108.528 10.476 111.248 9.24001 113.46C6.87601 111.94 5.93201 108.8 5.54801 107.2C4.94801 104.648 5.40801 99.672 7.64001 99.74" fill="#0C1248"/>
<path d="M12.276 117.22C12.0296 116.529 11.9701 115.785 12.1035 115.064C12.237 114.342 12.5587 113.669 13.036 113.112C13.5231 112.564 14.1147 112.118 14.7762 111.802C15.4376 111.485 16.1556 111.304 16.888 111.268C17.56 111.22 18.312 111.308 18.772 111.804C18.9742 112.048 19.1074 112.342 19.1581 112.655C19.2087 112.968 19.1748 113.289 19.06 113.584C18.8209 114.172 18.4304 114.687 17.928 115.076C16.276 116.484 14.42 117.54 12.276 117.22Z" fill="#0C1248"/>
<path d="M10.7 125.248C10.6819 125.075 10.6819 124.901 10.7 124.728C10.7 124.356 10.732 123.88 10.752 123.308C10.7677 121.732 11.0378 120.17 11.552 118.68C12.0897 117.188 13.0147 115.865 14.232 114.848C14.6014 114.549 15.0041 114.294 15.432 114.088C15.584 114.012 15.712 113.976 15.792 113.94C15.872 113.904 15.92 113.896 15.924 113.904C14.9372 114.392 14.057 115.071 13.3347 115.902C12.6123 116.733 12.0621 117.699 11.716 118.744C11.2155 120.219 10.9364 121.759 10.888 123.316C10.848 123.912 10.812 124.396 10.78 124.732C10.7676 124.906 10.7409 125.079 10.7 125.248Z" fill="#263238"/>
<path d="M7.62405 103.564C7.64799 103.636 7.66671 103.709 7.68005 103.784C7.71472 103.949 7.75872 104.161 7.81205 104.42C7.92405 104.972 8.07605 105.776 8.25205 106.768C8.60805 108.768 9.05205 111.508 9.48805 114.556C9.92405 117.604 10.2481 120.372 10.4561 122.38C10.5601 123.384 10.6361 124.196 10.6841 124.76C10.7027 125.027 10.7187 125.243 10.7321 125.408C10.7435 125.482 10.7435 125.558 10.7321 125.632C10.7121 125.559 10.6987 125.484 10.6921 125.408C10.6721 125.244 10.6441 125.032 10.6081 124.764C10.5361 124.184 10.4401 123.38 10.3201 122.396C10.0801 120.396 9.73205 117.628 9.30405 114.58C8.87605 111.532 8.44405 108.8 8.12405 106.8C7.96405 105.82 7.83605 105.02 7.72405 104.44C7.68405 104.176 7.65205 103.964 7.62405 103.8C7.6136 103.722 7.6136 103.642 7.62405 103.564Z" fill="#263238"/>
<path d="M8.86799 119.264C8.39742 117.794 7.58348 116.456 6.49353 115.363C5.40357 114.269 4.06891 113.451 2.59999 112.976C1.84799 112.74 0.903987 112.656 0.399987 113.26C-0.104013 113.864 0.167987 114.784 0.555987 115.468C1.39055 116.881 2.62511 118.015 4.10378 118.727C5.58244 119.439 7.2389 119.697 8.86399 119.468" fill="#0C1248"/>
<path d="M3.26798 115.288C3.42887 115.316 3.58686 115.359 3.73998 115.416C3.92386 115.47 4.10421 115.536 4.27998 115.612C4.48798 115.704 4.73198 115.784 4.97998 115.92C5.25411 116.054 5.52114 116.202 5.77998 116.364C6.08464 116.547 6.37969 116.746 6.66398 116.96C7.97298 117.943 9.02204 119.231 9.71998 120.712C9.87163 121.034 10.0052 121.363 10.12 121.7C10.2251 121.99 10.312 122.287 10.38 122.588C10.4421 122.836 10.4902 123.087 10.524 123.34C10.5587 123.529 10.5815 123.72 10.592 123.912C10.6085 124.074 10.6112 124.237 10.6 124.4C10.556 124.4 10.528 123.7 10.244 122.616C10.1683 122.322 10.0775 122.032 9.97198 121.748C9.85721 121.418 9.72366 121.095 9.57198 120.78C9.21725 120.069 8.78675 119.398 8.28798 118.78C7.77504 118.164 7.19851 117.603 6.56798 117.108C6.29173 116.895 6.00469 116.696 5.70798 116.512C5.44985 116.344 5.18279 116.191 4.90798 116.052C3.92798 115.52 3.25198 115.324 3.26798 115.288Z" fill="#263238"/>
<path d="M103.501 115.002C103.783 115.089 104.044 115.232 104.268 115.423C104.493 115.614 104.677 115.847 104.809 116.111C105.071 116.64 105.208 117.222 105.21 117.813C105.246 118.948 104.775 120.17 104.22 121.164C103.158 120.481 102.734 119.07 102.561 118.352C102.292 117.205 102.498 114.97 103.501 115" fill="#0C1248"/>
<path d="M105.584 122.853C105.473 122.543 105.446 122.208 105.506 121.884C105.566 121.56 105.711 121.258 105.925 121.008C106.144 120.761 106.41 120.561 106.707 120.419C107.004 120.277 107.327 120.195 107.656 120.179C107.958 120.158 108.295 120.197 108.502 120.42C108.593 120.53 108.653 120.662 108.675 120.802C108.698 120.943 108.683 121.087 108.631 121.22C108.524 121.484 108.349 121.715 108.123 121.89C107.381 122.522 106.547 122.997 105.584 122.853Z" fill="#0C1248"/>
<path d="M104.876 126.459C104.868 126.382 104.868 126.304 104.876 126.226C104.876 126.059 104.89 125.845 104.899 125.588C104.906 124.88 105.028 124.178 105.259 123.509C105.5 122.838 105.916 122.244 106.463 121.787C106.629 121.653 106.809 121.539 107.002 121.446C107.07 121.412 107.127 121.396 107.163 121.379C107.199 121.363 107.221 121.36 107.223 121.363C106.779 121.583 106.384 121.888 106.059 122.261C105.735 122.634 105.488 123.068 105.332 123.538C105.107 124.2 104.982 124.892 104.96 125.592C104.942 125.859 104.926 126.077 104.912 126.228C104.906 126.306 104.894 126.383 104.876 126.459Z" fill="#263238"/>
<path d="M103.494 116.718C103.505 116.75 103.513 116.784 103.519 116.817C103.535 116.891 103.554 116.987 103.578 117.103C103.629 117.351 103.697 117.712 103.776 118.158C103.936 119.056 104.136 120.287 104.331 121.656C104.527 123.026 104.673 124.269 104.766 125.171C104.813 125.622 104.847 125.987 104.869 126.24C104.877 126.36 104.884 126.457 104.89 126.531C104.895 126.565 104.895 126.599 104.89 126.632C104.881 126.599 104.875 126.565 104.872 126.531C104.863 126.458 104.851 126.362 104.835 126.242C104.802 125.982 104.759 125.62 104.705 125.178C104.597 124.28 104.441 123.036 104.249 121.667C104.056 120.298 103.862 119.07 103.719 118.172C103.647 117.732 103.589 117.372 103.539 117.112C103.521 116.993 103.507 116.898 103.494 116.824C103.489 116.789 103.489 116.753 103.494 116.718Z" fill="#263238"/>
<path d="M104.053 123.771C103.841 123.111 103.476 122.51 102.986 122.019C102.496 121.527 101.897 121.16 101.237 120.946C100.899 120.84 100.475 120.803 100.249 121.074C100.022 121.345 100.144 121.759 100.319 122.066C100.694 122.701 101.248 123.21 101.913 123.53C102.577 123.85 103.321 123.966 104.051 123.863" fill="#0C1248"/>
<path d="M101.537 121.985C101.609 121.998 101.68 122.017 101.749 122.043C101.832 122.067 101.913 122.096 101.992 122.131C102.085 122.172 102.195 122.208 102.306 122.269C102.429 122.329 102.549 122.396 102.666 122.468C102.802 122.551 102.935 122.64 103.063 122.736C103.651 123.178 104.122 123.756 104.436 124.422C104.504 124.566 104.564 124.714 104.615 124.866C104.663 124.996 104.702 125.129 104.732 125.265C104.76 125.376 104.782 125.489 104.797 125.602C104.812 125.687 104.823 125.773 104.827 125.859C104.835 125.932 104.836 126.005 104.831 126.079C104.811 126.079 104.799 125.764 104.671 125.277C104.637 125.145 104.596 125.015 104.549 124.887C104.497 124.739 104.437 124.594 104.369 124.452C104.21 124.133 104.016 123.832 103.792 123.554C103.562 123.277 103.303 123.025 103.02 122.803C102.896 122.707 102.767 122.618 102.633 122.535C102.517 122.46 102.397 122.391 102.274 122.328C101.834 122.089 101.53 122.001 101.537 121.985Z" fill="#263238"/>
<g opacity="0.171061">
<path d="M85.117 19.5663C84.4541 19.5157 83.9394 19.4573 83.1602 19.5947C79.9711 20.157 77.8654 23.1549 78.426 26.3341C78.9867 29.5138 82.0194 31.7731 85.3715 31.182C87.6184 30.7858 89.4579 29.1388 89.9069 26.9175C91.7531 28.0635 94.1433 28.4803 96.3902 28.0841C97.2056 27.9403 97.956 27.6403 98.746 27.352C99.5302 30.846 102.871 33.051 106.404 32.4279C110.083 31.7793 112.457 28.399 111.811 24.7317C111.189 21.209 107.802 18.8448 104.243 19.3232C104.263 18.4815 104.299 17.8419 104.156 17.0289C103.229 11.7718 98.184 8.37721 93.0561 9.2814C88.0881 10.1388 84.5958 14.7034 85.117 19.5663Z" fill="#F5F5F5"/>
<path d="M83.7156 26.0844C83.0528 26.135 82.538 26.1935 81.7589 26.0561C78.5698 25.4938 76.4641 22.4959 77.0247 19.3166C77.5853 16.1369 80.618 13.8777 83.9702 14.4687C86.217 14.8649 88.0565 16.512 88.5056 18.7332C90.3518 17.5872 92.7419 17.1705 94.9888 17.5667C95.8042 17.7104 96.5547 18.0104 97.3446 18.2987C98.1288 14.8047 101.47 12.5998 105.003 13.2228C108.681 13.8714 111.056 17.2518 110.409 20.919C109.788 24.4417 106.401 26.8059 102.842 26.3276C102.861 27.1693 102.898 27.8089 102.755 28.6218C101.828 33.8789 96.7826 37.2735 91.6547 36.3693C86.6867 35.512 83.1944 30.9473 83.7156 26.0844Z" fill="#F5F5F5"/>
</g>
<g opacity="0.171061">
<path d="M13.5674 43.4162C12.9046 43.3656 12.3898 43.3072 11.6107 43.4446C8.42159 44.0069 6.31587 47.0048 6.87646 50.184C7.43712 53.3637 10.4698 55.623 13.822 55.0319C16.0688 54.6357 17.9083 52.9887 18.3574 50.7674C20.2036 51.9134 22.5938 52.3302 24.8406 51.934C25.656 51.7902 26.4065 51.4902 27.1964 51.2019C27.9806 54.6959 31.3214 56.9009 34.8547 56.2778C38.533 55.6292 40.9076 52.2489 40.261 48.5816C39.6398 45.0589 36.2523 42.6947 32.6935 43.1731C32.7132 42.3314 32.7499 41.6918 32.6065 40.8788C31.6796 35.6217 26.6344 32.2271 21.5065 33.1313C16.5385 33.9887 13.0462 38.5533 13.5674 43.4162Z" fill="#F5F5F5"/>
<path d="M12.166 49.9343C11.5032 49.9849 10.9885 50.0434 10.2093 49.906C7.02022 49.3437 4.9145 46.3458 5.47509 43.1665C6.03575 39.9868 9.06845 37.7276 12.4206 38.3186C14.6675 38.7148 16.5069 40.3619 16.956 42.5831C18.8022 41.4371 21.1924 41.0204 23.4392 41.4166C24.2546 41.5603 25.0051 41.8603 25.795 42.1486C26.5793 38.6546 29.92 36.4497 33.4533 37.0727C37.1317 37.7213 39.5062 41.1017 38.8596 44.7689C38.2385 48.2916 34.851 50.6558 31.2921 50.1775C31.3118 51.0192 31.3485 51.6588 31.2052 52.4717C30.2782 57.7288 25.233 61.1234 20.1051 60.2192C15.1371 59.3619 11.6449 54.7972 12.166 49.9343Z" fill="#F5F5F5"/>
</g>
<g opacity="0.171061">
<path d="M199.597 13.0263C198.934 12.9758 198.419 12.9173 197.64 13.0547C194.451 13.617 192.345 16.6149 192.906 19.7942C193.466 22.9739 196.499 25.2331 199.851 24.6421C202.098 24.2459 203.937 22.5988 204.387 20.3776C206.233 21.5236 208.623 21.9403 210.87 21.5441C211.685 21.4004 212.436 21.1004 213.226 20.8121C214.01 24.306 217.351 26.511 220.884 25.888C224.562 25.2394 226.937 21.859 226.29 18.1918C225.669 14.6691 222.282 12.3049 218.723 12.7832C218.742 11.9415 218.779 11.3019 218.636 10.489C217.709 5.23185 212.664 1.83726 207.536 2.74145C202.568 3.59882 199.075 8.16349 199.597 13.0263Z" fill="#F5F5F5"/>
<path d="M198.195 19.5445C197.532 19.5951 197.018 19.6535 196.238 19.5161C193.049 18.9538 190.944 15.9559 191.504 12.7766C192.065 9.59697 195.098 7.33769 198.45 7.92877C200.697 8.32495 202.536 9.97199 202.985 12.1933C204.831 11.0473 207.222 10.6305 209.468 11.0267C210.284 11.1705 211.034 11.4704 211.824 11.7587C212.608 8.26479 215.949 6.05982 219.483 6.68284C223.161 7.33143 225.535 10.7118 224.889 14.379C224.268 17.9018 220.88 20.2659 217.321 19.7876C217.341 20.6293 217.378 21.2689 217.234 22.0818C216.307 27.339 211.262 30.7336 206.134 29.8294C201.166 28.972 197.674 24.4073 198.195 19.5445Z" fill="#F5F5F5"/>
</g>
<g opacity="0.171061">
<path d="M315.935 41.1108C315.272 41.0602 314.757 41.0018 313.978 41.1392C310.789 41.7015 308.683 44.6994 309.244 47.8787C309.804 51.0583 312.837 53.3176 316.189 52.7265C318.436 52.3304 320.275 50.6833 320.725 48.462C322.571 49.608 324.961 50.0248 327.208 49.6286C328.023 49.4848 328.774 49.1849 329.564 48.8966C330.348 52.3905 333.689 54.5955 337.222 53.9725C340.9 53.3239 343.275 49.9435 342.628 46.2763C342.007 42.7535 338.62 40.3894 335.061 40.8677C335.08 40.026 335.117 39.3864 334.974 38.5735C334.047 33.3163 329.002 29.9217 323.874 30.8259C318.906 31.6833 315.413 36.248 315.935 41.1108Z" fill="#F5F5F5"/>
<path d="M314.533 47.629C313.87 47.6796 313.356 47.738 312.576 47.6006C309.387 47.0383 307.282 44.0404 307.842 40.8611C308.403 37.6815 311.436 35.4222 314.788 36.0133C317.035 36.4094 318.874 38.0565 319.323 40.2778C321.169 39.1318 323.56 38.715 325.806 39.1112C326.622 39.255 327.372 39.5549 328.162 39.8432C328.946 36.3493 332.287 34.1443 335.821 34.7673C339.499 35.4159 341.873 38.7963 341.227 42.4635C340.606 45.9862 337.218 48.3504 333.659 47.8721C333.679 48.7138 333.716 49.3534 333.572 50.1663C332.645 55.4235 327.6 58.8181 322.472 57.9139C317.504 57.0565 314.012 52.4918 314.533 47.629Z" fill="#F5F5F5"/>
</g>
</svg>
