<svg width="120" height="107" viewBox="0 0 120 107" fill="none" xmlns="http://www.w3.org/2000/svg">
<path d="M111.209 25.5178L110.529 24.4017C104.808 15.0234 94.4585 9.37063 83.553 10.056C82.1489 10.1432 80.7532 10.3334 79.3773 10.6251C69.4581 12.7378 60.8285 20.1983 57.2503 29.7495C55.1482 35.3677 54.5602 41.8379 50.5679 46.2992C45.3712 52.1029 36.552 52.2726 28.7949 52.0431C21.0378 51.8136 12.2154 52.0085 7.04402 57.8342C3.80715 61.5 2.77666 66.6781 3.03903 71.5606C3.72812 84.501 12.7939 96.0832 24.3221 101.821C35.8503 107.559 49.4236 108.087 62.0424 105.556C79.7187 102.013 96.5258 92.2822 106.631 77.2606C116.737 62.2389 119.291 41.7436 111.209 25.5178Z" fill="#CCD4EB" fill-opacity="0.5"/>
<path d="M19.5 36C26.4036 36 32 30.4036 32 23.5C32 16.5964 26.4036 11 19.5 11C12.5964 11 7 16.5964 7 23.5C7 30.4036 12.5964 36 19.5 36Z" fill="#CCD4EB" fill-opacity="0.5"/>
<path d="M13.7153 105.58C13.6017 105.149 13.5759 104.699 13.6394 104.257C13.7028 103.816 13.8543 103.392 14.0848 103.01C14.5531 102.249 15.1897 101.604 15.9457 101.127C17.377 100.167 19.3227 99.7863 21.0413 99.6987C21.0167 101.614 19.5608 103.286 18.7699 104.077C17.5165 105.347 14.4843 106.88 13.7153 105.569" fill="#CCD4EB"/>
<path d="M22.1167 96.5928C21.8081 96.9848 21.4012 97.288 20.9373 97.4716C20.4734 97.6553 19.9692 97.7127 19.4759 97.6382C18.9828 97.5572 18.511 97.3784 18.088 97.1124C17.665 96.8464 17.2995 96.4985 17.0129 96.0893C16.7392 95.7171 16.523 95.2546 16.6407 94.8085C16.7081 94.6037 16.8292 94.4207 16.9914 94.2787C17.1537 94.1367 17.3511 94.0409 17.563 94.0012C17.9887 93.925 18.427 93.9637 18.8328 94.1134C20.2367 94.5567 21.5174 95.2436 22.1167 96.5928Z" fill="#CCD4EB"/>
<path d="M27.3162 94.6033C27.2215 94.6747 27.1208 94.7379 27.0152 94.7921L26.1778 95.2765C25.2611 95.8392 24.2593 96.2495 23.2113 96.4916C22.1579 96.7229 21.0618 96.6681 20.0368 96.3328C19.7292 96.2275 19.4352 96.0861 19.1611 95.9114C19.0625 95.8512 18.9941 95.7937 18.9449 95.7581C18.8956 95.7226 18.8737 95.7007 18.8764 95.6979C19.2537 95.9183 19.6515 96.1016 20.0641 96.2453C21.0785 96.5462 22.1521 96.5876 23.1866 96.3657C24.2164 96.1203 25.2041 95.7237 26.1176 95.1889C26.4761 95.0001 26.7689 94.8441 26.9714 94.7428C27.0815 94.6852 27.197 94.6385 27.3162 94.6033Z" fill="#CCD4EB"/>
<path d="M15.9238 104.209C15.9541 104.167 15.989 104.128 16.0278 104.094C16.1127 104.017 16.2166 103.916 16.348 103.79C16.6217 103.516 17.0349 103.15 17.5412 102.695C18.5592 101.773 19.9795 100.506 21.5805 99.1707C23.1814 97.8352 24.6564 96.6311 25.7374 95.7882C26.2847 95.364 26.7171 95.0247 27.0264 94.7948L27.3794 94.5211C27.4204 94.4888 27.4644 94.4604 27.5107 94.4363C27.4769 94.4764 27.4383 94.5122 27.3958 94.543L27.0565 94.8167L25.7921 95.8402C24.7276 96.7022 23.2607 97.9009 21.6598 99.25C20.0589 100.599 18.6304 101.842 17.6014 102.745L16.3699 103.826L16.036 104.113C16.0014 104.148 15.9638 104.18 15.9238 104.209Z" fill="#CCD4EB"/>
<path d="M24.5169 97.8186C23.8397 98.6227 23.3639 99.5766 23.1288 100.601C22.8937 101.626 22.9061 102.692 23.165 103.711C23.3018 104.228 23.5946 104.805 24.1228 104.874C24.651 104.942 25.0861 104.458 25.3406 103.987C25.8531 102.995 26.0605 101.874 25.9368 100.765C25.8131 99.6553 25.3638 98.6074 24.6455 97.7529" fill="#CCD4EB"/>
<path d="M24.2514 102.482C24.2077 102.379 24.1747 102.272 24.1529 102.162C24.1178 102.036 24.0904 101.908 24.0708 101.779C24.0489 101.628 24.0078 101.459 23.9941 101.267C23.9704 101.058 23.9585 100.848 23.9586 100.638C23.9526 100.396 23.9599 100.155 23.9804 99.915C24.0314 99.3632 24.1443 98.8188 24.3171 98.2922C24.5002 97.7683 24.7426 97.2669 25.0395 96.798C25.1692 96.5948 25.3118 96.4001 25.4664 96.2151C25.5964 96.0499 25.7363 95.8928 25.8851 95.7444C26.0054 95.619 26.1324 95.5003 26.2655 95.3886C26.3609 95.3003 26.4624 95.219 26.5693 95.1451C26.6534 95.0732 26.7452 95.0108 26.843 94.959C26.8621 94.9809 26.4681 95.2518 25.9454 95.8046C25.8027 95.9549 25.6684 96.113 25.5431 96.278C25.3964 96.4652 25.2594 96.6598 25.1326 96.861C24.8466 97.3246 24.6126 97.8184 24.4347 98.3333C24.2643 98.8505 24.1496 99.3844 24.0927 99.926C24.0735 100.175 24.0543 100.413 24.0598 100.638C24.0556 100.845 24.0629 101.052 24.0817 101.259C24.1474 102.017 24.276 102.477 24.2514 102.482Z" fill="#CCD4EB"/>
<path d="M29.8504 89.5979C33.3807 84.7349 32.3517 78.3339 30.291 72.9701C29.9462 72.0752 29.7163 71.0846 29.0103 70.4387C28.3042 69.7929 27.111 69.5986 26.4323 70.2608C25.8686 70.8082 25.8467 71.6921 25.6935 72.4693C25.4892 73.5064 24.9959 74.4646 24.2704 75.2333C23.797 75.7314 23.1456 76.1638 22.467 76.0543C21.5365 75.8928 21.0713 74.8447 20.7648 73.9416L19.0571 68.8788C18.7506 67.9757 18.4359 67.0562 17.8585 66.2982C17.281 65.5401 16.3889 64.96 15.4502 65.0147C14.5116 65.0694 13.6194 65.9315 13.7426 66.8756C13.8382 67.2602 13.9598 67.6378 14.1065 68.0058C14.2105 68.389 14.1777 68.8651 13.8602 69.1005C13.5428 69.3359 13.0885 69.199 12.7273 69.0266C11.4821 68.4382 10.4477 67.4859 9.44331 66.5253C8.43897 65.5648 7.46473 64.5659 6.27703 63.8681C5.08933 63.1702 3.65259 62.7734 2.33627 63.1565C1.01995 63.5397 -0.0774389 64.7985 0.0347631 66.1668C0.146965 67.5351 1.33193 68.5833 2.49773 69.3331C4.22283 70.4497 6.10048 71.3106 8.07226 71.8891C8.43842 71.9541 8.77464 72.1332 9.03282 72.4009C9.43784 72.9345 9.07387 73.7282 8.54844 74.1304C7.95459 74.5847 7.20201 74.7681 6.5288 75.0937C5.85559 75.4194 5.20153 75.9914 5.16048 76.7357C5.11122 77.7866 6.21409 78.4844 7.19106 78.8539C9.14692 79.596 11.2159 79.9959 13.3074 80.0361C14.0545 80.0498 14.8263 80.0197 15.5214 80.3098C16.2165 80.5998 16.8185 81.2895 16.7146 82.0338C16.6106 82.7782 15.8525 83.2708 15.1136 83.383C14.3747 83.4952 13.6249 83.331 12.8751 83.3119C11.4766 83.2708 9.90581 83.9112 9.48436 85.2549C9.2107 86.1388 9.48436 87.1322 10.0508 87.882C10.6394 88.6032 11.3661 89.1996 12.1882 89.6362C14.9655 91.3147 18.1385 92.226 21.3833 92.2771C24.5988 92.2771 27.3546 91.6285 29.8477 89.5979" fill="#CCD4EB"/>
<path d="M30.0748 91.2318C29.1361 89.1492 29.0239 89.1382 27.2725 86.6807C25.3494 84.0354 23.2762 81.5026 21.0631 79.0948L19.3335 77.1928C18.7643 76.5689 18.2005 75.9504 17.6094 75.3784C16.4762 74.284 15.283 73.2535 14.0354 72.2915C12.8504 71.3638 11.6928 70.5291 10.6037 69.7547C9.51447 68.9802 8.48276 68.2823 7.51673 67.683C5.99695 66.7305 4.40376 65.9005 2.75225 65.2009C2.16934 64.9546 1.71233 64.7767 1.39761 64.6536L1.04185 64.5222L0.918701 64.4839C0.956126 64.5058 0.995524 64.5241 1.03638 64.5386L1.38667 64.6864C1.69317 64.8123 2.14745 65.0011 2.72762 65.2584C4.36413 65.9806 5.94398 66.825 7.45378 67.7843C8.41161 68.3891 9.43511 69.0924 10.5216 69.8696C11.608 70.6468 12.7574 71.4869 13.9369 72.4147C15.1777 73.3766 16.3653 74.4053 17.4945 75.4961C18.0801 76.0653 18.6384 76.6783 19.2076 77.305L20.9372 79.2207C23.1455 81.6224 25.2177 84.1459 27.1439 86.7793C28.8981 89.2258 29.0157 89.2203 29.9653 91.2892" fill="#CCD4EB"/>
<path d="M17.5603 75.3894C17.5596 75.2496 17.5449 75.1103 17.5165 74.9734C17.4782 74.6997 17.407 74.3248 17.3167 73.8541C17.1334 72.9155 16.8378 71.6238 16.4957 70.2007C16.1537 68.7777 15.8855 67.486 15.7185 66.5446C15.6337 66.0739 15.568 65.6935 15.527 65.428C15.5123 65.2896 15.4838 65.153 15.4421 65.0203C15.4313 65.1591 15.4368 65.2987 15.4586 65.4362C15.4804 65.7099 15.527 66.0903 15.5954 66.5637C15.7322 67.5133 15.9922 68.816 16.3261 70.239C16.6599 71.6621 16.9582 72.9127 17.1881 73.8815C17.2866 74.3194 17.3715 74.7025 17.4399 74.9761C17.4652 75.1178 17.5056 75.2563 17.5603 75.3894Z" fill="#CCD4EB"/>
<path d="M5.229 77.2284C5.39133 77.2075 5.55156 77.1727 5.70792 77.1244C6.01442 77.0478 6.45775 76.9356 7.01055 76.8124C8.10521 76.5606 9.6432 76.2651 11.3481 76.0133C13.053 75.7615 14.6075 75.6055 15.7267 75.5234C16.2905 75.4769 16.7475 75.4523 17.0622 75.4331C17.2265 75.4331 17.3904 75.4185 17.5521 75.3894C17.3892 75.3638 17.2241 75.3555 17.0595 75.3647C16.742 75.3647 16.2823 75.3647 15.7185 75.3976C14.5856 75.4496 13.0229 75.5891 11.3125 75.8382C9.85202 76.0477 8.40331 76.3327 6.97224 76.692C6.42491 76.8288 5.98431 76.9657 5.68055 77.0587C5.52503 77.1009 5.37384 77.1577 5.229 77.2284Z" fill="#CCD4EB"/>
<path d="M27.0564 86.5165C27.0738 86.4615 27.0839 86.4044 27.0865 86.3468C27.1029 86.2154 27.1193 86.054 27.1412 85.8597C27.185 85.4355 27.2342 84.8225 27.2835 84.0617C27.382 82.5401 27.4559 80.4357 27.5024 78.115C27.549 75.7943 27.6037 73.6871 27.6721 72.1683C27.7077 71.4267 27.7378 70.8191 27.7597 70.3676C27.7597 70.1706 27.7597 70.0091 27.7788 69.8777C27.7883 69.8207 27.7883 69.7624 27.7788 69.7053C27.7614 69.7603 27.7513 69.8174 27.7487 69.875C27.7487 70.0064 27.7186 70.1651 27.6967 70.3621C27.653 70.7836 27.6037 71.3993 27.5544 72.1601C27.4532 73.6789 27.382 75.7834 27.3328 78.1095C27.2835 80.4357 27.2315 82.5347 27.1658 84.0535C27.1303 84.7924 27.1001 85.4027 27.0783 85.8542C27.0783 86.0512 27.0783 86.2127 27.0591 86.3441C27.0517 86.4012 27.0507 86.4591 27.0564 86.5165Z" fill="#CCD4EB"/>
<path d="M9.94678 86.8777C10.005 86.8844 10.0637 86.8844 10.1219 86.8777H10.6227L12.4535 86.8421C14.0025 86.812 16.1398 86.7956 18.5042 86.7792C20.8687 86.7627 23.0087 86.7272 24.5549 86.667C25.3294 86.6369 25.9561 86.604 26.3857 86.5739L26.8838 86.5356C26.9421 86.5345 27 86.5262 27.0562 86.511C26.998 86.5045 26.9393 86.5045 26.8811 86.511H26.383L24.5495 86.5465C23.0033 86.5766 20.8632 86.5931 18.5015 86.6095C16.1398 86.6259 13.997 86.6587 12.4508 86.7217C11.6763 86.7518 11.0496 86.7819 10.6173 86.8147L10.1219 86.8503C10.0624 86.8499 10.0033 86.8591 9.94678 86.8777Z" fill="#CCD4EB"/>
<path d="M25.0336 27.5461C25.0336 27.5461 24.3056 71.5485 30.3782 101.145L106.109 100.91L86.285 27.1931L25.0336 27.5461Z" fill="#E0E0E0"/>
<path d="M25.0334 27.5462L86.2848 27.1357H86.3285L86.3422 27.1768C91.9879 48.1668 98.8049 73.4944 106.177 100.891L106.202 100.981H106.109L100.088 101L30.378 101.208H30.326V101.159C30.0706 99.798 29.8198 98.4525 29.5735 97.1225C29.4558 96.4547 29.319 95.7952 29.215 95.1329C29.111 94.4707 29.0152 93.8139 28.9139 93.1598C28.7169 91.848 28.5208 90.5536 28.3256 89.2765C28.1632 87.9994 28.0035 86.7315 27.8466 85.4726C27.7682 84.8486 27.6897 84.2274 27.6113 83.609C27.5347 82.9905 27.4772 82.3747 27.4115 81.7645C27.2856 80.5403 27.1607 79.3343 27.0366 78.1466C26.9025 76.9589 26.8204 75.7822 26.7164 74.6246C26.6124 73.467 26.5194 72.3285 26.4236 71.2093C25.7285 62.2304 25.4056 54.3762 25.2167 47.9068C25.0279 41.4374 25.0005 36.3445 24.9978 32.8717C24.9978 31.134 24.9978 29.804 25.017 28.9063C25.017 28.4575 25.0224 28.1182 25.0334 27.8883C25.0334 27.6721 25.0334 27.5763 25.0334 27.5462C25.0334 27.6776 25.0334 29.4154 25.0334 32.8717C25.0334 36.3281 25.0936 41.4347 25.2852 47.9041C25.4767 54.3735 25.8325 62.2249 26.5221 71.201C26.6206 72.3203 26.7191 73.4615 26.8177 74.6164C26.9162 75.7712 27.0065 76.948 27.1406 78.1357C27.2747 79.3234 27.3924 80.5302 27.521 81.7508C27.5867 82.361 27.6441 82.9768 27.7208 83.5953C27.7974 84.2138 27.8767 84.835 27.9561 85.4589C28.1148 86.7123 28.2754 87.9794 28.4378 89.2601C28.6348 90.5381 28.8291 91.8325 29.0289 93.1406C29.131 93.7938 29.2323 94.4515 29.3326 95.1138C29.4339 95.776 29.5735 96.4356 29.6911 97.1006C29.9393 98.4306 30.1901 99.7752 30.4437 101.134L30.3835 101.085L100.094 100.855L106.114 100.839L106.046 100.926C98.6844 73.5299 91.8757 48.1969 86.2355 27.2096L86.293 27.2507L25.0334 27.5462Z" fill="#263238"/>
<path d="M25.0335 27.5463C25.0335 27.5463 24.9706 33.3452 25.953 43.6706C26.6016 50.5121 26.5305 59.4746 28.3421 70.9083C32.1734 95.0646 34.1848 98.759 34.1848 98.759L108.047 98.2582L88.3894 26.4653L25.0335 27.5463Z" fill="#EBEBEB"/>
<path d="M25.0335 27.5462L88.3893 26.405H88.4358V26.4488C94.0897 47.001 100.844 71.6745 108.126 98.2581L108.151 98.3484H108.06L104.035 98.3758L34.1848 98.8191H34.1574L34.141 98.7863C33.8735 98.1631 33.6468 97.5232 33.4623 96.8707C33.2653 96.233 33.0929 95.5899 32.915 94.955C32.7371 94.3201 32.5866 93.6797 32.4361 93.0394C32.2855 92.399 32.1405 91.7723 31.9982 91.1429C31.4308 88.6307 30.9273 86.1677 30.4876 83.754C29.5845 78.9183 28.8237 74.3126 28.1477 69.9777C27.8166 67.8103 27.5539 65.7031 27.3268 63.6616C27.0996 61.6201 26.9382 59.6552 26.8041 57.7614C26.5304 53.9712 26.3799 50.4847 26.1828 47.3403C26.0898 45.7667 25.9639 44.2807 25.8326 42.8823C25.7012 41.4839 25.5972 40.173 25.5069 38.9525C25.3235 36.5087 25.2059 34.4288 25.1347 32.7403C25.0636 31.0518 25.0307 29.7574 25.0198 28.8844C25.0198 28.4466 25.0198 28.1154 25.0198 27.8938C25.0198 27.6721 25.0198 27.5599 25.0198 27.5599C25.0198 27.6228 25.0198 28.0251 25.0389 28.8817C25.0581 29.7383 25.0937 31.0518 25.173 32.7376C25.2524 34.4234 25.3755 36.506 25.5644 38.947C25.6574 40.1676 25.7669 41.4812 25.8982 42.8768C26.0296 44.2725 26.1582 45.7613 26.254 47.3348C26.4565 50.482 26.6125 53.9684 26.8916 57.7532C27.0285 59.6469 27.2045 61.6137 27.4198 63.6534C27.636 65.6894 27.9015 67.7966 28.2408 69.9641C28.9195 74.2962 29.683 78.8992 30.5916 83.7321C31.0404 86.1513 31.5448 88.6206 32.1049 91.1401C32.2445 91.7696 32.3786 92.4045 32.5428 93.0366C32.707 93.6688 32.8548 94.3092 33.0217 94.9523C33.1886 95.5954 33.3638 96.2276 33.569 96.8679C33.7519 97.5093 33.9758 98.1382 34.2395 98.7507L34.1848 98.7179L104.032 98.2472L108.057 98.2198L107.989 98.3101C100.712 71.7128 93.9584 47.0338 88.3428 26.4817L88.4002 26.5254L25.0335 27.5462Z" fill="#263238"/>
<path d="M95.0724 29.8779L25.0939 31.0684C24.7984 50.0469 31.4813 79.6683 36.3798 95.2479L109.82 94.4789C102.3 74.5152 93.6549 51.8175 95.0724 29.8779Z" fill="#F5F5F5"/>
<path d="M95.0721 29.8779C95.0721 29.9409 95.0721 30.3048 95.0366 31.0957C95.0366 31.498 95.0065 31.9988 94.9873 32.5954C94.9682 33.192 94.9189 33.8844 94.9517 34.6643C94.9873 36.2269 94.9736 38.1562 95.1679 40.4112C95.2062 40.9768 95.2455 41.5634 95.2856 42.1709C95.3458 42.7757 95.4197 43.4024 95.4908 44.0482C95.562 44.6941 95.6386 45.3591 95.7152 46.0432C95.7919 46.7274 95.9178 47.4307 96.0218 48.1504C96.1257 48.8702 96.2434 49.6145 96.3611 50.3726C96.4788 51.1306 96.6484 51.9024 96.7962 52.696C96.944 53.4896 97.0863 54.3024 97.2724 55.1234C97.4585 55.9444 97.6446 56.7873 97.8361 57.6466C97.9347 58.0762 98.0277 58.5114 98.1344 58.9465L98.4683 60.2655C98.6964 61.1522 98.9271 62.0562 99.1607 62.9775C99.3942 63.8989 99.6569 64.8302 99.9488 65.7716C100.083 66.2451 100.222 66.724 100.357 67.2029L100.797 68.6506C103.137 76.45 106.331 85.0704 109.877 94.4571L109.907 94.5392H109.82L38.8097 95.2972L36.3741 95.3218H36.3193L36.3056 95.2726C34.535 89.5667 33.0217 83.88 31.6944 78.2808C30.3671 72.6816 29.2013 67.1646 28.2216 61.7679C27.2419 56.3713 26.4428 51.0951 25.8708 45.9611C25.2825 41.019 25 36.0453 25.0252 31.0684V31.0082H25.0854L95.0639 29.8779L25.0882 31.1313L25.1484 31.0711C25.1261 36.0427 25.4113 41.011 26.0022 45.9475C26.5742 51.0732 27.3705 56.3467 28.3584 61.7433C29.3464 67.14 30.4958 72.6515 31.8312 78.248C33.1667 83.8444 34.6719 89.5284 36.4397 95.2288L36.3713 95.1795L38.8097 95.1549L109.82 94.427L109.762 94.5091C106.221 85.1224 103.036 76.4938 100.701 68.6889C100.554 68.2018 100.409 67.7174 100.261 67.2385C100.113 66.7596 99.9871 66.2779 99.8558 65.8045L99.0704 63.0104C98.8387 62.0872 98.6088 61.1823 98.3807 60.2956C98.2685 59.8523 98.1591 59.4117 98.0469 58.9766C97.9347 58.5414 97.8498 58.1036 97.754 57.6739C97.5625 56.8146 97.3736 55.9745 97.1903 55.148C97.0069 54.3216 96.8728 53.506 96.7169 52.7179C96.5609 51.9297 96.4158 51.1525 96.2872 50.3945L95.9506 48.1778C95.8493 47.4553 95.7207 46.7548 95.6468 46.0706C95.5729 45.3864 95.4991 44.716 95.4279 44.0701C95.3568 43.4243 95.2856 42.7976 95.2281 42.1928C95.1707 41.588 95.1488 40.9969 95.1132 40.4331C94.9271 38.1699 94.9435 36.2406 94.9134 34.6862C94.8861 33.9035 94.9463 33.2194 94.9599 32.6228C94.9736 32.0262 95.0037 31.5281 95.0201 31.1258C95.0557 30.3103 95.0694 29.9409 95.0721 29.8779Z" fill="#263238"/>
<path d="M95.2011 26.3503L25.0338 27.5463C24.7382 46.5221 27.8498 63.9572 32.7511 79.5423L53.0022 92.0816L111.777 91.08C104.251 71.1107 93.7835 48.2899 95.2011 26.3503Z" fill="#FAFAFA"/>
<path d="M95.2009 26.3503C95.2009 26.4133 95.1845 26.7827 95.1517 27.5791C95.1325 27.9868 95.1079 28.4959 95.1051 29.0952C95.1024 29.6945 95.0778 30.3924 95.1051 31.1805C95.184 35.7362 95.6491 40.2771 96.4954 44.7542C97.549 50.5504 99.4044 57.4768 102.084 65.2379C103.416 69.1212 104.943 73.2152 106.599 77.5172C108.255 81.8192 110.044 86.321 111.831 91.0554L111.862 91.1375H111.774L53.002 92.15H52.9801H52.9637L44.2065 86.7205L32.729 79.6053L32.7071 79.5916V79.567C29.9332 70.7569 27.8822 61.7353 26.5743 52.5919C25.4026 44.2976 24.8756 35.9248 24.998 27.549V27.4888H25.0582L95.2256 26.3558L25.061 27.6119L25.1212 27.5517C24.9989 35.9145 25.5223 44.2742 26.6865 52.5564C27.9948 61.6914 30.0449 70.7046 32.8166 79.5068L32.7865 79.4684L44.2639 86.5837L53.0212 92.0159H52.9829L111.755 91.0253L111.7 91.1074C109.916 86.373 108.129 81.8657 106.479 77.5637C104.828 73.2618 103.301 69.165 101.971 65.279C99.3004 57.5124 97.4532 50.5778 96.4105 44.7761C95.5626 40.295 95.1047 35.7489 95.0422 31.1887C95.0203 30.4006 95.0422 29.7027 95.0559 29.1034C95.0696 28.5041 95.0887 28.0087 95.1106 27.5928C95.1845 26.7855 95.1982 26.4133 95.2009 26.3503Z" fill="#263238"/>
<path d="M32.8083 79.5341L50.6375 77.6184L52.9938 92.0788L32.8083 79.5341Z" fill="#E0E0E0"/>
<path d="M52.9939 92.0787C52.9852 92.0559 52.9797 92.0319 52.9774 92.0076C52.9774 91.9501 52.9528 91.8817 52.9337 91.7941L52.7859 90.9731C52.6627 90.2425 52.4848 89.2025 52.2659 87.9108C51.8363 85.3056 51.2397 81.696 50.5665 77.6348L50.6458 77.695L48.9847 77.8729L37.5072 79.0852L34.029 79.4355L33.0821 79.5258L32.8358 79.545H32.751C32.7775 79.536 32.8051 79.5305 32.8331 79.5285L33.0794 79.4957L34.0235 79.3808L37.4963 78.9839L48.971 77.7333L50.6294 77.5554H50.6978V77.6211C51.3491 81.685 51.9293 85.2837 52.3398 87.9054C52.5396 89.1971 52.7038 90.2425 52.816 90.9731C52.8671 91.3271 52.9081 91.6007 52.9391 91.7941L52.9665 92.0103C52.98 92.0311 52.9893 92.0544 52.9939 92.0787Z" fill="#263238"/>
<path d="M82.0295 46.1417C82.0295 46.18 72.5744 46.3743 60.9136 46.574C49.2528 46.7738 39.7922 46.8997 39.7922 46.8614C39.7922 46.8231 49.2446 46.6288 60.9109 46.4317C72.5771 46.2347 82.0295 46.1033 82.0295 46.1417Z" fill="#263238"/>
<path d="M83.2089 52.7234C83.2089 52.7617 73.7538 52.956 62.0903 53.1558C50.4268 53.3556 40.9717 53.4815 40.9717 53.4431C40.9717 53.4048 50.424 53.2105 62.0903 53.0108C73.7566 52.811 83.2062 52.6851 83.2089 52.7234Z" fill="#263238"/>
<path d="M85.8525 59.2803C85.8525 59.3187 76.3974 59.513 64.7366 59.71C53.0758 59.907 43.6152 60.0384 43.6152 60.0001C43.6152 59.9618 53.0676 59.7675 64.7339 59.5677C76.4001 59.3679 85.8525 59.2393 85.8525 59.2803Z" fill="#263238"/>
<path d="M88.6166 66.713C88.6166 66.7541 79.1616 66.9457 67.5008 67.1454C55.8399 67.3452 46.3794 67.4738 46.3794 67.4328C46.3794 67.3917 55.8317 67.2029 67.498 67.0031C79.1643 66.8034 88.6166 66.6747 88.6166 66.713Z" fill="#263238"/>
<path d="M91.7526 73.6285C91.7526 73.6668 82.2975 73.8611 70.6367 74.0581C58.9759 74.2552 49.5154 74.3865 49.5154 74.3482C49.5154 74.3099 58.9677 74.1156 70.634 73.9158C82.3003 73.7161 91.7526 73.5874 91.7526 73.6285Z" fill="#263238"/>
<path d="M116.757 95.0098C116.735 94.9906 117.083 94.6157 117.526 93.9315C117.784 93.5286 118.011 93.1068 118.205 92.6699C118.683 91.6001 118.961 90.4519 119.026 89.282C119.052 88.8075 119.041 88.3317 118.993 87.8589C118.914 87.038 118.771 86.5563 118.802 86.5481C118.848 86.6585 118.884 86.7731 118.908 86.8902C118.949 87.024 118.981 87.1602 119.004 87.2979C119.034 87.4594 119.075 87.6428 119.094 87.8453C119.155 88.3252 119.177 88.8095 119.157 89.2929C119.129 89.8847 119.048 90.4728 118.914 91.0499C118.77 91.6251 118.576 92.1865 118.334 92.7274C118.131 93.1668 117.892 93.5888 117.619 93.989C117.507 94.1641 117.387 94.3065 117.288 94.4378C117.203 94.5495 117.112 94.6564 117.015 94.758C116.938 94.8506 116.852 94.935 116.757 95.0098Z" fill="#263238"/>
<path d="M112.548 96.5696C112.532 96.5532 112.874 96.2413 113.369 95.683C114.642 94.2249 115.55 92.4862 116.021 90.6093C116.202 89.8923 116.262 89.4352 116.295 89.4407C116.293 89.553 116.28 89.6649 116.257 89.7746C116.224 90.0673 116.175 90.3578 116.109 90.6448C115.684 92.5566 114.762 94.3222 113.435 95.7623C113.236 95.9803 113.025 96.1868 112.803 96.3808C112.727 96.4549 112.641 96.5184 112.548 96.5696Z" fill="#263238"/>
<path d="M98.2133 41.5156C103.329 39.193 105.593 33.1634 103.27 28.0481C100.947 22.9328 94.9179 20.6689 89.8026 22.9914C84.6873 25.314 82.4233 31.3435 84.7459 36.4589C87.0684 41.5742 93.098 43.8381 98.2133 41.5156Z" fill="#0C1248"/>
<path d="M93.7601 28.7004C93.8002 31.0594 93.8404 33.4184 93.8805 35.7774C93.8969 36.6558 95.2653 36.6586 95.2488 35.7774C95.2105 33.4184 95.1704 31.0594 95.1284 28.7004C95.1147 27.8219 93.7464 27.8192 93.7601 28.7004Z" fill="white"/>
<path d="M90.7192 32.9887L98.2915 32.8573C99.1699 32.8573 99.1727 31.489 98.2915 31.489L90.7192 31.6204C89.8407 31.6341 89.838 33.0024 90.7192 32.9887Z" fill="white"/>
<g opacity="0.3">
<path opacity="0.3" d="M99.2894 33.5369C97.3571 33.1436 95.3506 33.3548 93.5425 34.1417C93.9294 34.8088 94.3755 35.4398 94.8752 36.0272C95.3021 36.5581 95.9425 37.1219 96.5856 36.8838C96.7506 36.7929 96.9303 36.7318 97.1165 36.7032C97.4066 36.7032 97.6009 36.9905 97.7624 37.2341C98.194 37.8822 98.7413 38.4454 99.377 38.8952C99.7191 39.1388 100.236 39.3276 100.513 39.0129C100.632 38.841 100.687 38.6328 100.669 38.4245C100.691 36.8674 99.9927 34.9271 99.2894 33.5369Z" fill="black"/>
</g>
</svg>
