<svg width="22" height="22" viewBox="0 0 22 22" fill="none" xmlns="http://www.w3.org/2000/svg">
<path d="M7.975 2.75H14.025C14.3 2.75 14.4833 2.84167 14.6667 3.025L18.975 7.33333C19.1583 7.51667 19.25 7.7 19.25 7.975V14.025C19.25 14.3 19.1583 14.4833 18.975 14.6667L14.6667 18.975C14.4833 19.1583 14.3 19.25 14.025 19.25H7.975C7.7 19.25 7.51667 19.1583 7.33333 18.975L3.025 14.6667C2.84167 14.4833 2.75 14.3 2.75 14.025V7.975C2.75 7.7 2.84167 7.51667 3.025 7.33333L7.33333 3.025C7.51667 2.84167 7.7 2.75 7.975 2.75V2.75Z" stroke="#0C1248" stroke-width="1.5" stroke-linecap="round" stroke-linejoin="round"/>
<path d="M11 7.33325V10.9999" stroke="#0C1248" stroke-width="1.5" stroke-linecap="round" stroke-linejoin="round"/>
<path d="M11 14.6667H11.01" stroke="#0C1248" stroke-width="1.5" stroke-linecap="round" stroke-linejoin="round"/>
</svg>
