<svg width="22" height="22" viewBox="0 0 22 22" fill="none" xmlns="http://www.w3.org/2000/svg">
<path d="M6.41675 9.16675L11.0001 3.66675L15.5834 9.16675" stroke="#0C1248" stroke-width="1.5" stroke-linecap="round" stroke-linejoin="round"/>
<path d="M19.25 9.16675L17.4167 16.5001C17.331 17.0255 17.1006 17.4967 16.7656 17.8317C16.4306 18.1667 16.0122 18.3442 15.5833 18.3334H6.41667C5.98777 18.3442 5.56941 18.1667 5.23443 17.8317C4.89944 17.4967 4.66904 17.0255 4.58333 16.5001L2.75 9.16675H19.25Z" stroke="#0C1248" stroke-width="1.5" stroke-linecap="round" stroke-linejoin="round"/>
<path d="M11.0001 15.5834C12.0126 15.5834 12.8334 14.7626 12.8334 13.7501C12.8334 12.7376 12.0126 11.9167 11.0001 11.9167C9.98756 11.9167 9.16675 12.7376 9.16675 13.7501C9.16675 14.7626 9.98756 15.5834 11.0001 15.5834Z" stroke="#0C1248" stroke-width="1.5" stroke-linecap="round" stroke-linejoin="round"/>
</svg>
