<svg width="20" height="20" viewBox="0 0 20 20" fill="none" xmlns="http://www.w3.org/2000/svg">
<path d="M8.66699 14.667C5.93366 14.667 3.66699 12.4003 3.66699 9.66699C3.66699 6.93366 5.93366 4.66699 8.66699 4.66699C11.4003 4.66699 13.667 6.93366 13.667 9.66699C13.667 12.4003 11.4003 14.667 8.66699 14.667ZM8.66699 5.33366C6.26699 5.33366 4.33366 7.26699 4.33366 9.66699C4.33366 12.067 6.26699 14.0003 8.66699 14.0003C11.067 14.0003 13.0003 12.067 13.0003 9.66699C13.0003 7.26699 11.067 5.33366 8.66699 5.33366Z" fill="#D03737" stroke="#D03737" stroke-width="0.5"/>
<path d="M8.66698 8.667C8.46698 8.667 8.33365 8.53367 8.33365 8.33367V7.00033C8.33365 6.80033 8.46698 6.66699 8.66698 6.66699C8.86698 6.66699 9.00031 6.80033 9.00031 7.00033V8.33367C9.00031 8.53367 8.86698 8.667 8.66698 8.667ZM8.66698 12.667C8.46698 12.667 8.33365 12.5337 8.33365 12.3337V11.0003C8.33365 10.8003 8.46698 10.667 8.66698 10.667C8.86698 10.667 9.00031 10.8003 9.00031 11.0003V12.3337C9.00031 12.5337 8.86698 12.667 8.66698 12.667ZM11.3336 10.0003H10.0003C9.80031 10.0003 9.66697 9.86701 9.66697 9.66701C9.66697 9.46701 9.80031 9.33367 10.0003 9.33367H11.3336C11.5336 9.33367 11.667 9.46701 11.667 9.66701C11.667 9.86701 11.5336 10.0003 11.3336 10.0003ZM7.33365 10.0003H6.00032C5.80032 10.0003 5.66699 9.86701 5.66699 9.66701C5.66699 9.46701 5.80032 9.33367 6.00032 9.33367H7.33365C7.53365 9.33367 7.66698 9.46701 7.66698 9.66701C7.66698 9.86701 7.53365 10.0003 7.33365 10.0003ZM9.60031 9.067C9.53364 9.067 9.40031 9.067 9.33364 9.00034C9.20031 8.867 9.20031 8.667 9.33364 8.53367L10.267 7.60033C10.4003 7.467 10.6003 7.467 10.7336 7.60033C10.867 7.73366 10.867 7.93367 10.7336 8.067L9.80031 9.00034C9.80031 9.00034 9.66697 9.067 9.60031 9.067ZM6.80032 11.867C6.73365 11.867 6.60032 11.867 6.53365 11.8004C6.40032 11.667 6.40032 11.467 6.53365 11.3337L7.46698 10.4003C7.60032 10.267 7.80032 10.267 7.93365 10.4003C8.06698 10.5337 8.06698 10.7337 7.93365 10.867L7.00032 11.8004C6.93365 11.867 6.86699 11.867 6.80032 11.867ZM10.5336 11.867C10.467 11.867 10.3336 11.867 10.267 11.8004L9.33364 10.867C9.20031 10.7337 9.20031 10.5337 9.33364 10.4003C9.46697 10.267 9.66697 10.267 9.80031 10.4003L10.7336 11.3337C10.867 11.467 10.867 11.667 10.7336 11.8004C10.7336 11.867 10.667 11.867 10.5336 11.867ZM7.73365 9.067C7.66698 9.067 7.53365 9.067 7.46698 9.00034L6.53365 8.067C6.40032 7.93367 6.40032 7.73366 6.53365 7.60033C6.66699 7.467 6.86699 7.467 7.00032 7.60033L7.93365 8.53367C8.06698 8.667 8.06698 8.867 7.93365 9.00034C7.86698 9.00034 7.80032 9.067 7.73365 9.067Z" fill="#D03737" stroke="#D03737" stroke-width="0.5"/>
<path d="M8.66667 17.3333C4.46667 17.3333 1 13.8667 1 9.66667C1 5.46667 4.46667 2 8.66667 2C10.6667 2 12.5333 2.73333 14 4.13333C14.0667 4.2 14.1333 4.33333 14.0667 4.46667C13.9333 4.86667 13.8667 5.2 13.8667 5.6C13.8667 7.06667 14.7333 8.4 16.0667 9C16.2 9.06667 16.2667 9.13333 16.2667 9.26667V9.66667C16.3333 13.8667 12.8667 17.3333 8.66667 17.3333ZM8.66667 2.66667C4.8 2.66667 1.66667 5.8 1.66667 9.66667C1.66667 13.5333 4.8 16.6667 8.66667 16.6667C12.5333 16.6667 15.6667 13.5333 15.6667 9.66667V9.53333C14.5 8.5 13.8667 7.14586 13.2 5.6C13.2 5.26667 13.2667 4.86667 13.3333 4.53333C12.0667 3.33333 10.4 2.66667 8.66667 2.66667Z" fill="#D03737" stroke="#D03737" stroke-width="0.5"/>
<path d="M10.6053 2.61572L9.5 3.5C9.6037 3.43778 15 5.5 15 10.5C15 10.5 15 11 17 9C18.2983 7.70173 16.1161 3.81608 13.6331 2.19053C12.6821 1.56798 11.4929 1.90569 10.6053 2.61572Z" fill="white" stroke="#D03737" stroke-width="1.1" stroke-linejoin="round"/>
<path d="M17.4998 14C15.9994 15.5 15.5 19 17.5 19C19.5 19 18.9994 15.5 17.4998 14Z" stroke="#D03737" stroke-width="1.1"/>
</svg>
