<svg width="40" height="40" viewBox="0 0 40 40" fill="none" xmlns="http://www.w3.org/2000/svg">
<circle cx="20" cy="20" r="20" fill="#DBE7FF"/>
<path d="M14.1667 15.8335H15C15.442 15.8335 15.866 15.6579 16.1785 15.3453C16.4911 15.0328 16.6667 14.6089 16.6667 14.1668C16.6667 13.9458 16.7545 13.7339 16.9107 13.5776C17.067 13.4213 17.279 13.3335 17.5 13.3335H22.5C22.721 13.3335 22.933 13.4213 23.0893 13.5776C23.2455 13.7339 23.3333 13.9458 23.3333 14.1668C23.3333 14.6089 23.5089 15.0328 23.8215 15.3453C24.134 15.6579 24.558 15.8335 25 15.8335H25.8333C26.2754 15.8335 26.6993 16.0091 27.0118 16.3217C27.3244 16.6342 27.5 17.0581 27.5 17.5002V25.0002C27.5 25.4422 27.3244 25.8661 27.0118 26.1787C26.6993 26.4912 26.2754 26.6668 25.8333 26.6668H14.1667C13.7246 26.6668 13.3007 26.4912 12.9882 26.1787C12.6756 25.8661 12.5 25.4422 12.5 25.0002V17.5002C12.5 17.0581 12.6756 16.6342 12.9882 16.3217C13.3007 16.0091 13.7246 15.8335 14.1667 15.8335" stroke="#0C1248" stroke-width="1.5" stroke-linecap="round" stroke-linejoin="round"/>
<path d="M20 23.3335C21.3807 23.3335 22.5 22.2142 22.5 20.8335C22.5 19.4528 21.3807 18.3335 20 18.3335C18.6193 18.3335 17.5 19.4528 17.5 20.8335C17.5 22.2142 18.6193 23.3335 20 23.3335Z" stroke="#0C1248" stroke-width="1.5" stroke-linecap="round" stroke-linejoin="round"/>
</svg>
