<svg width="28" height="28" viewBox="0 0 28 28" fill="none" xmlns="http://www.w3.org/2000/svg">
<path d="M5.83333 8.16663H7C7.61884 8.16663 8.21233 7.92079 8.64992 7.48321C9.0875 7.04562 9.33333 6.45213 9.33333 5.83329C9.33333 5.52387 9.45625 5.22713 9.67504 5.00833C9.89383 4.78954 10.1906 4.66663 10.5 4.66663H17.5C17.8094 4.66663 18.1062 4.78954 18.325 5.00833C18.5437 5.22713 18.6667 5.52387 18.6667 5.83329C18.6667 6.45213 18.9125 7.04562 19.3501 7.48321C19.7877 7.92079 20.3812 8.16663 21 8.16663H22.1667C22.7855 8.16663 23.379 8.41246 23.8166 8.85004C24.2542 9.28763 24.5 9.88112 24.5 10.5V21C24.5 21.6188 24.2542 22.2123 23.8166 22.6499C23.379 23.0875 22.7855 23.3333 22.1667 23.3333H5.83333C5.21449 23.3333 4.621 23.0875 4.18342 22.6499C3.74583 22.2123 3.5 21.6188 3.5 21V10.5C3.5 9.88112 3.74583 9.28763 4.18342 8.85004C4.621 8.41246 5.21449 8.16663 5.83333 8.16663" stroke="#121212" stroke-linecap="round" stroke-linejoin="round"/>
<path d="M14 18.6666C15.933 18.6666 17.5 17.0996 17.5 15.1666C17.5 13.2336 15.933 11.6666 14 11.6666C12.067 11.6666 10.5 13.2336 10.5 15.1666C10.5 17.0996 12.067 18.6666 14 18.6666Z" stroke="#121212" stroke-linecap="round" stroke-linejoin="round"/>
</svg>
