<svg width="25" height="26" viewBox="0 0 25 26" fill="none" xmlns="http://www.w3.org/2000/svg">
<path d="M12.5 11.9583V6.75M5.20833 18.2083H3.125V11.9583L5.20833 6.75H14.5833L18.75 11.9583H19.7917C20.3442 11.9583 20.8741 12.1778 21.2648 12.5685C21.6555 12.9592 21.875 13.4891 21.875 14.0417V18.2083H19.7917H5.20833ZM15.625 18.2083H9.375H15.625ZM3.125 11.9583H18.75H3.125Z" stroke="#121212" stroke-linecap="round" stroke-linejoin="round"/>
<path d="M7.29165 20.2917C8.44224 20.2917 9.37498 19.3589 9.37498 18.2083C9.37498 17.0577 8.44224 16.125 7.29165 16.125C6.14105 16.125 5.20831 17.0577 5.20831 18.2083C5.20831 19.3589 6.14105 20.2917 7.29165 20.2917Z" fill="white" stroke="#121212" stroke-linecap="round" stroke-linejoin="round"/>
<path d="M17.7083 20.2917C18.8589 20.2917 19.7917 19.3589 19.7917 18.2083C19.7917 17.0577 18.8589 16.125 17.7083 16.125C16.5577 16.125 15.625 17.0577 15.625 18.2083C15.625 19.3589 16.5577 20.2917 17.7083 20.2917Z" fill="white" stroke="#121212" stroke-linecap="round" stroke-linejoin="round"/>
</svg>
