<svg width="80" height="80" viewBox="0 0 80 80" fill="none" xmlns="http://www.w3.org/2000/svg">
<path d="M70.7401 18.6156C70.7401 33.9867 78.7023 44.5422 78.7023 51.9489C78.7023 59.3556 74.4446 74.9111 40.3712 74.9111C6.29788 74.9111 1.29565 53.9845 1.29565 45.8378C1.29565 7.6889 70.7401 -8.60666 70.7401 18.6156Z" fill="#EFEFEF"/>
<path d="M15.3333 65.0667C13.4956 65.0667 12 63.5711 12 61.7334C12 59.8956 13.4956 58.4 15.3333 58.4C17.1711 58.4 18.6667 59.8956 18.6667 61.7334C18.6667 63.5711 17.1711 65.0667 15.3333 65.0667ZM15.3333 60.6222C14.72 60.6222 14.2222 61.12 14.2222 61.7334C14.2222 62.3467 14.72 62.8445 15.3333 62.8445C15.9467 62.8445 16.4444 62.3467 16.4444 61.7334C16.4444 61.12 15.9467 60.6222 15.3333 60.6222Z" fill="#A4AFC1"/>
<path d="M62.0151 5.8233L63.5865 4.25195L66.7292 7.39465L65.1578 8.966L62.0151 5.8233Z" fill="#A4AFC1"/>
<path d="M71.0471 14.8611L72.6185 13.2897L75.7612 16.4324L74.1898 18.0038L71.0471 14.8611Z" fill="#A4AFC1"/>
<path d="M62.3999 15.9427L65.5426 12.8L67.1139 14.3713L63.9712 17.514L62.3999 15.9427Z" fill="#A4AFC1"/>
<path d="M70.6497 7.3866L73.7924 4.2439L75.3637 5.81525L72.221 8.95795L70.6497 7.3866Z" fill="#A4AFC1"/>
<path d="M57.001 44.7464C57.001 45.522 57.2135 46.2445 57.5747 46.8713C58.3078 48.1463 59.6783 48.9962 61.2508 48.9962C62.8232 48.9962 64.1937 48.1463 64.9268 46.8713C65.2881 46.2445 65.5006 45.522 65.5006 44.7464C65.5006 43.9708 65.2881 43.2484 64.9268 42.6215C64.1937 41.3466 62.8232 40.4966 61.2508 40.4966C60.932 40.4966 60.6133 40.5285 60.3158 40.6029C60.2096 40.6241 60.114 40.656 60.0077 40.6773C59.9971 40.6879 59.9865 40.6879 59.9758 40.6985C59.7846 40.7516 59.5934 40.8366 59.4021 40.9216C59.2215 41.0066 59.0409 41.1129 58.8815 41.2191C58.7434 41.3147 58.6053 41.421 58.4672 41.5272C58.3609 41.6228 58.2547 41.7291 58.159 41.8353C58.0634 41.9416 57.9678 42.0478 57.8828 42.1647C57.7341 42.3453 57.6172 42.5259 57.511 42.7278C57.3835 42.9615 57.2772 43.2165 57.1922 43.4821C57.1497 43.6202 57.1178 43.7584 57.086 43.8965C57.0647 44.0133 57.0435 44.1302 57.0329 44.2577C57.0116 44.4171 57.001 44.5764 57.001 44.7464Z" fill="#C3D7FF"/>
<path d="M18.7529 44.7464C18.7529 44.9377 18.7636 45.1289 18.7954 45.3202C18.8167 45.4795 18.8486 45.6389 18.891 45.7876C18.891 45.8301 18.9017 45.8726 18.9229 45.9151C18.9548 46.0214 18.9867 46.1276 19.0292 46.2232C19.061 46.3295 19.0929 46.4251 19.146 46.5207C19.1992 46.6376 19.2629 46.7545 19.3267 46.8607V46.8713C20.0597 48.1463 21.4303 48.9962 23.0027 48.9962C24.5751 48.9962 25.9457 48.1463 26.6788 46.8713C27.04 46.2445 27.2525 45.522 27.2525 44.7464C27.2525 43.6734 26.8488 42.6959 26.1901 41.9416C25.4145 41.0597 24.2777 40.4966 23.0027 40.4966C21.4303 40.4966 20.0597 41.3466 19.3267 42.6215V42.6322C19.2629 42.7384 19.1992 42.8553 19.146 42.9721C19.0929 43.0678 19.061 43.1634 19.0292 43.2696C18.9867 43.3652 18.9548 43.4715 18.9229 43.5777C18.9017 43.6202 18.891 43.6627 18.891 43.7052C18.8486 43.854 18.8167 44.0133 18.7954 44.1727C18.7636 44.364 18.7529 44.5552 18.7529 44.7464Z" fill="#C3D7FF"/>
<path d="M35.752 29.8721H28.3149C26.9337 29.8721 25.5737 30.2865 24.4263 31.0514L16.6279 36.2468H26.19H37.8769H52.7512L43.1891 29.8721H35.752Z" fill="#C3D7FF"/>
<path d="M69.7671 41.5591H69.3953C67.9567 38.3101 64.9202 36.079 61.3238 35.7177L53.1228 35.2067L43.5278 28.8097H36.5348H34.2952H29.9009H28.3316H27.6124L27.59 28.8639C26.2588 28.9861 24.9775 29.4174 23.8524 30.1675L16.3217 35.1844H10.27V41.5591V43.684V44.1238L14.08 47.9338H18.7781C19.7715 49.2565 21.3429 50.0587 23.0194 50.0587C24.697 50.0587 26.2694 49.2565 27.2607 47.9338H36.8312H38.9561H50.4093H52.5767H57.0262C58.0196 49.2565 59.591 50.0587 61.2675 50.0587C62.9451 50.0587 64.5175 49.2565 65.5088 47.9338H67.9641L71.892 45.3148V43.684C71.892 42.5121 70.939 41.5591 69.7671 41.5591ZM14.9597 45.8089L12.8348 43.684H17.8177C17.7953 43.7945 17.7762 43.9018 17.7635 43.9963C17.722 44.246 17.7061 44.4957 17.7061 44.7464C17.7061 44.9972 17.722 45.2458 17.7582 45.4572C17.773 45.5751 17.7932 45.6931 17.8187 45.8089H14.9597ZM19.4198 40.8557C19.355 40.9163 19.2881 40.9737 19.2265 41.0374C19.1266 41.1405 19.0342 41.2499 18.9417 41.3615C18.8928 41.4199 18.8408 41.4751 18.794 41.5357C18.7877 41.5442 18.7802 41.5506 18.7739 41.5591H12.3949V40.4966H15.5823V38.3717H12.3949V37.3093H13.1333H25.1443V39.8794C25.1284 39.8719 25.1092 39.8698 25.0933 39.8634C24.7799 39.7306 24.4558 39.6233 24.1212 39.5521C24.1073 39.5489 24.0946 39.5479 24.0808 39.5457C23.7344 39.4746 23.3785 39.4352 23.0194 39.4352C22.7952 39.4352 22.5732 39.4522 22.3543 39.4799C22.2821 39.4894 22.2119 39.5064 22.1397 39.5181C21.9941 39.5426 21.8496 39.5691 21.7073 39.6052C21.6244 39.6265 21.5437 39.6541 21.4618 39.6796C21.3344 39.7189 21.2079 39.7604 21.0847 39.8092C21.0007 39.8422 20.9189 39.8793 20.8361 39.9165C20.7192 39.9697 20.6045 40.026 20.4918 40.0865C20.4111 40.1301 20.3314 40.1758 20.2528 40.2236C20.1444 40.2905 20.0392 40.3606 19.9362 40.435C19.8618 40.4881 19.7864 40.5413 19.7152 40.5986C19.6121 40.6804 19.5154 40.7676 19.4198 40.8557ZM25.7743 46.3422C25.2112 47.3239 24.1552 47.9338 23.0194 47.9338C21.9644 47.9338 20.9774 47.4057 20.3898 46.542L20.256 46.3178C20.2124 46.2434 20.1667 46.1627 20.1306 46.0819L20.0169 45.7929C19.9989 45.7515 19.9861 45.7069 19.9702 45.6527L19.9298 45.4955C19.9011 45.3956 19.8799 45.2893 19.8607 45.1438C19.8384 45.011 19.8331 44.8782 19.8331 44.7454C19.8331 44.6126 19.8384 44.4798 19.866 44.3087C19.8809 44.2014 19.9011 44.0951 19.9309 43.9963L19.9712 43.8402C19.9861 43.7913 19.9978 43.7435 20.018 43.6999L20.1317 43.4109C20.1678 43.3302 20.2124 43.2505 20.256 43.1772L20.2878 43.1209C20.3771 42.969 20.4929 42.8404 20.6045 42.7087C20.6778 42.6215 20.7426 42.527 20.8244 42.4494C20.9412 42.3379 21.0762 42.2475 21.2079 42.1551C21.295 42.0946 21.3737 42.0223 21.4672 41.9702C21.6233 41.8831 21.7933 41.8247 21.9633 41.7641C22.0473 41.7344 22.1248 41.6898 22.2109 41.6664C22.4722 41.5973 22.7432 41.558 23.0194 41.558C23.2669 41.558 23.5092 41.592 23.745 41.6483C24.3825 41.7992 24.9658 42.1392 25.4078 42.6417C25.922 43.2324 26.2067 43.9793 26.2067 44.7454C26.2067 45.3074 26.0612 45.8439 25.7743 46.3422ZM25.1443 34.9804V35.1844H20.1561L25.0327 31.9354C25.5416 31.5965 26.092 31.3404 26.6678 31.1726L25.1443 34.9804ZM29.0509 30.9346H35.0027L35.7114 33.0595L36.4201 35.1844H27.3521L29.0509 30.9346ZM36.8312 45.8089H28.2222C28.2307 45.7696 28.2275 45.7281 28.235 45.6888C28.2923 45.3775 28.3316 45.063 28.3316 44.7464C28.3316 44.4426 28.3008 44.1408 28.2488 43.8433C28.2318 43.7456 28.1999 43.6521 28.1776 43.5554C28.1319 43.3578 28.083 43.1623 28.015 42.9711C27.9757 42.8616 27.9247 42.7575 27.878 42.6502C27.8036 42.4792 27.726 42.3102 27.6347 42.1477C27.5741 42.0404 27.5061 41.9394 27.4392 41.8364C27.3807 41.7482 27.334 41.6526 27.2703 41.5676V37.3093H36.8323V45.8089H36.8312ZM38.6597 35.1844L37.951 33.0595L37.2424 30.9346H42.884L49.2587 35.1844H38.9561H38.6597ZM50.8343 45.8089H38.9561V37.3093H39.3683H50.8353L51.6853 41.5591L50.8343 45.8089ZM64.0225 46.3422C63.4594 47.3239 62.4033 47.9338 61.2675 47.9338C60.1339 47.9338 59.0768 47.3239 58.5115 46.3412C58.2247 45.8439 58.0802 45.3074 58.0802 44.7464C58.0802 44.6264 58.0876 44.5138 58.1089 44.3438C58.1152 44.2662 58.1301 44.1876 58.1471 44.092C58.1684 44.0048 58.1885 43.9188 58.2109 43.8391L58.2226 43.7987C58.2884 43.5937 58.3681 43.4046 58.469 43.2208C58.5413 43.0837 58.6167 42.9711 58.7081 42.8574C58.7262 42.834 58.7378 42.8149 58.758 42.7894C58.8207 42.7023 58.893 42.6247 58.9652 42.545C59.0353 42.4664 59.1161 42.3878 59.1309 42.3687C59.2499 42.2762 59.37 42.1849 59.4932 42.0988C59.608 42.0223 59.7397 41.9437 59.8481 41.8927C59.9926 41.8289 60.135 41.762 60.2773 41.7216L60.5451 41.6473L60.5461 41.6462L60.5897 41.6345C60.7873 41.5856 61.0136 41.5601 61.2665 41.5601C62.1175 41.5601 62.9249 41.9033 63.5125 42.4898C63.708 42.6853 63.8801 42.9073 64.0203 43.1528L64.0225 43.157C64.3083 43.6542 64.4527 44.1886 64.4527 44.7486C64.4549 45.3074 64.3093 45.8439 64.0225 46.3422ZM65.4897 41.5304C65.4514 41.4805 65.4089 41.4358 65.3696 41.388C65.2698 41.2658 65.1678 41.1458 65.0583 41.0342C65.001 40.9747 64.9383 40.9216 64.8777 40.8653C64.7779 40.7729 64.6769 40.6815 64.5707 40.5965C64.5006 40.5413 64.4294 40.4903 64.3571 40.4382C64.2519 40.3628 64.1446 40.2905 64.0341 40.2225C63.9566 40.1758 63.879 40.1301 63.7993 40.0876C63.6857 40.026 63.5698 39.9697 63.4519 39.9155C63.3701 39.8783 63.2894 39.8411 63.2054 39.8082C63.0811 39.7593 62.9547 39.7179 62.8272 39.6785C62.7454 39.653 62.6657 39.6254 62.5828 39.6042C62.4405 39.5681 62.2949 39.5415 62.1483 39.516C62.0771 39.5043 62.007 39.4873 61.9347 39.4777C61.7138 39.4512 61.4917 39.4342 61.2675 39.4342C60.8734 39.4342 60.5079 39.4777 60.204 39.5468C60.1913 39.55 60.1753 39.5479 60.1626 39.5511C60.0818 39.5617 60.033 39.5755 60.0436 39.5755C59.9841 39.5851 59.9235 39.6074 59.8619 39.6233C59.8438 39.6275 59.8354 39.6297 59.8152 39.635L59.4401 39.7689L59.4221 39.7699C59.2808 39.823 59.1416 39.8825 59.0119 39.941C59.0088 39.942 59.0066 39.9442 59.0035 39.9452C58.9907 39.9505 58.979 39.9548 58.9652 39.9612C58.9503 39.9686 58.9365 39.9792 58.9216 39.9867C58.672 40.1003 58.4542 40.2353 58.2969 40.3447C58.1418 40.4509 57.9888 40.5689 57.7721 40.7399C57.6393 40.86 57.5054 40.9939 57.4247 41.0863C57.4215 41.0895 57.4162 41.0969 57.413 41.1001C57.4045 41.1097 57.3949 41.1171 57.3875 41.1256C57.2674 41.2584 57.1484 41.3933 57.0783 41.4932C57.0762 41.4953 57.0762 41.4975 57.074 41.4996C57.0634 41.5145 57.0528 41.5219 57.0422 41.5378C56.8679 41.7567 56.7256 41.9756 56.6342 42.1572C56.6278 42.1679 56.6225 42.1796 56.6161 42.1902C56.6108 42.2008 56.6023 42.2093 56.5959 42.2199C56.5917 42.2274 56.5896 42.2369 56.5853 42.2444C56.4642 42.4473 56.359 42.664 56.273 42.9169L56.1826 43.1825C56.1603 43.2548 56.1529 43.3121 56.1359 43.3801C56.1115 43.4736 56.0881 43.5756 56.0583 43.7042C56.0307 43.8561 56.0042 44.008 55.9967 44.1164C55.9691 44.3225 55.9553 44.5286 55.9553 44.7496C55.9553 45.0662 55.9946 45.3807 56.052 45.692C56.0594 45.7313 56.0562 45.7717 56.0647 45.8121H53.0017L53.8506 41.5623L53.0038 37.3295L61.1496 37.8384C63.6187 38.087 65.7766 39.4777 67.026 41.5623H65.5131C65.5067 41.5485 65.4971 41.54 65.4897 41.5304ZM69.7671 44.178L67.3203 45.8089H66.4703C66.4788 45.7696 66.4756 45.7281 66.4831 45.6888C66.5405 45.3775 66.5798 45.063 66.5798 44.7464C66.5798 44.4298 66.5405 44.1153 66.4831 43.804C66.4756 43.7647 66.4788 43.7233 66.4703 43.684H69.7671V44.178Z" fill="#0C1248"/>
<path d="M62.3344 43.684H60.2095V45.8089H62.3344V43.684Z" fill="#0C1248"/>
<path d="M24.0861 43.684H21.9612V45.8089H24.0861V43.684Z" fill="#0C1248"/>
</svg>
