<svg width="26" height="19" viewBox="0 0 26 19" fill="none" xmlns="http://www.w3.org/2000/svg">
<path d="M13 7.66667V1M3.66667 15.6667H1V7.66667L3.66667 1H15.6667L21 7.66667H22.3333C23.0406 7.66667 23.7189 7.94762 24.219 8.44771C24.719 8.94781 25 9.62609 25 10.3333V15.6667H22.3333H3.66667ZM17 15.6667H9H17ZM1 7.66667H21H1Z" stroke="#121212" stroke-opacity="0.4" stroke-linecap="round" stroke-linejoin="round"/>
<path d="M6.33317 18.3333C7.80593 18.3333 8.99984 17.1394 8.99984 15.6667C8.99984 14.1939 7.80593 13 6.33317 13C4.86041 13 3.6665 14.1939 3.6665 15.6667C3.6665 17.1394 4.86041 18.3333 6.33317 18.3333Z" fill="white" stroke="#121212" stroke-opacity="0.4" stroke-linecap="round" stroke-linejoin="round"/>
<path d="M19.6667 18.3333C21.1394 18.3333 22.3333 17.1394 22.3333 15.6667C22.3333 14.1939 21.1394 13 19.6667 13C18.1939 13 17 14.1939 17 15.6667C17 17.1394 18.1939 18.3333 19.6667 18.3333Z" fill="white" stroke="#121212" stroke-opacity="0.3" stroke-linecap="round" stroke-linejoin="round"/>
</svg>
