<svg width="80" height="80" viewBox="0 0 80 80" fill="none" xmlns="http://www.w3.org/2000/svg">
<path d="M70.7401 18.6156C70.7401 33.9867 78.7023 44.5422 78.7023 51.9489C78.7023 59.3556 74.4445 74.9111 40.3712 74.9111C6.29788 74.9111 1.29565 53.9845 1.29565 45.8378C1.29565 7.6889 70.7401 -8.60666 70.7401 18.6156Z" fill="#EFEFEF"/>
<path d="M15.3333 65.0667C13.4956 65.0667 12 63.5711 12 61.7334C12 59.8956 13.4956 58.4 15.3333 58.4C17.1711 58.4 18.6667 59.8956 18.6667 61.7334C18.6667 63.5711 17.1711 65.0667 15.3333 65.0667ZM15.3333 60.6222C14.72 60.6222 14.2222 61.12 14.2222 61.7334C14.2222 62.3467 14.72 62.8445 15.3333 62.8445C15.9467 62.8445 16.4444 62.3467 16.4444 61.7334C16.4444 61.12 15.9467 60.6222 15.3333 60.6222Z" fill="#A4AFC1"/>
<path d="M62.0151 5.8233L63.5865 4.25195L66.7292 7.39465L65.1578 8.966L62.0151 5.8233Z" fill="#A4AFC1"/>
<path d="M71.0471 14.8611L72.6185 13.2897L75.7612 16.4324L74.1898 18.0038L71.0471 14.8611Z" fill="#A4AFC1"/>
<path d="M62.3999 15.9427L65.5426 12.8L67.1139 14.3713L63.9713 17.514L62.3999 15.9427Z" fill="#A4AFC1"/>
<path d="M70.6497 7.3866L73.7924 4.2439L75.3637 5.81525L72.221 8.95795L70.6497 7.3866Z" fill="#A4AFC1"/>
<path d="M36.1111 22.7778H43.8889V30.5556H36.1111V22.7778Z" fill="#F3F3F1"/>
<path d="M65 40.8511V44.0289C65 45.1489 64.0222 46.0666 62.8267 46.0666H58.4778C58.4778 43.8266 56.5222 41.9933 54.1289 41.9933C51.7356 41.9933 49.78 43.8266 49.78 46.0666H30.2156C30.2156 43.8266 28.26 41.9933 25.8667 41.9933C23.4733 41.9933 21.5178 43.8266 21.5178 46.0666H17.1733C15.9778 46.0666 15 45.1489 15 44.0289V39.0578C15 37.1844 16.3489 35.5533 18.2822 35.1066L23.6956 33.8444H51.9556L62.02 36.9822C63.8044 37.5511 65 39.1 65 40.8511Z" fill="#F3F3F1"/>
<path d="M25.5554 51.4C27.7032 51.4 29.4443 49.6589 29.4443 47.5111C29.4443 45.3634 27.7032 43.6223 25.5554 43.6223C23.4076 43.6223 21.6665 45.3634 21.6665 47.5111C21.6665 49.6589 23.4076 51.4 25.5554 51.4Z" fill="#CCD4EB"/>
<path d="M54.4443 51.4C56.5921 51.4 58.3332 49.6589 58.3332 47.5111C58.3332 45.3634 56.5921 43.6223 54.4443 43.6223C52.2965 43.6223 50.5554 45.3634 50.5554 47.5111C50.5554 49.6589 52.2965 51.4 54.4443 51.4Z" fill="#CCD4EB"/>
<path d="M23.7131 33.3756L25.2131 27.8911C25.6842 26.16 27.3931 24.9556 29.3576 24.9556H34.5709H43.4376C45.8531 24.9556 48.0754 26.2 49.1642 28.1845L52.0442 33.4245L23.7131 33.3756Z" fill="#CCD4EB"/>
<path d="M20 44.0289V39.0578C20 37.1844 21.3489 35.5533 23.2822 35.1066L28.6956 33.8444H23.6956L18.2822 35.1066C16.3489 35.5555 15 37.1844 15 39.06V44.0311C15 45.1511 15.9778 46.0689 17.1733 46.0689H21.5222C21.5222 46.0266 21.5333 45.9889 21.5356 45.9466C20.6533 45.6844 20 44.9378 20 44.0289Z" fill="#D5DBE1"/>
<path d="M26.6665 47.5111C26.6665 46.3266 27.2132 45.2755 28.0554 44.56C27.3776 43.9822 26.511 43.6222 25.5554 43.6222C23.4176 43.6222 21.6665 45.3711 21.6665 47.5111C21.6665 49.6489 23.4176 51.4 25.5554 51.4C26.511 51.4 27.3776 51.0378 28.0554 50.4622C27.2132 49.7466 26.6665 48.6955 26.6665 47.5111Z" fill="#A4AFC1"/>
<path d="M55.5554 47.5111C55.5554 46.3266 56.1021 45.2755 56.9443 44.56C56.2665 43.9822 55.3999 43.6222 54.4443 43.6222C52.3065 43.6222 50.5554 45.3711 50.5554 47.5111C50.5554 49.6489 52.3065 51.4 54.4443 51.4C55.3999 51.4 56.2665 51.0378 56.9443 50.4622C56.1021 49.7466 55.5554 48.6955 55.5554 47.5111Z" fill="#A4AFC1"/>
<path d="M28.7134 33.3756L30.2134 27.8911C30.6823 26.16 32.3934 24.9556 34.3578 24.9556H29.3578C27.3912 24.9556 25.6823 26.16 25.2134 27.8911L23.7134 33.3756H28.7134Z" fill="#A4AFC1"/>
<path d="M25.5556 53.0667C22.4933 53.0667 20 50.5756 20 47.5111C20 44.4467 22.4933 41.9556 25.5556 41.9556C28.6178 41.9556 31.1111 44.4467 31.1111 47.5111C31.1111 50.5756 28.6178 53.0667 25.5556 53.0667ZM25.5556 45.2889C24.3311 45.2889 23.3333 46.2845 23.3333 47.5111C23.3333 48.7378 24.3311 49.7333 25.5556 49.7333C26.78 49.7333 27.7778 48.7378 27.7778 47.5111C27.7778 46.2845 26.78 45.2889 25.5556 45.2889Z" fill="#0C1248"/>
<path d="M54.4445 53.0667C51.3823 53.0667 48.8889 50.5756 48.8889 47.5111C48.8889 44.4467 51.3823 41.9556 54.4445 41.9556C57.5067 41.9556 60 44.4467 60 47.5111C60 50.5756 57.5067 53.0667 54.4445 53.0667ZM54.4445 45.2889C53.22 45.2889 52.2223 46.2845 52.2223 47.5111C52.2223 48.7378 53.22 49.7333 54.4445 49.7333C55.6689 49.7333 56.6667 48.7378 56.6667 47.5111C56.6667 46.2845 55.6689 45.2889 54.4445 45.2889Z" fill="#0C1248"/>
<path d="M62.8268 47.7334H58.4779C57.5579 47.7334 56.8113 46.9867 56.8113 46.0667C56.8113 44.7378 55.6091 43.66 54.1291 43.66C52.6491 43.66 51.4468 44.7378 51.4468 46.0667C51.4468 46.9867 50.7002 47.7334 49.7802 47.7334H30.2135C29.2935 47.7334 28.5468 46.9867 28.5468 46.0667C28.5468 44.7378 27.3446 43.66 25.8646 43.66C24.3846 43.66 23.1824 44.7378 23.1824 46.0667C23.1824 46.9867 22.4357 47.7334 21.5157 47.7334H17.1735C15.0557 47.7334 13.3335 46.0711 13.3335 44.0289V39.06C13.3335 36.4 15.2135 34.1067 17.9068 33.4845L23.3179 32.2222C23.4424 32.1934 23.5691 32.1778 23.6957 32.1778H51.9557C52.1246 32.1778 52.2913 32.2045 52.4513 32.2534L62.5157 35.3911C65.0024 36.1845 66.6668 38.3778 66.6668 40.8511V44.0289C66.6668 46.0711 64.9446 47.7334 62.8268 47.7334ZM59.8868 44.4H62.8268C63.1157 44.4 63.3335 44.2045 63.3335 44.0289V40.8511C63.3335 39.8334 62.6024 38.9178 61.5157 38.5711L51.7024 35.5111H23.8891L18.6624 36.7311C17.4868 37.0022 16.6668 37.96 16.6668 39.06V44.0289C16.6668 44.2045 16.8846 44.4 17.1735 44.4H20.1135C20.8624 42.0445 23.1602 40.3267 25.8691 40.3267C28.5779 40.3267 30.8757 42.0445 31.6246 44.4H48.3735C49.1224 42.0445 51.4202 40.3267 54.1291 40.3267C56.8379 40.3267 59.1379 42.0445 59.8868 44.4Z" fill="#0C1248"/>
<path d="M50.5867 34.2267L47.7067 28.9867C46.9178 27.5511 45.2445 26.6244 43.44 26.6244H29.36C28.14 26.6244 27.0956 27.3244 26.8222 28.3311L25.3222 33.82L22.1067 32.94L23.6067 27.4556C24.2734 25.0044 26.6378 23.2933 29.36 23.2933H43.44C46.4889 23.2933 49.2422 24.86 50.6267 27.3844L53.5067 32.6244L50.5867 34.2267Z" fill="#0C1248"/>
<path d="M32.7778 24.9556H36.1112V33.2889H32.7778V24.9556Z" fill="#0C1248"/>
<path d="M13.6001 52.8H66.4001V56H13.6001V52.8Z" fill="#0C1248"/>
</svg>
