<svg width="327" height="174" viewBox="0 0 327 174" fill="none" xmlns="http://www.w3.org/2000/svg">
<g clip-path="url(#clip0)">
<path d="M285.271 0L265.235 40.4564L271.217 40.6841L254.239 72.8282H263.159L249.248 101.39H327L309.88 72.8282L318.084 72.4723L301.675 40.3425L307.737 39.9867L285.271 0Z" fill="#F5F5F5"/>
<path d="M288.66 46.9421C288.773 46.9421 288.612 71.3716 288.304 101.504C287.996 131.636 287.503 159.453 287.498 159.339C287.465 152.896 287.579 131.636 287.892 101.504C288.204 71.3716 288.541 46.9421 288.66 46.9421Z" fill="#E0E0E0"/>
<path d="M298.186 57.3278C298.276 57.399 296.29 60.1461 293.726 63.4625C291.162 66.7789 289.024 69.4073 288.948 69.3362C288.873 69.265 290.844 66.5227 293.409 63.2063C295.973 59.8899 298.096 57.2567 298.186 57.3278Z" fill="#E0E0E0"/>
<path d="M288.475 68.4775C288.404 68.5676 286.427 67.149 284.067 65.3034C281.706 63.4578 279.844 61.8921 279.91 61.7972C279.976 61.7023 281.958 63.1304 284.323 64.976C286.688 66.8216 288.541 68.3873 288.475 68.4775Z" fill="#E0E0E0"/>
<path d="M287.935 88.3238C287.407 87.9888 286.913 87.6026 286.46 87.1708C285.579 86.426 284.365 85.4011 283.005 84.2862C281.645 83.1712 280.389 82.1938 279.483 81.4822C278.97 81.1254 278.494 80.7186 278.062 80.2676C278.632 80.5266 279.168 80.8549 279.659 81.2449C280.607 81.8997 281.896 82.8486 283.266 83.9635C284.636 85.0785 285.825 86.1508 286.66 86.9526C287.139 87.3552 287.568 87.8158 287.935 88.3238Z" fill="#E0E0E0"/>
<path d="M298.201 76.0546C298.286 76.1305 296.101 79.0056 293.309 82.4786C290.517 85.9516 288.186 88.7082 288.095 88.6465C288.005 88.5848 290.195 85.7001 292.987 82.2272C295.779 78.7542 298.111 75.9834 298.201 76.0546Z" fill="#E0E0E0"/>
<path d="M57.6979 0L39.4449 36.8601L44.8956 37.0688L29.4296 66.3567H37.5489L24.8794 92.3755H95.716L80.122 66.3567L87.5919 66.0293L72.6473 36.7557L78.1692 36.4283L57.6979 0Z" fill="#F5F5F5"/>
<path d="M60.7832 42.7573C60.8875 42.7573 60.7453 65.0091 60.4656 92.456C60.186 119.903 59.8684 151.022 59.7641 151.017C59.6599 151.013 59.802 119.908 60.0864 92.4513C60.3708 64.9948 60.6789 42.7573 60.7832 42.7573Z" fill="#E0E0E0"/>
<path d="M69.4666 52.2323C69.5471 52.2939 67.727 54.799 65.3998 57.8165C63.0725 60.834 61.134 63.2395 61.0392 63.1731C60.9444 63.1067 62.7739 60.6111 65.1012 57.5888C67.4284 54.5666 69.3812 52.1611 69.4666 52.2323Z" fill="#E0E0E0"/>
<path d="M60.6126 62.3903C60.5462 62.4709 58.7498 61.1757 56.5979 59.4961C54.4461 57.8166 52.7492 56.3885 52.8061 56.3031C52.863 56.2176 54.6688 57.5176 56.8255 59.1972C58.9821 60.8768 60.6742 62.3096 60.6126 62.3903Z" fill="#E0E0E0"/>
<path d="M60.1293 80.4716C59.6453 80.1683 59.1941 79.8153 58.7832 79.4183C57.9822 78.7446 56.8873 77.8052 55.6312 76.7946C54.3752 75.784 53.2613 74.8968 52.4271 74.2373C51.9582 73.9134 51.5231 73.5431 51.1284 73.1318C51.6499 73.3659 52.1403 73.6639 52.5883 74.0191C53.4557 74.6169 54.6264 75.4851 55.873 76.5004C57.1195 77.5158 58.2002 78.4884 58.9633 79.219C59.4003 79.5887 59.7917 80.0092 60.1293 80.4716Z" fill="#E0E0E0"/>
<path d="M69.4951 69.2935C69.5757 69.36 67.5992 71.9789 65.0444 75.1435C62.4897 78.3081 60.3757 80.8369 60.3046 80.7563C60.2335 80.6756 62.2005 78.0756 64.7553 74.9063C67.3101 71.7369 69.3956 69.2413 69.4951 69.2935Z" fill="#E0E0E0"/>
<path d="M26.2682 49.3191L12.2099 77.7102L16.4093 77.8715L4.49345 100.427H10.75L0.990723 120.472H52.4177L43.5401 100.427L49.2942 100.18L37.7812 77.6296L42.0375 77.3781L26.2682 49.3191Z" fill="#EBEBEB"/>
<path d="M28.6475 82.2507C28.7281 82.2507 28.6143 99.3926 28.401 120.529C28.1877 141.666 27.927 158.813 27.8607 158.813C27.7943 158.813 27.8891 141.676 28.1071 120.529C28.3252 99.3831 28.5669 82.2507 28.6475 82.2507Z" fill="#E0E0E0"/>
<path d="M35.3353 89.5526C34.3679 91.04 33.322 92.4749 32.2023 93.8511C31.1573 95.2867 30.0355 96.6646 28.8418 97.9788C28.7802 97.9267 30.1784 96.0004 31.9701 93.6756C33.7617 91.3508 35.269 89.5004 35.3353 89.5526Z" fill="#E0E0E0"/>
<path d="M28.515 97.3762C28.4628 97.4379 27.093 96.4273 25.4199 95.1463C24.3887 94.4005 23.4144 93.579 22.5049 92.6886C22.557 92.6222 23.9268 93.6375 25.6 94.9138C27.2731 96.1901 28.5624 97.3098 28.515 97.3762Z" fill="#E0E0E0"/>
<path d="M28.1401 111.301C27.7692 111.066 27.4231 110.795 27.1068 110.49C26.4859 109.968 25.6327 109.247 24.68 108.469C23.7273 107.691 22.8457 106.998 22.2106 106.5C21.849 106.25 21.5139 105.964 21.2104 105.646C21.6113 105.829 21.9885 106.06 22.3338 106.334C23.0021 106.808 23.9027 107.458 24.8648 108.232C25.827 109.005 26.6565 109.764 27.2348 110.329C27.5759 110.614 27.88 110.941 28.1401 111.301Z" fill="#E0E0E0"/>
<path d="M35.3399 102.69C35.4063 102.742 33.8706 104.759 31.913 107.197C29.9555 109.636 28.3155 111.572 28.2539 111.52C29.322 109.962 30.4674 108.46 31.6855 107.017C33.6431 104.578 35.2783 102.643 35.3399 102.69Z" fill="#E0E0E0"/>
<path d="M270.316 159.444C251.793 173.336 226.938 175.309 203.878 173.369C180.819 171.428 157.902 166.11 134.791 167.486C121.704 168.264 108.788 171.182 95.6826 171.414C82.577 171.647 68.6657 168.762 59.186 159.7L270.316 159.444Z" fill="#F5F5F5"/>
<path d="M95.9668 26.5408H158.532C158.532 26.5408 152.996 16.4587 136.886 17.9248C121.5 19.3481 120.718 12.9668 112.897 12.1839C105.077 11.4011 98.5784 17.4029 95.9668 26.5408Z" fill="#EBEBEB"/>
<path d="M151.703 43.7823H185.829C185.829 43.7823 182.81 38.2881 174.027 39.0852C165.638 39.8491 165.211 36.3809 160.945 35.9538C156.679 35.5268 153.125 38.8006 151.703 43.7823Z" fill="#F5F5F5"/>
<path d="M187.223 11.7996H221.349C221.349 11.7996 218.325 6.30067 209.547 7.08825C201.158 7.85212 200.731 4.38389 196.465 3.95688C192.199 3.52988 188.645 6.81782 187.223 11.7996Z" fill="#FAFAFA"/>
<path d="M324.701 159.155C324.701 159.226 252.007 159.278 162.358 159.278C72.7088 159.278 0 159.226 0 159.155C0 159.083 72.6756 159.031 162.358 159.031C252.04 159.031 324.701 159.088 324.701 159.155Z" fill="#263238"/>
<path d="M303.566 112.378C305.811 114.798 307.104 117.951 307.205 121.252C307.306 124.553 306.209 127.778 304.116 130.332C302.211 132.617 299.812 134.441 297.101 135.664L273.81 146.169L257.358 148.717L42.0468 147.35L28.5526 144.707C25.4008 144.09 22.5657 142.384 20.5422 139.887C18.5186 137.391 17.435 134.262 17.4804 131.048L17.6178 121.663C17.6298 120.958 17.8659 120.274 18.292 119.712C18.7182 119.15 19.3121 118.738 19.9877 118.537L20.9357 118.243C20.9357 118.243 21.732 109.043 27.2776 106.96C47.4882 98.2444 60.8639 95.4452 94.692 94.0313L123.259 76.9511C123.259 76.9511 134.791 69.5734 145.536 68.6055C156.281 67.6376 180.611 67.6282 191.754 68.2687C204.841 69.023 221.444 74.9821 230.706 79.5796C237.958 83.1806 255.414 92.0766 255.414 92.0766L265.288 93.7324C266.776 93.8036 294.044 95.4689 297.177 95.9481C298.317 96.1335 299.383 96.6303 300.259 97.3838C301.135 98.1372 301.785 99.1181 302.14 100.218C302.922 102.809 303.562 112.321 303.562 112.321" fill="#4976BA"/>
<path d="M220.221 80.0635C215.567 77.734 203.082 74.5219 196.1 73.2125C189.119 71.903 174.928 71.7227 169.259 71.865C163.59 72.0074 147.835 72.2825 139.531 74.6406C135.265 75.8551 128.397 79.4135 124.363 82.3931C122.941 83.4274 116.855 88.2146 115.495 89.3011L104.925 99.1791L234.796 95.0751C234.796 95.0751 235.545 90.5441 233.208 87.9347C230.872 85.3252 220.221 80.0635 220.221 80.0635Z" fill="#263238"/>
<path d="M27.5621 117.688L20.9927 117.593C21.2486 115.818 22.116 111.102 24.9267 108.459L33.6243 108.588C33.9854 108.593 34.3387 108.693 34.6482 108.88C34.9578 109.066 35.2125 109.331 35.3864 109.648C35.5603 109.964 35.6472 110.322 35.6382 110.683C35.6293 111.044 35.5248 111.397 35.3354 111.705L33.7523 114.281C33.1037 115.337 32.1921 116.206 31.107 116.803C30.0218 117.4 28.8003 117.705 27.5621 117.688Z" fill="#FAFAFA"/>
<path d="M28.3583 117.289C29.0409 114.395 29.9035 110.59 32.3445 108.569H33.6243C33.9854 108.574 34.3387 108.674 34.6482 108.861C34.9578 109.047 35.2125 109.312 35.3864 109.629C35.5603 109.945 35.6472 110.303 35.6382 110.664C35.6292 111.025 35.5247 111.378 35.3353 111.686L33.7522 114.262C33.1667 115.218 32.3639 116.021 31.4093 116.608C30.4547 117.194 29.3752 117.546 28.2588 117.635L28.3583 117.289Z" fill="#E0E0E0"/>
<g opacity="0.7">
<path opacity="0.7" d="M92.1039 147.749C92.8003 144.366 92.9508 140.893 92.5494 137.463C90.8525 122.864 81.3018 112.36 66.8738 112.151C54.318 111.97 43.9473 119.823 41.8286 134.365C41.2087 138.706 41.3563 143.122 42.2647 147.412L92.1039 147.749Z" fill="black"/>
</g>
<g opacity="0.7">
<path opacity="0.7" d="M273.782 146.23C273.782 145.694 273.72 145.144 273.71 144.575C273.454 126.152 261.107 113.389 246.423 113.176C239.971 113.089 233.749 115.569 229.121 120.069C224.493 124.57 221.838 130.725 221.738 137.183C221.677 141.282 221.482 145.139 221.966 148.541L257.33 148.778L273.782 146.23Z" fill="black"/>
</g>
<path d="M224.886 137.225C224.825 141.422 226.009 145.543 228.288 149.066C230.567 152.589 233.839 155.357 237.689 157.019C241.54 158.681 245.796 159.163 249.92 158.403C254.044 157.644 257.851 155.678 260.858 152.753C263.866 149.828 265.939 146.076 266.816 141.971C267.694 137.867 267.335 133.594 265.787 129.694C264.238 125.793 261.569 122.44 258.116 120.058C254.664 117.676 250.583 116.372 246.39 116.312C240.768 116.23 235.344 118.388 231.311 122.31C227.278 126.232 224.967 131.597 224.886 137.225Z" fill="#263238"/>
<path d="M224.886 137.173V137.225C224.845 140.012 225.354 142.78 226.382 145.37C227.411 147.96 228.939 150.322 230.879 152.321C232.819 154.32 235.134 155.917 237.691 157.021C240.248 158.125 242.997 158.713 245.781 158.753C248.565 158.794 251.33 158.285 253.918 157.255C256.505 156.226 258.865 154.696 260.862 152.754C262.859 150.812 264.455 148.495 265.557 145.935C266.66 143.376 267.248 140.624 267.288 137.837C267.288 137.837 267.288 137.804 267.288 137.785L224.886 137.173Z" fill="#263238"/>
<path d="M231.199 137.32C231.16 140.266 231.996 143.158 233.599 145.629C235.202 148.1 237.501 150.04 240.205 151.204C242.909 152.368 245.898 152.703 248.792 152.167C251.687 151.631 254.358 150.249 256.467 148.194C258.577 146.139 260.031 143.504 260.645 140.623C261.259 137.741 261.006 134.742 259.918 132.004C258.83 129.266 256.956 126.913 254.532 125.241C252.108 123.569 249.243 122.655 246.3 122.612C244.343 122.584 242.4 122.942 240.581 123.666C238.763 124.39 237.105 125.466 235.703 126.832C234.3 128.198 233.181 129.828 232.408 131.627C231.635 133.427 231.224 135.361 231.199 137.32Z" fill="#FAFAFA"/>
<path d="M246.291 122.631C244.334 122.604 242.391 122.962 240.573 123.687C238.755 124.411 237.098 125.487 235.695 126.853C234.293 128.219 233.173 129.848 232.4 131.647C231.627 133.447 231.215 135.381 231.189 137.339L260.96 137.766C260.991 135.808 260.636 133.863 259.915 132.042C259.194 130.221 258.122 128.561 256.76 127.155C255.397 125.749 253.771 124.626 251.975 123.85C250.178 123.074 248.247 122.66 246.291 122.631Z" fill="#E0E0E0"/>
<path d="M237.02 137.401C236.993 139.196 237.5 140.958 238.474 142.465C239.449 143.972 240.848 145.156 242.495 145.867C244.142 146.578 245.962 146.784 247.726 146.459C249.49 146.134 251.118 145.293 252.404 144.042C253.691 142.791 254.577 141.186 254.953 139.431C255.328 137.675 255.174 135.848 254.512 134.18C253.849 132.511 252.707 131.077 251.23 130.059C249.753 129.04 248.008 128.483 246.215 128.457C243.811 128.423 241.492 129.346 239.767 131.023C238.043 132.7 237.054 134.994 237.02 137.401Z" fill="#263238"/>
<path d="M68.2372 159.294C79.9372 158.768 88.9961 148.848 88.471 137.137C87.9458 125.425 78.0354 116.357 66.3355 116.883C54.6355 117.409 45.5766 127.329 46.1018 139.04C46.6269 150.752 56.5373 159.82 68.2372 159.294Z" fill="#263238"/>
<path d="M46.1043 137.719C46.1043 137.719 46.1043 137.757 46.1043 137.776C46.0232 143.404 48.1791 148.834 52.0978 152.872C56.0164 156.909 61.3768 159.223 66.9998 159.304C72.6227 159.385 78.0475 157.227 82.0808 153.304C86.1142 149.382 88.4256 144.016 88.5067 138.388V138.331L46.1043 137.719Z" fill="#263238"/>
<path d="M52.4318 137.866C52.3889 140.813 53.2203 143.707 54.8207 146.182C56.421 148.656 58.7186 150.6 61.4227 151.767C64.1267 152.934 67.1159 153.273 70.0121 152.739C72.9083 152.206 75.5813 150.825 77.6933 148.77C79.8052 146.716 81.261 144.081 81.8767 141.198C82.4924 138.316 82.2402 135.315 81.1521 132.576C80.064 129.837 78.1888 127.482 75.7637 125.81C73.3386 124.138 70.4726 123.223 67.5281 123.182C63.5811 123.126 59.7736 124.641 56.9426 127.395C54.1117 130.149 52.4892 133.915 52.4318 137.866Z" fill="#FAFAFA"/>
<path d="M67.5137 123.182C63.5692 123.13 59.7653 124.647 56.9375 127.4C54.1097 130.153 52.4891 133.918 52.4316 137.866L82.2024 138.298C82.2306 136.339 81.873 134.395 81.1498 132.575C80.4267 130.755 79.3524 129.096 77.9882 127.692C76.624 126.288 74.9967 125.167 73.1994 124.393C71.4022 123.619 69.4701 123.208 67.5137 123.182Z" fill="#E0E0E0"/>
<path d="M58.2336 137.951C58.2047 139.747 58.7085 141.51 59.6812 143.019C60.654 144.528 62.0519 145.714 63.6982 146.427C65.3445 147.14 67.1651 147.348 68.9297 147.026C70.6943 146.703 72.3236 145.863 73.6115 144.613C74.8994 143.363 75.7879 141.759 76.1647 140.004C76.5415 138.248 76.3896 136.42 75.7282 134.751C75.0668 133.082 73.9257 131.647 72.4492 130.627C70.9727 129.607 69.2272 129.049 67.4336 129.022C65.0311 128.986 62.7128 129.907 60.9879 131.581C59.2629 133.255 58.2723 135.546 58.2336 137.951Z" fill="#263238"/>
<g opacity="0.4">
<path opacity="0.4" d="M26.2823 133.216C26.2492 135.588 25.0453 137.486 23.5996 137.486C22.154 137.486 21.0022 135.517 21.0354 133.14C21.0685 130.763 22.2725 128.87 23.7228 128.87C25.1732 128.87 26.3155 130.839 26.2823 133.216Z" fill="black"/>
</g>
<path d="M303.566 112.378C303.432 112.403 303.295 112.414 303.159 112.411L301.983 112.454C300.964 112.478 299.49 112.511 297.675 112.587C295.859 112.663 293.688 112.758 291.29 112.952C288.692 113.146 286.112 113.527 283.569 114.091C282.263 114.398 280.993 114.839 279.777 115.405C278.659 115.965 277.611 116.655 276.653 117.46C274.758 118.935 273.336 120.572 272.023 121.858C271.024 122.902 269.911 123.83 268.705 124.624C268.372 124.834 268.025 125.021 267.667 125.184C267.547 125.25 267.419 125.302 267.288 125.34C267.288 125.312 267.795 125.084 268.638 124.524C269.813 123.701 270.898 122.756 271.876 121.706C273.151 120.411 274.573 118.745 276.483 117.241C277.452 116.416 278.516 115.71 279.654 115.14C280.888 114.558 282.179 114.108 283.507 113.797C286.067 113.229 288.665 112.853 291.281 112.672C293.688 112.497 295.859 112.407 297.679 112.369C299.499 112.331 300.997 112.326 301.997 112.336H303.173C303.305 112.338 303.436 112.353 303.566 112.378Z" fill="#263238"/>
<g opacity="0.5">
<path opacity="0.5" d="M273.118 146.61C273.2 146.55 273.286 146.495 273.374 146.444C273.622 146.28 273.861 146.103 274.09 145.912C274.95 145.159 275.621 144.213 276.047 143.151C276.703 141.46 276.939 139.635 276.734 137.833C276.488 135.444 276.012 133.084 275.312 130.787C274.494 127.997 273.348 125.313 271.9 122.792C270.23 119.901 268.099 117.303 265.591 115.102C262.829 112.659 259.58 110.831 256.059 109.74C252.26 108.631 248.279 108.29 244.347 108.739C240.411 109.157 236.56 110.16 232.919 111.714C229.648 113.005 226.688 114.977 224.236 117.501C221.785 120.024 219.897 123.041 218.7 126.351C217.671 129.071 216.931 131.892 216.491 134.768C216.283 136.087 216.126 137.349 216.017 138.563C215.89 139.686 215.843 140.816 215.875 141.946C215.941 144.053 216.629 145.856 217.705 146.885C218.489 147.725 219.552 148.251 220.695 148.365C221.093 148.376 221.491 148.339 221.88 148.256L221.587 148.342C221.292 148.406 220.992 148.435 220.691 148.427C219.525 148.333 218.434 147.815 217.624 146.97C216.51 145.927 215.785 144.086 215.728 141.956C215.687 140.817 215.727 139.677 215.847 138.544C215.946 137.344 216.098 136.077 216.297 134.749C216.726 131.855 217.46 129.014 218.487 126.275C219.07 124.752 219.773 123.278 220.591 121.867C221.472 120.375 222.508 118.98 223.682 117.706C226.254 115.005 229.369 112.879 232.82 111.467C236.486 109.895 240.367 108.882 244.333 108.464C248.311 108.004 252.341 108.349 256.182 109.479C259.743 110.586 263.026 112.439 265.814 114.917C268.339 117.142 270.481 119.767 272.156 122.688C274.783 127.351 276.407 132.513 276.924 137.842C277.103 139.662 276.838 141.499 276.151 143.194C275.707 144.266 275.011 145.215 274.123 145.96C273.817 146.219 273.479 146.437 273.118 146.61Z" fill="white"/>
</g>
<path d="M42.2747 134.36C42.0301 134.103 41.8006 133.832 41.5875 133.548C40.9649 132.819 40.2763 132.149 39.5304 131.546C37.0343 129.589 34.1107 128.251 30.9987 127.641C27.8751 127.055 24.6919 126.851 21.5191 127.034C20.3009 127.077 19.3151 127.139 18.6325 127.172C18.2799 127.209 17.9249 127.219 17.5708 127.2C17.6581 127.171 17.749 127.153 17.841 127.148L18.623 127.053C19.3008 126.982 20.2867 126.892 21.5096 126.821C24.6976 126.577 27.9037 126.752 31.0461 127.343C34.2107 127.958 37.1731 129.35 39.6678 131.394C40.4115 132.019 41.0853 132.722 41.6775 133.491C41.8475 133.697 42.0057 133.913 42.1515 134.137C42.2003 134.207 42.2416 134.281 42.2747 134.36Z" fill="#263238"/>
<path d="M42.1413 118.584C42.1413 118.67 37.0792 118.665 30.8368 118.584C24.5945 118.504 19.5371 118.352 19.5371 118.266C19.5371 118.181 24.5992 118.19 30.8416 118.266C37.0839 118.342 42.146 118.475 42.1413 118.584Z" fill="#263238"/>
<g opacity="0.5">
<path opacity="0.5" d="M99.5169 145.557C99.5116 145.46 99.5116 145.364 99.5169 145.267C99.5169 145.063 99.5169 144.793 99.5169 144.418C99.5169 144.043 99.517 143.578 99.4601 143.033C99.4032 142.487 99.3937 141.856 99.3226 141.135C98.953 137.137 98.0884 133.2 96.7489 129.416C95.8334 126.798 94.7064 124.259 93.3789 121.825C91.8938 119.022 90.0816 116.405 87.9802 114.029C85.6417 111.411 82.741 109.358 79.496 108.023C76.01 106.591 72.2862 105.828 68.5186 105.774C66.6147 105.757 64.7126 105.893 62.8308 106.182C61.0056 106.494 59.2071 106.946 57.4511 107.534C55.7605 108.117 54.1199 108.836 52.5454 109.683L51.9671 109.992L51.4078 110.329L50.294 110.993L49.2465 111.719L48.7251 112.079L48.2511 112.473C45.7368 114.409 43.5479 116.735 41.767 119.362C40.2102 121.65 38.9489 124.126 38.0131 126.73C37.2452 128.884 36.6942 131.109 36.3684 133.373C36.2594 134.374 36.1361 135.304 36.1172 136.167C36.0982 137.031 36.0745 137.818 36.0792 138.54C36.084 139.261 36.1551 139.877 36.1788 140.437C36.2025 140.997 36.2783 141.443 36.3257 141.813C36.3731 142.183 36.4015 142.454 36.43 142.658C36.4584 142.862 36.43 142.947 36.43 142.947C36.43 142.947 36.43 142.852 36.3731 142.663C36.3162 142.473 36.2973 142.188 36.2404 141.823C36.1835 141.457 36.0982 140.992 36.065 140.447C36.0318 139.901 35.9323 139.27 35.937 138.549C35.9418 137.828 35.8896 137.04 35.937 136.177C35.9844 135.313 36.065 134.369 36.1693 133.363C36.4765 131.087 37.0166 128.849 37.7808 126.683C38.7078 124.054 39.9662 121.554 41.5253 119.244C43.3147 116.588 45.5164 114.235 48.0473 112.274L48.545 111.88L49.0711 111.515L50.1281 110.775L51.2419 110.096L51.8012 109.755L52.3842 109.446C53.9692 108.585 55.6227 107.857 57.3278 107.269C59.1005 106.672 60.9165 106.214 62.7597 105.897C64.6618 105.604 66.5846 105.466 68.5091 105.485C72.3106 105.543 76.0669 106.319 79.5813 107.771C82.8658 109.12 85.8033 111.195 88.1746 113.84C90.2758 116.249 92.0848 118.899 93.5637 121.735C94.888 124.179 96.0073 126.729 96.91 129.359C98.2376 133.164 99.0754 137.123 99.4032 141.14C99.5324 142.608 99.5704 144.083 99.5169 145.557Z" fill="white"/>
</g>
<path d="M265.311 94.0125C265.323 94.1149 265.323 94.2184 265.311 94.3208C265.283 94.5581 265.245 94.8475 265.197 95.2033C265.093 95.9672 264.937 97.0727 264.837 98.4438C264.693 100.045 264.766 101.659 265.055 103.241C265.428 105.171 266.355 106.95 267.724 108.36C269.111 109.751 270.769 110.841 272.596 111.562C274.084 112.147 275.623 112.592 277.194 112.891C278.545 113.161 279.649 113.327 280.407 113.451L281.284 113.598C281.388 113.61 281.489 113.634 281.588 113.669C281.484 113.686 281.378 113.686 281.275 113.669L280.393 113.579C279.625 113.489 278.497 113.356 277.156 113.104C275.554 112.831 273.984 112.397 272.468 111.809C270.595 111.089 268.894 109.981 267.477 108.559C266.081 107.106 265.142 105.275 264.775 103.293C264.497 101.687 264.442 100.05 264.614 98.4296C264.747 97.0489 264.937 95.9435 265.088 95.1843C265.159 94.8048 265.221 94.5106 265.264 94.3114C265.266 94.2101 265.282 94.1096 265.311 94.0125Z" fill="#263238"/>
<path d="M157.59 105.627C157.675 105.606 157.763 105.598 157.85 105.603C158.102 105.591 158.355 105.603 158.604 105.641C158.81 105.666 159.009 105.735 159.186 105.843C159.363 105.951 159.516 106.096 159.632 106.267C159.792 106.497 159.887 106.765 159.908 107.043C159.93 107.322 159.877 107.601 159.756 107.852C159.599 108.147 159.381 108.406 159.117 108.611C158.854 108.817 158.549 108.964 158.225 109.043C157.501 109.199 156.756 109.236 156.021 109.152L151.034 108.867C150.578 108.861 150.126 108.776 149.698 108.616C149.483 108.532 149.287 108.405 149.124 108.241C148.961 108.078 148.833 107.882 148.75 107.667C148.687 107.447 148.676 107.214 148.72 106.989C148.764 106.764 148.86 106.553 149.001 106.372C149.251 106.028 149.603 105.771 150.006 105.636C150.724 105.445 151.468 105.37 152.21 105.413C152.892 105.413 153.532 105.413 154.106 105.461L156.85 105.579C157.188 105.572 157.525 105.589 157.86 105.632C157.775 105.657 157.687 105.668 157.599 105.665C157.428 105.665 157.177 105.689 156.85 105.693C156.201 105.693 155.262 105.693 154.101 105.693C153.523 105.693 152.888 105.693 152.205 105.693C151.494 105.662 150.782 105.742 150.096 105.931C149.748 106.046 149.446 106.268 149.233 106.566C149.12 106.71 149.042 106.879 149.006 107.059C148.971 107.239 148.979 107.424 149.029 107.601C149.1 107.779 149.208 107.94 149.345 108.074C149.482 108.208 149.646 108.312 149.826 108.379C150.222 108.523 150.641 108.599 151.063 108.602L156.044 108.91C156.753 108.998 157.471 108.974 158.173 108.839C158.47 108.775 158.75 108.649 158.995 108.469C159.24 108.289 159.444 108.059 159.595 107.795C159.706 107.577 159.757 107.332 159.744 107.088C159.73 106.843 159.653 106.606 159.519 106.4C159.419 106.237 159.286 106.097 159.128 105.989C158.971 105.881 158.792 105.808 158.604 105.774C157.955 105.641 157.585 105.66 157.59 105.627Z" fill="#263238"/>
<path d="M224.644 105.072C224.73 105.059 224.818 105.059 224.905 105.072C225.156 105.059 225.409 105.072 225.658 105.11C225.864 105.136 226.062 105.205 226.239 105.313C226.417 105.421 226.569 105.565 226.687 105.736C226.846 105.966 226.941 106.233 226.963 106.512C226.984 106.79 226.932 107.069 226.81 107.321C226.653 107.616 226.436 107.875 226.172 108.08C225.908 108.285 225.604 108.432 225.279 108.512C224.552 108.669 223.804 108.706 223.065 108.621L218.079 108.336C217.623 108.329 217.171 108.246 216.743 108.089C216.527 108.006 216.332 107.878 216.169 107.715C216.006 107.551 215.878 107.356 215.795 107.14C215.728 106.921 215.716 106.688 215.759 106.462C215.802 106.237 215.899 106.025 216.041 105.845C216.293 105.503 216.644 105.246 217.046 105.11C217.764 104.921 218.508 104.845 219.25 104.887C219.932 104.887 220.572 104.91 221.146 104.934L223.895 105.053C224.231 105.052 224.566 105.069 224.9 105.105C224.815 105.13 224.727 105.141 224.639 105.138C224.468 105.138 224.217 105.162 223.89 105.171C223.241 105.171 222.302 105.171 221.141 105.171C220.563 105.171 219.928 105.171 219.245 105.171C218.534 105.14 217.822 105.22 217.136 105.409C216.787 105.524 216.485 105.748 216.273 106.049C216.16 106.192 216.082 106.36 216.046 106.539C216.011 106.718 216.019 106.903 216.07 107.079C216.14 107.257 216.248 107.418 216.385 107.552C216.522 107.686 216.686 107.79 216.866 107.857C217.263 108.001 217.681 108.077 218.103 108.085L223.084 108.388C223.793 108.478 224.512 108.454 225.213 108.317C225.509 108.253 225.789 108.127 226.034 107.948C226.278 107.769 226.483 107.541 226.635 107.278C226.744 107.058 226.794 106.813 226.781 106.568C226.767 106.323 226.691 106.085 226.559 105.878C226.457 105.72 226.324 105.584 226.167 105.481C226.011 105.377 225.834 105.307 225.649 105.276C225.009 105.086 224.639 105.105 224.644 105.072Z" fill="#263238"/>
<path d="M234.749 95.0752C234.749 95.0752 234.749 95.1653 234.683 95.3409C234.616 95.5164 234.564 95.7869 234.469 96.1332L233.621 99.1982C232.867 101.888 231.768 105.84 230.365 110.822V110.851H230.336C227.955 111.965 225.756 113.434 223.814 115.206C222.715 116.2 221.699 117.282 220.776 118.442C219.795 119.688 218.907 121.006 218.122 122.385C216.434 125.418 215.158 128.663 214.33 132.035C213.376 135.743 212.882 139.555 212.861 143.384V143.498H212.752H165.202L103.868 143.474H103.778V143.389C102.2 130.825 101.252 120.482 100.65 113.247C100.356 109.641 100.176 106.823 100.024 104.906C99.9628 103.957 99.9154 103.217 99.8822 102.719C99.849 102.22 99.8301 101.978 99.8301 101.978C99.8301 101.978 99.8585 102.23 99.8964 102.723C99.9344 103.217 99.996 103.952 100.067 104.906C100.223 106.804 100.456 109.65 100.75 113.242C101.371 120.449 102.371 130.797 103.93 143.389L103.835 143.303H165.168H212.718L212.609 143.417C212.637 139.575 213.137 135.75 214.098 132.03C214.944 128.642 216.238 125.382 217.946 122.337C218.738 120.951 219.634 119.627 220.624 118.375C221.556 117.213 222.58 116.127 223.686 115.13C225.646 113.355 227.862 111.887 230.26 110.775L230.222 110.817L233.54 99.2124C233.924 97.8792 234.218 96.8401 234.422 96.1522C234.522 95.8106 234.597 95.5496 234.654 95.3694C234.711 95.1891 234.749 95.0752 234.749 95.0752Z" fill="#263238"/>
<path d="M166.396 97.4807C166.4 97.5201 166.4 97.5599 166.396 97.5993C166.396 97.6895 166.372 97.8033 166.358 97.9457C166.32 98.2683 166.263 98.7143 166.192 99.2741C166.121 99.834 166.026 100.56 165.941 101.381C165.855 102.201 165.737 103.136 165.652 104.175C165.566 105.214 165.457 106.343 165.386 107.563C165.315 108.782 165.244 110.092 165.178 111.463C165.088 114.21 165.064 117.237 165.178 120.406C165.291 123.575 165.519 126.598 165.799 129.331C165.95 130.697 166.088 131.997 166.273 133.207C166.457 134.417 166.604 135.546 166.77 136.575C166.936 137.605 167.107 138.525 167.244 139.341C167.382 140.158 167.519 140.855 167.638 141.424C167.756 141.994 167.827 142.421 167.889 142.739L167.95 143.085C167.957 143.124 167.957 143.164 167.95 143.203C167.931 143.168 167.919 143.129 167.913 143.09C167.887 143.001 167.859 142.887 167.827 142.748C167.756 142.43 167.657 141.994 167.529 141.443C167.401 140.893 167.244 140.181 167.093 139.365C166.941 138.549 166.742 137.633 166.581 136.604C166.42 135.574 166.216 134.45 166.055 133.235C165.893 132.021 165.723 130.725 165.581 129.354C165.291 126.617 165.054 123.594 164.941 120.416C164.827 117.237 164.874 114.21 164.974 111.453C165.045 110.077 165.102 108.773 165.206 107.549C165.31 106.324 165.396 105.176 165.505 104.156C165.614 103.136 165.727 102.187 165.827 101.366C165.927 100.546 166.031 99.8387 166.121 99.2647C166.211 98.6906 166.282 98.2588 166.334 97.9409L166.396 97.5946C166.39 97.5568 166.39 97.5185 166.396 97.4807Z" fill="#263238"/>
<path d="M100.403 96.1284C98.8866 97.2671 96.6114 97.5518 94.7629 97.1674C92.9144 96.7831 91.445 95.9244 90.4971 94.278L94.6681 94.093L100.403 96.1284Z" fill="#263238"/>
<path d="M94.6587 94.093C94.6587 94.093 98.8677 96.6598 100.091 96.3087C101.313 95.9576 120.946 80.4336 132.772 74.4413C131.614 74.0117 130.404 73.7373 129.174 73.6252C129.174 73.6252 123.666 76.415 116.794 80.5522C111.58 83.7026 106.248 87.0048 103.759 88.523L94.6587 94.093Z" fill="#455A64"/>
<path d="M108.12 97.3857L107.983 97.4711L107.57 97.7131L105.959 98.6288L99.8825 102.04C96.0907 101.903 91.1849 101.803 85.5777 102.04C82.7765 102.163 79.7999 102.363 76.7001 102.681C73.6002 102.999 70.3724 103.44 67.0687 103.966C61.2814 104.868 55.8259 106.011 50.8301 106.927C46.4035 107.734 41.9319 108.271 37.4402 108.535C33.6056 108.754 30.4916 108.697 28.3492 108.635C27.2732 108.602 26.4533 108.559 25.8797 108.526L25.2351 108.483C25.1625 108.487 25.0897 108.487 25.0171 108.483C25.0171 108.483 25.0929 108.483 25.2399 108.483H25.8797C26.4438 108.483 27.3017 108.531 28.3492 108.55C30.4963 108.583 33.6009 108.611 37.4307 108.369C41.8973 108.084 46.3431 107.534 50.7448 106.723C55.7311 105.774 61.1961 104.645 66.9882 103.739C70.306 103.212 73.5244 102.79 76.6337 102.458C79.743 102.126 82.7244 101.95 85.5303 101.841C91.1423 101.623 96.0385 101.751 99.8493 101.912H99.8067L105.921 98.5908L107.552 97.7084L107.973 97.4854C108.017 97.4455 108.067 97.412 108.12 97.3857Z" fill="#263238"/>
<path d="M112.59 97.8744C142.394 96.5412 202.513 95.431 232.317 94.0788C232.317 94.0788 233.299 90.8003 230.493 88.7507C229.474 88.0058 223.283 83.3182 216.055 80.5617C207.19 77.2498 197.939 75.0861 188.526 74.1234C183.218 73.6916 173.506 73.2979 173.506 73.2979C173.506 73.2979 155.727 74.0095 150.755 74.4555C144.502 74.9754 138.397 76.6381 132.743 79.3613C126.558 82.4642 115.746 91.5405 115.746 91.5405L108.163 97.8886L112.59 97.8744Z" fill="#455A64"/>
<path d="M167.439 72.4392L161.685 97.0584L172.117 96.7263L174.193 72.4392H167.439Z" fill="#263238"/>
<path d="M212.533 78.3982L211.519 95.0799H212.969L213.951 78.9201L212.533 78.3982Z" fill="#263238"/>
<path d="M113.718 92.2283C114.192 92.8403 116.822 98.7994 116.822 98.7994L106.755 98.1399L113.718 92.2283Z" fill="#263238"/>
<path d="M123.159 98.2065L115.471 98.42C114.462 98.42 113.666 96.6076 113.699 94.4014C113.727 92.4277 114.41 90.7623 115.31 90.4729L122.595 88.1624L123.159 98.2065Z" fill="#4976BA"/>
<path d="M170.705 72.1592C170.771 72.1592 169.956 77.7767 168.889 84.6894C167.823 91.6022 166.894 97.196 166.828 97.1817C166.761 97.1675 167.572 91.5642 168.643 84.6515C169.714 77.7388 170.634 72.145 170.705 72.1592Z" fill="#455A64"/>
<path d="M114.016 91.8631C113.758 92.7634 113.362 93.6182 112.841 94.3966C112.391 95.218 111.813 95.9627 111.13 96.6028C111.073 96.5554 111.841 95.578 112.632 94.2685C113.424 92.9591 113.95 91.8346 114.016 91.8631Z" fill="#455A64"/>
<path d="M156.556 76.9178C156.526 76.9882 156.488 77.0551 156.442 77.1171L156.087 77.6722C155.75 78.1846 155.295 78.8678 154.746 79.6933C153.603 81.3966 152.034 83.7499 150.323 86.3688C148.612 88.9878 147.091 91.3695 145.991 93.0965L144.678 95.1367C144.536 95.3597 144.413 95.54 144.313 95.687C144.275 95.7543 144.229 95.8165 144.176 95.8721C144.176 95.8721 144.199 95.7962 144.271 95.6633L144.598 95.0892C144.887 94.5911 145.309 93.8794 145.839 93.0064C146.906 91.2509 148.408 88.8502 150.105 86.2312C151.802 83.6123 153.423 81.2732 154.584 79.5889C155.172 78.7539 155.656 78.0754 156.006 77.6152C156.168 77.4065 156.295 77.2309 156.405 77.0838C156.514 76.9368 156.547 76.913 156.556 76.9178Z" fill="#EBEBEB"/>
<path d="M152.182 80.6282C151.468 81.8398 150.685 83.009 149.835 84.1296C149.055 85.2996 148.205 86.4214 147.29 87.4888C148.004 86.2774 148.788 85.1083 149.636 83.9873C150.417 82.8181 151.267 81.6964 152.182 80.6282Z" fill="#EBEBEB"/>
<path d="M303.476 111.064C303.476 111.064 301.002 111.221 299.135 110.419C298.426 110.12 297.785 109.681 297.25 109.129C296.714 108.577 296.295 107.923 296.018 107.205C295.741 106.487 295.61 105.721 295.635 104.952C295.66 104.182 295.84 103.426 296.163 102.728L296.191 102.671C296.619 101.781 297.284 101.027 298.113 100.491C298.942 99.9554 299.902 99.659 300.888 99.6345H301.922C302.305 100.405 302.533 101.243 302.595 102.102C302.874 104.351 303.296 107.8 303.476 111.064Z" fill="#F5F5F5"/>
<path d="M193.991 77.7151C194.048 77.7531 191.773 81.4396 188.91 85.9516C186.047 90.4636 183.696 94.0884 183.62 94.0505C183.545 94.0125 185.834 90.3308 188.702 85.8188C191.569 81.3067 193.934 77.6772 193.991 77.7151Z" fill="#EBEBEB"/>
<path d="M193.205 82.3694C192.71 83.3592 192.143 84.3108 191.508 85.2161C190.945 86.1716 190.311 87.0835 189.612 87.9442C190.109 86.9549 190.677 86.0035 191.313 85.0975C191.875 84.1424 192.507 83.2305 193.205 82.3694Z" fill="#EBEBEB"/>
<path d="M121.401 89.5905C119.528 90.4779 117.527 91.0624 115.471 91.3223C115.471 91.2511 116.798 90.9332 118.429 90.454C120.059 89.9748 121.377 89.5241 121.401 89.5905Z" fill="#EBEBEB"/>
<path d="M162.661 100.014C162.661 100.085 150.153 100.138 134.729 100.138C119.306 100.138 106.793 100.085 106.793 100.014C106.793 99.9431 119.297 99.8909 134.729 99.8909C150.162 99.8909 162.661 99.9478 162.661 100.014Z" fill="#EBEBEB"/>
<path d="M158.556 104.986C157.208 105.111 155.853 105.152 154.499 105.11C153.144 105.153 151.787 105.111 150.437 104.986C151.787 104.864 153.144 104.823 154.499 104.863C155.853 104.823 157.208 104.864 158.556 104.986Z" fill="#EBEBEB"/>
<path d="M67.7322 110.623C67.6282 110.633 67.5234 110.633 67.4194 110.623C67.2156 110.623 66.917 110.623 66.533 110.623C65.4493 110.623 64.3666 110.69 63.291 110.822C59.7309 111.246 56.3041 112.434 53.2441 114.304C50.1841 116.174 47.5629 118.683 45.5593 121.659C44.9498 122.555 44.3958 123.489 43.9004 124.453C43.7156 124.795 43.5971 125.065 43.5023 125.245C43.4635 125.342 43.4125 125.433 43.3506 125.516C43.3787 125.417 43.4152 125.32 43.4596 125.226C43.5402 125.041 43.6445 124.752 43.8151 124.41C44.2787 123.424 44.8125 122.473 45.4124 121.564C47.3941 118.532 50.0248 115.981 53.1139 114.093C56.2029 112.206 59.6728 111.03 63.272 110.651C64.3561 110.53 65.4476 110.489 66.5378 110.528C66.9217 110.528 67.2203 110.571 67.4241 110.585C67.528 110.585 67.6314 110.598 67.7322 110.623Z" fill="#EBEBEB"/>
<path d="M210.599 98.7C210.599 98.7664 202.319 98.8234 192.114 98.8234C181.909 98.8234 173.629 98.7664 173.629 98.7C173.629 98.6336 181.905 98.5767 192.114 98.5767C202.324 98.5767 210.599 98.6289 210.599 98.7Z" fill="#EBEBEB"/>
<path d="M226.819 104.26C226.375 104.298 225.928 104.298 225.483 104.26C224.658 104.26 223.52 104.218 222.264 104.208C221.008 104.199 219.871 104.208 219.046 104.208C218.601 104.24 218.153 104.232 217.709 104.184C218.147 104.09 218.593 104.039 219.041 104.033C219.866 103.98 221.004 103.938 222.264 103.942C223.525 103.947 224.668 104.004 225.492 104.071C225.94 104.087 226.385 104.151 226.819 104.26Z" fill="#EBEBEB"/>
<path d="M256.832 61.2564C255.952 61.2564 255.108 60.9065 254.485 60.2837C253.863 59.6609 253.514 58.8161 253.514 57.9353V54.1397C253.514 54.1397 250.788 53.7127 250.755 50.9846C250.722 48.2565 251.196 41.97 251.196 41.97C252.746 41.3038 254.446 41.0638 256.12 41.2748C257.794 41.4858 259.381 42.1402 260.718 43.1704L260.074 58.1725C260.021 59.001 259.658 59.779 259.057 60.3508C258.456 60.9227 257.661 61.2461 256.832 61.2564Z" fill="#B78876"/>
<path d="M253.552 54.1159C254.811 54.1375 256.049 53.7841 257.107 53.1006C257.107 53.1006 256.263 55.0695 253.542 54.8228L253.552 54.1159Z" fill="#AA6550"/>
<path d="M260.453 46.3349C260.5 46.3349 262.349 45.7845 262.268 47.6491C262.188 49.5137 260.349 49.0724 260.349 49.0155C260.349 48.9586 260.453 46.3349 260.453 46.3349Z" fill="#B78876"/>
<path d="M260.941 48.3276C260.941 48.3276 260.969 48.3513 261.026 48.3798C261.104 48.4098 261.19 48.4098 261.268 48.3798C261.391 48.3082 261.492 48.2048 261.562 48.0804C261.631 47.956 261.665 47.8152 261.661 47.6729C261.672 47.511 261.646 47.3488 261.586 47.1984C261.57 47.1395 261.541 47.0853 261.499 47.0406C261.458 46.9959 261.406 46.9621 261.349 46.9422C261.312 46.9301 261.272 46.9316 261.237 46.9464C261.201 46.9612 261.172 46.9884 261.154 47.0229C261.131 47.0751 261.154 47.113 261.131 47.1178C261.107 47.1225 261.093 47.0846 261.131 47.0087C261.143 46.9622 261.171 46.9218 261.211 46.8948C261.237 46.8754 261.266 46.8616 261.297 46.8543C261.328 46.8469 261.36 46.8462 261.391 46.8521C261.466 46.8715 261.535 46.9089 261.592 46.961C261.649 47.013 261.692 47.0783 261.718 47.151C261.793 47.3143 261.828 47.4934 261.818 47.6729C261.823 47.8401 261.778 48.0051 261.688 48.1464C261.599 48.2877 261.469 48.3987 261.315 48.4652C261.265 48.4771 261.213 48.4781 261.162 48.4683C261.112 48.4585 261.064 48.438 261.022 48.4083C260.941 48.3656 260.932 48.3324 260.941 48.3276Z" fill="#AA6550"/>
<path d="M252.22 46.2304C252.22 46.3324 252.26 46.4305 252.33 46.5039C252.401 46.5774 252.498 46.6205 252.599 46.6242C252.649 46.6281 252.698 46.622 252.745 46.6063C252.792 46.5906 252.836 46.5657 252.873 46.5329C252.91 46.5002 252.94 46.4603 252.961 46.4157C252.983 46.3711 252.995 46.3226 252.998 46.2731C252.999 46.2226 252.99 46.1724 252.972 46.1253C252.954 46.0782 252.927 46.0351 252.892 45.9985C252.857 45.962 252.815 45.9326 252.769 45.9122C252.723 45.8917 252.674 45.8805 252.623 45.8793C252.574 45.8754 252.524 45.8815 252.476 45.8971C252.429 45.9127 252.386 45.9376 252.348 45.9703C252.311 46.003 252.28 46.0428 252.258 46.0875C252.236 46.1321 252.223 46.1807 252.22 46.2304Z" fill="#263238"/>
<path d="M251.746 45.8415C251.798 45.8889 252.092 45.6707 252.509 45.6754C252.926 45.6802 253.239 45.8842 253.281 45.832C253.324 45.7798 253.253 45.7181 253.12 45.6185C252.939 45.4945 252.724 45.4283 252.504 45.4287C252.286 45.4294 252.073 45.4991 251.897 45.628C251.769 45.7276 251.722 45.8177 251.746 45.8415Z" fill="#263238"/>
<path d="M256.324 46.2304C256.324 46.3324 256.364 46.4305 256.434 46.5039C256.505 46.5774 256.602 46.6205 256.703 46.6242C256.753 46.6281 256.802 46.622 256.849 46.6063C256.896 46.5906 256.94 46.5657 256.977 46.5329C257.014 46.5002 257.044 46.4603 257.065 46.4157C257.087 46.3711 257.099 46.3226 257.102 46.2731C257.103 46.2226 257.094 46.1724 257.076 46.1253C257.058 46.0782 257.031 46.0351 256.996 45.9985C256.961 45.962 256.919 45.9326 256.873 45.9122C256.827 45.8917 256.778 45.8805 256.727 45.8793C256.678 45.8754 256.628 45.8815 256.58 45.8971C256.533 45.9127 256.49 45.9376 256.452 45.9703C256.415 46.003 256.384 46.0428 256.362 46.0875C256.34 46.1321 256.327 46.1807 256.324 46.2304Z" fill="#263238"/>
<path d="M255.87 45.9174C255.917 45.9696 256.211 45.7514 256.633 45.7514C257.054 45.7514 257.358 45.9649 257.401 45.9127C257.443 45.8605 257.377 45.7988 257.239 45.6992C257.059 45.5724 256.843 45.5059 256.623 45.5094C256.405 45.5073 256.193 45.5756 256.016 45.7039C255.888 45.8036 255.846 45.8937 255.87 45.9174Z" fill="#263238"/>
<path d="M254.348 49.0297C254.127 48.9596 253.898 48.9181 253.666 48.9063C253.561 48.9063 253.457 48.8731 253.438 48.8019C253.43 48.6912 253.454 48.5805 253.509 48.484C253.614 48.2231 253.718 47.9527 253.827 47.668C254.122 46.9769 254.36 46.2629 254.538 45.533C254.19 46.1998 253.895 46.8931 253.656 47.6063C253.552 47.891 253.452 48.1662 253.353 48.4271C253.287 48.5557 253.268 48.7037 253.301 48.8446C253.315 48.8831 253.338 48.9174 253.369 48.9447C253.4 48.972 253.436 48.9914 253.476 49.0012C253.535 49.0188 253.595 49.0284 253.656 49.0297C253.886 49.0596 254.119 49.0596 254.348 49.0297Z" fill="#263238"/>
<path d="M255.58 49.3145C255.514 49.3145 255.509 49.7889 255.106 50.0878C254.704 50.3867 254.234 50.363 254.23 50.4247C254.225 50.4864 254.339 50.5148 254.542 50.5196C254.816 50.5287 255.084 50.4376 255.296 50.2634C255.493 50.102 255.62 49.8709 255.652 49.6181C255.661 49.4283 255.614 49.3145 255.58 49.3145Z" fill="#263238"/>
<path d="M255.77 44.2758C255.813 44.3896 256.244 44.3327 256.718 44.3944C257.192 44.4561 257.605 44.5889 257.666 44.4845C257.728 44.3802 257.628 44.328 257.467 44.2188C257.254 44.0799 257.01 43.9952 256.756 43.9721C256.505 43.9417 256.25 43.9709 256.012 44.0575C255.832 44.1287 255.742 44.2188 255.77 44.2758Z" fill="#263238"/>
<path d="M251.902 44.6268C251.974 44.7217 252.263 44.6268 252.613 44.6268C252.964 44.6268 253.253 44.6932 253.32 44.5936C253.386 44.4939 253.32 44.4465 253.178 44.3563C253.004 44.2478 252.802 44.1935 252.598 44.2003C252.394 44.207 252.196 44.2746 252.03 44.3943C251.912 44.4797 251.869 44.5698 251.902 44.6268Z" fill="#263238"/>
<path d="M249.902 40.2999C249.884 40.1302 249.909 39.9587 249.974 39.8011C250.04 39.6436 250.144 39.5051 250.277 39.3984C250.416 39.2911 250.589 39.2389 250.764 39.2521C250.939 39.2652 251.103 39.3427 251.225 39.4696C251.199 39.3554 251.198 39.2371 251.221 39.1224C251.244 39.0077 251.291 38.8991 251.358 38.8035C251.426 38.7079 251.512 38.6274 251.613 38.5673C251.713 38.5072 251.824 38.4687 251.94 38.4542C252.386 38.4305 252.765 38.7626 253.197 38.8813C253.624 38.9748 254.071 38.9231 254.467 38.7342C254.87 38.5729 255.249 38.3499 255.656 38.198C256.52 37.8828 257.472 37.9213 258.307 38.305C259.143 38.6888 259.793 39.3869 260.117 40.2477C260.421 40.1737 260.741 40.1934 261.035 40.3043C261.328 40.4152 261.581 40.6121 261.761 40.8692C262.106 41.399 262.245 42.0373 262.15 42.6626C262.091 43.0808 261.986 43.4913 261.837 43.8867C261.837 43.9247 261.837 43.9579 261.837 43.9911C261.809 45.4951 261.638 47.2553 260.998 47.2648C259.884 47.2648 260.15 45.182 260.15 45.182C258.78 44.6506 259.292 42.5962 258.946 42.2878C258.6 41.9794 257.889 41.2535 255.026 42.7196C253.959 43.1975 252.767 43.3253 251.623 43.0849H251.552C251.292 43.0209 251.045 42.9168 250.817 42.7765C250.549 42.622 250.336 42.3861 250.21 42.1028C250.151 41.9598 250.134 41.8026 250.162 41.6502C250.189 41.4978 250.261 41.3567 250.367 41.244C250.118 40.9853 249.955 40.6553 249.902 40.2999Z" fill="#263238"/>
<path d="M283.617 58.7323C283.55 58.8461 282.773 60.3122 282.773 60.3122C282.773 60.3122 283.389 57.9162 283.413 57.8308C283.612 57.0479 283.128 57.1286 282.986 57.4085C282.844 57.6885 281.967 60.0512 281.967 60.0512C282.787 56.9768 282.531 56.7016 282.299 56.6542C282.067 56.6067 281.351 59.4202 281.351 59.4202C281.163 59.1003 280.909 58.8238 280.607 58.6089C279.863 58.0965 278.625 58.6089 278.569 58.96C278.512 59.3111 278.948 59.406 278.948 59.406C279.122 59.2739 279.331 59.1959 279.549 59.1815C279.767 59.1672 279.985 59.217 280.175 59.3251C280.365 59.4331 280.519 59.5944 280.619 59.7893C280.718 59.9841 280.759 60.2038 280.735 60.4213C280.719 60.5819 280.648 60.732 280.534 60.846C280.42 60.96 280.269 61.0309 280.109 61.0466C279.949 61.0623 279.788 61.0217 279.654 60.9319C279.52 60.8421 279.421 60.7086 279.374 60.5541C279.066 59.1687 278.592 59.6052 278.592 59.6052L279.066 62.6654L278.564 64.2027L275.796 71.7132L270.506 66.2001C270.506 66.2001 267.662 72.4581 267.615 72.6669C267.567 72.8756 270.264 75.6179 272.037 77.4446C272.665 78.0887 273.454 78.5518 274.322 78.7852C275.19 79.0186 276.105 79.0137 276.971 78.771C277.836 78.5283 278.62 78.0568 279.241 77.406C279.862 76.7552 280.296 75.9491 280.498 75.0723L282.588 64.2881L283.569 60.7534C283.569 60.7534 283.92 59.3301 284.005 58.9837C284.114 58.5709 283.801 58.4333 283.617 58.7323Z" fill="#B78876"/>
<path d="M236.626 79.8026C238.205 80.0825 240.015 78.9438 240.987 77.6675L244.926 72.4723L240.295 68.3398L236.147 73.5113L220.572 72.6858L216.904 70.6362C216.652 70.4943 216.36 70.4408 216.074 70.4844L211.012 71.9077L215.752 73.369L224.042 76.4909L236.626 79.8026Z" fill="#B78876"/>
<path d="M271.928 156.213L272.582 158.96C272.582 158.96 277.066 164.786 278.45 164.502C279.356 164.317 278.242 162.794 276.554 158.367L276.199 156.54L271.928 156.213Z" fill="#F5F5F5"/>
<path d="M278.63 163.657C278.623 163.685 278.612 163.713 278.597 163.738C278.551 163.813 278.485 163.873 278.407 163.913C278.285 163.979 278.147 164.01 278.009 164.003C277.826 163.985 277.652 163.92 277.502 163.814C276.698 163.168 275.942 162.463 275.241 161.707C274.531 160.961 273.862 160.177 273.236 159.358C272.999 159.041 272.809 158.784 272.686 158.599C272.634 158.528 272.587 158.457 272.544 158.391C272.527 158.366 272.511 158.341 272.497 158.315C272.497 158.315 272.52 158.315 272.558 158.381L272.715 158.58L273.288 159.321C273.762 159.937 274.473 160.777 275.303 161.645C276.002 162.396 276.748 163.103 277.535 163.761C277.653 163.859 277.795 163.922 277.947 163.944C278.098 163.966 278.252 163.945 278.393 163.885C278.492 163.833 278.575 163.754 278.63 163.657Z" fill="#263238"/>
<path d="M277.995 161.759C277.995 161.759 277.852 161.759 277.634 161.759C277.348 161.803 277.073 161.907 276.829 162.063C276.576 162.208 276.367 162.417 276.222 162.67C276.113 162.865 276.085 163.002 276.07 163.002C276.072 162.876 276.105 162.752 276.165 162.642C276.303 162.369 276.517 162.141 276.781 161.987C277.036 161.826 277.325 161.727 277.625 161.698C277.752 161.682 277.88 161.703 277.995 161.759Z" fill="#263238"/>
<path d="M273.753 160.397C273.753 160.397 273.8 160.203 273.833 159.885C273.878 159.472 273.8 159.054 273.611 158.685C273.423 158.312 273.123 158.008 272.753 157.816C272.6 157.744 272.442 157.686 272.279 157.641C272.326 157.634 272.374 157.634 272.421 157.641C272.55 157.663 272.676 157.701 272.795 157.755C273.188 157.939 273.507 158.25 273.701 158.637C273.903 159.022 273.976 159.461 273.909 159.89C273.89 160.017 273.86 160.143 273.819 160.265C273.781 160.336 273.781 160.402 273.753 160.397Z" fill="#263238"/>
<path d="M272.217 156.678C272.344 156.951 272.427 157.242 272.464 157.541C272.544 158.016 272.635 158.409 272.616 158.419C272.49 158.146 272.41 157.854 272.379 157.555C272.293 157.072 272.194 156.687 272.217 156.678Z" fill="#263238"/>
<path d="M276.625 158.756C276.625 158.78 276.369 158.756 276.071 158.841C275.772 158.927 275.544 159.031 275.53 159.007C275.675 158.875 275.854 158.788 276.047 158.756C276.235 158.699 276.437 158.699 276.625 158.756Z" fill="#263238"/>
<path d="M276.706 159.226C276.706 159.226 276.492 159.226 276.232 159.287C275.971 159.349 275.805 159.463 275.786 159.439C275.897 159.313 276.048 159.23 276.213 159.202C276.374 159.147 276.55 159.155 276.706 159.226Z" fill="#263238"/>
<path d="M277.066 159.814C276.908 159.798 276.75 159.798 276.592 159.814C276.439 159.866 276.29 159.93 276.146 160.004C276.193 159.929 276.255 159.866 276.329 159.818C276.403 159.771 276.486 159.74 276.573 159.729C276.656 159.705 276.744 159.7 276.829 159.715C276.915 159.73 276.995 159.764 277.066 159.814Z" fill="#263238"/>
<path d="M276.307 158.557C276.257 158.563 276.206 158.563 276.156 158.557C276.021 158.529 275.888 158.493 275.758 158.447C275.565 158.379 275.378 158.297 275.198 158.201C275.093 158.143 274.992 158.078 274.895 158.006C274.834 157.97 274.782 157.92 274.742 157.861C274.703 157.802 274.677 157.735 274.667 157.665C274.673 157.626 274.686 157.59 274.707 157.557C274.728 157.525 274.755 157.497 274.788 157.476C274.82 157.456 274.857 157.442 274.895 157.437C274.933 157.432 274.972 157.435 275.009 157.446C275.131 157.487 275.239 157.561 275.322 157.66C275.468 157.8 275.606 157.949 275.734 158.106C275.843 158.243 275.928 158.357 275.98 158.438C276.011 158.477 276.037 158.52 276.056 158.566C276.056 158.566 275.919 158.405 275.687 158.149C275.573 158.02 275.431 157.873 275.265 157.717C275.191 157.632 275.096 157.568 274.99 157.532C274.89 157.508 274.758 157.56 274.758 157.669C274.758 157.778 274.852 157.869 274.942 157.94C275.032 158.011 275.141 158.073 275.241 158.13C275.415 158.229 275.595 158.316 275.781 158.391C276.099 158.5 276.307 158.542 276.307 158.557Z" fill="#263238"/>
<path d="M276.071 158.5C276.062 158.454 276.062 158.408 276.071 158.362C276.071 158.277 276.071 158.149 276.099 157.992C276.12 157.804 276.168 157.621 276.241 157.447C276.285 157.343 276.344 157.247 276.417 157.162C276.454 157.104 276.51 157.06 276.576 157.039C276.642 157.018 276.713 157.022 276.777 157.048C276.829 157.089 276.868 157.145 276.89 157.208C276.912 157.271 276.916 157.339 276.9 157.404C276.881 157.515 276.848 157.624 276.801 157.726C276.724 157.902 276.616 158.063 276.483 158.201C276.394 158.292 276.297 158.374 276.194 158.448C276.123 158.495 276.08 158.519 276.075 158.514C276.071 158.509 276.227 158.391 276.436 158.158C276.557 158.026 276.655 157.873 276.725 157.707C276.768 157.612 276.798 157.512 276.815 157.409C276.815 157.309 276.815 157.181 276.734 157.138C276.654 157.095 276.549 157.138 276.478 157.233C276.413 157.313 276.357 157.401 276.312 157.494C276.24 157.661 276.189 157.836 276.161 158.016C276.139 158.179 276.109 158.34 276.071 158.5Z" fill="#263238"/>
<g opacity="0.4">
<path opacity="0.4" d="M272.582 158.96L272.265 157.641C272.265 157.641 273.364 157.845 273.649 158.666C273.818 159.12 273.893 159.605 273.867 160.089L276.237 162.665C276.237 162.665 276.839 161.493 277.924 161.773C277.924 161.773 278.777 163.671 278.749 164.122C278.72 164.573 278.175 164.539 277.981 164.449C277.192 163.99 276.472 163.422 275.843 162.76C274.592 161.432 273.194 159.766 272.582 158.96Z" fill="black"/>
</g>
<path d="M249.642 157.603L249.618 153.94L256.467 153.86L256.557 159.211L256.131 159.245C254.235 159.373 246.518 159.762 245.229 159.392C243.84 158.984 249.642 157.603 249.642 157.603Z" fill="#F5F5F5"/>
<g opacity="0.4">
<path opacity="0.4" d="M254.073 159.188C254.166 158.609 254.47 158.085 254.926 157.717C255.374 157.348 255.945 157.163 256.524 157.2V159.097L254.073 159.188Z" fill="black"/>
</g>
<g opacity="0.4">
<path opacity="0.4" d="M246.807 158.376C246.807 158.376 244.774 158.993 245.034 159.325C245.295 159.657 253.092 159.558 256.557 159.211V159.059L247.437 159.254C247.437 159.254 247.205 158.39 246.807 158.376Z" fill="black"/>
</g>
<path d="M256.652 159.055H256.533L256.197 159.078L254.95 159.15C253.898 159.197 252.448 159.249 250.841 159.273C249.234 159.297 247.784 159.273 246.731 159.273L245.485 159.235H245.148H245.03H245.504H246.75C247.803 159.235 249.253 159.235 250.86 159.235C252.467 159.235 253.917 159.173 254.969 159.135L256.211 159.093H256.552L256.652 159.055Z" fill="#263238"/>
<path d="M247.428 159.359C247.367 159.154 247.286 158.955 247.186 158.765C247.06 158.592 246.916 158.433 246.755 158.291C246.962 158.379 247.137 158.527 247.257 158.717C247.377 158.907 247.437 159.129 247.428 159.354V159.359Z" fill="#263238"/>
<path d="M249.433 158.305C249.433 158.305 249.314 158.206 249.215 158.049C249.115 157.892 249.044 157.755 249.063 157.741C249.082 157.726 249.182 157.845 249.286 158.002C249.39 158.158 249.452 158.296 249.433 158.305Z" fill="#263238"/>
<path d="M249.983 158.006C249.983 158.006 249.859 157.954 249.741 157.85C249.622 157.745 249.537 157.646 249.551 157.627C249.566 157.608 249.675 157.684 249.798 157.788C249.921 157.892 250.002 157.987 249.983 158.006Z" fill="#263238"/>
<path d="M250.329 157.356C250.213 157.398 250.09 157.415 249.968 157.404C249.849 157.42 249.727 157.409 249.613 157.371C249.727 157.331 249.848 157.315 249.968 157.323C250.089 157.307 250.212 157.318 250.329 157.356Z" fill="#263238"/>
<path d="M250.442 156.896C250.326 156.979 250.187 157.022 250.044 157.019C249.905 157.045 249.761 157.027 249.632 156.967C249.765 156.946 249.9 156.935 250.035 156.934C250.17 156.913 250.306 156.901 250.442 156.896Z" fill="#263238"/>
<path d="M249.196 157.712C249.05 157.738 248.901 157.738 248.755 157.712C248.594 157.694 248.436 157.661 248.281 157.612C248.187 157.588 248.097 157.553 248.011 157.508C247.957 157.479 247.916 157.429 247.897 157.37C247.89 157.338 247.892 157.304 247.904 157.273C247.916 157.242 247.937 157.214 247.964 157.195C248.13 157.109 248.321 157.085 248.504 157.125C248.687 157.166 248.849 157.27 248.964 157.418C249.033 157.502 249.083 157.601 249.111 157.707C249.12 157.746 249.12 157.787 249.111 157.826C249.063 157.692 248.994 157.567 248.907 157.456C248.806 157.341 248.674 157.257 248.528 157.214C248.353 157.159 248.165 157.174 248.001 157.257C247.935 157.309 247.959 157.394 248.039 157.437C248.117 157.481 248.2 157.516 248.286 157.541C248.441 157.589 248.599 157.626 248.76 157.65C249.025 157.703 249.196 157.698 249.196 157.712Z" fill="#263238"/>
<path d="M249.082 157.736C249.053 157.692 249.033 157.642 249.024 157.59C249.014 157.538 249.014 157.484 249.025 157.432C249.037 157.315 249.078 157.202 249.144 157.105C249.18 157.04 249.232 156.984 249.295 156.945C249.358 156.905 249.43 156.882 249.504 156.877C249.527 156.881 249.548 156.89 249.567 156.902C249.587 156.915 249.603 156.931 249.616 156.95C249.629 156.969 249.638 156.99 249.642 157.013C249.646 157.036 249.646 157.059 249.641 157.081C249.634 157.151 249.61 157.218 249.57 157.276C249.516 157.375 249.447 157.466 249.367 157.546C249.229 157.684 249.12 157.736 249.115 157.726C249.111 157.717 249.205 157.646 249.324 157.508C249.392 157.425 249.452 157.336 249.504 157.243C249.566 157.148 249.604 156.977 249.504 156.958C249.404 156.939 249.286 157.062 249.22 157.152C249.159 157.237 249.117 157.334 249.096 157.437C249.083 157.536 249.078 157.636 249.082 157.736Z" fill="#263238"/>
<path d="M256.486 157.181C256.317 157.172 256.148 157.172 255.979 157.181C255.578 157.236 255.199 157.4 254.884 157.655C254.571 157.913 254.336 158.253 254.206 158.637C254.107 158.936 254.097 159.112 254.083 159.112C254.075 159.066 254.075 159.02 254.083 158.974C254.096 158.849 254.12 158.725 254.154 158.604C254.271 158.199 254.508 157.839 254.834 157.572C255.16 157.305 255.559 157.144 255.979 157.11C256.105 157.095 256.232 157.095 256.358 157.11C256.405 157.124 256.449 157.149 256.486 157.181Z" fill="#263238"/>
<path d="M255.742 154.334C255.795 154.806 255.821 155.282 255.817 155.757C255.845 156.231 255.845 156.707 255.817 157.181C255.763 156.708 255.737 156.233 255.737 155.757C255.709 155.283 255.711 154.808 255.742 154.334Z" fill="#263238"/>
<path d="M253.201 158.533C252.874 158.612 252.537 158.648 252.201 158.642C251.866 158.665 251.53 158.643 251.201 158.576C251.201 158.552 251.651 158.576 252.201 158.576C252.751 158.576 253.196 158.509 253.201 158.533Z" fill="#263238"/>
<path d="M254.542 158.514C254.542 158.514 254.509 158.609 254.462 158.709C254.414 158.808 254.395 158.903 254.372 158.903C254.348 158.903 254.334 158.794 254.372 158.675C254.409 158.557 254.528 158.495 254.542 158.514Z" fill="#263238"/>
<path d="M255.04 157.873C255.04 157.873 255.016 157.964 254.945 158.035C254.874 158.106 254.803 158.153 254.789 158.139C254.774 158.125 254.812 158.049 254.883 157.978C254.955 157.907 255.026 157.859 255.04 157.873Z" fill="#263238"/>
<path d="M255.77 157.579C255.77 157.603 255.676 157.603 255.576 157.641C255.476 157.679 255.405 157.731 255.386 157.712C255.367 157.693 255.424 157.603 255.548 157.56C255.671 157.518 255.77 157.556 255.77 157.579Z" fill="#263238"/>
<path d="M256.273 157.437C256.273 157.437 256.244 157.494 256.187 157.518C256.13 157.541 256.078 157.541 256.069 157.518C256.059 157.494 256.102 157.461 256.159 157.437C256.216 157.413 256.268 157.413 256.273 157.437Z" fill="#263238"/>
<path d="M279.203 156.706L265.662 84.9172L246.84 87.7877L248.176 156.023L258.841 156.251L257.068 96.7216L269.065 156.706H279.203Z" fill="#455A64"/>
<path d="M267.743 91.7825L246.229 90.9807L246.84 71.3242L244.02 74.5457L238.266 69.5592L244.593 60.929C245.407 59.8287 246.433 58.9028 247.61 58.2061C248.787 57.5094 250.092 57.0559 251.447 56.8724C252.248 56.7633 252.869 56.7064 253.258 56.6589C255.542 57.3826 257.993 57.3826 260.277 56.6589C261.269 56.6926 262.249 56.8815 263.183 57.2188C264.942 57.8418 266.53 58.8706 267.818 60.2221L274.876 69.7727L268.842 74.9917L265.406 71.9647L267.743 91.7825Z" fill="#263238"/>
<path d="M247.162 63.9038C247.229 63.9038 247.162 67.1775 247.011 71.2056C246.859 75.2337 246.683 78.5027 246.617 78.4979C246.551 78.4932 246.617 75.2289 246.764 71.1961C246.911 67.1633 247.091 63.9038 247.162 63.9038Z" fill="#455A64"/>
<path d="M264.643 65.1943C264.905 66.5899 265.082 68 265.174 69.4169C265.351 70.8257 265.448 72.2435 265.463 73.6633C265.201 72.2677 265.024 70.8576 264.932 69.4407C264.755 68.0319 264.658 66.6141 264.643 65.1943Z" fill="#455A64"/>
<path d="M254.111 56.8723C254.154 56.9292 253.988 57.1237 253.746 57.3182C253.504 57.5128 253.272 57.6172 253.229 57.565C253.187 57.5128 253.353 57.3135 253.594 57.119C253.836 56.9245 254.068 56.8201 254.111 56.8723Z" fill="#455A64"/>
<path d="M255.088 57.086C255.149 57.1192 255.088 57.3185 255.04 57.5604C254.993 57.8024 254.912 57.9779 254.841 57.9732C254.77 57.9684 254.732 57.7502 254.803 57.4987C254.874 57.2473 255.031 57.0528 255.088 57.086Z" fill="#455A64"/>
<path d="M256.201 57.2283C256.273 57.2283 256.334 57.4086 256.348 57.641C256.363 57.8735 256.31 58.0586 256.244 58.0633C256.178 58.068 256.111 57.883 256.102 57.6505C256.092 57.4181 256.135 57.2283 256.201 57.2283Z" fill="#455A64"/>
<path d="M257.633 57.1191C257.704 57.1191 257.761 57.3184 257.827 57.5556C257.894 57.7929 257.936 57.9969 257.879 58.0301C257.822 58.0633 257.661 57.8925 257.585 57.6221C257.51 57.3516 257.567 57.1191 257.633 57.1191Z" fill="#455A64"/>
<path d="M259.23 56.9484C259.296 56.9247 259.405 57.067 259.533 57.2378C259.661 57.4086 259.77 57.551 259.728 57.6079C259.685 57.6648 259.491 57.6079 259.339 57.3849C259.187 57.1619 259.169 56.9721 259.23 56.9484Z" fill="#455A64"/>
<path d="M260.069 56.7064C260.107 56.6495 260.273 56.7064 260.434 56.7966C260.595 56.8867 260.7 57.0338 260.662 57.0907C260.624 57.1476 260.463 57.0907 260.301 57.0053C260.14 56.9199 260.036 56.7633 260.069 56.7064Z" fill="#455A64"/>
<path d="M265.093 69.8628C265.093 69.9339 261.06 69.9909 256.088 69.9956C251.116 70.0004 247.082 69.9434 247.082 69.877C247.082 69.8106 251.116 69.7489 256.088 69.7442C261.06 69.7394 265.093 69.7964 265.093 69.8628Z" fill="#FAFAFA"/>
<path d="M265.25 71.1959C265.25 71.2671 261.216 71.324 256.244 71.3287C251.272 71.3335 247.238 71.2766 247.238 71.2101C247.238 71.1437 251.272 71.082 256.244 71.082C261.216 71.082 265.25 71.139 265.25 71.1959Z" fill="#FAFAFA"/>
<path d="M265.406 72.5293C265.406 72.6004 261.259 72.6906 256.149 72.738C251.04 72.7855 246.888 72.738 246.888 72.6953C246.888 72.6526 251.03 72.534 256.145 72.4913C261.259 72.4486 265.406 72.4628 265.406 72.5293Z" fill="#FAFAFA"/>
<path d="M271.251 64.7246C271.03 65.0374 270.772 65.3225 270.483 65.5739C269.98 66.0483 269.26 66.7363 268.435 67.4337C267.61 68.1312 266.838 68.729 266.264 69.1417C265.972 69.383 265.654 69.5914 265.316 69.7633C265.576 69.482 265.864 69.2277 266.174 69.0042L268.298 67.2439L270.383 65.4458C270.65 65.1796 270.94 64.9383 271.251 64.7246Z" fill="#FAFAFA"/>
<path d="M272.359 65.9202C272.084 66.249 271.777 66.5509 271.444 66.8216C270.857 67.3483 270.022 68.0504 269.074 68.7906C268.127 69.5307 267.226 70.157 266.562 70.5888C266.218 70.8443 265.848 71.0637 265.458 71.2435C265.767 70.9464 266.103 70.6795 266.463 70.4464C267.098 69.972 267.97 69.3267 268.928 68.5961C269.885 67.8654 270.729 67.1727 271.345 66.6983C271.658 66.4078 271.998 66.1473 272.359 65.9202Z" fill="#FAFAFA"/>
<path d="M272.895 67.0444C271.879 68.0797 270.805 69.0556 269.677 69.9671C268.601 70.9399 267.471 71.8507 266.292 72.6951C267.311 71.6629 268.388 70.6888 269.516 69.7773C270.592 68.806 271.72 67.8937 272.895 67.0444Z" fill="#FAFAFA"/>
<path d="M246.907 70.2803C246.574 70.1439 246.265 69.9549 245.992 69.7205C245.313 69.1885 244.679 68.6013 244.096 67.965C243.404 67.2344 242.792 66.5417 242.356 66.0672C242.103 65.8146 241.879 65.5345 241.688 65.2322C241.98 65.4384 242.247 65.6772 242.484 65.9439C242.958 66.4183 243.584 67.0636 244.276 67.7942C244.853 68.4217 245.462 69.0187 246.101 69.5829C246.383 69.7991 246.652 70.032 246.907 70.2803Z" fill="#FAFAFA"/>
<path d="M246.29 71.9078C245.949 71.7142 245.631 71.4818 245.342 71.2151C244.797 70.7407 244.058 70.1002 243.285 69.3173C242.513 68.5345 241.835 67.8323 241.389 67.2914C241.119 67.0146 240.882 66.7073 240.683 66.3757C240.985 66.6147 241.265 66.8816 241.517 67.1728C241.991 67.6805 242.702 68.3827 243.475 69.1418C244.247 69.9009 244.963 70.5651 245.48 71.0396C245.78 71.2994 246.052 71.5905 246.29 71.9078Z" fill="#FAFAFA"/>
<path d="M245.637 73.0655C245.324 72.8278 245.035 72.5609 244.774 72.2684C244.262 71.7607 243.551 71.0633 242.745 70.3089C241.939 69.5545 241.191 68.8855 240.646 68.4111C240.337 68.1709 240.05 67.9042 239.788 67.614C240.138 67.7942 240.464 68.0173 240.759 68.2782C241.333 68.7195 242.105 69.36 242.916 70.1144C243.726 70.8687 244.418 71.5947 244.902 72.1355C245.181 72.4168 245.427 72.7287 245.637 73.0655Z" fill="#FAFAFA"/>
<path d="M267.7 90.8762C267.7 90.9426 262.918 90.8762 257.021 90.7291C251.125 90.5821 246.347 90.4065 246.347 90.3401C246.347 90.2737 251.13 90.3401 257.026 90.4824C262.922 90.6247 267.7 90.805 267.7 90.8762Z" fill="#455A64"/>
<path d="M315.729 131.869C316.344 132.177 316.89 132.606 317.336 133.13C317.781 133.654 318.117 134.263 318.322 134.92C318.721 136.238 318.815 137.63 318.597 138.99C318.246 141.624 316.701 144.257 315.046 146.335C312.866 144.356 312.416 140.964 312.297 139.218C312.113 136.481 313.435 131.409 315.729 131.859" fill="#F5F5F5"/>
<path d="M317.544 150.747C317.407 149.99 317.472 149.21 317.734 148.487C317.995 147.764 318.443 147.123 319.032 146.629C319.626 146.149 320.308 145.791 321.04 145.576C321.772 145.361 322.54 145.293 323.298 145.376C323.653 145.377 324.004 145.457 324.325 145.608C324.646 145.76 324.93 145.98 325.156 146.254C325.327 146.541 325.417 146.869 325.417 147.203C325.417 147.537 325.327 147.865 325.156 148.152C324.81 148.721 324.32 149.187 323.734 149.504C321.791 150.676 319.691 151.454 317.53 150.757" fill="#F5F5F5"/>
<path d="M314.543 158.784C314.555 158.602 314.583 158.421 314.629 158.243C314.709 157.864 314.809 157.37 314.927 156.782C315.205 155.156 315.745 153.586 316.525 152.133C317.336 150.682 318.517 149.472 319.947 148.626C320.381 148.378 320.845 148.184 321.326 148.048C321.457 148.007 321.59 147.975 321.724 147.953C321.814 147.953 321.862 147.953 321.862 147.953C321.22 148.158 320.6 148.428 320.013 148.759C318.632 149.622 317.49 150.82 316.695 152.242C315.93 153.681 315.381 155.225 315.065 156.825C314.918 157.437 314.799 157.935 314.709 158.272C314.668 158.447 314.612 158.618 314.543 158.784Z" fill="#263238"/>
<path d="M315.06 135.83C315.07 135.909 315.07 135.989 315.06 136.068C315.06 136.243 315.06 136.466 315.089 136.746C315.089 137.339 315.127 138.193 315.141 139.251C315.169 141.367 315.169 144.29 315.093 147.516C315.017 150.742 314.885 153.66 314.762 155.776C314.695 156.83 314.638 157.674 314.591 158.272C314.591 158.552 314.548 158.775 314.529 158.95C314.529 159.031 314.518 159.11 314.496 159.188C314.491 159.109 314.491 159.029 314.496 158.95C314.496 158.775 314.496 158.547 314.496 158.267C314.525 157.655 314.558 156.806 314.605 155.767C314.695 153.655 314.809 150.738 314.885 147.511C314.961 144.285 314.98 141.343 314.984 139.251C314.984 138.212 314.984 137.353 314.984 136.746C314.984 136.466 314.984 136.243 314.984 136.068C315.003 135.987 315.028 135.907 315.06 135.83Z" fill="#263238"/>
<path d="M313.676 152.27C313.44 150.664 312.824 149.138 311.88 147.818C310.936 146.497 309.692 145.421 308.249 144.679C307.515 144.309 306.552 144.062 305.931 144.598C305.311 145.135 305.429 146.136 305.713 146.909C306.335 148.515 307.417 149.9 308.824 150.891C310.231 151.881 311.9 152.432 313.619 152.474" fill="#F5F5F5"/>
<path d="M308.562 147.212C308.726 147.268 308.885 147.34 309.036 147.426C309.216 147.515 309.392 147.613 309.562 147.72C309.756 147.848 309.998 147.976 310.23 148.157C310.496 148.343 310.751 148.544 310.993 148.759C311.279 148.997 311.549 149.252 311.804 149.523C312.994 150.761 313.86 152.273 314.326 153.926C314.424 154.284 314.503 154.646 314.563 155.012C314.62 155.326 314.658 155.643 314.676 155.961C314.7 156.226 314.708 156.492 314.7 156.758C314.702 156.96 314.692 157.161 314.672 157.361C314.668 157.534 314.646 157.705 314.605 157.873C314.563 157.873 314.653 157.138 314.544 155.976C314.515 155.657 314.469 155.34 314.406 155.027C314.341 154.667 314.257 154.31 314.155 153.959C313.911 153.156 313.58 152.381 313.169 151.649C312.745 150.925 312.244 150.249 311.676 149.632C311.428 149.362 311.165 149.105 310.889 148.863C310.653 148.649 310.406 148.446 310.15 148.256C309.207 147.568 308.543 147.25 308.562 147.212Z" fill="#263238"/>
</g>
<defs>
<clipPath id="clip0">
<rect width="327" height="174" fill="white"/>
</clipPath>
</defs>
</svg>
