<svg width="17" height="17" viewBox="0 0 17 17" fill="none" xmlns="http://www.w3.org/2000/svg">
<path d="M8.18635 13.5226C11.0121 13.5226 13.3029 11.2319 13.3029 8.40608C13.3029 5.5803 11.0121 3.28955 8.18635 3.28955C5.36057 3.28955 3.06982 5.5803 3.06982 8.40608C3.06982 11.2319 5.36057 13.5226 8.18635 13.5226Z" fill="#2FDF84"/>
<path d="M8.18663 13.864C5.1772 13.864 2.729 11.4158 2.729 8.40636C2.729 5.39693 5.1772 2.94873 8.18663 2.94873C11.1961 2.94873 13.6443 5.39693 13.6443 8.40636C13.6443 11.4158 11.1961 13.864 8.18663 13.864ZM8.18663 3.63093C5.55333 3.63093 3.41121 5.77305 3.41121 8.40636C3.41121 11.0397 5.55333 13.1818 8.18663 13.1818C10.8199 13.1818 12.9621 11.0397 12.9621 8.40636C12.9621 5.77305 10.8199 3.63093 8.18663 3.63093Z" fill="#0C1248"/>
<path d="M7.67472 10.2258C7.5874 10.2258 7.50007 10.1926 7.43367 10.1258L5.95557 8.64767L6.43811 8.16512L7.67517 9.40218L10.3903 6.68701L10.8729 7.16956L7.91667 10.1258C7.84936 10.1926 7.76204 10.2258 7.67472 10.2258Z" fill="#0C1248"/>
</svg>
