<svg width="35" height="35" viewBox="0 0 35 35" fill="none" xmlns="http://www.w3.org/2000/svg">
<path d="M20.4167 4.375V10.2083C20.4167 10.5951 20.5704 10.966 20.8439 11.2395C21.1174 11.513 21.4883 11.6667 21.8751 11.6667H27.7084" stroke="white" stroke-width="2" stroke-linecap="round" stroke-linejoin="round"/>
<path d="M24.7917 30.625H10.2084C9.43487 30.625 8.693 30.3177 8.14602 29.7707C7.59904 29.2237 7.29175 28.4819 7.29175 27.7083V7.29167C7.29175 6.51812 7.59904 5.77625 8.14602 5.22927C8.693 4.68229 9.43487 4.375 10.2084 4.375H20.4167L27.7084 11.6667V27.7083C27.7084 28.4819 27.4011 29.2237 26.8541 29.7707C26.3072 30.3177 25.5653 30.625 24.7917 30.625Z" stroke="white" stroke-width="2" stroke-linecap="round" stroke-linejoin="round"/>
</svg>
