<svg width="80" height="80" viewBox="0 0 80 80" fill="none" xmlns="http://www.w3.org/2000/svg">
<path d="M77.5646 45.2333C69.1601 32.3644 70.0535 19.1733 66.0023 12.9711C61.9512 6.76888 49.8779 -3.92446 21.3512 14.7089C-7.17544 33.3422 0.0801196 53.5978 4.5379 60.4178C25.4001 92.3555 92.4512 68.0244 77.5646 45.2333Z" fill="#EFEFEF"/>
<path d="M23.8889 53.8889V55C23.8889 56.84 25.3822 58.3333 27.2222 58.3333H61.6667C63.5067 58.3333 65 56.84 65 55V33.8889C65 32.0489 63.5067 30.5555 61.6667 30.5555H28.3334C25.8778 30.5555 23.8889 32.5444 23.8889 35V53.8889Z" fill="#F3F3F1"/>
<path d="M28.3334 55V53.8889V35C28.3334 32.5444 30.3222 30.5555 32.7778 30.5555H28.3334C25.8778 30.5555 23.8889 32.5444 23.8889 35V53.8889V55C23.8889 56.84 25.3822 58.3333 27.2222 58.3333H31.6667C29.8267 58.3333 28.3334 56.84 28.3334 55Z" fill="#D5DBE1"/>
<path d="M56.1111 26.7333V44.0222C56.1111 45.8 54.6667 47.2222 52.8667 47.2222H18.2444C16.4444 47.2222 15 45.8 15 44.0222V26.7333L33.8667 36.2444C34.9111 36.8 36.2 36.8 37.2444 36.2444L56.1111 26.7333Z" fill="#F3F3F1"/>
<path d="M20 44.0222V29.2533L15 26.7333V44.0222C15 45.8 16.4444 47.2222 18.2444 47.2222H23.2444C21.4444 47.2222 20 45.8 20 44.0222Z" fill="#CCD4EB"/>
<path d="M38.8668 36.2444C39.9112 36.8 41.2001 36.8 42.2446 36.2444L56.1112 29.2533V26.7333L38.0557 35.8356L38.8668 36.2444Z" fill="#D5DBE1"/>
<path d="M11.1112 63.8889C9.27339 63.8889 7.77783 62.3933 7.77783 60.5556C7.77783 58.7178 9.27339 57.2222 11.1112 57.2222C12.9489 57.2222 14.4445 58.7178 14.4445 60.5556C14.4445 62.3933 12.9489 63.8889 11.1112 63.8889ZM11.1112 59.4445C10.4978 59.4445 10.0001 59.9422 10.0001 60.5556C10.0001 61.1689 10.4978 61.6667 11.1112 61.6667C11.7245 61.6667 12.2223 61.1689 12.2223 60.5556C12.2223 59.9422 11.7245 59.4445 11.1112 59.4445Z" fill="#A4AFC1"/>
<path d="M59.0708 8.03656L60.6421 6.46521L63.7848 9.60791L62.2135 11.1793L59.0708 8.03656Z" fill="#A4AFC1"/>
<path d="M68.105 17.0721L69.6763 15.5008L72.819 18.6435L71.2477 20.2148L68.105 17.0721Z" fill="#A4AFC1"/>
<path d="M58.6787 18.6428L61.8214 15.5001L63.3928 17.0714L60.2501 20.2141L58.6787 18.6428Z" fill="#A4AFC1"/>
<path d="M67.7122 9.6087L70.8549 6.46601L72.4262 8.03735L69.2835 11.1801L67.7122 9.6087Z" fill="#A4AFC1"/>
<path d="M56.1111 24.8667V26.7334L37.2444 36.2445C36.2 36.8 34.9111 36.8 33.8667 36.2445L15 26.7334V24.8667C15 23.0889 16.4444 21.6667 18.2444 21.6667H52.8667C54.6667 21.6667 56.1111 23.0889 56.1111 24.8667Z" fill="#CCD4EB"/>
<path d="M20 26.1778V24.8667C20 23.0889 21.4444 21.6667 23.2444 21.6667H18.2444C16.4444 21.6667 15 23.0889 15 24.8667V26.7334L33.8667 36.2445C34.9111 36.8 36.2 36.8 37.2444 36.2445L38.0556 35.28L20 26.1778Z" fill="#A4AFC1"/>
<path d="M52.8668 48.8889H18.2446C15.5379 48.8889 13.3335 46.7089 13.3335 44.0267V24.86C13.3335 22.18 15.5379 20 18.2446 20H52.8668C55.5735 20 57.7779 22.18 57.7779 24.8622V44.0289C57.7779 46.7089 55.5735 48.8889 52.8668 48.8889ZM18.2446 23.3333C17.3735 23.3333 16.6668 24.02 16.6668 24.8622V44.0289C16.6668 44.8711 17.3757 45.5578 18.2446 45.5578H52.8668C53.7379 45.5578 54.4446 44.8711 54.4446 44.0289V24.8622C54.4446 24.02 53.7357 23.3333 52.8668 23.3333H18.2446Z" fill="#0C1248"/>
<path d="M35.5643 38.3267C34.7087 38.3267 33.851 38.1244 33.0821 37.7156L14.251 28.2222L15.751 25.2444L34.6176 34.7556C35.2132 35.0733 35.9065 35.0711 36.4621 34.7733L55.3621 25.2444L56.8621 28.2222L37.9954 37.7333C37.2532 38.1289 36.411 38.3267 35.5643 38.3267Z" fill="#0C1248"/>
<path d="M61.6666 60H27.2222C24.4644 60 22.2222 57.7578 22.2222 55V53.8889H25.5555V55C25.5555 55.92 26.3022 56.6667 27.2222 56.6667H61.6666C62.5866 56.6667 63.3333 55.92 63.3333 55V33.8889C63.3333 32.9689 62.5866 32.2222 61.6666 32.2222V28.8889C64.4244 28.8889 66.6666 31.1311 66.6666 33.8889V55C66.6666 57.7578 64.4244 60 61.6666 60Z" fill="#0C1248"/>
</svg>
