<svg width="20" height="20" viewBox="0 0 20 20" fill="none" xmlns="http://www.w3.org/2000/svg">
<mask id="path-1-inside-1" fill="white">
<path d="M11.9999 6.5999V4.9999H13.9999V3.3999H8.3999V4.9999H10.3999V6.5999"/>
</mask>
<path d="M11.9999 4.9999V3.9999C11.4476 3.9999 10.9999 4.44762 10.9999 4.9999H11.9999ZM13.9999 4.9999V5.9999C14.5522 5.9999 14.9999 5.55219 14.9999 4.9999H13.9999ZM13.9999 3.3999H14.9999C14.9999 2.84762 14.5522 2.3999 13.9999 2.3999V3.3999ZM8.3999 3.3999V2.3999C7.84762 2.3999 7.3999 2.84762 7.3999 3.3999H8.3999ZM8.3999 4.9999H7.3999C7.3999 5.55219 7.84762 5.9999 8.3999 5.9999V4.9999ZM10.3999 4.9999H11.3999C11.3999 4.44762 10.9522 3.9999 10.3999 3.9999V4.9999ZM12.9999 6.5999V4.9999H10.9999V6.5999H12.9999ZM11.9999 5.9999H13.9999V3.9999H11.9999V5.9999ZM14.9999 4.9999V3.3999H12.9999V4.9999H14.9999ZM13.9999 2.3999H8.3999V4.3999H13.9999V2.3999ZM7.3999 3.3999V4.9999H9.3999V3.3999H7.3999ZM8.3999 5.9999H10.3999V3.9999H8.3999V5.9999ZM9.3999 4.9999V6.5999H11.3999V4.9999H9.3999Z" fill="#D03737" mask="url(#path-1-inside-1)"/>
<mask id="path-3-inside-2" fill="white">
<path d="M3.5999 10.7999H1.9999V8.3999H0.399902V14.7999H1.9999V12.3999H3.5999"/>
</mask>
<path d="M1.9999 10.7999H0.999902C0.999902 11.3522 1.44762 11.7999 1.9999 11.7999V10.7999ZM1.9999 8.3999H2.9999C2.9999 7.84762 2.55219 7.3999 1.9999 7.3999V8.3999ZM0.399902 8.3999V7.3999C-0.152382 7.3999 -0.600098 7.84762 -0.600098 8.3999H0.399902ZM0.399902 14.7999H-0.600098C-0.600098 15.3522 -0.152382 15.7999 0.399902 15.7999L0.399902 14.7999ZM1.9999 14.7999V15.7999C2.55219 15.7999 2.9999 15.3522 2.9999 14.7999H1.9999ZM1.9999 12.3999V11.3999C1.44762 11.3999 0.999902 11.8476 0.999902 12.3999H1.9999ZM3.5999 9.7999H1.9999V11.7999H3.5999V9.7999ZM2.9999 10.7999V8.3999H0.999902V10.7999H2.9999ZM1.9999 7.3999H0.399902V9.3999H1.9999V7.3999ZM-0.600098 8.3999V14.7999H1.3999V8.3999H-0.600098ZM0.399902 15.7999H1.9999V13.7999H0.399902V15.7999ZM2.9999 14.7999V12.3999H0.999902V14.7999H2.9999ZM1.9999 13.3999H3.5999V11.3999H1.9999V13.3999Z" fill="#D03737" mask="url(#path-3-inside-2)"/>
<path d="M18.5001 10V8.5H19.0997V13.9H18.4997V12.4C18.4997 12.1239 18.2758 11.9 17.9997 11.9H16.7997C16.5236 11.9 16.2997 12.1239 16.2997 12.4V13.4704C16.2997 13.5371 16.2741 13.5975 16.2316 13.6406L16.2309 13.6413L13.2927 16.634C13.25 16.6773 13.1941 16.7 13.1381 16.7H7.9961C7.94368 16.7 7.89134 16.6802 7.8499 16.6421L5.97866 14.4734C5.88368 14.3633 5.74549 14.3 5.6001 14.3H4.4001C4.36049 14.3 4.2811 14.2758 4.20277 14.198C4.12489 14.1206 4.1001 14.042 4.1001 14V9.2C4.1001 9.16262 4.12382 9.08338 4.20365 9.00355C4.28348 8.92373 4.36271 8.9 4.4001 8.9H5.6001C5.74548 8.9 5.88366 8.83673 5.97864 8.72666L7.84968 6.55848C7.89101 6.52011 7.94377 6.5 7.9961 6.5H16.0765C16.1909 6.5 16.3001 6.59777 16.3001 6.7372V10C16.3001 10.2761 16.524 10.5 16.8001 10.5H18.0001C18.2762 10.5 18.5001 10.2761 18.5001 10Z" stroke="#D03737" stroke-miterlimit="10" stroke-linecap="round" stroke-linejoin="round"/>
<path d="M12.7998 11.2L9.5998 15.6L10.7998 12H8.7998L10.7998 8H12.7998L10.7998 11.2H12.7998Z" fill="#D03737"/>
</svg>
