<svg width="20" height="20" viewBox="0 0 20 20" fill="none" xmlns="http://www.w3.org/2000/svg">
<g clip-path="url(#clip0)">
<path d="M18.3333 10.4167C18.3333 10.4167 19.9999 12.225 19.9999 13.3333C19.9999 13.7754 19.8243 14.1993 19.5118 14.5118C19.1992 14.8244 18.7753 15 18.3333 15C18.1144 15 17.8977 14.9569 17.6955 14.8731C17.4933 14.7894 17.3095 14.6666 17.1548 14.5118C17 14.3571 16.8772 14.1733 16.7935 13.9711C16.7097 13.7689 16.6666 13.5522 16.6666 13.3333C16.6666 12.225 18.3333 10.4167 18.3333 10.4167ZM4.99994 5H8.33327C8.55428 5 8.76624 5.0878 8.92252 5.24408C9.0788 5.40036 9.1666 5.61232 9.1666 5.83333C9.1666 6.05435 9.0788 6.26631 8.92252 6.42259C8.76624 6.57887 8.55428 6.66667 8.33327 6.66667H7.49993V8.33333H9.1666C9.78327 8.33333 10.3249 8.66667 10.6083 9.16667L16.0333 6.03333L18.7499 7.60833C19.1666 7.83333 19.2833 8.33333 19.0583 8.75C18.8249 9.14167 18.3333 9.28333 17.9166 9.05L16.1666 8.04167L13.1249 13.3083C12.8416 13.8167 12.2916 14.1667 11.6666 14.1667H4.1666C3.94773 14.1667 3.731 14.1236 3.5288 14.0398C3.32659 13.956 3.14285 13.8333 2.98809 13.6785C2.83333 13.5237 2.71056 13.34 2.6268 13.1378C2.54304 12.9356 2.49993 12.7189 2.49993 12.5V10C2.49993 9.55797 2.67553 9.13405 2.98809 8.82149C3.30065 8.50893 3.72457 8.33333 4.1666 8.33333H5.83327V6.66667H4.99994C4.77892 6.66667 4.56696 6.57887 4.41068 6.42259C4.2544 6.26631 4.1666 6.05435 4.1666 5.83333C4.1666 5.61232 4.2544 5.40036 4.41068 5.24408C4.56696 5.0878 4.77892 5 4.99994 5ZM4.1666 10V12.5H11.6666L13.3833 9.525L10.4999 11.1917L9.7416 10H4.1666ZM0.316602 7.675L1.7416 6.25C2.08327 5.925 2.5916 5.925 2.9166 6.25C3.2416 6.575 3.2416 7.08333 2.9166 7.425L1.4916 8.85C1.1666 9.16667 0.641602 9.16667 0.316602 8.85C-6.51032e-05 8.525 -6.51032e-05 8 0.316602 7.675Z" fill="#D03737"/>
</g>
<defs>
<clipPath id="clip0">
<rect width="20" height="20" fill="white"/>
</clipPath>
</defs>
</svg>
