<svg width="18" height="18" viewBox="0 0 18 18" fill="none" xmlns="http://www.w3.org/2000/svg">
<path d="M2.25 2.25L15.75 15.75" stroke="#D0D0D0" stroke-linecap="round" stroke-linejoin="round"/>
<path d="M7.93809 7.94031C7.65663 8.22157 7.49843 8.60312 7.49829 9.00103C7.49815 9.39893 7.65608 9.7806 7.93735 10.0621C8.21861 10.3435 8.60016 10.5017 8.99806 10.5019C9.39597 10.502 9.77763 10.3441 10.0591 10.0628" stroke="#D0D0D0" stroke-linecap="round" stroke-linejoin="round"/>
<path d="M13.0178 13.0118C11.7945 13.8368 10.4565 14.25 9 14.25C6 14.25 3.50025 12.5003 1.5 9.00004C2.52675 7.20379 3.68475 5.86879 4.974 4.99429M7.02225 4.02379C7.66531 3.83984 8.33115 3.74768 9 3.75004C12 3.75004 14.4997 5.49979 16.5 9.00004C15.9165 10.0208 15.291 10.893 14.6227 11.616L7.02225 4.02379Z" stroke="#D0D0D0" stroke-linecap="round" stroke-linejoin="round"/>
</svg>
