<svg width="250" height="167" viewBox="0 0 250 167" fill="none" xmlns="http://www.w3.org/2000/svg">
<path d="M153.623 49.6073L153.83 50.3619C155.563 56.7327 153.77 63.5642 148.983 68.0184C148.368 68.5911 147.712 69.1178 147.02 69.5944C144.476 71.2898 141.553 72.3293 138.511 72.6206C135.469 72.9118 132.402 72.4458 129.583 71.2639C126.27 69.8515 123.21 67.4274 119.627 67.3106C114.96 67.1637 111.25 70.9167 108.167 74.3825C105.083 77.8484 101.36 81.5947 96.6933 81.4278C93.7733 81.3209 91.0867 79.6181 89.0667 77.4778C83.7133 71.8182 82.4 63.0901 84.6367 55.7043C86.8733 48.3184 92.23 42.2081 98.5233 37.7806C107.34 31.5768 118.493 28.3113 129.19 30.151C139.887 31.9908 149.88 39.3766 153.623 49.6073Z" fill="#EBEBEB"/>
<path d="M82.5568 90.0569C86.0728 86.5349 86.0728 80.8247 82.5568 77.3027C79.0408 73.7807 73.3402 73.7807 69.8241 77.3027C66.3081 80.8247 66.3081 86.535 69.8241 90.0569C73.3402 93.5789 79.0408 93.5789 82.5568 90.0569Z" fill="#EBEBEB"/>
<path d="M235.123 142.865C235.123 142.912 185.817 142.952 125.007 142.952C64.1967 142.952 14.8766 142.908 14.8766 142.865C14.8766 142.822 64.1733 142.778 125.007 142.778C185.84 142.778 235.123 142.815 235.123 142.865Z" fill="#263238"/>
<path d="M175.017 142.865C181.517 142.438 194.617 140.705 202.163 139.683C205.56 139.226 209.323 138.474 212.547 137.312C215.77 136.15 218.777 133.92 220.07 130.741C220.937 128.608 220.883 125.933 219.323 124.244C217.453 122.217 214.243 122.297 211.557 122.908C212.436 122.039 213.515 121.401 214.699 121.05C215.884 120.699 217.136 120.647 218.345 120.898C219.555 121.149 220.684 121.695 221.632 122.487C222.58 123.28 223.318 124.295 223.78 125.442C225.043 124.799 226.467 124.543 227.874 124.707C229.281 124.872 230.608 125.448 231.689 126.365C232.77 127.282 233.557 128.498 233.951 129.861C234.345 131.224 234.328 132.673 233.903 134.027C234.944 133.661 236.063 133.576 237.147 133.781C238.23 133.986 239.241 134.474 240.077 135.195C241.727 136.655 242.243 140.708 241.743 142.855L175.017 142.865Z" fill="#EBEBEB"/>
<path d="M196.4 137.987C199.457 137.436 202.55 136.872 205.383 135.593C205.99 135.364 206.529 134.985 206.95 134.491C207.333 133.97 207.433 133.189 207.017 132.695C206.66 132.27 206.047 132.174 205.497 132.21C204.385 132.332 203.327 132.755 202.437 133.432C201.527 134.074 200.723 134.851 199.867 135.566C198.73 136.51 197.502 137.336 196.2 138.034" fill="#EBEBEB"/>
<path d="M144.647 90.5065C144.617 90.5116 144.586 90.5116 144.557 90.5065H144.297L143.297 90.4764L139.593 90.3295L134.1 90.0924L130.857 89.9488C130.293 89.9054 129.723 89.9488 129.14 89.9488H127.373C122.59 89.9488 118.267 89.7351 115.14 89.5982L111.437 89.4213L110.437 89.3645L110.173 89.3445C110.144 89.3502 110.113 89.3502 110.083 89.3445H110.437L111.437 89.3679L115.143 89.4914C118.273 89.5982 122.597 89.7752 127.373 89.7919H129.14C129.723 89.7919 130.297 89.7619 130.86 89.7919L134.103 89.9455L139.597 90.2193L143.3 90.4196L144.3 90.4831L144.563 90.5031L144.647 90.5065Z" fill="#0C1248"/>
<path d="M39.04 107.328H198.107V130.604H24.3533V122.036C24.3542 118.135 25.9019 114.394 28.6561 111.636C31.4103 108.878 35.1454 107.328 39.04 107.328Z" fill="#CCD4EB"/>
<g opacity="0.4">
<path opacity="0.4" d="M39.04 107.328H198.107V130.604H24.3533V122.036C24.3542 118.135 25.9019 114.394 28.6561 111.636C31.4103 108.878 35.1454 107.328 39.04 107.328Z" fill="black"/>
</g>
<path d="M9.50397 129.803C9.50397 129.803 15.6673 136.564 27.0006 135.189C27.0006 135.189 22.4673 109.989 46.2206 108.604C46.2206 108.604 57.1073 107.652 62.714 116.617C64.3288 119.245 65.2095 122.26 65.264 125.345C65.3573 128.885 65.4673 134.862 65.184 136.364C65.184 136.364 143.677 133.095 157.417 134.661C157.417 134.661 151.164 115.165 168.394 108.911C171.334 107.842 174.727 107.726 177.824 108.163C182.047 108.757 186.574 110.694 189.491 115.175C190.747 117.101 192.301 119.896 192.741 122.153C193.491 126.023 192.981 129.669 192.741 131.566L199.237 130.935L203.924 115.379L203.257 106.113L198.434 96.9774L187.001 98.3397C187.001 98.3397 165.847 92.3295 153.401 89.822C140.954 87.3144 121.294 86.8169 116.534 87.6416C111.774 88.4663 109.961 89.3478 107.601 90.3696C105.241 91.3913 83.4773 101.816 83.4773 101.816L50.2173 102.086C50.2173 102.086 27.4973 101.612 13.1473 118.711L15.0506 126.411L9.50397 129.803Z" fill="#CCD4EB"/>
<path d="M83.4833 101.816C83.4833 101.816 103.98 102.69 109.373 102.483C114.767 102.276 143.947 98.8472 143.947 98.8472L144.367 90.453C144.367 90.453 134.687 89.8186 128.333 89.8186C123.047 89.8186 110.063 89.3244 110.063 89.3244C109.65 89.4981 109.197 89.6784 108.773 89.8587C101.233 93.0808 92.76 97.328 83.4833 101.816Z" fill="#0C1248"/>
<path d="M18 113.806C18 113.806 21.0367 114.293 24.8333 112.587C28.63 110.881 39.4333 105.048 39.4333 105.048L38.72 103.565C38.72 103.565 36.7833 103.956 34.5533 104.664C32.1401 105.446 29.7909 106.414 27.5267 107.559C25.7502 108.452 24.0232 109.44 22.3533 110.52C20.84 111.53 19.3865 112.627 18 113.806Z" fill="#EBEBEB"/>
<path d="M23.8667 118.661C23.8667 118.708 21.7533 118.808 19.14 118.884C16.5267 118.961 14.4067 118.985 14.4033 118.935C14.4 118.884 16.52 118.788 19.1333 118.711C21.7467 118.634 23.8667 118.614 23.8667 118.661Z" fill="#0C1248"/>
<g opacity="0.4">
<path opacity="0.4" d="M15.0567 126.411L22.5 129.886C22.5 129.886 15.2 131.336 9.5 129.813L15.0567 126.411Z" fill="white"/>
</g>
<path d="M27.8567 116.864C27.8567 116.864 25.4633 120.377 25.12 123.175C24.7767 125.973 24.7233 129.482 24.7233 129.482H25.8067C25.8067 129.482 24.9067 120.945 29.3967 116.864H27.8567Z" fill="#EBEBEB"/>
<g opacity="0.3">
<path opacity="0.3" d="M65.7467 110.273L63.1467 107.799L85.1867 107.018L69.9067 108.971L65.7467 110.273Z" fill="black"/>
</g>
<path d="M67.4367 130.03C67.4324 129.998 67.4324 129.965 67.4367 129.933C67.4367 129.856 67.4367 129.763 67.42 129.646C67.42 129.396 67.4 129.025 67.3667 128.551C67.2969 127.209 67.159 125.872 66.9533 124.544C66.6502 122.57 66.1061 120.642 65.3333 118.801C64.377 116.552 62.9936 114.511 61.26 112.791C59.53 111.076 57.495 109.7 55.26 108.734L54.88 108.564L54.4933 108.42L53.7367 108.133C53.2267 107.983 52.7367 107.799 52.2567 107.689C51.7767 107.579 51.3067 107.445 50.8467 107.372L50.18 107.245L49.5333 107.158C48.207 106.99 46.868 106.944 45.5333 107.021C45.0567 107.041 44.6933 107.095 44.4433 107.111L44.1567 107.135H44.06C44.091 107.123 44.1236 107.116 44.1567 107.115L44.4367 107.074C44.6867 107.048 45.0533 106.981 45.5267 106.951C46.8718 106.847 48.2239 106.876 49.5633 107.038L50.23 107.118L50.8967 107.238C51.3567 107.312 51.8267 107.428 52.3167 107.549C52.8067 107.669 53.2967 107.839 53.81 107.989L54.5733 108.273L54.9633 108.417L55.3467 108.587C57.6093 109.552 59.6698 110.937 61.42 112.667C63.1682 114.401 64.56 116.461 65.5167 118.731C66.282 120.584 66.8117 122.525 67.0933 124.511C67.2818 125.85 67.392 127.199 67.4233 128.551C67.4467 129.028 67.4233 129.399 67.4433 129.649V129.936C67.4458 129.968 67.4435 129.999 67.4367 130.03Z" fill="#0C1248"/>
<g opacity="0.4">
<path opacity="0.4" d="M71.14 128.838L84.3233 123.192L148.997 124.437L71.14 128.838Z" fill="white"/>
</g>
<path d="M83.5333 123.532L65.32 109.869L69.9067 108.971L88.73 123.275L83.5333 123.532Z" fill="#0C1248"/>
<path d="M89.3333 135.453C89.3153 135.412 89.3029 135.369 89.2967 135.326C89.27 135.229 89.24 135.105 89.2 134.948C89.1167 134.614 89.0033 134.114 88.8667 133.496C88.5733 132.227 88.16 130.431 87.66 128.254V128.237V128.217C88.1133 126.708 88.63 125.005 89.1867 123.168V123.208C88.97 121.673 88.74 120.016 88.5 118.3C88.1667 115.886 87.8667 113.589 87.6833 111.482L87.6533 111.088C87.6432 110.955 87.6432 110.821 87.6533 110.687C87.6849 110.431 87.7396 110.179 87.8167 109.933C87.9631 109.467 88.1436 109.013 88.3567 108.574C88.74 107.79 89.1651 107.028 89.63 106.29C90.48 104.934 91.24 103.892 91.7733 103.175C92.04 102.817 92.2533 102.544 92.4 102.363C92.4667 102.276 92.5233 102.21 92.5667 102.156C92.61 102.103 92.6267 102.086 92.63 102.089C92.6176 102.117 92.6019 102.143 92.5833 102.166L92.4267 102.383L91.8267 103.215C91.31 103.943 90.5667 104.998 89.7367 106.353C89.2806 107.091 88.8634 107.852 88.4867 108.634C88.2811 109.066 88.1062 109.512 87.9633 109.969C87.8055 110.45 87.7587 110.96 87.8267 111.462C88.0167 113.559 88.3333 115.856 88.6533 118.27C88.8933 119.986 89.12 121.642 89.32 123.178V123.208L87.77 128.254V128.217C88.2467 130.397 88.64 132.2 88.9167 133.472L89.2233 134.932C89.2567 135.089 89.28 135.215 89.3 135.316C89.3177 135.359 89.3289 135.406 89.3333 135.453Z" fill="#0C1248"/>
<path d="M89.8234 102.066L115.283 89.5949L121.883 89.822C121.883 89.822 105.433 93.7486 102.333 102.453L89.8234 102.066Z" fill="#0C1248"/>
<path d="M164.557 94.4665L162.05 97.2679L143.947 98.8572L144.367 90.463C144.367 90.463 161.757 93.0875 164.557 94.4665Z" fill="#0C1248"/>
<path d="M89.8033 131.556L90.0233 131.536L90.6733 131.496L93.1733 131.362L102.37 130.908L132.703 129.466L137.087 129.255C138.497 129.145 139.868 128.734 141.107 128.05C143.553 126.714 145.44 124.694 146.98 122.654C148.451 120.718 149.673 118.604 150.62 116.364C151.445 114.41 151.951 112.337 152.12 110.223C152.183 109.303 152.171 108.38 152.083 107.462C151.997 106.643 151.852 105.832 151.65 105.034C151.316 103.757 150.807 102.532 150.137 101.395C149.706 100.681 149.208 100.011 148.65 99.3915C148.457 99.1811 148.3 99.0309 148.197 98.924L148.047 98.7604C148.047 98.7604 148.103 98.8072 148.21 98.9107C148.317 99.0142 148.477 99.1611 148.677 99.3648C149.247 99.9808 149.755 100.652 150.193 101.368C150.875 102.507 151.397 103.736 151.743 105.018C151.951 105.82 152.101 106.635 152.193 107.458C152.288 108.384 152.304 109.315 152.243 110.243C152.082 112.371 151.579 114.459 150.753 116.427C149.81 118.687 148.586 120.818 147.11 122.771C145.577 124.808 143.667 126.835 141.2 128.217C139.94 128.914 138.545 129.333 137.11 129.446L132.717 129.656L102.383 131.045L93.1867 131.449L90.6833 131.549L90.0333 131.569L89.8033 131.556Z" fill="#0C1248"/>
<path d="M163.54 104.871C163.51 104.568 163.45 104.268 163.363 103.976C163.086 103.191 162.536 102.532 161.813 102.119C161.284 101.814 160.699 101.619 160.093 101.546C159.487 101.474 158.873 101.524 158.287 101.695C157.595 101.893 156.968 102.274 156.473 102.797C155.93 103.351 155.626 104.096 155.626 104.872C155.626 105.649 155.93 106.394 156.473 106.948C156.967 107.472 157.594 107.852 158.287 108.046C158.872 108.219 159.487 108.271 160.094 108.198C160.7 108.125 161.285 107.929 161.813 107.622C162.537 107.212 163.088 106.552 163.363 105.766C163.45 105.474 163.51 105.174 163.54 104.871C163.548 104.951 163.548 105.031 163.54 105.111C163.54 105.208 163.53 105.304 163.51 105.398C163.496 105.53 163.467 105.66 163.423 105.786C163.164 106.603 162.612 107.295 161.873 107.729C161.332 108.052 160.73 108.26 160.105 108.341C159.48 108.422 158.846 108.374 158.24 108.2C157.516 108.001 156.86 107.607 156.343 107.061C155.771 106.476 155.45 105.69 155.45 104.871C155.45 104.052 155.771 103.265 156.343 102.68C156.861 102.136 157.517 101.742 158.24 101.542C158.846 101.367 159.481 101.319 160.106 101.401C160.731 101.482 161.332 101.692 161.873 102.016C162.612 102.447 163.165 103.139 163.423 103.956C163.466 104.081 163.496 104.211 163.51 104.343C163.53 104.439 163.54 104.536 163.54 104.634C163.548 104.713 163.548 104.792 163.54 104.871Z" fill="#0C1248"/>
<path d="M187.333 98.303H187.247H186.987L185.987 98.323L182.32 98.3931C179.22 98.4532 174.937 98.5467 170.21 98.727C165.483 98.9074 161.21 99.1177 158.11 99.3481C156.567 99.4716 155.313 99.5651 154.443 99.6586L153.443 99.7521L153.183 99.7721C153.153 99.7766 153.123 99.7766 153.093 99.7721C153.122 99.7675 153.151 99.7675 153.18 99.7721L153.437 99.7354L154.437 99.6085C155.297 99.495 156.547 99.3815 158.103 99.2413C161.197 98.9775 165.477 98.7371 170.207 98.5735C174.937 98.4098 179.207 98.3297 182.32 98.2997C183.87 98.2997 185.127 98.283 185.987 98.2997H186.987H187.247C187.276 98.2966 187.305 98.2977 187.333 98.303Z" fill="#0C1248"/>
<path d="M188.89 98.116L199.857 99.6686L198.433 96.9774L188.89 98.116Z" fill="#EBEBEB"/>
<path d="M197.427 99.1678C197.412 99.2253 197.392 99.2812 197.367 99.3347L197.167 99.7989C196.99 100.203 196.717 100.781 196.367 101.468C195.451 103.302 194.438 105.085 193.333 106.811C192.227 108.537 191.031 110.203 189.75 111.802C189.257 112.417 188.85 112.904 188.557 113.232L188.223 113.609C188.186 113.655 188.144 113.697 188.097 113.732C188.097 113.732 188.127 113.679 188.197 113.585L188.507 113.188C188.783 112.854 189.173 112.347 189.657 111.726C190.62 110.487 191.9 108.721 193.19 106.717C194.48 104.714 195.523 102.801 196.263 101.408C196.627 100.714 196.93 100.146 197.107 99.7387L197.337 99.288C197.362 99.2445 197.392 99.2042 197.427 99.1678Z" fill="#0C1248"/>
<path d="M195.26 129.005C195.255 128.969 195.255 128.934 195.26 128.898V128.564C195.26 128.287 195.26 127.896 195.26 127.355C195.188 125.873 194.964 124.402 194.593 122.965C194.037 120.837 193.261 118.774 192.277 116.808C191.719 115.636 191.087 114.502 190.383 113.412C189.638 112.239 188.703 111.198 187.617 110.333C186.502 109.502 185.265 108.85 183.95 108.4C182.729 107.97 181.476 107.636 180.203 107.398C178.049 106.997 175.854 106.86 173.667 106.991C172.188 107.075 170.719 107.279 169.273 107.602L168.607 107.759L168.113 107.886L167.807 107.963C167.773 107.974 167.739 107.981 167.703 107.983C167.735 107.967 167.769 107.955 167.803 107.946L168.103 107.852L168.593 107.709L169.26 107.535C170.706 107.185 172.179 106.962 173.663 106.867C175.866 106.72 178.079 106.851 180.25 107.255C181.533 107.491 182.796 107.825 184.027 108.256C185.358 108.711 186.609 109.371 187.737 110.213C188.837 111.092 189.784 112.147 190.54 113.335C191.244 114.432 191.877 115.573 192.437 116.751C193.417 118.731 194.184 120.809 194.727 122.951C195.081 124.399 195.283 125.879 195.327 127.369C195.327 127.896 195.327 128.307 195.303 128.584C195.303 128.714 195.303 128.818 195.283 128.898C195.28 128.935 195.272 128.97 195.26 129.005Z" fill="#0C1248"/>
<path d="M203.953 113.679C203.81 113.742 203.662 113.792 203.51 113.829C203.227 113.919 202.807 114.033 202.287 114.163C199.573 114.824 196.793 115.177 194 115.215C193.463 115.215 193.03 115.215 192.73 115.215C192.575 115.216 192.42 115.204 192.267 115.178C192.42 115.152 192.575 115.141 192.73 115.148L193.997 115.105C195.063 115.065 196.537 114.968 198.153 114.771C199.77 114.574 201.22 114.287 202.263 114.063L203.497 113.786C203.645 113.737 203.798 113.701 203.953 113.679Z" fill="#0C1248"/>
<path d="M78.25 114.066C78.25 114.066 78.3233 114.066 78.4633 114.04L79.0867 113.983L81.49 113.786L90.3333 113.091C97.7933 112.52 108.103 111.756 119.503 111.048C125.203 110.697 130.637 110.403 135.58 110.173C140.523 109.943 144.987 109.839 148.727 110.08C151.681 110.229 154.618 110.623 157.507 111.258C158.527 111.509 159.313 111.706 159.84 111.873L160.44 112.053L160.643 112.12C160.643 112.12 160.57 112.12 160.433 112.07L159.83 111.909C159.3 111.752 158.497 111.575 157.497 111.325C154.604 110.711 151.667 110.33 148.713 110.186C144.98 109.973 140.52 110.073 135.58 110.32C130.64 110.567 125.207 110.858 119.507 111.208C108.11 111.906 97.8 112.661 90.3367 113.212L81.4933 113.859L79.09 114.026L78.4667 114.066H78.25Z" fill="#0C1248"/>
<path d="M174.949 142.858C184.018 142.729 191.267 135.26 191.138 126.175C191.01 117.091 183.554 109.83 174.484 109.959C165.415 110.087 158.167 117.556 158.295 126.641C158.423 135.725 165.879 142.986 174.949 142.858Z" fill="#0C1248"/>
<path d="M158.293 126.133C158.293 126.133 158.293 126.16 158.293 126.173C158.262 128.334 158.656 130.479 159.452 132.487C160.249 134.494 161.432 136.325 162.935 137.875C164.437 139.425 166.23 140.663 168.211 141.518C170.191 142.374 172.32 142.83 174.477 142.862C178.832 142.925 183.034 141.253 186.158 138.213C189.283 135.172 191.073 131.014 191.137 126.651V126.608L158.293 126.133Z" fill="#0C1248"/>
<path d="M163.183 126.247C163.151 128.531 163.796 130.773 165.036 132.69C166.276 134.606 168.055 136.112 170.149 137.016C172.243 137.92 174.558 138.182 176.8 137.768C179.043 137.354 181.112 136.284 182.748 134.692C184.383 133.1 185.51 131.059 185.987 128.825C186.464 126.592 186.269 124.267 185.427 122.144C184.585 120.021 183.134 118.197 181.256 116.9C179.379 115.604 177.16 114.894 174.88 114.861C173.365 114.838 171.861 115.115 170.454 115.675C169.046 116.236 167.762 117.068 166.676 118.126C165.59 119.183 164.722 120.445 164.123 121.838C163.523 123.232 163.204 124.73 163.183 126.247Z" fill="#FAFAFA"/>
<path d="M174.88 114.861C173.366 114.838 171.862 115.115 170.454 115.675C169.047 116.235 167.763 117.067 166.677 118.124C165.591 119.181 164.723 120.443 164.124 121.836C163.524 123.229 163.205 124.727 163.183 126.244L186.243 126.578C186.265 125.061 185.989 123.555 185.43 122.145C184.871 120.735 184.04 119.45 182.985 118.361C181.929 117.273 180.67 116.404 179.28 115.804C177.889 115.203 176.394 114.883 174.88 114.861Z" fill="#E0E0E0"/>
<path d="M167.69 126.31C167.67 127.702 168.062 129.068 168.817 130.236C169.571 131.404 170.655 132.322 171.931 132.873C173.206 133.424 174.616 133.584 175.983 133.332C177.349 133.081 178.61 132.429 179.606 131.459C180.603 130.49 181.29 129.246 181.58 127.885C181.871 126.524 181.752 125.108 181.239 123.815C180.726 122.522 179.842 121.41 178.698 120.62C177.554 119.831 176.202 119.399 174.813 119.379C173.891 119.365 172.975 119.533 172.118 119.874C171.261 120.215 170.479 120.722 169.818 121.366C169.156 122.01 168.628 122.778 168.263 123.626C167.898 124.474 167.703 125.387 167.69 126.31Z" fill="#0C1248"/>
<path d="M46.3883 142.862C55.4584 142.801 62.7625 135.387 62.7023 126.302C62.6421 117.216 55.2406 109.9 46.1704 109.96C37.1003 110.02 29.7962 117.434 29.8564 126.52C29.9165 135.606 37.3181 142.922 46.3883 142.862Z" fill="#0C1248"/>
<path d="M29.85 126.133V126.173C29.8187 128.334 30.2125 130.479 31.0088 132.487C31.8052 134.494 32.9885 136.325 34.4913 137.875C35.994 139.425 37.7868 140.663 39.7672 141.518C41.7476 142.374 43.8768 142.83 46.0333 142.862C50.3886 142.925 54.5907 141.253 57.715 138.213C60.8394 135.172 62.6301 131.014 62.6933 126.651C62.6933 126.634 62.6933 126.621 62.6933 126.608L29.85 126.133Z" fill="#0C1248"/>
<path d="M34.74 126.247C34.708 128.531 35.3526 130.773 36.5925 132.69C37.8324 134.607 39.6119 136.112 41.7059 137.016C43.7999 137.92 46.1145 138.182 48.357 137.768C50.5994 137.354 52.6691 136.284 54.3044 134.692C55.9396 133.1 57.0669 131.059 57.5439 128.825C58.0208 126.592 57.8259 124.267 56.9838 122.144C56.1417 120.021 54.6902 118.197 52.8129 116.9C50.9355 115.604 48.7166 114.894 46.4367 114.861C44.9222 114.839 43.4183 115.116 42.0107 115.676C40.6032 116.237 39.3196 117.069 38.2334 118.127C37.1472 119.184 36.2796 120.445 35.6802 121.839C35.0808 123.232 34.7613 124.73 34.74 126.247Z" fill="#FAFAFA"/>
<path d="M46.4367 114.861C44.9225 114.839 43.4188 115.116 42.0114 115.676C40.6041 116.236 39.3207 117.068 38.2346 118.125C37.1484 119.182 36.2807 120.443 35.6811 121.836C35.0815 123.229 34.7617 124.727 34.74 126.244L57.8 126.578C57.8225 125.061 57.5463 123.554 56.9873 122.144C56.4283 120.734 55.5974 119.449 54.5421 118.361C53.4868 117.272 52.2278 116.403 50.837 115.803C49.4463 115.202 47.951 114.882 46.4367 114.861Z" fill="#E0E0E0"/>
<path d="M39.2467 126.31C39.2264 127.702 39.6184 129.068 40.3731 130.236C41.1278 131.404 42.2114 132.321 43.4867 132.873C44.7621 133.424 46.172 133.584 47.5381 133.333C48.9043 133.081 50.1654 132.43 51.1619 131.46C52.1584 130.491 52.8456 129.248 53.1367 127.887C53.4277 126.527 53.3095 125.11 52.7969 123.817C52.2844 122.524 51.4005 121.412 50.2572 120.622C49.1138 119.832 47.7622 119.399 46.3733 119.379C45.451 119.365 44.535 119.533 43.6776 119.874C42.8203 120.215 42.0384 120.722 41.3766 121.366C40.7148 122.009 40.1861 122.777 39.8206 123.626C39.4552 124.474 39.2601 125.386 39.2467 126.31Z" fill="#0C1248"/>
<path d="M154.25 97.9524C154.014 97.9423 153.778 97.9524 153.543 97.9824C153.077 98.0158 152.39 98.0759 151.507 98.1594C149.74 98.3297 147.173 98.5868 144.027 98.9207L132.94 100.123L126.397 100.871L122.94 101.295C121.773 101.455 120.583 101.629 119.38 101.735C116.967 101.986 114.607 102.169 112.33 102.333L108.973 102.553L108.153 102.6H105.747C101.547 102.6 97.7667 102.517 94.5934 102.383C91.42 102.25 88.8567 102.089 87.0834 101.969L85.0434 101.822L84.5134 101.779L84.3334 101.759C84.3334 101.759 84.3967 101.759 84.5167 101.759L85.0467 101.786L87.0867 101.899C88.86 101.999 91.42 102.143 94.5967 102.256C97.7734 102.37 101.547 102.44 105.747 102.437H108.147L108.963 102.39L112.333 102.173C114.61 102.009 116.97 101.822 119.377 101.572C120.583 101.452 121.763 101.295 122.933 101.131C124.103 100.967 125.267 100.844 126.393 100.71L132.94 99.9758C137.11 99.5183 140.87 99.1243 144.03 98.8071C147.19 98.4899 149.747 98.2495 151.517 98.1026C153.287 97.9557 154.257 97.8956 154.25 97.9524Z" fill="#0C1248"/>
<path d="M101.413 104.313C101.413 104.313 104.143 99.0242 106.08 98.1127C106.08 98.1127 111.237 97.5651 112.023 97.7487C112.81 97.9324 113.057 99.1478 113.057 99.9358C113.057 100.724 113.177 102.126 112.57 102.607C111.963 103.088 112.45 103.034 111.297 103.338C110.143 103.642 107.667 103.175 107.667 103.175L107.727 105.422C107.727 105.422 104.997 106.821 103.237 106.397C102.748 106.295 102.306 106.037 101.977 105.661C101.648 105.285 101.45 104.812 101.413 104.313Z" fill="#CCD4EB"/>
<path d="M107.75 105.408C107.737 105.359 107.731 105.309 107.73 105.258C107.73 105.145 107.73 104.998 107.707 104.817C107.69 104.417 107.667 103.859 107.64 103.148V103.088H107.7C108.381 103.21 109.069 103.292 109.76 103.335C110.17 103.362 110.582 103.353 110.99 103.308C111.207 103.277 111.421 103.228 111.63 103.161C111.84 103.088 112.083 103.054 112.2 102.881C112.277 102.784 112.363 102.694 112.457 102.614C112.549 102.544 112.631 102.462 112.7 102.37C112.832 102.169 112.917 101.941 112.95 101.702C113.017 101.192 113.038 100.677 113.01 100.163C113.034 99.6262 112.955 99.09 112.777 98.5835C112.69 98.3308 112.534 98.1076 112.327 97.939C112.095 97.801 111.825 97.7424 111.557 97.7721C110.59 97.7721 109.64 97.8556 108.73 97.9257C107.82 97.9958 106.947 98.0793 106.123 98.1627H106.147C105.67 98.4307 105.244 98.7798 104.887 99.1945C104.548 99.5644 104.231 99.9535 103.937 100.36C103.37 101.121 102.937 101.826 102.56 102.413C102.183 103.001 101.923 103.472 101.737 103.796L101.523 104.166C101.501 104.21 101.474 104.252 101.443 104.29C101.457 104.242 101.476 104.196 101.5 104.153L101.693 103.772C101.863 103.438 102.127 102.961 102.477 102.363C102.827 101.766 103.27 101.054 103.83 100.28C104.125 99.8672 104.442 99.4715 104.78 99.0943C105.146 98.6615 105.586 98.2975 106.08 98.0192H106.107C106.93 97.9324 107.803 97.8455 108.713 97.7687C109.623 97.692 110.577 97.6152 111.56 97.6118C111.708 97.6109 111.856 97.6199 112.003 97.6385C112.158 97.6592 112.305 97.719 112.43 97.8122C112.664 97.9992 112.84 98.2495 112.937 98.5334C113.122 99.0592 113.203 99.6159 113.177 100.173C113.206 100.698 113.182 101.225 113.107 101.745C113.069 102.005 112.973 102.252 112.827 102.47C112.75 102.571 112.659 102.661 112.557 102.737C112.47 102.812 112.391 102.895 112.32 102.984C111.47 103.562 110.533 103.505 109.753 103.468C109.058 103.419 108.367 103.327 107.683 103.191L107.74 103.141C107.74 103.839 107.757 104.397 107.763 104.811C107.763 104.991 107.763 105.145 107.763 105.248C107.764 105.302 107.76 105.356 107.75 105.408Z" fill="#0C1248"/>
<path d="M72.6667 111.746C72.0041 111.836 71.3347 111.866 70.6667 111.836C69.9987 111.866 69.3293 111.836 68.6667 111.746C69.3296 111.66 69.9988 111.631 70.6667 111.659C71.3346 111.63 72.0037 111.659 72.6667 111.746Z" fill="#0C1248"/>
<path d="M75.5334 113.859C74.8706 113.947 74.2013 113.977 73.5334 113.946C72.8655 113.976 72.1962 113.947 71.5334 113.859C72.1964 113.773 72.8655 113.744 73.5334 113.772C74.2013 113.744 74.8704 113.773 75.5334 113.859Z" fill="#0C1248"/>
<path d="M78.3833 115.939C77.7203 116.026 77.0512 116.055 76.3833 116.026C75.7154 116.055 75.0463 116.026 74.3833 115.939C75.0463 115.853 75.7154 115.824 76.3833 115.853C77.0512 115.824 77.7203 115.853 78.3833 115.939Z" fill="#0C1248"/>
<path d="M81.2333 118.036C80.5704 118.123 79.9013 118.152 79.2333 118.123C78.5654 118.152 77.8963 118.123 77.2333 118.036C77.8961 117.948 78.5654 117.919 79.2333 117.95C79.9013 117.919 80.5705 117.948 81.2333 118.036Z" fill="#0C1248"/>
<path d="M84.0833 120.133C83.4204 120.22 82.7512 120.249 82.0833 120.22C81.4154 120.248 80.7463 120.219 80.0833 120.133C80.7459 120.043 81.4153 120.013 82.0833 120.043C82.7513 120.013 83.4207 120.043 84.0833 120.133Z" fill="#0C1248"/>
<path d="M86.9366 122.227C86.2739 122.315 85.6046 122.344 84.9366 122.314C84.2687 122.344 83.5994 122.315 82.9366 122.227C83.5996 122.141 84.2687 122.111 84.9366 122.14C85.6046 122.112 86.2737 122.141 86.9366 122.227Z" fill="#0C1248"/>
<path d="M111.333 98.4799C110.517 98.5658 109.697 98.5948 108.877 98.5667C108.056 98.5949 107.234 98.5659 106.417 98.4799C107.234 98.392 108.056 98.363 108.877 98.3931C109.697 98.363 110.518 98.392 111.333 98.4799Z" fill="white"/>
<path d="M53.0467 106.994C52.8773 106.978 52.7099 106.946 52.5467 106.898C52.23 106.824 51.7667 106.727 51.19 106.624C50.6134 106.52 49.9234 106.43 49.1567 106.36C47.4902 106.218 45.8132 106.263 44.1567 106.494C43.3934 106.6 42.71 106.731 42.14 106.864C41.57 106.998 41.1134 107.118 40.8067 107.198C40.646 107.253 40.4809 107.294 40.3134 107.322C40.4644 107.243 40.623 107.181 40.7867 107.135C41.0934 107.021 41.55 106.881 42.12 106.731C42.7871 106.559 43.4624 106.422 44.1434 106.32C45.8136 106.066 47.5088 106.021 49.19 106.186C49.9634 106.266 50.6567 106.37 51.2334 106.49C51.81 106.61 52.27 106.724 52.5834 106.824C52.7421 106.868 52.897 106.925 53.0467 106.994Z" fill="white"/>
<path d="M149 124.437C149 124.484 131.607 125.486 110.15 126.674C88.6934 127.863 71.29 128.788 71.2867 128.738C71.2833 128.688 88.6767 127.689 110.14 126.501C131.603 125.312 149 124.387 149 124.437Z" fill="white"/>
<path d="M182.447 106.847C182.257 106.815 182.071 106.766 181.89 106.7C181.713 106.647 181.497 106.584 181.243 106.52C180.99 106.457 180.703 106.373 180.38 106.306C179.74 106.153 178.967 106.013 178.103 105.896C177.167 105.779 176.224 105.716 175.28 105.705C174.337 105.705 173.394 105.756 172.457 105.859C171.59 105.966 170.817 106.096 170.173 106.24C169.84 106.303 169.563 106.383 169.31 106.443C169.057 106.504 168.837 106.564 168.66 106.617C168.477 106.677 168.29 106.724 168.1 106.757C168.274 106.674 168.455 106.606 168.64 106.554C168.813 106.49 169.03 106.42 169.283 106.35C169.537 106.28 169.823 106.19 170.147 106.12C170.902 105.938 171.666 105.798 172.437 105.702C173.381 105.587 174.332 105.529 175.283 105.529C176.234 105.542 177.184 105.612 178.127 105.739C178.895 105.846 179.658 105.995 180.41 106.186C180.743 106.26 181.017 106.353 181.27 106.427C181.523 106.5 181.737 106.574 181.91 106.637C182.093 106.695 182.273 106.765 182.447 106.847Z" fill="white"/>
<path d="M158.27 101.195C158.27 101.221 158.023 101.258 157.643 101.382C156.648 101.709 155.801 102.38 155.253 103.275C155.152 103.469 155.041 103.659 154.92 103.842C154.95 103.62 155.026 103.406 155.143 103.215C155.396 102.736 155.746 102.315 156.17 101.979C156.594 101.644 157.083 101.4 157.607 101.265C157.82 101.194 158.046 101.17 158.27 101.195Z" fill="white"/>
<path d="M171.887 98.0091C171.553 98.1017 171.212 98.1632 170.867 98.1928C170.23 98.2763 169.347 98.3631 168.37 98.4065C167.393 98.4499 166.507 98.4399 165.867 98.4065C165.52 98.41 165.174 98.3787 164.833 98.313C165.178 98.2785 165.524 98.2684 165.87 98.2829C166.507 98.2829 167.39 98.2829 168.363 98.2262C169.337 98.1694 170.217 98.116 170.853 98.0626C171.196 98.0174 171.541 97.9995 171.887 98.0091Z" fill="white"/>
<path d="M135.3 100.937C135.3 100.984 132.027 101.498 127.967 102.086C123.907 102.674 120.633 103.111 120.61 103.064C120.587 103.018 123.887 102.5 127.943 101.916C132 101.331 135.293 100.891 135.3 100.937Z" fill="white"/>
<path d="M131.957 93.6451C131.977 93.6885 130.413 94.4097 128.467 95.2545C126.52 96.0993 124.927 96.747 124.907 96.7036C124.887 96.6602 126.45 95.939 128.397 95.0942C130.343 94.2495 131.937 93.6017 131.957 93.6451Z" fill="white"/>
<path d="M130.097 92.7269C129.956 92.8297 129.807 92.9192 129.65 92.994C129.357 93.1543 128.93 93.3813 128.397 93.6618C127.333 94.2027 125.843 94.9206 124.173 95.6652C122.503 96.4098 120.97 97.0008 119.84 97.4248C119.28 97.6352 118.823 97.7954 118.507 97.9023C118.345 97.9655 118.179 98.0157 118.01 98.0525C118.16 97.9655 118.319 97.8939 118.483 97.8388L119.793 97.3113C120.903 96.8639 122.427 96.2395 124.093 95.5049C125.76 94.7703 127.257 94.0758 128.333 93.5616L129.61 92.9539C129.766 92.8648 129.928 92.7889 130.097 92.7269Z" fill="white"/>
<path d="M188.967 121.983C188.701 121.274 188.398 120.58 188.06 119.903C187.67 119.254 187.247 118.626 186.793 118.02C186.982 118.145 187.148 118.302 187.283 118.484C187.638 118.896 187.948 119.343 188.21 119.819C188.473 120.296 188.683 120.8 188.837 121.322C188.918 121.533 188.962 121.757 188.967 121.983Z" fill="#0C1248"/>
<path d="M188.783 125.616C188.732 125.33 188.696 125.041 188.677 124.751C188.591 124.06 188.438 123.379 188.22 122.718C187.995 122.059 187.707 121.424 187.36 120.821C187.199 120.579 187.052 120.328 186.92 120.07C187.134 120.271 187.317 120.503 187.463 120.758C187.85 121.351 188.16 121.992 188.383 122.664C188.609 123.335 188.749 124.032 188.8 124.738C188.837 125.03 188.831 125.325 188.783 125.616Z" fill="#0C1248"/>
<path d="M163.62 133.092C163.415 132.906 163.239 132.691 163.097 132.454C162.342 131.35 161.83 130.098 161.593 128.781C161.53 128.511 161.504 128.234 161.517 127.956C161.722 128.864 161.987 129.756 162.31 130.628C162.69 131.478 163.128 132.301 163.62 133.092Z" fill="#0C1248"/>
<path d="M164.13 135.826C164.13 135.826 164.043 135.77 163.907 135.643C163.77 135.516 163.573 135.329 163.36 135.085C162.782 134.444 162.269 133.747 161.827 133.005C161.384 132.264 161.015 131.481 160.723 130.668C160.617 130.357 160.537 130.1 160.493 129.92C160.459 129.829 160.441 129.733 160.44 129.636C160.467 129.636 160.593 130.017 160.84 130.638C161.159 131.43 161.538 132.197 161.973 132.932C162.414 133.664 162.909 134.363 163.453 135.022C163.693 135.278 163.918 135.547 164.13 135.826Z" fill="#0C1248"/>
<path d="M36.3566 134.998C36.1592 134.854 35.9811 134.684 35.8266 134.494C35.4321 134.062 35.0647 133.606 34.7266 133.129C34.3849 132.652 34.0743 132.153 33.7966 131.636C33.6655 131.429 33.5645 131.204 33.4966 130.968C33.5433 130.942 34.0766 131.913 34.8666 133.022C35.6566 134.13 36.3933 134.962 36.3566 134.998Z" fill="#0C1248"/>
<path d="M36.8267 136.898C36.2591 136.519 35.7407 136.07 35.2833 135.563C34.7856 135.09 34.3489 134.558 33.9833 133.977C34.0233 133.947 34.6233 134.644 35.4067 135.439C36.19 136.234 36.86 136.858 36.8267 136.898Z" fill="#0C1248"/>
<path d="M59.6667 124.4C59.6167 124.4 59.4967 123.539 59.12 122.534C58.7433 121.529 58.27 120.794 58.3167 120.764C59.1343 121.804 59.6012 123.078 59.65 124.4H59.6667Z" fill="#0C1248"/>
<path d="M60.5033 124.718C60.346 123.888 60.1231 123.071 59.8366 122.277C59.4917 121.504 59.0871 120.76 58.6266 120.05C58.8189 120.213 58.9853 120.404 59.12 120.617C59.474 121.111 59.7693 121.645 60 122.207C60.2284 122.771 60.3884 123.361 60.4767 123.963C60.5263 124.211 60.5353 124.466 60.5033 124.718Z" fill="#0C1248"/>
<path d="M33.4634 139.062C33.2686 138.947 33.0931 138.801 32.9434 138.631C32.5535 138.254 32.1935 137.846 31.8667 137.412C31.5384 136.979 31.2431 136.521 30.9834 136.043C30.8617 135.853 30.7696 135.644 30.71 135.426C30.7567 135.402 31.2434 136.304 32.0034 137.306C32.7634 138.307 33.5 139.025 33.4634 139.062Z" fill="#0C1248"/>
<path d="M34.3333 141.085C34.2367 141.056 34.1447 141.014 34.06 140.959C33.89 140.872 33.6533 140.728 33.3667 140.541C31.8701 139.546 30.6076 138.237 29.6667 136.705C29.49 136.411 29.3533 136.167 29.2733 135.993C29.2202 135.908 29.1808 135.814 29.1567 135.716C29.1833 135.716 29.39 136.074 29.77 136.638C30.759 138.112 32.0003 139.4 33.4367 140.441C34 140.838 34.3567 141.059 34.3333 141.085Z" fill="#0C1248"/>
<path d="M233.567 114.721C233.567 114.767 228.877 114.808 223.093 114.808C217.31 114.808 212.62 114.767 212.62 114.721C212.62 114.674 217.31 114.634 223.093 114.634C228.877 114.634 233.567 114.671 233.567 114.721Z" fill="#0C1248"/>
<path d="M233.723 112.924C233.723 112.974 230.39 113.011 226.287 113.011C222.183 113.011 218.85 112.974 218.85 112.924C218.85 112.874 222.183 112.838 226.287 112.838C230.39 112.838 233.723 112.878 233.723 112.924Z" fill="#0C1248"/>
<path d="M186.773 86.5431C199.029 86.5431 208.963 76.5914 208.963 64.3155C208.963 52.0395 199.029 42.0879 186.773 42.0879C174.518 42.0879 164.583 52.0395 164.583 64.3155C164.583 76.5914 174.518 86.5431 186.773 86.5431Z" fill="#FAFAFA"/>
<path d="M186.773 86.877C182.319 86.877 177.964 85.5538 174.26 83.0747C170.556 80.5956 167.669 77.072 165.964 72.9494C164.26 68.8268 163.814 64.2905 164.683 59.9139C165.552 55.5374 167.697 51.5174 170.847 48.3621C173.997 45.2068 178.01 43.058 182.379 42.1875C186.748 41.3169 191.277 41.7637 195.393 43.4714C199.508 45.179 203.026 48.0708 205.501 51.781C207.976 55.4912 209.297 59.8532 209.297 64.3155C209.29 70.2973 206.916 76.0323 202.693 80.2621C198.47 84.4918 192.745 86.8708 186.773 86.877ZM186.773 42.4251C182.45 42.4251 178.224 43.7092 174.63 46.1151C171.036 48.521 168.234 51.9405 166.58 55.9412C164.926 59.942 164.493 64.3442 165.337 68.5913C166.181 72.8384 168.262 76.7394 171.32 79.8012C174.377 82.863 178.271 84.9479 182.511 85.7923C186.751 86.6367 191.146 86.2026 195.14 84.545C199.134 82.8874 202.547 80.0807 204.948 76.4799C207.349 72.8791 208.631 68.6458 208.63 64.3155C208.624 58.5111 206.319 52.9463 202.221 48.8423C198.124 44.7383 192.568 42.4304 186.773 42.4251Z" fill="#263238"/>
<path d="M187 48.8827C186.912 48.1774 186.883 47.4659 186.913 46.7558C186.883 46.0445 186.912 45.3319 187 44.6255C187.086 45.3321 187.115 46.0445 187.087 46.7558C187.115 47.4659 187.086 48.1772 187 48.8827Z" fill="#263238"/>
<path d="M175.537 53.0898C175.027 52.6881 174.556 52.2411 174.127 51.7542C173.656 51.3088 173.226 50.8215 172.843 50.2984C173.35 50.7017 173.821 51.1486 174.25 51.634C174.721 52.08 175.152 52.5672 175.537 53.0898Z" fill="#263238"/>
<path d="M172.597 64.7763C170.821 64.892 169.039 64.892 167.263 64.7763C169.039 64.6605 170.821 64.6605 172.597 64.7763Z" fill="#263238"/>
<path d="M175.483 75.6881C175.146 76.1649 174.768 76.6117 174.353 77.0237C173.984 77.4756 173.562 77.8814 173.097 78.2324C173.436 77.7566 173.814 77.3098 174.227 76.8968C174.598 76.4466 175.019 76.041 175.483 75.6881Z" fill="#263238"/>
<path d="M200.667 77.9953C203.912 74.7334 205.916 70.4376 206.333 65.8514C207.027 57.5674 203.42 53.2167 200.75 50.3251L198.417 52.5456C200.79 55.0832 204.437 60.1217 203.443 66.0952C202.643 70.9066 200.157 74.5261 198.65 76.0887L200.667 77.9953Z" fill="#0C1248"/>
<path d="M186.227 67.1636C185.723 67.0642 185.26 66.8173 184.896 66.4542C184.532 66.0912 184.284 65.6282 184.183 65.1239C184.082 64.6195 184.132 64.0965 184.328 63.6209C184.524 63.1453 184.856 62.7384 185.282 62.4518C185.708 62.1652 186.21 62.0117 186.724 62.0106C187.237 62.0096 187.739 62.1611 188.167 62.446C188.595 62.7308 188.928 63.1363 189.126 63.6111C189.323 64.086 189.376 64.6088 189.277 65.1135C189.143 65.7902 188.747 66.386 188.175 66.7704C187.603 67.1547 186.902 67.2962 186.227 67.1636Z" fill="#263238"/>
<path d="M195.977 70.753L180.917 59.1968L179.483 61.3838L195.977 70.753Z" fill="#263238"/>
<path d="M206.393 64.1318C206.393 64.1318 206.393 64.0217 206.393 63.798C206.393 63.5742 206.393 63.2737 206.35 62.8664C206.267 61.6698 206.078 60.483 205.783 59.3204C204.685 55.0175 202.165 51.2137 198.633 48.5288C197.476 47.6448 196.223 46.8954 194.897 46.295C193.463 45.6363 191.952 45.1596 190.4 44.8759C187.863 44.4074 185.259 44.438 182.733 44.9661C181.847 45.1582 180.974 45.4081 180.12 45.714C176.349 47.0883 173.092 49.5914 170.791 52.8836C168.489 56.1758 167.255 60.0976 167.255 64.1168C167.255 68.136 168.489 72.0579 170.791 75.3501C173.092 78.6423 176.349 81.1454 180.12 82.5196C180.974 82.827 181.847 83.0769 182.733 83.2676C185.259 83.7956 187.863 83.8263 190.4 83.3577C191.952 83.0745 193.463 82.5978 194.897 81.9386C196.224 81.3383 197.478 80.5889 198.637 79.7049C200.865 78.0057 202.705 75.8488 204.032 73.3787C205.36 70.9087 206.144 68.1828 206.333 65.384C206.37 64.9733 206.363 64.6594 206.377 64.4491C206.39 64.2387 206.377 64.1152 206.377 64.1152C206.377 64.1152 206.377 64.5459 206.35 65.3673C206.284 66.5678 206.105 67.7595 205.817 68.9266C205.359 70.7791 204.635 72.5551 203.667 74.1989C202.372 76.3723 200.675 78.2784 198.667 79.815C197.504 80.7086 196.244 81.4669 194.91 82.0755C193.467 82.7418 191.946 83.2253 190.383 83.5146C187.829 83.9904 185.207 83.9632 182.663 83.4345C181.77 83.2424 180.891 82.9926 180.03 82.6866C176.225 81.3045 172.937 78.7821 170.613 75.4623C168.289 72.1425 167.043 68.1863 167.043 64.1318C167.043 60.0774 168.289 56.1212 170.613 52.8014C172.937 49.4816 176.225 46.9592 180.03 45.5771C180.89 45.2681 181.77 45.0171 182.663 44.8258C185.207 44.2971 187.829 44.2699 190.383 44.7457C193.395 45.3129 196.233 46.58 198.667 48.4453C200.675 49.9805 202.372 51.8855 203.667 54.0581C204.637 55.697 205.363 57.4685 205.823 59.317C206.112 60.4842 206.29 61.6758 206.357 62.8764C206.407 63.6978 206.393 64.1318 206.393 64.1318Z" fill="#263238"/>
<path d="M206.403 64.005C205.008 64.1207 203.605 64.1207 202.21 64.005C203.605 63.8892 205.008 63.8892 206.403 64.005Z" fill="#263238"/>
<path d="M200.667 77.9953C200.073 77.5498 199.515 77.0574 199 76.5228C198.447 76.0335 197.936 75.4997 197.47 74.9268C198.608 75.8664 199.672 76.8923 200.653 77.9953H200.667Z" fill="#263238"/>
<path d="M200.737 50.3251C200.793 50.3752 200.147 51.0364 199.313 51.7976C198.828 52.2791 198.302 52.7171 197.74 53.1065C198.186 52.5884 198.673 52.1072 199.197 51.6674C199.613 51.2868 199.997 50.9495 200.273 50.7058C200.42 50.5695 200.575 50.4424 200.737 50.3251Z" fill="#263238"/>
<path d="M197.23 71.5076C196.918 71.8776 196.495 72.1365 196.023 72.2456C195.568 72.409 195.071 72.4184 194.61 72.2723C195.069 72.2432 195.525 72.1784 195.973 72.0786C196.406 71.9204 196.826 71.7295 197.23 71.5076Z" fill="#263238"/>
<path d="M197.91 72.122C197.78 72.2934 197.615 72.4356 197.427 72.5394C196.99 72.8182 196.503 73.0077 195.994 73.0971C195.484 73.1865 194.962 73.174 194.457 73.0603C194.244 73.0278 194.041 72.9517 193.86 72.8366C194.546 73.0195 195.264 73.0503 195.964 72.9268C196.663 72.8034 197.327 72.5288 197.91 72.122Z" fill="#263238"/>
<path d="M181.907 57.6108C181.456 57.5223 180.996 57.4821 180.537 57.4906C180.082 57.5533 179.634 57.6652 179.203 57.8245C179.583 57.5267 180.041 57.3468 180.522 57.307C181.002 57.2672 181.484 57.3694 181.907 57.6008V57.6108Z" fill="#263238"/>
<path d="M182.207 57.0265C180.909 56.73 179.551 56.86 178.333 57.3971C178.899 57.0232 179.548 56.794 180.222 56.7294C180.897 56.6647 181.577 56.7668 182.203 57.0265H182.207Z" fill="#263238"/>
</svg>
