<svg width="20" height="20" viewBox="0 0 20 20" fill="none" xmlns="http://www.w3.org/2000/svg">
<rect x="2.65" y="6.65" width="14.7" height="10.7" rx="1.35" stroke="#D03737" stroke-width="1.3"/>
<rect x="8.65" y="2.65" width="6.7" height="3.7" stroke="#D03737" stroke-width="1.3"/>
<path d="M3 12L4.21409 11.0894C4.6409 10.7693 5.24899 10.8735 5.54493 11.3174V11.3174C5.80491 11.7074 6.31458 11.8427 6.73378 11.6331L7.48094 11.2595C7.80192 11.099 8.18427 11.1228 8.48286 11.3219L9.06232 11.7082C9.33631 11.8909 9.68266 11.9269 9.98841 11.8046L11.4147 11.2341C11.7698 11.0921 12.1753 11.1753 12.4458 11.4458V11.4458C12.768 11.768 13.273 11.818 13.6522 11.5652L13.9453 11.3698C14.2812 11.1459 14.7188 11.1459 15.0547 11.3698L15.5931 11.7287C15.8498 11.8999 16.1712 11.9429 16.464 11.8453L17.5 11.5" stroke="#D03737" stroke-width="1.3"/>
<line x1="7" y1="2.35" x2="17" y2="2.35" stroke="#D03737" stroke-width="1.3"/>
</svg>
