<svg width="121" height="91" viewBox="0 0 121 91" fill="none" xmlns="http://www.w3.org/2000/svg">
<path d="M81.118 10.7354C81.1137 10.7354 81.1064 10.6768 81.0967 10.5635C81.087 10.4367 81.0745 10.2702 81.0585 10.0592C81.0512 9.94689 81.043 9.82346 81.0338 9.68745C81.0188 9.55193 80.9888 9.4043 80.9636 9.24409C80.9118 8.92415 80.862 8.5534 80.7381 8.14972C80.5479 7.33028 80.1611 6.36321 79.5537 5.33854C78.9419 4.31823 78.0605 3.25291 76.862 2.34925C75.6675 1.45478 74.1612 0.693899 72.4231 0.388C70.6976 0.0922642 68.7494 0.146957 66.8947 0.852657C66.4227 1.00367 65.9789 1.23697 65.5229 1.45623C65.0907 1.71809 64.6357 1.95864 64.2335 2.28535C63.8061 2.57963 63.4325 2.94701 63.0409 3.30034C62.6876 3.6924 62.3158 4.07525 62.0109 4.52007C61.3851 5.38937 60.8386 6.35498 60.5085 7.41692C60.1658 8.47256 59.9814 9.59307 59.9659 10.7339C59.9809 11.8752 60.1653 12.9962 60.5075 14.0523C60.8376 15.1143 61.3846 16.0804 62.0099 16.9502C62.3149 17.3945 62.6866 17.7778 63.0404 18.1699C63.432 18.5237 63.8056 18.8911 64.233 19.1849C64.6353 19.5121 65.0907 19.7531 65.5229 20.0145C65.9789 20.2337 66.4222 20.4675 66.8947 20.6185C68.7494 21.3242 70.6976 21.3789 72.4241 21.0832C74.1622 20.7768 75.6685 20.0159 76.8625 19.121C78.061 18.2173 78.9424 17.152 79.5542 16.1317C80.1611 15.1075 80.5479 14.1399 80.7381 13.3205C80.862 12.9173 80.9118 12.5465 80.9641 12.2266C80.9888 12.0659 81.0188 11.9188 81.0338 11.7833C81.043 11.6477 81.0512 11.5238 81.059 11.412C81.0745 11.2005 81.087 11.034 81.0967 10.9077C81.1064 10.7939 81.1137 10.7354 81.118 10.7354C81.1229 10.7354 81.1238 10.7939 81.1224 10.9081C81.119 11.0354 81.1146 11.2024 81.1093 11.4149C81.1054 11.5282 81.1016 11.6526 81.0967 11.7891C81.0851 11.926 81.059 12.0746 81.0382 12.2368C80.9931 12.5601 80.951 12.9357 80.8329 13.3447C80.6558 14.1753 80.2787 15.1588 79.6752 16.2038C79.0668 17.2449 78.182 18.3349 76.971 19.2628C75.7633 20.1819 74.2333 20.9665 72.4623 21.2884C70.7034 21.5996 68.7146 21.5517 66.8153 20.8373C66.3322 20.6834 65.8777 20.4467 65.4111 20.2231C64.9683 19.9578 64.5021 19.7115 64.0898 19.3785C63.6522 19.0789 63.2684 18.7038 62.8676 18.3422C62.5046 17.9429 62.1242 17.5508 61.8115 17.0963C61.1692 16.2077 60.6092 15.2188 60.2699 14.1312C59.918 13.0504 59.7288 11.9018 59.7142 10.7339C59.7292 9.56596 59.9185 8.41787 60.2704 7.33754C60.6102 6.25092 61.1697 5.26207 61.812 4.37341C62.1246 3.9194 62.5051 3.52735 62.8681 3.12803C63.2689 2.76647 63.6527 2.39184 64.0902 2.09223C64.5026 1.75922 64.9683 1.51334 65.4111 1.24762C65.8777 1.02448 66.3327 0.787798 66.8153 0.633879C68.7141 -0.0805321 70.7029 -0.128933 72.4618 0.182291C74.2329 0.504164 75.7628 1.28876 76.97 2.20742C78.1815 3.13577 79.0663 4.2253 79.6747 5.26643C80.2787 6.31191 80.6558 7.29543 80.8329 8.12601C80.9506 8.535 80.9931 8.9106 81.0382 9.23393C81.059 9.39607 81.0851 9.54467 81.0962 9.68164C81.1016 9.81814 81.1054 9.94301 81.1093 10.0558C81.1146 10.2683 81.119 10.4357 81.1224 10.563C81.1238 10.6768 81.1229 10.7354 81.118 10.7354Z" fill="#0C1248"/>
<path d="M68.1377 10.7353C68.1469 10.7358 68.1527 10.8331 68.1546 11.017C68.1532 11.2314 68.1517 11.4976 68.1498 11.8219C68.1328 12.5581 68.1096 13.5576 68.082 14.7735L67.9446 14.6873C69.8371 13.6767 72.3307 12.3447 75.0664 10.8834C75.0698 10.8355 75.0504 11.2958 75.0577 11.1002L75.0558 11.0988L75.0519 11.0969L75.0441 11.092L75.0286 11.0819L74.9977 11.0625L74.9357 11.0238L74.8128 10.9468L74.5674 10.7929C74.4048 10.6903 74.2426 10.5882 74.0814 10.487C73.76 10.2847 73.443 10.0848 73.1308 9.88778C72.5079 9.49427 71.9048 9.11286 71.3269 8.74791C70.1827 8.0185 69.1386 7.35394 68.2374 6.78038L68.3811 6.7039C68.3187 7.91927 68.2679 8.91781 68.2301 9.65303C68.2079 9.97684 68.1899 10.2421 68.1754 10.456C68.1599 10.6395 68.1469 10.7358 68.1377 10.7353C68.1285 10.7348 68.1232 10.638 68.1212 10.4536C68.1227 10.2397 68.1241 9.97345 68.1261 9.64916C68.143 8.91296 68.1662 7.91347 68.1938 6.69761L68.1972 6.53498L68.3376 6.62114C69.2456 7.18357 70.2978 7.83457 71.4522 8.54898C72.0316 8.91054 72.6371 9.28808 73.2625 9.6782C73.5751 9.87375 73.8931 10.0727 74.215 10.274C74.3762 10.3752 74.5383 10.4768 74.7015 10.579L74.9469 10.7334L75.0698 10.8108L75.1317 10.8495L75.1627 10.8689L75.1782 10.8781L75.1855 10.8834L75.1898 10.8858L75.1918 10.8868C75.199 10.6927 75.184 11.1535 75.1845 11.1061C72.4367 12.5455 69.9324 13.8577 68.0322 14.8528L67.886 14.9293L67.8947 14.7667C67.9566 13.5518 68.008 12.5533 68.0452 11.8176C68.0675 11.4942 68.0859 11.229 68.1004 11.0151C68.1159 10.8316 68.1285 10.7348 68.1377 10.7353Z" fill="#0C1248"/>
<path d="M52.8321 17.0965L77.9483 55.5192L29.8877 86.9344L4.77206 48.5116L52.8321 17.0965Z" fill="#F3F2F1"/>
<path d="M52.832 17.0966C52.832 17.0966 52.7547 17.1524 52.6044 17.2533C52.4501 17.3563 52.2276 17.5041 51.9354 17.6981C51.3414 18.0903 50.4694 18.6657 49.3345 19.4142C47.0577 20.9108 43.732 23.0972 39.5153 25.8686C31.0816 31.3976 19.0896 39.26 4.8337 48.6064L4.86637 48.4498C12.3448 59.8833 20.9181 72.9912 29.9903 86.8613L29.9934 86.8655L29.8188 86.8291C47.6158 75.205 64.1557 64.4027 77.8907 55.4319L77.8602 55.5764C70.3127 43.989 64.0571 34.3841 59.6842 27.6711C57.5007 24.3096 55.788 21.6727 54.6177 19.8712C54.0366 18.9721 53.5907 18.2823 53.2864 17.8126C52.9859 17.3455 52.832 17.0966 52.832 17.0966C52.832 17.0966 52.9902 17.3243 53.2935 17.7812C53.5996 18.2444 54.0487 18.9238 54.634 19.8102C55.8116 21.6003 57.5355 24.2206 59.7328 27.5609C64.136 34.2728 70.4354 43.8765 78.0356 55.4622L78.0932 55.55L78.0053 55.6071C64.277 64.5882 47.7454 75.4028 29.957 87.0401L29.8512 87.1091L29.7818 87.0034L29.7793 86.9996C20.7151 73.1237 12.1492 60.0114 4.67754 48.5735L4.61574 48.4789L4.71046 48.4174C19.0169 39.0935 31.0517 31.2502 39.5149 25.7344C43.7364 22.9903 47.066 20.8258 49.3458 19.3441C50.4787 18.6106 51.3493 18.0466 51.9424 17.6627C52.2327 17.4762 52.4542 17.3341 52.6081 17.2353C52.7575 17.1401 52.832 17.0966 52.832 17.0966Z" fill="#0C1248"/>
<path d="M29.9636 83.433L74.6472 54.2244L52.6934 20.6393L8.00981 49.8479L29.9636 83.433Z" fill="#CCD4EB"/>
<path d="M29.9635 83.433L31.9241 52.355L50.1293 59.0968L52.1224 47.8283L69.8326 52.8572L60.7373 55.2231C60.7331 55.2242 60.7289 55.2254 60.7247 55.2265C59.7382 55.4908 59.1607 56.5054 59.4242 57.4811C59.4325 57.5125 59.442 57.544 59.4519 57.5754L61.2256 62.998L29.9635 83.433Z" fill="#0C1248" fill-opacity="0.63"/>
<path d="M41.5934 47.1564C39.8864 47.6137 38.0071 46.9548 36.9874 45.395C35.7176 43.4518 36.2629 40.8473 38.206 39.577C38.5898 39.3263 38.9992 39.1465 39.4185 39.0341C41.1255 38.5768 43.0048 39.2357 44.0239 40.7951C45.2943 42.7387 44.7485 45.3433 42.8054 46.6136C42.4221 46.8642 42.0127 47.044 41.5934 47.1564Z" fill="#0C1248" fill-opacity="0.63"/>
<path d="M63.1849 47.8841L64.6665 75.1329C64.7192 76.1033 65.5179 76.8657 66.4898 76.8724L115.522 77.2321C116.539 77.2393 117.368 76.4218 117.376 75.4054L117.531 54.1957C117.539 53.1749 116.713 52.3433 115.693 52.3424L85.5369 52.3153C85.05 52.3153 84.5829 52.1217 84.2383 51.777L79.0351 46.5763C78.6933 46.235 78.2311 46.0409 77.7481 46.0375L65.0353 45.9446C63.9753 45.9369 63.1273 46.825 63.1849 47.8841Z" fill="#0C1248"/>
<path d="M115.536 77.2321C115.532 77.2321 115.527 77.2321 115.522 77.2321L66.4898 76.8724C65.5179 76.8657 64.7193 76.1033 64.6665 75.1329L63.6636 56.6845L63.651 56.4531L63.4947 53.581L63.1849 47.8841C63.1835 47.8511 63.1825 47.8182 63.1825 47.7858C63.1806 46.7752 64.001 45.9446 65.0223 45.9446C65.0266 45.9446 65.031 45.9446 65.0353 45.9446L77.7481 46.0375C78.2311 46.0409 78.6934 46.235 79.0351 46.5762L84.2383 51.777C84.5829 52.1216 85.05 52.3153 85.5369 52.3153L115.693 52.3424C116.71 52.3433 117.532 53.1681 117.531 54.1836C117.531 54.1874 117.531 54.1918 117.531 54.1957L117.526 54.9352L117.445 65.8658L117.376 75.4054C117.368 76.417 116.546 77.2321 115.536 77.2321Z" fill="#CCD4EB"/>
<path d="M113.482 67.1756L80.4553 82.2441L59.8356 37.0498L92.8621 21.9813L113.482 67.1756Z" fill="white"/>
<path d="M113.482 67.1756C113.482 67.1756 113.441 67.1006 113.372 66.9573C113.299 66.8039 113.2 66.5938 113.072 66.3218C112.807 65.7516 112.423 64.9278 111.927 63.8601C110.93 61.7014 109.482 58.5625 107.651 54.5945C104.004 46.6489 98.8329 35.3819 92.713 22.0491L92.9303 22.1304C82.9862 26.6729 71.7579 31.8026 59.9144 37.2129L59.9106 37.2144L60.0006 36.9743C67.6912 53.8608 74.8111 69.4941 80.5898 82.1826L80.3942 82.1095C90.3965 77.5811 98.6466 73.8464 104.408 71.238C107.289 69.9413 109.548 68.9254 111.097 68.2274C111.864 67.8862 112.453 67.6233 112.864 67.4399C113.265 67.2632 113.482 67.1756 113.482 67.1756C113.482 67.1756 113.293 67.2734 112.905 67.4564C112.504 67.6442 111.928 67.9133 111.179 68.2622C109.643 68.9728 107.405 70.0081 104.551 71.328C98.7845 73.9795 90.5276 77.7756 80.5167 82.3782L80.3826 82.4396L80.3211 82.3051C74.525 69.6248 67.3838 54.0011 59.6705 37.1248L59.5955 36.9603L59.7605 36.8848L59.7639 36.8828C71.6127 31.4841 82.8458 26.3651 92.7943 21.8318L92.9439 21.764L93.0116 21.9131C99.0885 35.3136 104.224 46.6373 107.846 54.6236C109.636 58.5925 111.052 61.7319 112.026 63.8911C112.502 64.9535 112.868 65.7729 113.122 66.3402C113.24 66.6083 113.331 66.815 113.397 66.967C113.458 67.1069 113.487 67.1771 113.482 67.1756Z" fill="#0C1248"/>
<path d="M84.1777 36.9177C84.2194 37.0092 80.6599 38.7221 76.2287 40.7439C71.7956 42.7666 68.1698 44.3314 68.1282 44.2409C68.0865 44.1494 71.6455 42.437 76.0782 40.4142C80.5094 38.3925 84.1361 36.8272 84.1777 36.9177Z" fill="#0C1248"/>
<path d="M94.65 36.8848C94.6911 36.9758 89.1888 39.5754 82.3608 42.6906C75.5303 45.8072 69.9617 48.2582 69.92 48.1677C69.8784 48.0763 75.3802 45.4771 82.2102 42.361C89.0383 39.2458 94.6084 36.7933 94.65 36.8848Z" fill="#0C1248"/>
<path d="M96.5191 40.9815C96.5603 41.0725 91.058 43.6726 84.2299 46.7873C77.3994 49.9039 71.8303 52.3554 71.7892 52.2645C71.7475 52.1735 77.2489 49.5743 84.0794 46.4582C90.9074 43.3425 96.4775 40.8905 96.5191 40.9815Z" fill="#0C1248"/>
<path d="M98.3884 45.0782C98.43 45.1692 92.9267 47.7694 86.0992 50.8845C79.2687 54.0011 73.6996 56.4527 73.6579 56.3617C73.6168 56.2707 79.1182 53.6715 85.9486 50.5549C92.7767 47.4398 98.3468 44.9877 98.3884 45.0782Z" fill="#0C1248"/>
<path d="M100.257 49.1755C100.299 49.2665 94.7961 51.8661 87.9681 54.9818C81.1381 58.0974 75.5694 60.5494 75.5273 60.4584C75.4862 60.3674 80.9876 57.7682 87.818 54.6516C94.6461 51.537 100.216 49.0845 100.257 49.1755Z" fill="#0C1248"/>
<path d="M102.127 53.2727C102.168 53.3632 96.6654 55.9628 89.8378 59.0785C83.0073 62.1946 77.4382 64.6466 77.3966 64.5551C77.3554 64.4646 82.8568 61.8654 89.6873 58.7489C96.5153 55.6337 102.085 53.1812 102.127 53.2727Z" fill="#0C1248"/>
<path d="M103.996 57.3694C104.038 57.4604 98.5348 60.0601 91.7067 63.1757C84.8767 66.2918 79.3076 68.7438 79.266 68.6524C79.2244 68.5614 84.7262 65.9622 91.5567 62.8456C98.3842 59.7305 103.955 57.2784 103.996 57.3694Z" fill="#0C1248"/>
<path d="M94.4277 66.6848C94.4693 66.7753 91.527 68.2071 87.8571 69.8818C84.1854 71.5565 81.1767 72.8401 81.1351 72.7496C81.0935 72.6581 84.0353 71.2269 87.7066 69.5517C91.3769 67.8779 94.3861 66.5933 94.4277 66.6848Z" fill="#0C1248"/>
<path d="M118.007 68.6683L81.4219 77.7563L68.9865 27.6918L105.572 18.6044L118.007 68.6683Z" fill="white"/>
<path d="M118.007 68.6683C118.007 68.6683 117.98 68.5836 117.937 68.4244C117.892 68.2545 117.831 68.0212 117.751 67.7187C117.589 67.0861 117.355 66.1723 117.051 64.9874C116.446 62.5939 115.566 59.1143 114.453 54.7146C112.244 45.9083 109.112 33.4221 105.406 18.6455L105.613 18.7699C94.5967 21.5114 82.1564 24.6076 69.0361 27.8733L69.0318 27.8743L69.1687 27.6463C73.8013 46.3497 78.0897 63.665 81.5708 77.719L81.3849 77.6072C92.4583 74.8909 101.592 72.6508 107.971 71.086C111.158 70.3116 113.657 69.7046 115.373 69.2884C116.22 69.0856 116.871 68.9292 117.325 68.8208C117.769 68.7163 118.007 68.6683 118.007 68.6683C118.007 68.6683 117.796 68.7327 117.365 68.8455C116.919 68.9602 116.28 69.1253 115.449 69.3392C113.745 69.7719 111.264 70.4016 108.099 71.2056C101.707 72.813 92.5551 75.1145 81.4589 77.9049L81.3099 77.9421L81.2726 77.7931C77.7731 63.7434 73.461 46.434 68.8038 27.7368L68.7583 27.5543L68.9408 27.5093L68.9451 27.5079C82.0693 24.2548 94.5115 21.1701 105.531 18.4388L105.697 18.3977L105.737 18.5632C109.387 33.4008 112.471 45.9383 114.646 54.7809C115.717 59.1743 116.564 62.6486 117.147 65.0382C117.43 66.2134 117.648 67.1195 117.799 67.7468C117.868 68.0435 117.922 68.2719 117.961 68.4394C117.996 68.5938 118.012 68.6712 118.007 68.6683Z" fill="#0C1248"/>
<path d="M93.86 32.1965C93.8852 32.2972 89.9254 33.3679 85.0165 34.5871C80.1061 35.8068 76.1062 36.7134 76.0811 36.6127C76.0559 36.5116 80.0152 35.4414 84.9255 34.2217C89.8344 33.0024 93.8349 32.0959 93.86 32.1965Z" fill="#0C1248"/>
<path d="M104.556 34.1583C104.581 34.259 98.4688 35.864 90.905 37.7429C83.3384 39.6224 77.1865 41.0638 77.1618 40.9626C77.1367 40.862 83.2479 39.2574 90.8145 37.378C98.3778 35.499 104.532 34.0571 104.556 34.1583Z" fill="#0C1248"/>
<path d="M105.684 38.6964C105.709 38.7976 99.5962 40.4026 92.0325 42.2816C84.4658 44.161 78.3144 45.6019 78.2888 45.5013C78.2641 45.4006 84.3753 43.7956 91.9415 41.9161C99.5053 40.0372 105.659 38.5958 105.684 38.6964Z" fill="#0C1248"/>
<path d="M106.811 43.2351C106.836 43.3358 100.724 44.9412 93.1598 46.8202C85.5936 48.6992 79.4413 50.1406 79.4161 50.0394C79.3914 49.9387 85.5026 48.3342 93.0688 46.4548C100.633 44.5758 106.786 43.1344 106.811 43.2351Z" fill="#0C1248"/>
<path d="M107.938 47.7733C107.963 47.8744 101.851 49.4794 94.2869 51.3584C86.7207 53.2374 80.5683 54.6788 80.5432 54.5781C80.5185 54.4774 86.6297 52.8729 94.1964 50.9935C101.76 49.1145 107.913 47.6726 107.938 47.7733Z" fill="#0C1248"/>
<path d="M109.066 52.3119C109.091 52.4126 102.978 54.0181 95.4143 55.897C87.8481 57.776 81.6958 59.2174 81.6711 59.1167C81.6459 59.0156 87.7571 57.4111 95.3238 55.5316C102.888 53.6531 109.04 52.2112 109.066 52.3119Z" fill="#0C1248"/>
<path d="M110.193 56.8506C110.218 56.9512 104.105 58.5567 96.5415 60.4352C88.9754 62.3142 82.823 63.7561 82.7983 63.6549C82.7731 63.5542 88.8843 61.9492 96.451 60.0703C104.015 58.1913 110.168 56.7494 110.193 56.8506Z" fill="#0C1248"/>
<path d="M98.6503 64.5358C98.6749 64.6364 95.3991 65.5377 91.3333 66.5469C87.2666 67.557 83.9506 68.2942 83.9254 68.1935C83.9003 68.0928 87.1756 67.1921 91.2428 66.1824C95.3081 65.1723 98.6251 64.4351 98.6503 64.5358Z" fill="#0C1248"/>
<path d="M59.7115 51.5859L63.557 85.0001C63.6253 85.5935 64.1262 86.0432 64.7235 86.048L116.935 86.4304C117.552 86.4343 118.069 85.9638 118.122 85.3486L120.996 51.9837C121.055 51.2964 120.515 50.7045 119.826 50.6992L60.8954 50.2679C60.1849 50.2626 59.6297 50.8797 59.7115 51.5859Z" fill="#CCD4EB"/>
</svg>
