<svg width="22" height="22" viewBox="0 0 22 22" fill="none" xmlns="http://www.w3.org/2000/svg">
<path d="M11 19.25C15.5563 19.25 19.25 15.5563 19.25 11C19.25 6.44365 15.5563 2.75 11 2.75C6.44365 2.75 2.75 6.44365 2.75 11C2.75 15.5563 6.44365 19.25 11 19.25Z" stroke="#0C1248" stroke-width="1.5" stroke-linecap="round" stroke-linejoin="round"/>
<path d="M11 15.5835V15.5935" stroke="#0C1248" stroke-width="1.5" stroke-linecap="round" stroke-linejoin="round"/>
<path d="M11.0001 12.3751C10.9832 12.0775 11.0635 11.7825 11.2288 11.5345C11.3941 11.2865 11.6356 11.0989 11.9167 11.0001C12.2613 10.8683 12.5706 10.6584 12.8202 10.3868C13.0698 10.1152 13.253 9.78936 13.3553 9.43494C13.4576 9.08053 13.4762 8.70721 13.4097 8.34436C13.3433 7.98152 13.1934 7.63907 12.9721 7.34396C12.7508 7.04885 12.464 6.80915 12.1343 6.64372C11.8046 6.47829 11.4409 6.39166 11.0721 6.39063C10.7032 6.38961 10.3391 6.47423 10.0085 6.63782C9.67785 6.80142 9.38971 7.03953 9.16675 7.3334" stroke="#0C1248" stroke-width="1.5" stroke-linecap="round" stroke-linejoin="round"/>
</svg>
