<svg width="25" height="26" viewBox="0 0 25 26" fill="none" xmlns="http://www.w3.org/2000/svg">
<path d="M5.20833 13H3.125L12.5 3.625L21.875 13H19.7917" stroke="#707070" stroke-linecap="round" stroke-linejoin="round"/>
<path d="M5.20837 13V20.2917C5.20837 20.8442 5.42787 21.3741 5.81857 21.7648C6.20927 22.1555 6.73917 22.375 7.29171 22.375H17.7084C18.2609 22.375 18.7908 22.1555 19.1815 21.7648C19.5722 21.3741 19.7917 20.8442 19.7917 20.2917V13" stroke="#707070" stroke-linecap="round" stroke-linejoin="round"/>
<path d="M9.375 22.375V16.125C9.375 15.5725 9.59449 15.0426 9.98519 14.6519C10.3759 14.2612 10.9058 14.0417 11.4583 14.0417H13.5417C14.0942 14.0417 14.6241 14.2612 15.0148 14.6519C15.4055 15.0426 15.625 15.5725 15.625 16.125V22.375" stroke="#707070" stroke-linecap="round" stroke-linejoin="round"/>
</svg>
