<svg width="22" height="22" viewBox="0 0 22 22" fill="none" xmlns="http://www.w3.org/2000/svg">
<path d="M4.58333 11H2.75L11 2.75L19.25 11H17.4167" stroke="#0C1248" stroke-width="1.5" stroke-linecap="round" stroke-linejoin="round"/>
<path d="M4.58325 11V17.4167C4.58325 17.9029 4.77641 18.3692 5.12022 18.713C5.46404 19.0568 5.93036 19.25 6.41659 19.25H15.5833C16.0695 19.25 16.5358 19.0568 16.8796 18.713C17.2234 18.3692 17.4166 17.9029 17.4166 17.4167V11" stroke="#0C1248" stroke-width="1.5" stroke-linecap="round" stroke-linejoin="round"/>
<path d="M8.25 19.2501V13.7501C8.25 13.2639 8.44315 12.7975 8.78697 12.4537C9.13079 12.1099 9.5971 11.9167 10.0833 11.9167H11.9167C12.4029 11.9167 12.8692 12.1099 13.213 12.4537C13.5568 12.7975 13.75 13.2639 13.75 13.7501V19.2501" stroke="#0C1248" stroke-width="1.5" stroke-linecap="round" stroke-linejoin="round"/>
</svg>
