<svg width="20" height="20" viewBox="0 0 20 20" fill="none" xmlns="http://www.w3.org/2000/svg">
<path d="M15 3.3335H5C3.61929 3.3335 2.5 4.45278 2.5 5.8335V14.1668C2.5 15.5475 3.61929 16.6668 5 16.6668H15C16.3807 16.6668 17.5 15.5475 17.5 14.1668V5.8335C17.5 4.45278 16.3807 3.3335 15 3.3335Z" stroke="#D03737" stroke-width="1.5" stroke-linecap="round" stroke-linejoin="round"/>
<path d="M7.50016 9.99984C8.42064 9.99984 9.16683 9.25364 9.16683 8.33317C9.16683 7.4127 8.42064 6.6665 7.50016 6.6665C6.57969 6.6665 5.8335 7.4127 5.8335 8.33317C5.8335 9.25364 6.57969 9.99984 7.50016 9.99984Z" stroke="#D03737" stroke-width="1.5" stroke-linecap="round" stroke-linejoin="round"/>
<path d="M12.5 6.6665H14.1667" stroke="#D03737" stroke-width="1.5" stroke-linecap="round" stroke-linejoin="round"/>
<path d="M12.5 10H14.1667" stroke="#D03737" stroke-width="1.5" stroke-linecap="round" stroke-linejoin="round"/>
<path d="M5.8335 13.3335H14.1668" stroke="#D03737" stroke-width="1.5" stroke-linecap="round" stroke-linejoin="round"/>
</svg>
