<svg width="20" height="20" viewBox="0 0 20 20" fill="none" xmlns="http://www.w3.org/2000/svg">
<path d="M14.1666 9.16667H5.83322C4.91275 9.16667 4.16655 9.91286 4.16655 10.8333V15.8333C4.16655 16.7538 4.91275 17.5 5.83322 17.5H14.1666C15.087 17.5 15.8332 16.7538 15.8332 15.8333V10.8333C15.8332 9.91286 15.087 9.16667 14.1666 9.16667Z" stroke="#D0D0D0" stroke-linecap="round" stroke-linejoin="round"/>
<path d="M9.99989 14.1667C10.4601 14.1667 10.8332 13.7936 10.8332 13.3333C10.8332 12.8731 10.4601 12.5 9.99989 12.5C9.53965 12.5 9.16655 12.8731 9.16655 13.3333C9.16655 13.7936 9.53965 14.1667 9.99989 14.1667Z" stroke="#D0D0D0" stroke-linecap="round" stroke-linejoin="round"/>
<path d="M6.66655 9.16667V5.83333C6.66655 4.94928 7.01774 4.10143 7.64286 3.47631C8.26799 2.85119 9.11583 2.5 9.99989 2.5C10.8839 2.5 11.7318 2.85119 12.3569 3.47631C12.982 4.10143 13.3332 4.94928 13.3332 5.83333V9.16667" stroke="#D0D0D0" stroke-linecap="round" stroke-linejoin="round"/>
</svg>
