<svg width="512" height="427" viewBox="0 0 512 427" fill="none" xmlns="http://www.w3.org/2000/svg">
<mask id="mask0" mask-type="alpha" maskUnits="userSpaceOnUse" x="0" y="0" width="512" height="427">
<rect width="512" height="426.667" fill="#121212" fill-opacity="0.7"/>
<rect x="0.5" y="0.5" width="511" height="425.667" stroke="#121212" stroke-opacity="0.7"/>
</mask>
<g mask="url(#mask0)">
<path fill-rule="evenodd" clip-rule="evenodd" d="M512 0.000808716V426.667H0V0.000808716H512ZM275.617 32.8213H483.556V393.847H275.617V32.8213ZM247.172 393.847H28.4444V32.8213H247.172V393.847Z" fill="#595959"/>
<path d="M152.111 295.385H131.444V137.308L90 154.873V133.334L148.889 107.821H152.111V295.385Z" fill="#595959"/>
<path d="M446.556 151.283H340.556V134.232L396.556 62.4367C404.852 51.582 410.556 42.7786 413.667 36.0265C416.852 29.1888 418.444 22.1376 418.444 14.8726C418.444 5.12901 415.889 -2.86244 410.778 -9.10175C405.667 -15.3411 398.852 -18.4607 390.333 -18.4607C380.111 -18.4607 372.148 -15.0847 366.444 -8.33252C360.815 -1.66586 358 7.65038 358 19.6162H337.444C337.444 2.43671 342.222 -11.4522 351.778 -22.0505C361.407 -32.6488 374.259 -37.9479 390.333 -37.9479C405.37 -37.9479 417.259 -33.3753 426 -24.23C434.741 -15.1701 439.111 -3.07611 439.111 12.0521C439.111 30.4282 428.963 52.3085 408.667 77.6931L365.333 131.924H446.556V151.283Z" fill="#595959"/>
<path d="M370.444 321.796H385.889C395.593 321.625 403.222 318.676 408.778 312.949C414.333 307.223 417.111 299.488 417.111 289.744C417.111 267.864 407.667 256.924 388.778 256.924C379.889 256.924 372.778 259.873 367.444 265.77C362.185 271.582 359.556 279.317 359.556 288.975H339C339 274.189 343.667 261.924 353 252.18C362.407 242.351 374.333 237.437 388.778 237.437C404.037 237.437 416 242.095 424.667 251.411C433.333 260.727 437.667 273.676 437.667 290.257C437.667 298.377 435.37 306.24 430.778 313.847C426.259 321.454 420.074 327.138 412.222 330.898C421.111 334.146 427.963 339.531 432.778 347.052C437.667 354.573 440.111 363.761 440.111 374.616C440.111 391.368 435.37 404.659 425.889 414.488C416.407 424.317 404.074 429.232 388.889 429.232C373.704 429.232 361.333 424.488 351.778 415.001C342.296 405.514 337.556 392.992 337.556 377.437H358.222C358.222 387.266 361 395.129 366.556 401.026C372.111 406.924 379.556 409.873 388.889 409.873C398.815 409.873 406.407 406.881 411.667 400.898C416.926 394.915 419.556 386.326 419.556 375.129C419.556 364.274 416.667 355.941 410.889 350.129C405.111 344.317 396.778 341.326 385.889 341.155H370.444V321.796Z" fill="#595959"/>
</g>
</svg>
