<svg width="20" height="19" viewBox="0 0 20 19" fill="none" xmlns="http://www.w3.org/2000/svg">
<g clip-path="url(#clip0)">
<path d="M10 4.75C10.1575 4.75 10.3085 4.81256 10.4198 4.92391C10.5312 5.03526 10.5938 5.18628 10.5938 5.34375V7.125C10.5938 7.28247 10.5312 7.4335 10.4198 7.54485C10.3085 7.65619 10.1575 7.71875 10 7.71875C9.84253 7.71875 9.6915 7.65619 9.58016 7.54485C9.46881 7.4335 9.40625 7.28247 9.40625 7.125V5.34375C9.40625 5.18628 9.46881 5.03526 9.58016 4.92391C9.6915 4.81256 9.84253 4.75 10 4.75ZM4.93175 6.80675C5.04309 6.69544 5.19409 6.63291 5.35153 6.63291C5.50897 6.63291 5.65997 6.69544 5.77131 6.80675L6.85788 7.89213C6.91308 7.94733 6.95687 8.01287 6.98675 8.085C7.01662 8.15712 7.032 8.23443 7.032 8.3125C7.032 8.39057 7.01662 8.46788 6.98675 8.54001C6.95687 8.61213 6.91308 8.67767 6.85788 8.73288C6.80267 8.78808 6.73713 8.83187 6.66501 8.86175C6.59288 8.89162 6.51557 8.907 6.4375 8.907C6.35943 8.907 6.28212 8.89162 6.20999 8.86175C6.13787 8.83187 6.07233 8.78808 6.01712 8.73288L4.93175 7.64631C4.82044 7.53497 4.75791 7.38397 4.75791 7.22653C4.75791 7.06909 4.82044 6.91809 4.93175 6.80675ZM2.875 11.875C2.875 11.7175 2.93756 11.5665 3.04891 11.4552C3.16026 11.3438 3.31128 11.2813 3.46875 11.2813H5.35212C5.5096 11.2813 5.66062 11.3438 5.77197 11.4552C5.88332 11.5665 5.94587 11.7175 5.94587 11.875C5.94587 12.0325 5.88332 12.1835 5.77197 12.2948C5.66062 12.4062 5.5096 12.4688 5.35212 12.4688H3.46875C3.31128 12.4688 3.16026 12.4062 3.04891 12.2948C2.93756 12.1835 2.875 12.0325 2.875 11.875ZM14.1562 11.875C14.1562 11.7175 14.2188 11.5665 14.3302 11.4552C14.4415 11.3438 14.5925 11.2813 14.75 11.2813H16.5312C16.6887 11.2813 16.8397 11.3438 16.9511 11.4552C17.0624 11.5665 17.125 11.7175 17.125 11.875C17.125 12.0325 17.0624 12.1835 16.9511 12.2948C16.8397 12.4062 16.6887 12.4688 16.5312 12.4688H14.75C14.5925 12.4688 14.4415 12.4062 14.3302 12.2948C14.2188 12.1835 14.1562 12.0325 14.1562 11.875ZM15.0516 6.83288C14.9694 6.75104 14.8593 6.70316 14.7434 6.69876C14.6274 6.69436 14.514 6.73376 14.4258 6.80913L9.46206 11.0556C9.34641 11.1531 9.2525 11.2737 9.1864 11.4097C9.12031 11.5457 9.08349 11.6941 9.07835 11.8453C9.0732 11.9964 9.09984 12.1469 9.15653 12.2871C9.21323 12.4273 9.29872 12.5541 9.40747 12.6592C9.51623 12.7642 9.64583 12.8453 9.7879 12.8972C9.92996 12.949 10.0813 12.9705 10.2322 12.9601C10.3831 12.9498 10.5301 12.9079 10.6638 12.8372C10.7974 12.7664 10.9148 12.6684 11.0082 12.5495L15.0861 7.44681C15.157 7.35801 15.1927 7.24616 15.1864 7.13267C15.18 7.01918 15.132 6.91202 15.0516 6.83169V6.83288Z" fill="#D03737"/>
<path fill-rule="evenodd" clip-rule="evenodd" d="M0.500006 11.8748C0.501248 10.4923 0.804212 9.12673 1.38775 7.87343C1.97128 6.62013 2.82133 5.5093 3.87854 4.61847C4.93576 3.72765 6.17466 3.0783 7.50877 2.71576C8.84287 2.35323 10.24 2.28624 11.6027 2.51947C12.9654 2.7527 14.2607 3.28054 15.3983 4.06613C16.5359 4.85171 17.4883 5.87613 18.1891 7.06784C18.8899 8.25956 19.3221 9.58987 19.4556 10.9659C19.5891 12.3419 19.4207 13.7305 18.9621 15.0347C18.4372 16.5226 16.7711 16.9371 15.4803 16.5191C13.9294 16.0168 11.7516 15.4373 10 15.4373C8.24963 15.4373 6.06938 16.0168 4.51969 16.5191C3.22888 16.9371 1.56282 16.5226 1.03794 15.0347C0.680675 14.0195 0.498766 12.951 0.500006 11.8748ZM10 3.56227C8.67045 3.56193 7.3602 3.88051 6.17924 4.49129C4.99827 5.10207 3.98105 5.98721 3.21293 7.07244C2.44481 8.15767 1.94822 9.41132 1.76482 10.7282C1.58143 12.045 1.71658 13.3866 2.15894 14.6405C2.40001 15.3233 3.25501 15.6807 4.15394 15.3886C5.72144 14.8827 8.05013 14.2498 10 14.2498C11.9499 14.2498 14.2798 14.8815 15.8461 15.3898C16.745 15.6807 17.6 15.3233 17.8411 14.6405C18.2834 13.3866 18.4186 12.045 18.2352 10.7282C18.0518 9.41132 17.5552 8.15767 16.7871 7.07244C16.019 5.98721 15.0017 5.10207 13.8208 4.49129C12.6398 3.88051 11.3296 3.56193 10 3.56227Z" fill="#D03737"/>
</g>
<defs>
<clipPath id="clip0">
<rect width="19" height="19" fill="white" transform="translate(0.5)"/>
</clipPath>
</defs>
</svg>
