<svg width="42" height="28" viewBox="0 0 42 28" fill="none" xmlns="http://www.w3.org/2000/svg">
<rect width="42" height="28" rx="10" fill="#C3D7FF" fill-opacity="0.2"/>
<path d="M15.75 14.75C16.1642 14.75 16.5 14.4142 16.5 14C16.5 13.5858 16.1642 13.25 15.75 13.25C15.3358 13.25 15 13.5858 15 14C15 14.4142 15.3358 14.75 15.75 14.75Z" stroke="#0C1248" stroke-width="2" stroke-linecap="round" stroke-linejoin="round"/>
<path d="M21 14.75C21.4142 14.75 21.75 14.4142 21.75 14C21.75 13.5858 21.4142 13.25 21 13.25C20.5858 13.25 20.25 13.5858 20.25 14C20.25 14.4142 20.5858 14.75 21 14.75Z" stroke="#0C1248" stroke-width="2" stroke-linecap="round" stroke-linejoin="round"/>
<path d="M26.25 14.75C26.6642 14.75 27 14.4142 27 14C27 13.5858 26.6642 13.25 26.25 13.25C25.8358 13.25 25.5 13.5858 25.5 14C25.5 14.4142 25.8358 14.75 26.25 14.75Z" stroke="#0C1248" stroke-width="2" stroke-linecap="round" stroke-linejoin="round"/>
</svg>
