<svg width="80" height="80" viewBox="0 0 80 80" fill="none" xmlns="http://www.w3.org/2000/svg">
<path d="M70.7401 18.6156C70.7401 33.9867 78.7023 44.5422 78.7023 51.9489C78.7023 59.3556 74.4446 74.9111 40.3712 74.9111C6.29788 74.9111 1.29565 53.9845 1.29565 45.8378C1.29565 7.6889 70.7401 -8.60666 70.7401 18.6156Z" fill="#EFEFEF"/>
<path d="M15.3333 65.0667C13.4956 65.0667 12 63.5711 12 61.7334C12 59.8956 13.4956 58.4 15.3333 58.4C17.1711 58.4 18.6667 59.8956 18.6667 61.7334C18.6667 63.5711 17.1711 65.0667 15.3333 65.0667ZM15.3333 60.6222C14.72 60.6222 14.2222 61.12 14.2222 61.7334C14.2222 62.3467 14.72 62.8445 15.3333 62.8445C15.9467 62.8445 16.4444 62.3467 16.4444 61.7334C16.4444 61.12 15.9467 60.6222 15.3333 60.6222Z" fill="#A4AFC1"/>
<path d="M62.0151 5.82336L63.5865 4.25202L66.7292 7.39471L65.1578 8.96606L62.0151 5.82336Z" fill="#A4AFC1"/>
<path d="M71.0471 14.8611L72.6185 13.2897L75.7612 16.4324L74.1898 18.0038L71.0471 14.8611Z" fill="#A4AFC1"/>
<path d="M62.3999 15.9427L65.5426 12.8001L67.1139 14.3714L63.9712 17.5141L62.3999 15.9427Z" fill="#A4AFC1"/>
<path d="M70.6497 7.3866L73.7924 4.2439L75.3637 5.81525L72.221 8.95795L70.6497 7.3866Z" fill="#A4AFC1"/>
<path d="M27.2519 52.8181C29.996 52.8181 32.2205 50.5936 32.2205 47.8496C32.2205 45.1056 29.996 42.8811 27.2519 42.8811C24.5079 42.8811 22.2834 45.1056 22.2834 47.8496C22.2834 50.5936 24.5079 52.8181 27.2519 52.8181Z" fill="#C3D7FF"/>
<path d="M58.7192 52.8181C61.4633 52.8181 63.6877 50.5936 63.6877 47.8496C63.6877 45.1056 61.4633 42.8811 58.7192 42.8811C55.9752 42.8811 53.7507 45.1056 53.7507 47.8496C53.7507 50.5936 55.9752 52.8181 58.7192 52.8181Z" fill="#C3D7FF"/>
<path d="M41.3294 32.9441C41.3294 32.0291 40.5883 31.288 39.6733 31.288H32.2346C31.4951 31.288 30.8003 31.5331 30.2397 31.9562C29.6791 32.3786 29.2526 32.9797 29.0498 33.6902L28.1207 36.9413L28.0801 37.0846L41.3294 33.7722V32.9441Z" fill="#C3D7FF"/>
<path d="M17.3149 43.6761L20.3374 45.0259L20.6273 44.38L21.2939 42.8895L23.451 38.0617L24.3951 35.9501L21.3726 34.6003L17.3149 43.6761Z" fill="#C3D7FF"/>
<path d="M53.7507 34.6003H55.4068V31.288H53.7507C52.8398 31.288 52.0945 32.0332 52.0945 32.9441C52.0945 33.0187 52.1028 33.0932 52.111 33.1677C52.1773 33.3747 52.2435 33.5818 52.3181 33.7805C52.6079 34.2691 53.1461 34.6003 53.7507 34.6003Z" fill="#C3D7FF"/>
<path d="M61.8423 41.2961C61.7396 41.2961 61.6425 41.3056 61.5407 41.3104L60.5347 40.5538C59.0853 39.3909 57.8538 38.0052 56.8745 36.4359C56.7061 36.1637 56.5605 35.8715 56.4063 35.586H58.9873V29.8759H56.1322C55.5546 29.8759 55.0178 30.051 54.5677 30.348L54.2089 28.7291L53.063 23L48.2875 24.1944L48.7491 26.0397L51.587 25.3307L52.218 28.4855L49.4695 30.3175V35.8373L50.3755 37.4285C50.9094 38.3611 51.192 39.4194 51.192 40.4872C51.192 42.2697 50.4421 43.9342 49.1231 45.1029H38.5318C37.9912 44.2911 37.7076 43.3556 37.7076 42.3715C37.7076 40.8841 38.3462 39.5155 39.4701 38.5753L42.8087 38.3906V33.6827V32.731V32.475L42.7839 32.4807C42.6554 31.0246 41.443 29.875 39.9536 29.875H31.4046C29.2909 29.875 27.4094 31.2939 26.8289 33.3267L25.9144 36.5282L22.967 37.2353L23.6512 35.704L18.4398 33.3772L13 45.5444L17.1122 47.3812V49.8822V50.813H19.0917C19.5562 54.0354 22.3284 56.5231 25.6774 56.5231C29.0264 56.5231 31.7986 54.0354 32.263 50.813H33.2909H35.1942H53.2762H55.1796H55.2567C55.4813 52.3623 56.2407 53.7994 57.4303 54.851C58.6532 55.933 60.2311 56.5221 61.8566 56.5221C62.1297 56.5221 62.4038 56.505 62.6789 56.4707C65.6719 56.1034 68.1006 53.6661 68.4546 50.6769V50.6759C68.6612 48.9343 68.1929 47.2337 67.1708 45.8775L68.5765 44.4719L67.8989 43.7991C66.2734 42.185 64.1226 41.2961 61.8423 41.2961ZM56.1322 31.7793H57.0839V33.6827H56.1322C55.822 33.6827 55.5289 33.5275 55.348 33.2725C55.29 33.1116 55.2357 32.948 55.1834 32.7833C55.1815 32.7662 55.1805 32.7481 55.1805 32.731C55.1805 32.2056 55.6079 31.7793 56.1322 31.7793ZM28.659 33.8502C29.0073 32.631 30.136 31.7793 31.4046 31.7793H39.9536C40.478 31.7793 40.9053 32.2056 40.9053 32.731V32.9318L28.0395 36.019L28.659 33.8502ZM15.5153 44.5842L19.401 35.8906L21.1369 36.6652L17.2512 45.3589L15.5153 44.5842ZM25.6783 54.6197C23.38 54.6197 21.4576 52.9819 21.016 50.813H30.3416C29.8991 52.9819 27.9767 54.6197 25.6783 54.6197ZM32.3401 48.9096H19.0165V46.2097C19.0927 46.0707 19.1764 45.9394 19.2602 45.8062C19.3458 45.6701 19.4267 45.5292 19.5209 45.3998C19.6313 45.2466 19.7551 45.1057 19.8759 44.9611C19.9758 44.8421 20.071 44.7184 20.1776 44.6061C20.3089 44.4681 20.4517 44.3444 20.5925 44.2168C20.7039 44.116 20.8105 44.0084 20.9275 43.9152C21.0779 43.7943 21.2406 43.6896 21.3996 43.5802C21.5195 43.4983 21.6346 43.4089 21.7593 43.3337C21.9287 43.2319 22.1086 43.1481 22.2856 43.0596C22.4112 42.9968 22.5321 42.9254 22.6615 42.8693C22.8509 42.7874 23.0498 42.7256 23.2458 42.6599C23.3724 42.6171 23.4942 42.5647 23.6227 42.5286C23.8454 42.4667 24.0757 42.4277 24.3041 42.3858C24.4135 42.3658 24.5201 42.3344 24.6315 42.3192C24.975 42.2716 25.3243 42.2469 25.6774 42.2469C25.9305 42.2469 26.1799 42.2602 26.4264 42.2849C26.5092 42.2935 26.5901 42.3087 26.6719 42.3192C26.8337 42.3401 26.9964 42.362 27.1544 42.3934C27.2505 42.4125 27.3438 42.4381 27.438 42.461C27.5789 42.4943 27.7207 42.5276 27.8586 42.5695C27.9576 42.599 28.0537 42.6342 28.1508 42.6685C28.2802 42.7132 28.4097 42.7579 28.5353 42.8093C28.6333 42.8493 28.7294 42.894 28.8256 42.9378C28.9455 42.993 29.0644 43.0482 29.1815 43.1091C29.2767 43.1586 29.3699 43.2109 29.4622 43.2642C29.5745 43.3289 29.6859 43.3955 29.7944 43.466C29.8848 43.524 29.9733 43.584 30.0608 43.6458C30.1655 43.7201 30.2683 43.7972 30.3692 43.8771C30.4539 43.9437 30.5367 44.0103 30.6185 44.0798C30.7166 44.1636 30.8108 44.2511 30.905 44.3396C30.9821 44.4129 31.0592 44.4852 31.1324 44.5614C31.2238 44.6556 31.3104 44.7536 31.397 44.8526C31.4655 44.9306 31.535 45.0077 31.5997 45.0876C31.6854 45.1942 31.7653 45.3046 31.8452 45.415C31.9033 45.495 31.9633 45.573 32.0175 45.6548C32.1003 45.7795 32.1755 45.9089 32.2516 46.0393C32.2954 46.1136 32.342 46.1859 32.383 46.2611C32.4876 46.4552 32.5828 46.6541 32.6704 46.8568C32.677 46.873 32.6856 46.8882 32.6922 46.9044C32.7846 47.1223 32.8655 47.346 32.9378 47.5734C32.9616 47.6477 32.9778 47.7248 32.9987 47.799C33.0434 47.956 33.0872 48.114 33.1215 48.2748C33.1405 48.3662 33.1529 48.4595 33.169 48.5518C33.19 48.6698 33.209 48.7887 33.2233 48.9086L32.3401 48.9096ZM55.132 44.568C54.916 44.8402 54.718 45.1267 54.5363 45.4236C54.4963 45.4883 54.4611 45.5549 54.423 45.6215C54.2707 45.8851 54.1327 46.1573 54.009 46.4371C53.9824 46.4971 53.9529 46.5542 53.9281 46.6141C53.7939 46.9377 53.6816 47.2718 53.5874 47.6134C53.5655 47.6914 53.5484 47.7704 53.5294 47.8494C53.4551 48.1549 53.3961 48.4652 53.3552 48.7811C53.3495 48.8239 53.3362 48.8649 53.3314 48.9086H35.1485C35.1485 48.9058 35.1476 48.9029 35.1476 48.9001C35.14 48.823 35.1238 48.7488 35.1143 48.6717C35.0848 48.4404 35.0543 48.2092 35.0086 47.9836C34.9849 47.8666 34.9515 47.7543 34.9239 47.6382C34.8802 47.4573 34.8383 47.2746 34.785 47.0976C34.7469 46.9729 34.7003 46.853 34.6575 46.7302C34.6004 46.5675 34.5452 46.4048 34.4805 46.2468C34.4291 46.1221 34.3701 46.0022 34.3139 45.8804C34.2444 45.731 34.1759 45.5806 34.0988 45.435C34.0351 45.3151 33.9656 45.198 33.8971 45.081C33.8152 44.9411 33.7334 44.8021 33.6449 44.667C33.5697 44.5528 33.4907 44.4414 33.4108 44.3301C33.3175 44.2007 33.2233 44.0722 33.1243 43.9466C33.0387 43.839 32.9492 43.7343 32.8597 43.6306C32.756 43.5107 32.6494 43.3936 32.54 43.2785C32.4448 43.1795 32.3477 43.0824 32.2478 42.9873C32.1327 42.8769 32.0147 42.7703 31.8947 42.6665C31.791 42.5771 31.6873 42.4895 31.5797 42.4039C31.4541 42.3049 31.3256 42.2097 31.1953 42.1165C31.0839 42.0375 30.9735 41.9585 30.8584 41.8843C30.7232 41.7958 30.5843 41.7139 30.4434 41.6321C30.3264 41.5636 30.2093 41.495 30.0894 41.4322C29.9438 41.3551 29.7934 41.2866 29.6431 41.2171C29.5212 41.161 29.4013 41.1029 29.2767 41.0525C29.1187 40.9878 28.9569 40.9326 28.7942 40.8755C28.6714 40.8327 28.5505 40.787 28.4249 40.7489C28.2517 40.6966 28.0737 40.6556 27.8967 40.6128C27.7768 40.5843 27.6597 40.55 27.5389 40.5262C27.3381 40.4862 27.1335 40.4596 26.9288 40.4329C26.8261 40.4196 26.7252 40.3987 26.6215 40.3892C26.3112 40.3587 25.9962 40.3416 25.6783 40.3416C25.2463 40.3416 24.8199 40.373 24.4002 40.4301C24.2603 40.4491 24.1252 40.4853 23.9872 40.51C23.7103 40.5595 23.4343 40.609 23.1649 40.6823C23.0051 40.7261 22.8528 40.7851 22.6967 40.8374C22.4569 40.9164 22.2171 40.9944 21.9858 41.0925C21.8269 41.1591 21.6756 41.24 21.5204 41.3152C21.3615 41.3922 21.1969 41.4579 21.0427 41.5436L21.9896 39.4251L40.9072 34.8865V36.5853L38.7783 36.7043L38.548 36.8765C36.8054 38.1803 35.8062 40.1827 35.8062 42.3687C35.8062 43.9152 36.3401 45.435 37.3089 46.6465L37.5944 47.0034H49.8054L50.0652 46.795C51.9924 45.258 53.0983 42.9578 53.0983 40.4843C53.0983 39.0844 52.729 37.6997 52.0314 36.4816L51.3757 35.331V31.3339L52.651 30.4831L52.9289 31.7346C53.0307 32.2171 53.1668 32.7205 53.3447 33.2734C53.4256 33.5266 53.5065 33.7788 53.596 34.0176V34.0186C53.596 34.0196 53.5969 34.0205 53.5969 34.0205L53.5988 34.0253C54.0452 35.231 54.6029 36.3778 55.2605 37.437C56.2778 39.0682 57.5388 40.5196 59.0292 41.7739C59.0006 41.7834 58.9759 41.7986 58.9473 41.8091C58.6142 41.9299 58.2907 42.0689 57.9775 42.2288C57.9176 42.2592 57.8605 42.2944 57.8015 42.3268C57.5322 42.4724 57.2733 42.6313 57.0221 42.8036C56.9611 42.8455 56.8993 42.8845 56.8393 42.9283C56.5576 43.1329 56.2883 43.3537 56.0342 43.5906C55.9819 43.6392 55.9333 43.6906 55.8829 43.7401C55.6659 43.9523 55.4603 44.174 55.2672 44.4072C55.2205 44.4633 55.1748 44.5138 55.132 44.568ZM55.2567 48.9096C55.2605 48.8801 55.2652 48.8515 55.2691 48.823C55.3214 48.4956 55.3956 48.1749 55.4946 47.8637C55.5098 47.8171 55.527 47.7704 55.5431 47.7238C55.6526 47.405 55.7811 47.0938 55.9362 46.7978C55.9467 46.7778 55.96 46.7578 55.9704 46.7379C56.136 46.4286 56.3235 46.1326 56.5348 45.8537C56.5376 45.8499 56.5396 45.8461 56.5424 45.8423C56.7546 45.5635 56.9916 45.3046 57.2438 45.0629C57.2638 45.0439 57.2828 45.0239 57.3028 45.0048C57.5521 44.7717 57.8205 44.5595 58.1032 44.3663C58.1308 44.3472 58.1584 44.3282 58.186 44.3101C58.4705 44.1217 58.7713 43.9542 59.0844 43.8105C59.1129 43.7971 59.1424 43.7848 59.1719 43.7724C59.4907 43.6316 59.8219 43.5136 60.1655 43.4231C60.1902 43.4165 60.215 43.4127 60.2397 43.406C60.5928 43.3175 60.9563 43.2537 61.3294 43.2252L61.3475 43.2242C62.9663 43.0672 64.5508 43.5678 65.8318 44.5252L65.2027 45.1543C64.9325 45.4245 64.6489 45.6758 64.3605 45.9185C64.2739 45.9917 64.1844 46.0612 64.0959 46.1316C63.8846 46.3001 63.6686 46.459 63.4488 46.6122C63.345 46.6836 63.2442 46.7588 63.1385 46.8273C62.873 47.0015 62.5999 47.1633 62.3229 47.3165C62.3058 47.326 62.2906 47.3365 62.2734 47.346C62.1745 47.4012 62.0631 47.4545 61.9575 47.5087C61.7405 47.6191 61.5207 47.7228 61.298 47.8209C61.2085 47.8608 61.1267 47.8999 61.0315 47.9398C60.6346 48.1083 60.2064 48.2586 59.7534 48.389C59.6744 48.4128 59.5926 48.429 59.5126 48.4509C59.2766 48.5147 59.0406 48.5784 58.8008 48.6289C58.6523 48.6603 58.501 48.6841 58.3516 48.7097C58.1136 48.7507 57.8757 48.7878 57.6349 48.8154C57.5074 48.8306 57.3789 48.8458 57.2514 48.8563C56.8803 48.8877 56.5072 48.9106 56.1313 48.9106H55.2567V48.9096ZM62.794 49.8613C62.794 50.3866 62.3667 50.813 61.8423 50.813C61.3722 50.813 60.9811 50.4713 60.904 50.0221C60.9268 50.0145 60.9478 50.005 60.9696 49.9974C61.1019 49.9517 61.2276 49.9022 61.3551 49.8537C61.6634 49.7366 61.967 49.6091 62.2668 49.472C62.3686 49.4254 62.4752 49.3797 62.5713 49.3331C62.5866 49.3255 62.6037 49.3188 62.6189 49.3122C62.7312 49.4701 62.794 49.6614 62.794 49.8613ZM66.5655 50.4523C66.3133 52.5831 64.5813 54.319 62.4476 54.5826C61.0667 54.752 59.7296 54.3418 58.6932 53.4253C57.9033 52.7278 57.3742 51.7932 57.1734 50.7778C57.2923 50.7692 57.4084 50.7502 57.5264 50.7387C57.7701 50.7159 58.0147 50.694 58.2564 50.6588C58.5152 50.6217 58.7693 50.5703 59.0244 50.5199C59.0396 50.517 59.0539 50.5151 59.0691 50.5122C59.3651 51.7732 60.4928 52.7173 61.8423 52.7173C63.4164 52.7173 64.6974 51.4363 64.6974 49.8622C64.6974 49.3207 64.5423 48.804 64.2682 48.3605C64.3281 48.3205 64.3871 48.2777 64.4471 48.2368C64.606 48.1283 64.7659 48.0236 64.921 47.9084C65.2132 47.6905 65.4997 47.463 65.7766 47.2223C65.7823 47.2175 65.788 47.2137 65.7937 47.208C66.4256 48.1416 66.7035 49.2846 66.5655 50.4523Z" fill="#0C1248"/>
</svg>
