<svg width="20" height="20" viewBox="0 0 20 20" fill="none" xmlns="http://www.w3.org/2000/svg">
<g clip-path="url(#clip0)">
<path d="M15.9188 16.595C14.8352 16.595 13.9536 15.7134 13.9536 14.6298C13.9536 13.5461 14.8352 12.6646 15.9188 12.6646C17.0025 12.6646 17.8841 13.5461 17.8841 14.6298C17.8841 15.7134 17.0025 16.595 15.9188 16.595ZM15.9188 13.5539C15.3256 13.5539 14.8428 14.0367 14.8428 14.63C14.8428 15.2233 15.3256 15.7061 15.9188 15.7061C16.5121 15.7061 16.9949 15.2233 16.9949 14.63C16.9949 14.0367 16.5121 13.5539 15.9188 13.5539Z" fill="#D03737" stroke="#D03737" stroke-width="0.2"/>
<path d="M4.16884 16.595C3.0852 16.595 2.20361 15.7134 2.20361 14.6298C2.20361 13.5461 3.0852 12.6646 4.16884 12.6646C5.25248 12.6646 6.13407 13.5461 6.13407 14.6298C6.13407 15.7134 5.25248 16.595 4.16884 16.595ZM4.16884 13.5539C3.57556 13.5539 3.09276 14.0367 3.09276 14.63C3.09276 15.2233 3.57556 15.7061 4.16884 15.7061C4.76212 15.7061 5.24493 15.2233 5.24493 14.63C5.24493 14.0367 4.76234 13.5539 4.16884 13.5539Z" fill="#D03737" stroke="#D03737" stroke-width="0.2"/>
<path d="M18.9235 15.1415H17.4396C17.1942 15.1415 16.995 14.9424 16.995 14.697C16.995 14.4516 17.1942 14.2524 17.4396 14.2524H18.9235C18.9687 14.2524 19.0056 14.2155 19.0056 14.1704V12.2878C19.0056 12.1789 18.928 12.0842 18.8213 12.0624L15.1024 11.308C14.8617 11.2591 14.7063 11.0246 14.755 10.7841C14.8037 10.5436 15.0391 10.388 15.2789 10.4366L18.998 11.1911C19.5177 11.2967 19.8947 11.7579 19.8947 12.2878V14.1704C19.8947 14.7059 19.459 15.1415 18.9235 15.1415Z" fill="#D03737" stroke="#D03737" stroke-width="0.2"/>
<path d="M14.4004 15.1416H5.68676C5.44136 15.1416 5.24219 14.9424 5.24219 14.697C5.24219 14.4516 5.44136 14.2524 5.68676 14.2524H14.4004C14.6458 14.2524 14.8449 14.4516 14.8449 14.697C14.8449 14.9424 14.646 15.1416 14.4004 15.1416Z" fill="#D03737" stroke="#D03737" stroke-width="0.2"/>
<path d="M2.6479 15.0747C2.59522 15.0747 2.54165 15.0651 2.48941 15.0451L0.174754 14.1618C0.00248213 14.096 -0.111328 13.9308 -0.111328 13.7465V11.3307C-0.111328 10.8446 0.236993 10.4374 0.717131 10.3625L2.91598 10.0175L3.99985 8.97095C4.49154 8.49614 5.10416 8.16605 5.77102 8.01667C6.01086 7.9631 6.24826 8.11381 6.30206 8.35321C6.35563 8.59284 6.20492 8.83046 5.96552 8.88425C5.45782 8.99806 4.99168 9.24925 4.61736 9.61046L3.43235 10.7546C3.36655 10.8181 3.28275 10.8599 3.1925 10.8739L0.854725 11.2405C0.810268 11.2476 0.777815 11.2856 0.777815 11.3307V13.4404L2.80639 14.2147C3.03579 14.3023 3.15071 14.5592 3.06313 14.7884C2.99556 14.9658 2.82684 15.0747 2.6479 15.0747Z" fill="#D03737" stroke="#D03737" stroke-width="0.2"/>
<path d="M15.1903 11.3173C15.095 11.3173 14.9991 11.2868 14.918 11.2242L13.2391 9.92246C13.045 9.77197 13.0097 9.49278 13.1602 9.29873C13.3109 9.10445 13.5903 9.06933 13.7841 9.21982L15.4631 10.5213C15.6571 10.6718 15.6925 10.9512 15.542 11.1453C15.4542 11.2582 15.323 11.3173 15.1903 11.3173Z" fill="#D03737" stroke="#D03737" stroke-width="0.2"/>
<path d="M9.89159 11.7978C9.83958 11.7978 9.78778 11.7887 9.73821 11.7705C7.68074 11.014 6.29834 8.88677 6.29834 6.47719V4.95809C6.29834 4.76093 6.42793 4.58754 6.6171 4.53175C7.10502 4.38793 7.49779 3.99515 7.64161 3.50723C7.69741 3.31807 7.87101 3.18848 8.06796 3.18848H11.715C11.9122 3.18848 12.0856 3.31807 12.1413 3.50723C12.2854 3.99515 12.6779 4.38793 13.1661 4.53175C13.355 4.58754 13.4848 4.76115 13.4848 4.95809V6.47719C13.4848 8.88677 12.1024 11.014 10.045 11.7705C9.9954 11.7887 9.94361 11.7978 9.89159 11.7978ZM7.18726 5.26551V6.47719C7.18726 8.42219 8.29136 10.2047 9.89159 10.8758C11.4916 10.2047 12.5957 8.42242 12.5957 6.47719V5.26551C12.0682 5.02545 11.6474 4.60466 11.4074 4.07717H8.3756C8.13576 4.60488 7.71497 5.02567 7.18726 5.26551Z" fill="#D03737" stroke="#D03737" stroke-width="0.2"/>
<path d="M9.37731 8.89474C9.37331 8.89474 9.36953 8.89474 9.36553 8.89474C9.23394 8.89118 9.11057 8.82961 9.02877 8.72647L8.13429 7.59792C7.9818 7.40542 8.01403 7.12579 8.20653 6.9733C8.39881 6.82037 8.67845 6.85304 8.83116 7.04554L9.39554 7.75752L10.9669 5.97657C11.1291 5.79274 11.4103 5.77473 11.5944 5.93745C11.7784 6.09971 11.796 6.38091 11.6337 6.56496L9.71052 8.74447C9.62605 8.84005 9.50446 8.89474 9.37731 8.89474Z" fill="#D03737" stroke="#D03737" stroke-width="0.2"/>
</g>
<defs>
<clipPath id="clip0">
<rect width="20" height="20" fill="white"/>
</clipPath>
</defs>
</svg>
