<svg width="151" height="152" viewBox="0 0 151 152" fill="none" xmlns="http://www.w3.org/2000/svg">
<path d="M145.964 92.4316C130.087 68.1208 131.775 43.2013 124.122 31.4846C116.468 19.7679 93.6606 -0.433032 39.7704 34.7675C-14.1197 69.968 -0.413166 108.233 8.00809 121.117C47.4192 181.451 174.087 135.487 145.964 92.4316Z" fill="#CCD4EB" fill-opacity="0.5"/>
<path d="M107.678 52.39C107.678 52.39 111.238 5.76495 76.8641 2.38335C42.4926 -0.998239 43.1432 32.2882 43.1432 32.2882L49.1994 31.98C49.1994 31.98 46.7507 7.98105 70.4644 6.30566C94.6054 4.59946 101.697 24.5948 101.248 52.39H107.678Z" fill="#0C1248" fill-opacity="0.7"/>
<path d="M107.678 54.5417H101.251C100.676 54.5417 100.125 54.3092 99.7234 53.9001C99.3213 53.4883 99.098 52.9336 99.1091 52.3564C99.2571 43.2454 98.5535 35.4765 97.0206 29.2596C95.3732 22.5777 92.7067 17.4506 89.102 14.0242C84.5732 9.71808 78.5254 7.89421 70.618 8.45454C64.2714 8.9028 59.3935 11.1077 56.1239 15.0076C50.3944 21.8436 51.3214 31.6662 51.3326 31.7643C51.3912 32.3498 51.2097 32.9354 50.8272 33.3836C50.4446 33.8319 49.8974 34.1009 49.3082 34.1317L43.2521 34.4399C42.6685 34.4707 42.1073 34.2634 41.6829 33.8655C41.2585 33.4677 41.0127 32.9158 41.0016 32.3358C40.9904 31.7082 40.8173 16.8651 50.9919 7.42353C57.2882 1.58208 66.064 -0.830134 77.0734 0.251303C92.0785 1.72777 102.504 11.3486 107.223 28.0773C110.694 40.3822 109.853 52.0706 109.814 52.5609C109.728 53.676 108.798 54.5417 107.678 54.5417ZM103.412 50.2412H105.62C105.699 46.4673 105.545 37.8551 103.071 29.1419C100.357 19.5827 95.7725 12.7523 89.3841 8.71229C90.3194 9.37348 91.2073 10.1019 92.0478 10.9032C99.7234 18.1959 103.448 31.0779 103.412 50.2412ZM63.7409 5.29708C59.9045 6.30007 56.6265 8.0539 53.9265 10.553C47.3146 16.6718 45.7594 25.836 45.3964 30.0216L46.9852 29.9404C46.9991 26.1498 47.7251 18.3472 52.8459 12.2368C55.6269 8.91961 59.279 6.59704 63.7409 5.29708Z" fill="#0C1248"/>
<path d="M105.991 117H45.009C37.8541 117 32 111.163 32 104.028V55.9716C32 48.8372 37.8541 43 45.009 43H105.991C113.146 43 119 48.8372 119 55.9716V104.028C119 111.163 113.146 117 105.991 117Z" fill="#0C1248" fill-opacity="0.7"/>
<path d="M103.455 117H47.5451C40.6453 117 35 111.163 35 104.028V55.9716C35 48.8372 40.6453 43 47.5451 43H103.455C110.355 43 116 48.8372 116 55.9716V104.028C116.003 111.163 110.355 117 103.455 117Z" fill="#0C1248"/>
<path d="M76.2054 102.383C87.6167 102.383 96.8674 93.1006 96.8674 81.6505C96.8674 70.2004 87.6167 60.9183 76.2054 60.9183C64.7941 60.9183 55.5435 70.2004 55.5435 81.6505C55.5435 93.1006 64.7941 102.383 76.2054 102.383Z" fill="#6C7399"/>
<path d="M73.6619 102.383C85.0732 102.383 94.3239 93.1006 94.3239 81.6505C94.3239 70.2004 85.0732 60.9183 73.6619 60.9183C62.2507 60.9183 53 70.2004 53 81.6505C53 93.1006 62.2507 102.383 73.6619 102.383Z" fill="white"/>
<path d="M120.002 30.8834L121.152 30.2836C121.412 30.1477 121.717 30.3673 121.667 30.6551L121.448 31.9255C121.428 32.0399 121.466 32.1564 121.55 32.2375L122.481 33.1372C122.692 33.3409 122.575 33.6965 122.283 33.7383L120.997 33.9239C120.882 33.9407 120.782 34.0128 120.73 34.1168L120.155 35.2728C120.024 35.5348 119.648 35.5348 119.517 35.2728L118.942 34.1168C118.891 34.0128 118.791 33.9407 118.675 33.9239L117.389 33.7383C117.097 33.6965 116.981 33.3413 117.192 33.1372L118.122 32.2375C118.206 32.1564 118.244 32.0399 118.225 31.9255L118.005 30.6551C117.955 30.3673 118.26 30.1477 118.52 30.2836L119.671 30.8834C119.775 30.9373 119.898 30.9373 120.002 30.8834Z" fill="#0C1248"/>
<path d="M26.4339 122.653C24.7477 122.653 23.376 121.293 23.376 119.62C23.376 117.948 24.7477 116.587 26.4339 116.587C28.1201 116.587 29.4922 117.948 29.4922 119.62C29.4922 121.293 28.1205 122.653 26.4339 122.653ZM26.4339 117.421C25.2114 117.421 24.2173 118.408 24.2173 119.62C24.2173 120.833 25.2118 121.819 26.4339 121.819C27.6559 121.819 28.6508 120.832 28.6508 119.62C28.6508 118.408 27.6563 117.421 26.4339 117.421Z" fill="#0C1248"/>
<path d="M27.5351 120.712C28.1433 120.109 28.1433 119.131 27.5351 118.527C26.9269 117.924 25.9408 117.924 25.3326 118.527C24.7244 119.131 24.7244 120.109 25.3326 120.712C25.9408 121.315 26.9269 121.315 27.5351 120.712Z" fill="#0C1248"/>
<path d="M89.6618 137.742C90.4381 137.742 91.0675 137.118 91.0675 136.348C91.0675 135.578 90.4381 134.954 89.6618 134.954C88.8855 134.954 88.2562 135.578 88.2562 136.348C88.2562 137.118 88.8855 137.742 89.6618 137.742Z" fill="#0C1248"/>
<path d="M66.3296 26.9932C67.1059 26.9932 67.7352 26.369 67.7352 25.599C67.7352 24.829 67.1059 24.2048 66.3296 24.2048C65.5533 24.2048 64.924 24.829 64.924 25.599C64.924 26.369 65.5533 26.9932 66.3296 26.9932Z" fill="#0C1248"/>
</svg>
