<svg width="28" height="28" viewBox="0 0 28 28" fill="none" xmlns="http://www.w3.org/2000/svg">
<path d="M17.5 9.33337H17.51" stroke="#121212" stroke-linecap="round" stroke-linejoin="round"/>
<path d="M19.8333 4.66663H8.16663C6.23363 4.66663 4.66663 6.23363 4.66663 8.16663V19.8333C4.66663 21.7663 6.23363 23.3333 8.16663 23.3333H19.8333C21.7663 23.3333 23.3333 21.7663 23.3333 19.8333V8.16663C23.3333 6.23363 21.7663 4.66663 19.8333 4.66663Z" stroke="#121212" stroke-linecap="round" stroke-linejoin="round"/>
<path d="M4.66663 17.4999L9.33329 12.8333C9.86536 12.3213 10.4689 12.0518 11.0833 12.0518C11.6977 12.0518 12.3012 12.3213 12.8333 12.8333L18.6666 18.6666" stroke="#121212" stroke-linecap="round" stroke-linejoin="round"/>
<path d="M16.3334 16.3333L17.5 15.1667C18.0321 14.6547 18.6357 14.3851 19.25 14.3851C19.8644 14.3851 20.468 14.6547 21 15.1667L23.3334 17.5" stroke="#121212" stroke-linecap="round" stroke-linejoin="round"/>
</svg>
