<svg width="16" height="23" viewBox="0 0 16 23" fill="none" xmlns="http://www.w3.org/2000/svg">
<path d="M13.704 3.4647C13.6357 2.15063 11.0628 1.3418 8.72064 1.3418C6.37847 1.3418 3.80554 2.15063 3.7373 3.4647" stroke="#D03737" stroke-miterlimit="10" stroke-linecap="round" stroke-linejoin="round"/>
<path d="M3.7373 3.6416V8.78057C3.7373 8.78057 5.6302 8.2416 8.72064 8.2416C11.8111 8.2416 13.704 8.78057 13.704 8.78057V3.6416H3.7373Z" stroke="#D03737" stroke-miterlimit="10" stroke-linecap="round" stroke-linejoin="round"/>
<path d="M8.7208 7.0915C9.35593 7.0915 9.8708 6.57663 9.8708 5.9415C9.8708 5.30638 9.35593 4.7915 8.7208 4.7915C8.08567 4.7915 7.5708 5.30638 7.5708 5.9415C7.5708 6.57663 8.08567 7.0915 8.7208 7.0915Z" stroke="#D03737" stroke-miterlimit="10" stroke-linecap="round" stroke-linejoin="round"/>
<path d="M10.61 16.3974C10.5973 17.3218 10.0322 18.1329 9.1691 18.4642C8.90374 18.566 8.62269 18.6157 8.33387 18.6124C7.09619 18.5958 6.1023 17.5749 6.11834 16.3369C6.1312 15.4121 6.69619 14.6006 7.55852 14.2696C7.82389 14.1677 8.10532 14.1179 8.3948 14.1219C8.99584 14.1296 9.55702 14.3707 9.97453 14.7998C10.3924 15.2288 10.6181 15.7962 10.61 16.3974Z" stroke="#D03737" stroke-miterlimit="10" stroke-linecap="round" stroke-linejoin="round"/>
<path d="M12.1587 13.6708L12.1588 13.6708C12.8178 13.6816 13.3453 14.2241 13.3354 14.8809L12.1587 13.6708ZM12.1587 13.6708L11.6347 13.6637M12.1587 13.6708L11.6347 13.6637M10.0179 8.28043C10.0184 8.28065 10.0189 8.28087 10.0194 8.28108C10.0327 8.28641 10.0507 8.28817 10.0685 8.27895C10.0841 8.27087 10.0924 8.25789 10.0967 8.24921C10.1012 8.24005 10.104 8.23013 10.1059 8.22085C10.1098 8.20217 10.1118 8.17759 10.1124 8.14686L10.1138 8.07516L10.046 8.09867C10.0378 8.10153 10.0275 8.10415 10.0153 8.10652C10.0149 8.10606 10.0146 8.10561 10.0142 8.10516C10.0123 8.1027 10.0093 8.09911 10.0052 8.09558C10.0018 8.09264 9.99342 8.08597 9.98074 8.0833C9.96451 8.07987 9.94727 8.08433 9.93461 8.09617C9.92645 8.10381 9.92252 8.11237 9.92063 8.11772C9.89524 8.11952 9.86713 8.12086 9.83668 8.12175C9.7401 8.12455 9.62704 8.12264 9.51876 8.11878C9.41061 8.11494 9.30787 8.10918 9.23212 8.10438C9.19426 8.10199 9.16318 8.09983 9.14159 8.09827L9.11666 8.09644L9.11016 8.09594L9.10852 8.09581L9.10812 8.09578L9.10802 8.09577L9.108 8.09577L9.10407 8.14562L9.10799 8.09577L9.0557 8.09165L9.05409 8.14409C9.02337 9.14621 9.10807 10.2369 9.31757 11.218C9.52654 12.1965 9.86085 13.0716 10.3335 13.6395C10.3594 13.6786 10.3913 13.7126 10.4276 13.742L10.4279 13.7423C10.6581 13.9264 10.8636 14.1419 11.0395 14.3838C11.124 14.5007 11.2585 14.57 11.4021 14.5719L11.4021 14.5719L12.1452 14.5815C12.1452 14.5815 12.1452 14.5815 12.1452 14.5815C12.3021 14.5842 12.4268 14.7121 12.4244 14.8677L12.4243 14.8678L12.3846 17.8598C12.3846 17.8598 12.3846 17.8599 12.3846 17.86C12.3818 18.0127 12.2527 18.1413 12.0984 18.1389L12.0983 18.1389L11.3491 18.129L11.3491 18.129C11.2051 18.1272 11.0697 18.1928 10.9818 18.3065L10.9817 18.3067C10.343 19.1377 9.35913 19.6106 8.33584 19.5967L8.33581 19.5967C7.29144 19.583 6.33891 19.0873 5.72093 18.2367C5.72092 18.2367 5.72091 18.2367 5.72089 18.2366L5.68044 18.266C5.60546 18.1623 5.48562 18.1002 5.3577 18.0985L4.60112 18.0884C4.41838 18.0864 4.27117 17.9349 4.27365 17.7524M10.0179 8.28043L4.27365 17.7524M10.0179 8.28043C10.0291 9.15476 10.102 10.1161 10.2583 10.9702C10.4228 11.8688 10.6781 12.6393 11.0436 13.0686C11.2596 13.2463 11.4575 13.4456 11.6347 13.6637M10.0179 8.28043L11.6347 13.6637M4.27365 17.7524L4.32365 17.753L4.36409 14.7593L4.36409 14.7593C4.36565 14.6432 4.43673 14.5414 4.54526 14.4998C4.57836 14.4871 4.61281 14.4811 4.65004 14.4814M4.27365 17.7524L4.65004 14.4814M4.65004 14.4814C4.65008 14.4814 4.65013 14.4814 4.65018 14.4814L5.40961 14.4916L5.40961 14.4916C5.55343 14.4936 5.68934 14.4272 5.77721 14.3136L5.77728 14.3135C5.96374 14.0713 6.17421 13.8605 6.40279 13.6882C6.45147 13.6517 6.49089 13.6064 6.52082 13.5555C6.99221 12.9131 7.29859 12.0343 7.49415 11.1199C7.69011 10.2035 7.77571 9.247 7.80286 8.44723L7.80558 8.36706L7.73241 8.39992C7.44552 8.52876 7.17612 8.65567 6.9253 8.77894L6.89774 8.79248L6.89735 8.82318C6.89662 8.88105 6.89563 8.9356 6.89405 8.97944C6.87978 9.29716 6.83161 9.99506 6.67249 10.7697C6.51359 11.5433 6.24511 12.388 5.79343 13.0077C5.58153 13.174 5.38318 13.3653 5.20185 13.5774L4.66324 13.5694L4.6632 13.5694C4.51049 13.5673 4.36119 13.5942 4.21941 13.6486C3.76163 13.8244 3.46033 14.2552 3.45363 14.7455L3.45363 14.7455L3.41324 17.7405L3.41324 17.7406C3.40546 18.3981 3.93397 18.9404 4.59038 18.9483L4.65004 14.4814ZM5.73766 14.283C5.65929 14.3843 5.5382 14.4434 5.41028 14.4416L5.73766 14.283ZM5.73766 14.283C5.92665 14.0376 6.14026 13.8235 6.37269 13.6483L5.73766 14.283ZM13.2957 17.8731L13.3354 14.881L4.59047 18.9483L5.12621 18.9557C5.91445 19.9281 7.06724 20.4904 8.32421 20.5072C8.86141 20.5154 9.38687 20.4219 9.88454 20.2308C10.5263 19.9845 11.1002 19.5758 11.5574 19.0434L12.0859 19.0501C12.2391 19.0525 12.3886 19.0259 12.5305 18.9715C12.988 18.7959 13.2885 18.3644 13.2957 17.8732L13.2957 17.8731Z" fill="#D03737" stroke="#D03737" stroke-width="0.1"/>
</svg>
