<svg width="20" height="20" viewBox="0 0 20 20" fill="none" xmlns="http://www.w3.org/2000/svg">
<g clip-path="url(#clip0)">
<path d="M19.6093 15.358C19.2358 15.142 18.7573 15.2695 18.5411 15.6436C18.0476 16.4973 17.1295 17.0275 16.1456 17.0275C15.1613 17.0275 14.2431 16.4971 13.7496 15.6436C13.6098 15.4019 13.3518 15.2531 13.0726 15.2531C12.7935 15.2531 12.5355 15.402 12.3958 15.6438C11.9027 16.4974 10.9848 17.0275 10.0006 17.0275C9.01658 17.0275 8.09847 16.497 7.60444 15.6434C7.46465 15.4018 7.20642 15.2531 6.92735 15.2531C6.64818 15.2531 6.39027 15.4019 6.25047 15.6436C5.75686 16.4973 4.83896 17.0275 3.85486 17.0275C2.87056 17.0275 1.95245 16.4971 1.45883 15.6436C1.24273 15.2696 0.764337 15.1422 0.390609 15.358C0.0167767 15.5742 -0.111031 16.0524 0.105179 16.4263C0.877341 17.7616 2.31408 18.5913 3.85486 18.5913C5.0191 18.5913 6.12402 18.1175 6.92767 17.3095C7.73152 18.1175 8.83644 18.5913 10.0006 18.5913C11.1648 18.5913 12.2695 18.1177 13.0729 17.31C13.8765 18.1176 14.9814 18.5913 16.1457 18.5913C17.6861 18.5913 19.1229 17.7617 19.895 16.4263C20.111 16.0524 19.9831 15.5742 19.6093 15.358Z" fill="#D03737"/>
<path d="M13.7494 12.025C13.5333 11.651 13.0547 11.5233 12.6812 11.7395C12.3074 11.9556 12.1795 12.4339 12.3957 12.8077C13.1677 14.1431 14.6047 14.9727 16.1455 14.9727C17.686 14.9727 19.1227 14.1431 19.8948 12.8077C20.111 12.4339 19.9831 11.9556 19.6093 11.7395C19.2355 11.5234 18.7572 11.6512 18.5411 12.025C18.0476 12.8786 17.1297 13.4089 16.1456 13.4089C15.1611 13.409 14.2431 12.8787 13.7494 12.025Z" fill="#D03737"/>
<path d="M3.85528 14.9727C5.39574 14.9727 6.83248 14.1432 7.60475 12.8078C7.82096 12.4339 7.69315 11.9557 7.31942 11.7396C6.94569 11.5236 6.4673 11.6511 6.2512 12.0249C5.75748 12.8786 4.83937 13.4089 3.85538 13.4089C2.87107 13.4089 1.95297 12.8786 1.45935 12.025C1.24314 11.6511 0.76496 11.5232 0.391128 11.7395C0.0172964 11.9556 -0.110511 12.4338 0.105594 12.8077C0.877652 14.1431 2.31439 14.9727 3.85528 14.9727Z" fill="#D03737"/>
<path d="M10.018 16.1605C11.1634 16.1605 12.0919 15.2319 12.0919 14.0863C12.0919 13.2178 11.5574 12.4749 10.7997 12.166V10.5418H13.4554C13.8873 10.5418 14.2373 10.1919 14.2373 9.75996C14.2373 9.32807 13.8873 8.97811 13.4554 8.97811H10.7997V7.64718H13.4554C13.8873 7.64718 14.2373 7.29722 14.2373 6.86532C14.2373 6.43342 13.8873 6.08347 13.4554 6.08347H10.7997V4.75233H13.4554C13.8873 4.75233 14.2373 4.40237 14.2373 3.97047C14.2373 3.53857 13.8873 3.18861 13.4554 3.18861H10.7997V2.19055C10.7997 1.75865 10.4498 1.40869 10.018 1.40869C9.58617 1.40869 9.2361 1.75865 9.2361 2.19055V12.166C8.47833 12.4749 7.94385 13.2178 7.94385 14.0863C7.94374 15.2319 8.87249 16.1605 10.018 16.1605Z" fill="#D03737"/>
</g>
<defs>
<clipPath id="clip0">
<rect width="20" height="20" fill="white"/>
</clipPath>
</defs>
</svg>
