<?xml version="1.0" encoding="utf-8"?>
<svg version="1.1" id="Layer_1" xmlns="http://www.w3.org/2000/svg" xmlns:xlink="http://www.w3.org/1999/xlink" x="0px" y="0px"
	 viewBox="0 0 21.1 21.5" enable-background="new 0 0 21.1 21.5" xml:space="preserve">
<line fill="none" stroke="#0C1248" stroke-width="0.75" stroke-miterlimit="10" x1="16.5" y1="10.3" x2="16.5" y2="21.1"/>
<line fill="none" stroke="#0C1248" stroke-width="0.75" stroke-miterlimit="10" x1="7.9" y1="4.7" x2="10.1" y2="9.6"/>
<line fill="none" stroke="#0C1248" stroke-width="0.75" stroke-miterlimit="10" x1="4.4" y1="8.3" x2="9.4" y2="10.5"/>
<line fill="none" stroke="#0C1248" stroke-width="0.75" stroke-miterlimit="10" x1="12" y1="11.3" x2="13.9" y2="12.1"/>
<line fill="none" stroke="#0C1248" stroke-width="0.75" stroke-miterlimit="10" x1="4.5" y1="13.7" x2="9.2" y2="11.5"/>
<line fill="none" stroke="#0C1248" stroke-width="0.75" stroke-miterlimit="10" x1="11.9" y1="10.5" x2="13.9" y2="9.6"/>
<line fill="none" stroke="#0C1248" stroke-width="0.75" stroke-miterlimit="10" x1="7.9" y1="17" x2="10.1" y2="12.3"/>
<line fill="none" stroke="#0C1248" stroke-width="0.75" stroke-miterlimit="10" x1="11.3" y1="9.6" x2="12.5" y2="7"/>
<line fill="none" stroke="#0C1248" stroke-width="0.75" stroke-miterlimit="10" x1="11" y1="12" x2="13.3" y2="16.9"/>
<path fill="none" stroke="#0C1248" stroke-width="0.75" stroke-miterlimit="10" d="M13.9,20.3c-1,0.4-2.1,0.6-3.3,0.6
	c-5.5,0-10-4.5-10-10s4.5-10,10-10s10,4.5,10,10c0,2.5-1.2,4.7-2.7,6.5"/>
<path fill="none" stroke="#0C1248" stroke-width="0.75" stroke-miterlimit="10" d="M2.1,10.9c0-4.7,3.8-8.5,8.5-8.5"/>
<path fill="none" stroke="#0C1248" stroke-width="0.75" stroke-miterlimit="10" d="M13.9,16.5c-1,0.6-2.2,0.9-3.4,0.9
	c-3.7,0-6.7-3-6.7-6.7s3-6.7,6.7-6.7c0.2,0,0.4,0,0.6,0"/>
<circle fill="none" stroke="#0C1248" stroke-width="0.75" stroke-miterlimit="10" cx="10.5" cy="10.8" r="1.5"/>
<line fill="none" stroke="#0C1248" stroke-width="0.75" stroke-miterlimit="10" x1="7.4" y1="6.6" x2="6.7" y2="7.3"/>
<line fill="none" stroke="#0C1248" stroke-width="0.75" stroke-miterlimit="10" x1="6.3" y1="14.1" x2="7.1" y2="14.9"/>
<polygon fill="#FFFFFF" points="16.9,4.5 17.9,3.2 18.1,1.6 20.4,4 20.4,6 18.6,7.5 "/>
<polyline fill="none" stroke="#0C1248" stroke-width="0.75" stroke-miterlimit="10" points="13.9,20.8 13.9,8.4 11.3,5.8 11.3,3.9 
	14,1.1 14,3.4 15.9,5.3 17.8,3.4 17.8,1.1 20.4,3.7 20.4,5.8 17.8,8.4 17.8,20.8 "/>
<line fill="none" stroke="#0C1248" stroke-width="0.75" stroke-miterlimit="10" x1="19.6" y1="4.7" x2="17" y2="7.3"/>
</svg>
