<svg width="22" height="22" viewBox="0 0 22 22" fill="none" xmlns="http://www.w3.org/2000/svg">
<path d="M5.50008 19.2499C6.5126 19.2499 7.33342 18.4291 7.33342 17.4166C7.33342 16.4041 6.5126 15.5833 5.50008 15.5833C4.48756 15.5833 3.66675 16.4041 3.66675 17.4166C3.66675 18.4291 4.48756 19.2499 5.50008 19.2499Z" stroke="#0C1248" stroke-width="1.5" stroke-linecap="round" stroke-linejoin="round"/>
<path d="M15.5833 19.2499C16.5959 19.2499 17.4167 18.4291 17.4167 17.4166C17.4167 16.4041 16.5959 15.5833 15.5833 15.5833C14.5708 15.5833 13.75 16.4041 13.75 17.4166C13.75 18.4291 14.5708 19.2499 15.5833 19.2499Z" stroke="#0C1248" stroke-width="1.5" stroke-linecap="round" stroke-linejoin="round"/>
<path d="M15.5834 15.5833H5.50008V2.75H3.66675" stroke="#0C1248" stroke-width="1.5" stroke-linecap="round" stroke-linejoin="round"/>
<path d="M5.5 4.58325L18.3333 5.49992L17.4167 11.9166H5.5" stroke="#0C1248" stroke-width="1.5" stroke-linecap="round" stroke-linejoin="round"/>
</svg>
