<svg width="238" height="109" viewBox="0 0 238 109" fill="none" xmlns="http://www.w3.org/2000/svg">
<path d="M93.27 57.8199V26.7199H63.55C62.4459 26.7014 61.3739 27.0913 60.5397 27.8147C59.7055 28.5382 59.1678 29.5443 59.0299 30.6399C58.97 31.245 59.0373 31.856 59.2275 32.4336C59.4176 33.0111 59.7265 33.5425 60.1343 33.9936C60.5421 34.4447 61.0397 34.8056 61.5953 35.0529C62.1508 35.3002 62.7519 35.4287 63.36 35.4299H77.95C78.6449 35.4134 79.3238 35.6387 79.871 36.0673C80.4182 36.496 80.7996 37.1013 80.95 37.7799C81.0358 38.2064 81.0259 38.6467 80.921 39.0689C80.8161 39.4912 80.6187 39.8849 80.3432 40.2216C80.0677 40.5583 79.7208 40.8297 79.3277 41.0162C78.9346 41.2027 78.5051 41.2995 78.07 41.2999H71.07C69.9638 41.2794 68.8893 41.6699 68.0544 42.3959C67.2195 43.1218 66.6834 44.1316 66.55 45.2299C66.4899 45.8345 66.5572 46.445 66.7475 47.0221C66.9378 47.5992 67.2468 48.13 67.6548 48.5803C68.0627 49.0306 68.5604 49.3905 69.1159 49.6367C69.6714 49.8829 70.2724 50.0101 70.88 50.0099H78.37C79.0028 49.9967 79.6185 50.2166 80.0997 50.6278C80.581 51.039 80.8942 51.6127 80.98 52.2399C81.0164 52.5859 80.9797 52.9357 80.8722 53.2666C80.7646 53.5974 80.5886 53.902 80.3557 54.1604C80.1227 54.4188 79.838 54.6253 79.52 54.7665C79.202 54.9077 78.8579 54.9804 78.51 54.9799H71.02C69.9138 54.9594 68.8393 55.3499 68.0044 56.0759C67.1695 56.8018 66.6334 57.8116 66.5 58.9099C66.4399 59.5145 66.5072 60.125 66.6975 60.7021C66.8878 61.2792 67.1968 61.81 67.6048 62.2603C68.0127 62.7106 68.5105 63.0705 69.066 63.3167C69.6215 63.5629 70.2224 63.6901 70.83 63.6899H83.49C84.2521 63.6925 84.982 63.9971 85.52 64.5369C86.0579 65.0767 86.36 65.8078 86.36 66.5699C86.3573 67.3302 86.0541 68.0587 85.5165 68.5964C84.9788 69.134 84.2503 69.4372 83.49 69.4399H57.1599C56.0544 69.4216 54.9811 69.813 54.1467 70.5385C53.3122 71.264 52.7756 72.2725 52.64 73.3699C52.5798 73.9754 52.6474 74.5867 52.8382 75.1645C53.0291 75.7422 53.3391 76.2735 53.7481 76.724C54.1571 77.1745 54.6561 77.5341 55.2128 77.7798C55.7695 78.0254 56.3715 78.1515 56.98 78.1499H103.07C103.749 78.1387 104.41 78.3627 104.942 78.7837C105.474 79.2048 105.845 79.797 105.99 80.4599C106.075 80.8772 106.065 81.3082 105.963 81.7215C105.86 82.1348 105.667 82.5201 105.397 82.8494C105.127 83.1787 104.787 83.4438 104.402 83.6255C104.017 83.8072 103.596 83.9009 103.17 83.8999H85.54C84.4332 83.8814 83.3587 84.2723 82.5226 84.9977C81.6865 85.723 81.1479 86.7316 81.01 87.8299C80.9514 88.435 81.0201 89.0458 81.2115 89.6229C81.403 90.1999 81.713 90.7306 82.1217 91.1807C82.5304 91.6309 83.0287 91.9905 83.5847 92.2366C84.1406 92.4828 84.7419 92.6099 85.3499 92.6099H120.1V57.8199H93.27Z" fill="#4976BA"/>
<path d="M126.3 64.1597H119.2V108.22H126.3V64.1597Z" fill="#375895"/>
<path d="M122.75 108.21V78.2097C122.75 77.6103 122.988 77.0354 123.412 76.6116C123.835 76.1878 124.41 75.9497 125.01 75.9497H126.3V64.1597H119.2V108.21H122.75Z" fill="#0C1248"/>
<path d="M155.6 61.9497V16.8896H104.43C98.8029 16.8923 93.407 19.1288 89.428 23.1078C85.4491 27.0867 83.2126 32.4826 83.21 38.1096V59.3796C83.2107 60.2962 83.4782 61.1926 83.9799 61.9596L155.6 61.9497Z" fill="#CDDFFA"/>
<path d="M83.7499 33.4399C83.3976 34.9718 83.2165 36.5381 83.21 38.1099V59.3799C83.2126 60.6495 83.7181 61.8663 84.6158 62.7641C85.5135 63.6618 86.7304 64.1673 87.9999 64.1699H155.6V33.4399H83.7499Z" fill="#B9D1EF"/>
<path d="M155.6 61.82V52.27H83.21V59.38C83.2163 60.2451 83.4583 61.0921 83.9099 61.83L155.6 61.82Z" fill="#A7C2DF"/>
<path d="M154.1 16.8999H157.1C162.33 16.8999 167.346 18.9775 171.044 22.6758C174.742 26.374 176.82 31.3898 176.82 36.6199V61.8199H134.38V36.6199C134.38 31.3898 136.458 26.374 140.156 22.6758C143.854 18.9775 148.87 16.8999 154.1 16.8999Z" fill="#0C1248"/>
<path d="M176.82 60.3799H62.6899C62.909 61.4599 63.4945 62.4311 64.3473 63.129C65.2001 63.827 66.2679 64.2088 67.3699 64.2099H176.82V60.3799Z" fill="#0C1248"/>
<path d="M180.05 17.3597C181.475 17.3597 182.63 16.2046 182.63 14.7797C182.63 13.3548 181.475 12.1997 180.05 12.1997C178.625 12.1997 177.47 13.3548 177.47 14.7797C177.47 16.2046 178.625 17.3597 180.05 17.3597Z" stroke="#0C1248" stroke-width="1.5" stroke-linecap="round" stroke-linejoin="round"/>
<path d="M54.2001 64.3797C55.625 64.3797 56.7801 63.2246 56.7801 61.7997C56.7801 60.3748 55.625 59.2197 54.2001 59.2197C52.7752 59.2197 51.6201 60.3748 51.6201 61.7997C51.6201 63.2246 52.7752 64.3797 54.2001 64.3797Z" stroke="#0C1248" stroke-width="1.5" stroke-linecap="round" stroke-linejoin="round"/>
<path d="M89.7798 4.57959V10.6696" stroke="#0C1248" stroke-width="1.5" stroke-linecap="round" stroke-linejoin="round"/>
<path d="M92.83 7.61963H86.73" stroke="#0C1248" stroke-width="1.5" stroke-linecap="round" stroke-linejoin="round"/>
<path d="M155.6 72.8896V78.9896" stroke="#0C1248" stroke-width="1.5" stroke-linecap="round" stroke-linejoin="round"/>
<path d="M158.65 75.9399H152.55" stroke="#0C1248" stroke-width="1.5" stroke-linecap="round" stroke-linejoin="round"/>
<path d="M129.66 23.8696H100.01C98.8393 23.8696 97.8901 24.8188 97.8901 25.9896V26.3196C97.8901 27.4905 98.8393 28.4396 100.01 28.4396H129.66C130.831 28.4396 131.78 27.4905 131.78 26.3196V25.9896C131.78 24.8188 130.831 23.8696 129.66 23.8696Z" fill="#EDF4FF"/>
<path d="M120.74 39.0297C119.763 39.0395 118.811 39.3382 118.004 39.8881C117.196 40.438 116.569 41.2144 116.202 42.1198C115.835 43.0251 115.745 44.0188 115.941 44.9756C116.138 45.9325 116.613 46.8099 117.307 47.4971C118.002 48.1844 118.884 48.6509 119.842 48.8379C120.801 49.0249 121.794 48.924 122.695 48.5479C123.597 48.1718 124.367 47.5374 124.909 46.7245C125.451 45.9116 125.74 44.9565 125.74 43.9797C125.741 43.325 125.612 42.6766 125.361 42.0722C125.11 41.4677 124.741 40.9193 124.275 40.4587C123.81 39.9981 123.258 39.6346 122.651 39.3893C122.044 39.1439 121.394 39.0217 120.74 39.0297Z" fill="#456FA6"/>
<path d="M120.74 43.98C120.452 43.9774 120.178 43.8614 119.975 43.6573C119.773 43.4531 119.66 43.1774 119.66 42.89V1.08004C119.66 0.793607 119.773 0.518908 119.976 0.316369C120.179 0.113829 120.453 4.62999e-05 120.74 4.62999e-05C120.882 -0.00127475 121.024 0.0256858 121.156 0.0793691C121.288 0.133052 121.408 0.212394 121.51 0.312813C121.611 0.413232 121.692 0.532734 121.747 0.664422C121.801 0.796109 121.83 0.937367 121.83 1.08004V42.89C121.83 43.1791 121.715 43.4564 121.51 43.6608C121.306 43.8652 121.029 43.98 120.74 43.98Z" fill="#375895"/>
<path d="M108.59 2.81982H119.67V10.7098H108.59C108.403 10.7098 108.219 10.6731 108.047 10.6017C107.874 10.5304 107.718 10.4258 107.586 10.2939C107.454 10.1621 107.349 10.0055 107.278 9.83323C107.207 9.66095 107.17 9.4763 107.17 9.28983V4.19982C107.18 3.83019 107.335 3.4792 107.6 3.22149C107.865 2.96378 108.22 2.81968 108.59 2.81982Z" fill="#CDDFFA"/>
<path d="M40.53 55.5899V55.4999C40.53 54.8713 40.2803 54.2685 39.8358 53.824C39.3914 53.3796 38.7886 53.1299 38.16 53.1299H9.37C8.74143 53.1299 8.13861 53.3796 7.69415 53.824C7.24969 54.2685 7 54.8713 7 55.4999V55.5899C7 56.2184 7.24969 56.8213 7.69415 57.2657C8.13861 57.7102 8.74143 57.9599 9.37 57.9599H13.51C13.8247 57.9611 14.1359 58.025 14.4256 58.1478C14.7153 58.2707 14.9776 58.4499 15.1973 58.6752C15.4169 58.9004 15.5896 59.1672 15.7051 59.4599C15.8206 59.7526 15.8766 60.0653 15.87 60.3799C15.87 61.0084 15.6203 61.6113 15.1758 62.0557C14.7314 62.5002 14.1286 62.7499 13.5 62.7499H2.37C2.05876 62.7499 1.75058 62.8112 1.46304 62.9303C1.1755 63.0494 0.914228 63.224 0.694153 63.444C0.474078 63.6641 0.299493 63.9254 0.180389 64.2129C0.0612858 64.5005 0 64.8087 0 65.1199V65.2099C0 65.5211 0.0612858 65.8293 0.180389 66.1168C0.299493 66.4044 0.474078 66.6657 0.694153 66.8857C0.914228 67.1058 1.1755 67.2804 1.46304 67.3995C1.75058 67.5186 2.05876 67.5799 2.37 67.5799H29.5C30.1286 67.5799 30.7314 67.3302 31.1758 66.8857C31.6203 66.4413 31.87 65.8384 31.87 65.2099V65.1199C31.87 64.8087 31.8087 64.5005 31.6896 64.2129C31.5705 63.9254 31.3959 63.6641 31.1758 63.444C30.9558 63.224 30.6945 63.0494 30.407 62.9303C30.1194 62.8112 29.8112 62.7499 29.5 62.7499H27.98C27.3514 62.7499 26.7486 62.5002 26.3041 62.0557C25.8597 61.6113 25.61 61.0084 25.61 60.3799C25.61 59.7513 25.8597 59.1485 26.3041 58.704C26.7486 58.2596 27.3514 58.0099 27.98 58.0099H38.16C38.4755 58.01 38.7878 57.947 39.0786 57.8248C39.3695 57.7026 39.633 57.5235 39.8538 57.2981C40.0745 57.0727 40.248 56.8055 40.3641 56.5122C40.4803 56.2189 40.5367 55.9053 40.53 55.5899Z" fill="#4976BA"/>
<path d="M221.52 58.1299C221.523 57.6463 221.717 57.1834 222.06 56.8424C222.402 56.5013 222.866 56.3099 223.35 56.3099H225.01C225.342 56.3099 225.67 56.2444 225.977 56.1171C226.283 55.9899 226.561 55.8033 226.795 55.5683C227.03 55.3332 227.215 55.0542 227.341 54.7473C227.467 54.4404 227.531 54.1117 227.53 53.7799C227.53 53.1116 227.265 52.4706 226.792 51.998C226.319 51.5254 225.678 51.2599 225.01 51.2599H212.79C212.318 51.2599 211.865 51.0724 211.531 50.7386C211.198 50.4047 211.01 49.952 211.01 49.4799C211.01 49.0078 211.198 48.5551 211.531 48.2213C211.865 47.8874 212.318 47.6999 212.79 47.6999H218.37C218.702 47.6999 219.03 47.6344 219.337 47.5071C219.643 47.3799 219.921 47.1933 220.155 46.9583C220.39 46.7232 220.575 46.4442 220.701 46.1373C220.827 45.8304 220.891 45.5017 220.89 45.1699C220.89 44.5016 220.625 43.8606 220.152 43.388C219.679 42.9154 219.038 42.6499 218.37 42.6499H217.51C216.852 42.6499 216.221 42.3886 215.756 41.9235C215.291 41.4584 215.03 40.8276 215.03 40.1699C215.03 39.8447 215.094 39.5227 215.219 39.2224C215.344 38.922 215.527 38.6493 215.757 38.4198C215.987 38.1903 216.261 38.0086 216.562 37.885C216.863 37.7615 217.185 37.6986 217.51 37.6999H228.07C228.402 37.6999 228.73 37.6344 229.037 37.5071C229.343 37.3799 229.621 37.1933 229.855 36.9583C230.09 36.7232 230.275 36.4442 230.401 36.1373C230.527 35.8304 230.591 35.5017 230.59 35.1699C230.59 34.5016 230.325 33.8606 229.852 33.388C229.379 32.9154 228.738 32.6499 228.07 32.6499H201.93C201.262 32.6499 200.621 32.9154 200.148 33.388C199.675 33.8606 199.41 34.5016 199.41 35.1699C199.409 35.5017 199.473 35.8304 199.599 36.1373C199.725 36.4442 199.91 36.7232 200.145 36.9583C200.379 37.1933 200.657 37.3799 200.963 37.5071C201.27 37.6344 201.598 37.6999 201.93 37.6999H202.37C202.695 37.6986 203.017 37.7615 203.318 37.885C203.619 38.0086 203.893 38.1903 204.123 38.4198C204.353 38.6493 204.536 38.922 204.661 39.2224C204.786 39.5227 204.85 39.8447 204.85 40.1699C204.85 40.8276 204.589 41.4584 204.124 41.9235C203.659 42.3886 203.028 42.6499 202.37 42.6499H190.76C190.428 42.6486 190.099 42.7128 189.793 42.8389C189.486 42.9649 189.207 43.1503 188.972 43.3845C188.737 43.6186 188.55 43.8968 188.423 44.2032C188.296 44.5096 188.23 44.8381 188.23 45.1699C188.23 45.8409 188.497 46.4844 188.971 46.9589C189.445 47.4334 190.089 47.6999 190.76 47.6999H199.43C199.902 47.6999 200.355 47.8874 200.689 48.2213C201.022 48.5551 201.21 49.0078 201.21 49.4799C201.21 49.952 201.022 50.4047 200.689 50.7386C200.355 51.0724 199.902 51.2599 199.43 51.2599H195.98C195.312 51.2599 194.671 51.5254 194.198 51.998C193.725 52.4706 193.46 53.1116 193.46 53.7799C193.459 54.1117 193.523 54.4404 193.649 54.7473C193.775 55.0542 193.96 55.3332 194.195 55.5683C194.429 55.8033 194.707 55.9899 195.013 56.1171C195.32 56.2444 195.648 56.3099 195.98 56.3099H205.98C206.462 56.3125 206.923 56.5051 207.264 56.8459C207.605 57.1866 207.797 57.648 207.8 58.1299C207.8 58.6135 207.609 59.0775 207.268 59.4204C206.926 59.7633 206.464 59.9573 205.98 59.9599H198.87C198.205 59.9652 197.569 60.233 197.101 60.705C196.633 61.177 196.37 61.815 196.37 62.4799C196.37 62.8122 196.435 63.1411 196.563 63.4481C196.69 63.7551 196.876 64.034 197.111 64.2689C197.346 64.5038 197.625 64.6902 197.932 64.8173C198.239 64.9445 198.568 65.0099 198.9 65.0099H235.31C235.642 65.0099 235.971 64.9445 236.278 64.8173C236.585 64.6902 236.864 64.5038 237.099 64.2689C237.334 64.034 237.52 63.7551 237.647 63.4481C237.775 63.1411 237.84 62.8122 237.84 62.4799C237.837 61.8106 237.57 61.1697 237.095 60.6974C236.621 60.2251 235.979 59.9599 235.31 59.9599H223.37C223.128 59.9626 222.888 59.9172 222.664 59.8264C222.439 59.7356 222.235 59.6012 222.063 59.431C221.891 59.2608 221.754 59.0582 221.661 58.8349C221.568 58.6115 221.52 58.3719 221.52 58.1299Z" fill="#4976BA"/>
<path d="M162.92 37.0601H148.28C146.916 37.0601 145.81 38.1659 145.81 39.5301V39.5401C145.81 40.9042 146.916 42.0101 148.28 42.0101H162.92C164.284 42.0101 165.39 40.9042 165.39 39.5401V39.5301C165.39 38.1659 164.284 37.0601 162.92 37.0601Z" fill="#476796"/>
<path d="M148.29 37.0601C147.634 37.0601 147.005 37.32 146.54 37.7829C146.075 38.2458 145.813 38.8741 145.81 39.5301C145.81 39.8553 145.874 40.1773 145.999 40.4776C146.124 40.7779 146.307 41.0507 146.537 41.2802C146.767 41.5097 147.041 41.6914 147.342 41.8149C147.643 41.9385 147.965 42.0014 148.29 42.0001C148.945 42.0001 149.573 41.7398 150.037 41.2766C150.5 40.8134 150.76 40.1851 150.76 39.5301C150.757 38.8758 150.496 38.2491 150.034 37.7864C149.571 37.3238 148.944 37.0627 148.29 37.0601Z" fill="#A7C2DF"/>
<path d="M167.08 50.2798H144.13C142.589 50.2798 141.34 51.5289 141.34 53.0698V53.4598C141.34 55.0007 142.589 56.2498 144.13 56.2498H167.08C168.621 56.2498 169.87 55.0007 169.87 53.4598V53.0698C169.87 51.5289 168.621 50.2798 167.08 50.2798Z" fill="#476796"/>
<path d="M169.87 52.5398H141.37C141.37 52.2422 141.429 51.9475 141.543 51.6726C141.657 51.3978 141.825 51.1482 142.036 50.9382C142.247 50.7282 142.497 50.5619 142.772 50.449C143.048 50.336 143.343 50.2785 143.64 50.2798H167.64C168.24 50.2798 168.816 50.5176 169.242 50.9411C169.667 51.3647 169.907 51.9395 169.91 52.5398H169.87Z" fill="#A7C2DF"/>
</svg>
