<svg width="80" height="80" viewBox="0 0 80 80" fill="none" xmlns="http://www.w3.org/2000/svg">
<g clip-path="url(#clip0_587_17246)">
<g filter="url(#filter0_d_587_17246)">
<path d="M40.1016 68L79.9952 24.9106L47.1654 55.1367L40.1016 68Z" fill="url(#paint0_linear_587_17246)"/>
<path d="M47.1719 55.1389L80.0014 24.9084H64.1302L47.1719 55.1389Z" fill="url(#paint1_linear_587_17246)"/>
<path d="M55.6507 24.8922L52.5586 16.5107L64.1264 24.9082L55.6507 24.8922Z" fill="url(#paint2_linear_587_17246)"/>
<path d="M40 24.8905L52.5613 16.5098L55.653 24.8905H40Z" fill="url(#paint3_linear_587_17246)"/>
<path d="M47.1758 55.1342L55.6579 24.8916L64.1301 24.9074L47.1758 55.1342Z" fill="url(#paint4_linear_587_17246)"/>
<path d="M40.0705 13.0005L52.5579 16.5099L39.9956 24.8907L27.4375 16.5051L40.0705 13.0005Z" fill="url(#paint5_linear_587_17246)"/>
<path d="M55.6549 24.8901H40L47.17 55.134L55.6549 24.8901Z" fill="url(#paint6_linear_587_17246)"/>
<path d="M52.5554 16.5095L40.0703 13L64.1944 13.0064L52.5554 16.5095Z" fill="url(#paint7_linear_587_17246)"/>
<path d="M72.7331 16.4788L64.1289 24.9086H79.9931L72.7331 16.4788Z" fill="url(#paint8_linear_587_17246)"/>
<path d="M52.5586 16.509L64.1277 24.9084L72.7328 16.4839L64.1989 13.0068L52.5586 16.509Z" fill="url(#paint9_linear_587_17246)"/>
<path d="M40.1016 67.9987L-0.00183105 24.9062L32.828 55.1323L40.1016 67.9987Z" fill="url(#paint10_linear_587_17246)"/>
<path d="M32.832 55.1345L0.00247192 24.9041H15.8737L32.832 55.1345Z" fill="url(#paint11_linear_587_17246)"/>
<path d="M24.3454 24.8878L27.4375 16.5063L15.8697 24.9038L24.3454 24.8878Z" fill="url(#paint12_linear_587_17246)"/>
<path d="M40 24.8858L27.4387 16.5051L24.347 24.8858H40Z" fill="url(#paint13_linear_587_17246)"/>
<path d="M32.8242 55.1298L24.3421 24.8872L15.8699 24.903L32.8242 55.1298Z" fill="url(#paint14_linear_587_17246)"/>
<path d="M24.3451 24.8862H40L32.83 55.1301L24.3451 24.8862Z" fill="url(#paint15_linear_587_17246)"/>
<path d="M27.4338 16.5051L40.0703 13.002H15.7947L27.4338 16.5051Z" fill="url(#paint16_linear_587_17246)"/>
<path d="M7.26303 16.4746L15.8672 24.9045H0.00302124L7.26303 16.4746Z" fill="url(#paint17_linear_587_17246)"/>
<path d="M27.4375 16.5049L15.8684 24.9042L7.26324 16.4797L15.7972 13.0027L27.4375 16.5049Z" fill="url(#paint18_linear_587_17246)"/>
<path d="M47.1661 55.1301L39.9961 24.8877L32.8242 55.1258L40.101 67.9985L47.1661 55.1301Z" fill="url(#paint19_linear_587_17246)"/>
</g>
</g>
<defs>
<filter id="filter0_d_587_17246" x="-8" y="13" width="96" height="71" filterUnits="userSpaceOnUse" color-interpolation-filters="sRGB">
<feFlood flood-opacity="0" result="BackgroundImageFix"/>
<feColorMatrix in="SourceAlpha" type="matrix" values="0 0 0 0 0 0 0 0 0 0 0 0 0 0 0 0 0 0 127 0" result="hardAlpha"/>
<feOffset dy="8"/>
<feGaussianBlur stdDeviation="4"/>
<feComposite in2="hardAlpha" operator="out"/>
<feColorMatrix type="matrix" values="0 0 0 0 0 0 0 0 0 0 0 0 0 0 0 0 0 0 0.25 0"/>
<feBlend mode="normal" in2="BackgroundImageFix" result="effect1_dropShadow_587_17246"/>
<feBlend mode="normal" in="SourceGraphic" in2="effect1_dropShadow_587_17246" result="shape"/>
</filter>
<linearGradient id="paint0_linear_587_17246" x1="66.7008" y1="23.4443" x2="60.0037" y2="67.9932" gradientUnits="userSpaceOnUse">
<stop stop-color="#FFC900"/>
<stop offset="1" stop-color="#FF5B00"/>
</linearGradient>
<linearGradient id="paint1_linear_587_17246" x1="51.2042" y1="51.3609" x2="72.4088" y2="21.1927" gradientUnits="userSpaceOnUse">
<stop stop-color="#FFC900"/>
<stop offset="1" stop-color="#FF5B00"/>
</linearGradient>
<linearGradient id="paint2_linear_587_17246" x1="60.2715" y1="16.225" x2="59.3835" y2="25.0133" gradientUnits="userSpaceOnUse">
<stop stop-color="#FFC900"/>
<stop offset="1" stop-color="#FF5B00"/>
</linearGradient>
<linearGradient id="paint3_linear_587_17246" x1="50.7005" y1="12.9022" x2="49.2585" y2="28.0819" gradientUnits="userSpaceOnUse">
<stop stop-color="#FF7E00"/>
<stop offset="1" stop-color="#FFA800"/>
</linearGradient>
<linearGradient id="paint4_linear_587_17246" x1="58.7659" y1="11.8735" x2="42.865" y2="62.1125" gradientUnits="userSpaceOnUse">
<stop stop-color="#FF7E00"/>
<stop offset="1" stop-color="#FFA800"/>
</linearGradient>
<linearGradient id="paint5_linear_587_17246" x1="39.9977" y1="13.0005" x2="39.9977" y2="27.6954" gradientUnits="userSpaceOnUse">
<stop stop-color="#FFAE00"/>
<stop offset="1" stop-color="#FFF4E1"/>
</linearGradient>
<linearGradient id="paint6_linear_587_17246" x1="47.8274" y1="24.8901" x2="47.8274" y2="55.134" gradientUnits="userSpaceOnUse">
<stop stop-color="#FFC900"/>
<stop offset="1" stop-color="#FF7C00"/>
</linearGradient>
<linearGradient id="paint7_linear_587_17246" x1="56.1552" y1="12.8806" x2="56.0801" y2="16.5895" gradientUnits="userSpaceOnUse">
<stop stop-color="#FFC900"/>
<stop offset="1" stop-color="#FF5B00"/>
</linearGradient>
<linearGradient id="paint8_linear_587_17246" x1="72.061" y1="16.4788" x2="69.7454" y2="34.4441" gradientUnits="userSpaceOnUse">
<stop stop-color="#FFCE6F"/>
<stop offset="1" stop-color="#FF6600"/>
</linearGradient>
<linearGradient id="paint9_linear_587_17246" x1="64.3379" y1="4.48296" x2="64.3379" y2="24.9084" gradientUnits="userSpaceOnUse">
<stop stop-color="#FFAE00"/>
<stop offset="1" stop-color="#FFF4E1"/>
</linearGradient>
<linearGradient id="paint10_linear_587_17246" x1="13.3625" y1="23.4398" x2="20.027" y2="68.0021" gradientUnits="userSpaceOnUse">
<stop stop-color="#FFC900"/>
<stop offset="1" stop-color="#FF5B00"/>
</linearGradient>
<linearGradient id="paint11_linear_587_17246" x1="28.7997" y1="51.3565" x2="7.59506" y2="21.1883" gradientUnits="userSpaceOnUse">
<stop stop-color="#FFC900"/>
<stop offset="1" stop-color="#FF5B00"/>
</linearGradient>
<linearGradient id="paint12_linear_587_17246" x1="19.7246" y1="16.2206" x2="20.6126" y2="25.0089" gradientUnits="userSpaceOnUse">
<stop stop-color="#FFC900"/>
<stop offset="1" stop-color="#FF5B00"/>
</linearGradient>
<linearGradient id="paint13_linear_587_17246" x1="29.2995" y1="12.8976" x2="30.7415" y2="28.0773" gradientUnits="userSpaceOnUse">
<stop stop-color="#FF7E00"/>
<stop offset="1" stop-color="#FFA800"/>
</linearGradient>
<linearGradient id="paint14_linear_587_17246" x1="21.2341" y1="11.8691" x2="37.135" y2="62.1082" gradientUnits="userSpaceOnUse">
<stop stop-color="#FF7E00"/>
<stop offset="1" stop-color="#FFA800"/>
</linearGradient>
<linearGradient id="paint15_linear_587_17246" x1="32.1726" y1="24.8862" x2="32.1726" y2="55.1301" gradientUnits="userSpaceOnUse">
<stop stop-color="#FFC900"/>
<stop offset="1" stop-color="#FF7C00"/>
</linearGradient>
<linearGradient id="paint16_linear_587_17246" x1="23.8845" y1="12.8827" x2="23.9589" y2="16.5849" gradientUnits="userSpaceOnUse">
<stop stop-color="#FFC900"/>
<stop offset="1" stop-color="#FF5B00"/>
</linearGradient>
<linearGradient id="paint17_linear_587_17246" x1="7.9351" y1="16.4746" x2="10.2507" y2="34.4399" gradientUnits="userSpaceOnUse">
<stop stop-color="#FFCE6F"/>
<stop offset="1" stop-color="#FF6600"/>
</linearGradient>
<linearGradient id="paint18_linear_587_17246" x1="15.6582" y1="4.47881" x2="15.6582" y2="24.9042" gradientUnits="userSpaceOnUse">
<stop stop-color="#FFAE00"/>
<stop offset="1" stop-color="#FFF4E1"/>
</linearGradient>
<linearGradient id="paint19_linear_587_17246" x1="38.3335" y1="49.216" x2="28.48" y2="73.5588" gradientUnits="userSpaceOnUse">
<stop stop-color="#FFBF35"/>
<stop offset="1" stop-color="#FFE0A0"/>
</linearGradient>
<clipPath id="clip0_587_17246">
<rect width="80" height="80" fill="white"/>
</clipPath>
</defs>
</svg>
