<svg width="41" height="227" viewBox="0 0 41 227" fill="none" xmlns="http://www.w3.org/2000/svg">
<rect x="17" y="30" width="8" height="190" fill="url(#paint0_linear_588_17671)"/>
<circle cx="20.5" cy="20.5" r="20.5" fill="url(#paint1_linear_588_17671)"/>
<path d="M16 20V17C16 14.2386 18.2386 12 21 12C23.419 12 25.4367 13.7178 25.9 16M16.8 30H25.2C26.8802 30 27.7202 30 28.362 29.673C28.9265 29.3854 29.3854 28.9265 29.673 28.362C30 27.7202 30 26.8802 30 25.2V24.8C30 23.1198 30 22.2798 29.673 21.638C29.3854 21.0735 28.9265 20.6146 28.362 20.327C27.7202 20 26.8802 20 25.2 20H16.8C15.1198 20 14.2798 20 13.638 20.327C13.0735 20.6146 12.6146 21.0735 12.327 21.638C12 22.2798 12 23.1198 12 24.8V25.2C12 26.8802 12 27.7202 12.327 28.362C12.6146 28.9265 13.0735 29.3854 13.638 29.673C14.2798 30 15.1198 30 16.8 30Z" stroke="white" stroke-width="2" stroke-linecap="round" stroke-linejoin="round"/>
<circle cx="20.5" cy="111.5" r="20.5" fill="url(#paint2_linear_588_17671)"/>
<path d="M23.3928 118.015C23.8216 119.615 22.8719 121.26 21.2715 121.689C19.6711 122.118 18.0261 121.168 17.5973 119.568M19.8934 105.741C20.1976 105.194 20.2978 104.532 20.1229 103.88C19.7656 102.546 18.3947 101.754 17.061 102.112C15.7274 102.469 14.9359 103.84 15.2933 105.174C15.4681 105.826 15.8857 106.349 16.4228 106.671M25.2377 109.445C24.8808 108.113 23.9279 106.999 22.5886 106.349C21.2493 105.698 19.6334 105.564 18.0963 105.976C16.5592 106.387 15.2269 107.312 14.3924 108.545C13.558 109.778 13.2897 111.219 13.6466 112.551C14.2372 114.755 14.1225 116.514 13.7496 117.85C13.3245 119.373 13.112 120.134 13.1694 120.287C13.2351 120.462 13.2826 120.51 13.4568 120.577C13.6091 120.636 14.2489 120.465 15.5284 120.122L27.3935 116.943C28.673 116.6 29.3128 116.429 29.4152 116.301C29.5323 116.156 29.5495 116.09 29.5189 115.906C29.4922 115.745 28.9274 115.192 27.7979 114.086C26.8068 113.115 25.8283 111.649 25.2377 109.445Z" stroke="white" stroke-width="2" stroke-linecap="round" stroke-linejoin="round"/>
<circle cx="20.5" cy="202.5" r="20.5" fill="url(#paint3_linear_588_17671)"/>
<g filter="url(#filter0_f_588_17671)">
<path d="M8.69239 200.788C8.67272 200.777 8.65658 200.761 8.64582 200.741L7.96688 199.5L7.28796 200.741C7.27721 200.761 7.26106 200.777 7.24139 200.788L6 201.467L7.24137 202.146C7.26103 202.157 7.27718 202.173 7.28794 202.192L7.96686 203.434L8.64579 202.192C8.65655 202.173 8.6727 202.157 8.69236 202.146L9.93373 201.467L8.69239 200.788Z" fill="#FF004D"/>
</g>
<path d="M8.69239 200.788C8.67272 200.777 8.65658 200.761 8.64582 200.741L7.96688 199.5L7.28796 200.741C7.27721 200.761 7.26106 200.777 7.24139 200.788L6 201.467L7.24137 202.146C7.26103 202.157 7.27718 202.173 7.28794 202.192L7.96686 203.434L8.64579 202.192C8.65655 202.173 8.6727 202.157 8.69236 202.146L9.93373 201.467L8.69239 200.788Z" fill="white"/>
<g filter="url(#filter1_f_588_17671)">
<path d="M30.1924 191.288C30.1727 191.277 30.1566 191.261 30.1458 191.241L29.4669 190L28.788 191.241C28.7772 191.261 28.7611 191.277 28.7414 191.288L27.5 191.967L28.7414 192.646C28.761 192.657 28.7772 192.673 28.7879 192.692L29.4669 193.934L30.1458 192.692C30.1566 192.673 30.1727 192.657 30.1924 192.646L31.4337 191.967L30.1924 191.288Z" fill="#FF004D"/>
</g>
<path d="M30.1924 191.288C30.1727 191.277 30.1566 191.261 30.1458 191.241L29.4669 190L28.788 191.241C28.7772 191.261 28.7611 191.277 28.7414 191.288L27.5 191.967L28.7414 192.646C28.761 192.657 28.7772 192.673 28.7879 192.692L29.4669 193.934L30.1458 192.692C30.1566 192.673 30.1727 192.657 30.1924 192.646L31.4337 191.967L30.1924 191.288Z" fill="white"/>
<g filter="url(#filter2_f_588_17671)">
<path d="M22.0267 191.991C22.0192 191.987 22.013 191.981 22.0089 191.973L21.75 191.5L21.4911 191.973C21.487 191.981 21.4809 191.987 21.4734 191.991L21 192.25L21.4734 192.509C21.4809 192.513 21.487 192.519 21.4911 192.527L21.75 193L22.0089 192.527C22.013 192.519 22.0191 192.513 22.0266 192.509L22.5 192.25L22.0267 191.991Z" fill="#FF004D"/>
</g>
<path d="M22.0267 191.991C22.0192 191.987 22.013 191.981 22.0089 191.973L21.75 191.5L21.4911 191.973C21.487 191.981 21.4809 191.987 21.4734 191.991L21 192.25L21.4734 192.509C21.4809 192.513 21.487 192.519 21.4911 192.527L21.75 193L22.0089 192.527C22.013 192.519 22.0191 192.513 22.0266 192.509L22.5 192.25L22.0267 191.991Z" fill="white"/>
<g filter="url(#filter3_f_588_17671)">
<path d="M33.5267 186.491C33.5192 186.487 33.513 186.481 33.5089 186.473L33.25 186L32.9911 186.473C32.987 186.481 32.9809 186.487 32.9734 186.491L32.5 186.75L32.9734 187.009C32.9809 187.013 32.987 187.019 32.9911 187.027L33.25 187.5L33.5089 187.027C33.513 187.019 33.5191 187.013 33.5266 187.009L34 186.75L33.5267 186.491Z" fill="#FF004D"/>
</g>
<path d="M33.5267 186.491C33.5192 186.487 33.513 186.481 33.5089 186.473L33.25 186L32.9911 186.473C32.987 186.481 32.9809 186.487 32.9734 186.491L32.5 186.75L32.9734 187.009C32.9809 187.013 32.987 187.019 32.9911 187.027L33.25 187.5L33.5089 187.027C33.513 187.019 33.5191 187.013 33.5266 187.009L34 186.75L33.5267 186.491Z" fill="white"/>
<ellipse cx="12.0008" cy="209.3" rx="1.2" ry="1.2" fill="#FFD60A"/>
<ellipse cx="32" cy="211" rx="0.499998" ry="0.500001" fill="#32D74B"/>
<ellipse cx="33.5" cy="195.5" rx="0.499999" ry="0.5" fill="#FFD60A"/>
<g filter="url(#filter4_d_588_17671)">
<path d="M21.0312 211L32.9981 199.248L23.1502 207.492L21.0312 211Z" fill="url(#paint4_linear_588_17671)"/>
<path d="M23.1484 207.492L32.9963 199.248H28.2354L23.1484 207.492Z" fill="url(#paint5_linear_588_17671)"/>
<path d="M25.6971 199.243L24.7695 196.958L28.2395 199.248L25.6971 199.243Z" fill="url(#paint6_linear_588_17671)"/>
<path d="M21 199.243L24.768 196.957L25.6954 199.243H21Z" fill="url(#paint7_linear_588_17671)"/>
<path d="M23.1523 207.491L25.6967 199.243L28.2381 199.248L23.1523 207.491Z" fill="url(#paint8_linear_588_17671)"/>
<path d="M21.02 196L24.7658 196.957L20.9975 199.243L17.2305 196.956L21.02 196Z" fill="url(#paint9_linear_588_17671)"/>
<path d="M25.696 199.243H21L23.1508 207.491L25.696 199.243Z" fill="url(#paint10_linear_588_17671)"/>
<path d="M24.7686 196.957L21.0234 196L28.2599 196.002L24.7686 196.957Z" fill="url(#paint11_linear_588_17671)"/>
<path d="M30.8232 196.949L28.2422 199.248H33.0009L30.8232 196.949Z" fill="url(#paint12_linear_588_17671)"/>
<path d="M24.7695 196.957L28.2399 199.248L30.8212 196.95L28.2613 196.002L24.7695 196.957Z" fill="url(#paint13_linear_588_17671)"/>
<path d="M21.0312 211L9.00148 199.247L18.8494 207.491L21.0312 211Z" fill="url(#paint14_linear_588_17671)"/>
<path d="M18.8516 207.491L9.00372 199.246H13.7646L18.8516 207.491Z" fill="url(#paint15_linear_588_17671)"/>
<path d="M16.3029 199.242L17.2305 196.956L13.7605 199.247L16.3029 199.242Z" fill="url(#paint16_linear_588_17671)"/>
<path d="M21 199.242L17.232 196.956L16.3046 199.242H21Z" fill="url(#paint17_linear_588_17671)"/>
<path d="M18.8477 207.49L16.3033 199.242L13.7619 199.246L18.8477 207.49Z" fill="url(#paint18_linear_588_17671)"/>
<path d="M16.304 199.242H21L18.8492 207.49L16.304 199.242Z" fill="url(#paint19_linear_588_17671)"/>
<path d="M17.2329 196.956L21.0234 196H13.7415L17.2329 196.956Z" fill="url(#paint20_linear_588_17671)"/>
<path d="M11.1768 196.948L13.7578 199.247H8.99906L11.1768 196.948Z" fill="url(#paint21_linear_588_17671)"/>
<path d="M17.2305 196.956L13.7601 199.247L11.1788 196.949L13.7387 196.001L17.2305 196.956Z" fill="url(#paint22_linear_588_17671)"/>
<path d="M23.1498 207.49L20.999 199.242L18.8477 207.489L21.0305 211L23.1498 207.49Z" fill="url(#paint23_linear_588_17671)"/>
</g>
<defs>
<filter id="filter0_f_588_17671" x="3" y="196.5" width="9.93359" height="9.93372" filterUnits="userSpaceOnUse" color-interpolation-filters="sRGB">
<feFlood flood-opacity="0" result="BackgroundImageFix"/>
<feBlend mode="normal" in="SourceGraphic" in2="BackgroundImageFix" result="shape"/>
<feGaussianBlur stdDeviation="1.5" result="effect1_foregroundBlur_588_17671"/>
</filter>
<filter id="filter1_f_588_17671" x="24.5" y="187" width="9.93359" height="9.93372" filterUnits="userSpaceOnUse" color-interpolation-filters="sRGB">
<feFlood flood-opacity="0" result="BackgroundImageFix"/>
<feBlend mode="normal" in="SourceGraphic" in2="BackgroundImageFix" result="shape"/>
<feGaussianBlur stdDeviation="1.5" result="effect1_foregroundBlur_588_17671"/>
</filter>
<filter id="filter2_f_588_17671" x="18" y="188.5" width="7.5" height="7.5" filterUnits="userSpaceOnUse" color-interpolation-filters="sRGB">
<feFlood flood-opacity="0" result="BackgroundImageFix"/>
<feBlend mode="normal" in="SourceGraphic" in2="BackgroundImageFix" result="shape"/>
<feGaussianBlur stdDeviation="1.5" result="effect1_foregroundBlur_588_17671"/>
</filter>
<filter id="filter3_f_588_17671" x="29.5" y="183" width="7.5" height="7.5" filterUnits="userSpaceOnUse" color-interpolation-filters="sRGB">
<feFlood flood-opacity="0" result="BackgroundImageFix"/>
<feBlend mode="normal" in="SourceGraphic" in2="BackgroundImageFix" result="shape"/>
<feGaussianBlur stdDeviation="1.5" result="effect1_foregroundBlur_588_17671"/>
</filter>
<filter id="filter4_d_588_17671" x="1" y="196" width="40" height="31" filterUnits="userSpaceOnUse" color-interpolation-filters="sRGB">
<feFlood flood-opacity="0" result="BackgroundImageFix"/>
<feColorMatrix in="SourceAlpha" type="matrix" values="0 0 0 0 0 0 0 0 0 0 0 0 0 0 0 0 0 0 127 0" result="hardAlpha"/>
<feOffset dy="8"/>
<feGaussianBlur stdDeviation="4"/>
<feComposite in2="hardAlpha" operator="out"/>
<feColorMatrix type="matrix" values="0 0 0 0 0 0 0 0 0 0 0 0 0 0 0 0 0 0 0.25 0"/>
<feBlend mode="normal" in2="BackgroundImageFix" result="effect1_dropShadow_588_17671"/>
<feBlend mode="normal" in="SourceGraphic" in2="effect1_dropShadow_588_17671" result="shape"/>
</filter>
<linearGradient id="paint0_linear_588_17671" x1="21" y1="30" x2="21" y2="220" gradientUnits="userSpaceOnUse">
<stop stop-color="#0D99FF" stop-opacity="0.5"/>
<stop offset="1" stop-color="#DA1E28" stop-opacity="0.5"/>
</linearGradient>
<linearGradient id="paint1_linear_588_17671" x1="7" y1="12" x2="20.5" y2="41" gradientUnits="userSpaceOnUse">
<stop stop-color="#8FC9F3"/>
<stop offset="1" stop-color="#0A7ACC"/>
</linearGradient>
<linearGradient id="paint2_linear_588_17671" x1="9.5" y1="98.5" x2="30" y2="142.5" gradientUnits="userSpaceOnUse">
<stop stop-color="#0C57A5"/>
<stop offset="0.745" stop-color="#DA1E28"/>
</linearGradient>
<linearGradient id="paint3_linear_588_17671" x1="9.5" y1="189.5" x2="30" y2="233.5" gradientUnits="userSpaceOnUse">
<stop stop-color="#FF004D"/>
<stop offset="1" stop-color="#9747FF"/>
</linearGradient>
<linearGradient id="paint4_linear_588_17671" x1="29.0102" y1="198.849" x2="27.3432" y2="211.045" gradientUnits="userSpaceOnUse">
<stop stop-color="#FFC900"/>
<stop offset="1" stop-color="#FF5B00"/>
</linearGradient>
<linearGradient id="paint5_linear_588_17671" x1="24.358" y1="206.462" x2="29.9357" y2="197.734" gradientUnits="userSpaceOnUse">
<stop stop-color="#FFC900"/>
<stop offset="1" stop-color="#FF5B00"/>
</linearGradient>
<linearGradient id="paint6_linear_588_17671" x1="27.0831" y1="196.88" x2="26.8626" y2="199.281" gradientUnits="userSpaceOnUse">
<stop stop-color="#FFC900"/>
<stop offset="1" stop-color="#FF5B00"/>
</linearGradient>
<linearGradient id="paint7_linear_588_17671" x1="24.2098" y1="195.973" x2="23.8517" y2="200.12" gradientUnits="userSpaceOnUse">
<stop stop-color="#FF7E00"/>
<stop offset="1" stop-color="#FFA800"/>
</linearGradient>
<linearGradient id="paint8_linear_588_17671" x1="26.629" y1="195.693" x2="22.623" y2="209.614" gradientUnits="userSpaceOnUse">
<stop stop-color="#FF7E00"/>
<stop offset="1" stop-color="#FFA800"/>
</linearGradient>
<linearGradient id="paint9_linear_588_17671" x1="20.9981" y1="196" x2="20.9981" y2="200.008" gradientUnits="userSpaceOnUse">
<stop stop-color="#FFAE00"/>
<stop offset="1" stop-color="#FFF4E1"/>
</linearGradient>
<linearGradient id="paint10_linear_588_17671" x1="23.348" y1="199.243" x2="23.348" y2="207.491" gradientUnits="userSpaceOnUse">
<stop stop-color="#FFC900"/>
<stop offset="1" stop-color="#FF7C00"/>
</linearGradient>
<linearGradient id="paint11_linear_588_17671" x1="25.8484" y1="195.967" x2="25.8298" y2="196.979" gradientUnits="userSpaceOnUse">
<stop stop-color="#FFC900"/>
<stop offset="1" stop-color="#FF5B00"/>
</linearGradient>
<linearGradient id="paint12_linear_588_17671" x1="30.6216" y1="196.949" x2="30.0458" y2="201.862" gradientUnits="userSpaceOnUse">
<stop stop-color="#FFCE6F"/>
<stop offset="1" stop-color="#FF6600"/>
</linearGradient>
<linearGradient id="paint13_linear_588_17671" x1="28.303" y1="193.677" x2="28.303" y2="199.248" gradientUnits="userSpaceOnUse">
<stop stop-color="#FFAE00"/>
<stop offset="1" stop-color="#FFF4E1"/>
</linearGradient>
<linearGradient id="paint14_linear_588_17671" x1="13.0104" y1="198.847" x2="14.6692" y2="211.047" gradientUnits="userSpaceOnUse">
<stop stop-color="#FFC900"/>
<stop offset="1" stop-color="#FF5B00"/>
</linearGradient>
<linearGradient id="paint15_linear_588_17671" x1="17.642" y1="206.461" x2="12.0643" y2="197.733" gradientUnits="userSpaceOnUse">
<stop stop-color="#FFC900"/>
<stop offset="1" stop-color="#FF5B00"/>
</linearGradient>
<linearGradient id="paint16_linear_588_17671" x1="14.9169" y1="196.878" x2="15.1374" y2="199.279" gradientUnits="userSpaceOnUse">
<stop stop-color="#FFC900"/>
<stop offset="1" stop-color="#FF5B00"/>
</linearGradient>
<linearGradient id="paint17_linear_588_17671" x1="17.7902" y1="195.972" x2="18.1483" y2="200.118" gradientUnits="userSpaceOnUse">
<stop stop-color="#FF7E00"/>
<stop offset="1" stop-color="#FFA800"/>
</linearGradient>
<linearGradient id="paint18_linear_588_17671" x1="15.371" y1="195.692" x2="19.377" y2="209.613" gradientUnits="userSpaceOnUse">
<stop stop-color="#FF7E00"/>
<stop offset="1" stop-color="#FFA800"/>
</linearGradient>
<linearGradient id="paint19_linear_588_17671" x1="18.652" y1="199.242" x2="18.652" y2="207.49" gradientUnits="userSpaceOnUse">
<stop stop-color="#FFC900"/>
<stop offset="1" stop-color="#FF7C00"/>
</linearGradient>
<linearGradient id="paint20_linear_588_17671" x1="16.1682" y1="195.968" x2="16.1866" y2="196.978" gradientUnits="userSpaceOnUse">
<stop stop-color="#FFC900"/>
<stop offset="1" stop-color="#FF5B00"/>
</linearGradient>
<linearGradient id="paint21_linear_588_17671" x1="11.3784" y1="196.948" x2="11.9542" y2="201.861" gradientUnits="userSpaceOnUse">
<stop stop-color="#FFCE6F"/>
<stop offset="1" stop-color="#FF6600"/>
</linearGradient>
<linearGradient id="paint22_linear_588_17671" x1="13.697" y1="193.676" x2="13.697" y2="199.247" gradientUnits="userSpaceOnUse">
<stop stop-color="#FFAE00"/>
<stop offset="1" stop-color="#FFF4E1"/>
</linearGradient>
<linearGradient id="paint23_linear_588_17671" x1="20.5003" y1="205.877" x2="17.9959" y2="212.682" gradientUnits="userSpaceOnUse">
<stop stop-color="#FFBF35"/>
<stop offset="1" stop-color="#FFE0A0"/>
</linearGradient>
</defs>
</svg>
