<svg width="20" height="20" viewBox="0 0 20 20" fill="none" xmlns="http://www.w3.org/2000/svg">
<path d="M12.4752 16.427C11.371 16.7868 10.2638 16.9171 9.15342 16.8178C8.04306 16.7186 7.00714 16.427 6.04566 15.9432C5.08418 15.4593 4.23435 14.8018 3.49618 13.9706C2.75801 13.1394 2.20903 12.1717 1.84925 11.0675C1.48947 9.96337 1.35921 8.85611 1.45846 7.74576C1.55771 6.6354 1.84925 5.59638 2.3331 4.62869C2.81694 3.66101 3.47757 2.80808 4.31499 2.06991C5.15241 1.33174 6.1232 0.782765 7.22735 0.422985C8.3315 0.0632047 9.43876 -0.0670606 10.5491 0.0321891C11.6595 0.131439 12.6954 0.426087 13.6569 0.916132C14.6184 1.40618 15.4682 2.06681 16.2064 2.89803C16.9445 3.72924 17.4935 4.69693 17.8533 5.80108C18.2131 6.90524 18.3433 8.01249 18.2441 9.12285C18.1448 10.2332 17.8533 11.2691 17.3694 12.2306C16.8856 13.1921 16.225 14.0419 15.3875 14.7801C14.5501 15.5183 13.5793 16.0672 12.4752 16.427ZM16.3273 6.26631C16.0296 5.37307 15.5829 4.58837 14.9874 3.91223C14.3919 3.2361 13.7065 2.70263 12.9311 2.31183C12.1557 1.92104 11.3183 1.68532 10.4188 1.60468C9.5194 1.52404 8.62305 1.63259 7.7298 1.93034C6.83655 2.22809 6.05186 2.67471 5.37572 3.27021C4.69958 3.86571 4.16612 4.55115 3.77532 5.32654C3.38452 6.10193 3.1457 6.93935 3.05886 7.8388C2.97202 8.73825 3.07747 9.6346 3.37522 10.5279C3.67297 11.4211 4.11959 12.2058 4.71509 12.8819C5.31059 13.5581 5.99913 14.0915 6.78073 14.4823C7.56232 14.8731 8.40284 15.1088 9.30229 15.1895C10.2017 15.2701 11.0981 15.1616 11.9913 14.8638C12.8846 14.5661 13.6693 14.1195 14.3454 13.524C15.0216 12.9285 15.555 12.243 15.9458 11.4676C16.3366 10.6922 16.5723 9.85481 16.653 8.95536C16.7336 8.05591 16.6251 7.15956 16.3273 6.26631ZM11.768 14.2683C10.9616 14.5289 10.1552 14.625 9.34881 14.5568C8.54241 14.4885 7.78563 14.2776 7.07848 13.9241C6.37132 13.5705 5.74791 13.0897 5.20824 12.4818C4.66857 11.8739 4.26847 11.1668 4.00794 10.3604C3.74741 9.55396 3.65126 8.74446 3.71949 7.93185C3.78773 7.11924 3.99863 6.35936 4.35221 5.65221C4.70579 4.94505 5.18963 4.32164 5.80374 3.78197C6.41785 3.2423 7.1281 2.8422 7.93451 2.58167C8.74091 2.32114 9.54731 2.22809 10.3537 2.30253C11.1601 2.37696 11.9169 2.59097 12.6241 2.94455C13.3312 3.29813 13.9546 3.77887 14.4943 4.38677C15.034 4.99468 15.4341 5.70183 15.6946 6.50824C15.9551 7.31464 16.0513 8.12415 15.983 8.93675C15.9148 9.74936 15.7039 10.5061 15.3503 11.2071C14.9967 11.908 14.5129 12.5284 13.8988 13.068C13.2847 13.6077 12.5744 14.0078 11.768 14.2683ZM9.85127 7.28983C9.5287 7.28983 9.25887 7.39838 9.04176 7.61549C8.82465 7.8326 8.7161 8.10244 8.7161 8.425C8.7161 8.74756 8.82465 9.0205 9.04176 9.24381C9.25887 9.46712 9.5287 9.57878 9.85127 9.57878C10.1738 9.57878 10.4468 9.46712 10.6701 9.24381C10.8934 9.0205 11.005 8.74756 11.005 8.425C11.005 8.10244 10.8934 7.8326 10.6701 7.61549C10.4468 7.39838 10.1738 7.28983 9.85127 7.28983ZM5.5339 5.42889L8.17643 6.95486C8.23846 6.91764 8.30049 6.87422 8.36252 6.82459C8.42455 6.78738 8.48348 6.74395 8.53931 6.69433C8.59514 6.6447 8.65407 6.60128 8.7161 6.56406C8.86497 6.47722 9.00764 6.41519 9.14411 6.37797C9.21855 6.35316 9.29299 6.33455 9.36742 6.32214V3.27021C9.15652 3.28262 8.93941 3.31363 8.7161 3.36326C8.5176 3.41288 8.29429 3.47802 8.04616 3.55866C7.79804 3.6393 7.5313 3.76026 7.24596 3.92154C6.9234 4.10763 6.65356 4.29062 6.43645 4.47051C6.21935 4.6504 6.04256 4.80858 5.90609 4.94505C5.75721 5.10633 5.63315 5.26761 5.5339 5.42889ZM5.06867 10.6209L7.7298 9.09493C7.70499 9.0205 7.68638 8.94606 7.67397 8.87162C7.66157 8.80959 7.65226 8.74136 7.64606 8.66692C7.63986 8.59248 7.63676 8.51804 7.63676 8.44361C7.63676 8.26992 7.65537 8.11484 7.69258 7.97837C7.70499 7.90394 7.7236 7.8295 7.74841 7.75506L5.1245 6.2291C5.03765 6.40278 4.95701 6.60128 4.88258 6.82459C4.82054 7.01069 4.76161 7.2371 4.70579 7.50383C4.64996 7.77057 4.62204 8.06522 4.62204 8.38778C4.60964 8.75996 4.62825 9.08563 4.67787 9.36477C4.7275 9.64391 4.78333 9.87652 4.84536 10.0626C4.90739 10.2859 4.98183 10.472 5.06867 10.6209ZM9.34881 13.617L9.36742 10.5465C9.29299 10.5341 9.21855 10.5092 9.14411 10.472C9.00764 10.4348 8.87738 10.3728 8.75332 10.2859C8.67888 10.2487 8.61064 10.2053 8.54861 10.1557C8.48658 10.106 8.43075 10.0564 8.38113 10.0068C8.3315 9.95717 8.27568 9.90754 8.21365 9.85791L5.58973 11.3653C5.70139 11.539 5.83165 11.7126 5.98053 11.8863C6.11699 12.0352 6.28448 12.1965 6.48298 12.3702C6.68148 12.5439 6.9234 12.7175 7.20874 12.8912C7.5189 13.0773 7.80734 13.22 8.07408 13.3193C8.34081 13.4185 8.56722 13.4929 8.75332 13.5426C8.97663 13.5922 9.17513 13.617 9.34881 13.617ZM14.15 11.4583L11.5075 9.93235C11.4455 9.98198 11.3896 10.0316 11.34 10.0812C11.2904 10.1184 11.2346 10.1588 11.1725 10.2022C11.1105 10.2456 11.0485 10.2859 10.9864 10.3231C10.912 10.3728 10.8345 10.41 10.7538 10.4348C10.6732 10.4596 10.6018 10.4844 10.5398 10.5092C10.4654 10.5341 10.3971 10.5527 10.3351 10.5651V13.617C10.5336 13.6046 10.7445 13.5736 10.9678 13.524C11.1663 13.4867 11.3927 13.4247 11.6471 13.3379C11.9014 13.251 12.1712 13.127 12.4566 12.9657C12.7791 12.792 13.0459 12.6152 13.2568 12.4353C13.4677 12.2554 13.6414 12.091 13.7778 11.9422C13.9267 11.7809 14.0508 11.6196 14.15 11.4583ZM14.6153 6.2291L11.9727 7.75506L12.0099 7.97837C12.0224 8.0404 12.0317 8.11174 12.0379 8.19238C12.0441 8.27302 12.0472 8.34436 12.0472 8.40639C12.0472 8.49323 12.041 8.58007 12.0286 8.66692C12.0162 8.75376 12.0037 8.8282 11.9913 8.89023C11.9665 8.96467 11.9479 9.0391 11.9355 9.11354L14.5594 10.6209C14.6463 10.4472 14.7269 10.2487 14.8013 10.0254C14.8634 9.83931 14.9223 9.61289 14.9781 9.34616C15.034 9.07942 15.0619 8.78478 15.0619 8.46222C15.0619 8.10244 15.0402 7.77987 14.9967 7.49453C14.9533 7.20919 14.9006 6.97347 14.8386 6.78738C14.7765 6.56406 14.7021 6.37797 14.6153 6.2291ZM10.3537 3.23299V6.30353L10.577 6.37797C10.6391 6.40278 10.7042 6.4307 10.7724 6.46171C10.8407 6.49273 10.9058 6.52685 10.9678 6.56406C11.0299 6.61369 11.095 6.66021 11.1632 6.70363C11.2315 6.74706 11.2904 6.79358 11.34 6.8432L11.5075 7.01069L14.1314 5.48472C14.0198 5.32344 13.8895 5.15596 13.7406 4.98227C13.6041 4.8334 13.4367 4.66901 13.2382 4.48912C13.0397 4.30923 12.7977 4.13244 12.5124 3.95876C12.1898 3.77266 11.8952 3.63309 11.6285 3.54005C11.3617 3.447 11.1353 3.37567 10.9492 3.32604C10.7259 3.27642 10.5274 3.2454 10.3537 3.23299Z" fill="#D03737"/>
</svg>
