<svg width="20" height="20" viewBox="0 0 20 20" fill="none" xmlns="http://www.w3.org/2000/svg">
<g clip-path="url(#clip0)">
<path d="M7.66699 15C4.93366 15 2.66699 12.7333 2.66699 10C2.66699 7.26667 4.93366 5 7.66699 5C10.4003 5 12.667 7.26667 12.667 10C12.667 12.7333 10.4003 15 7.66699 15ZM7.66699 5.66667C5.26699 5.66667 3.33366 7.6 3.33366 10C3.33366 12.4 5.26699 14.3333 7.66699 14.3333C10.067 14.3333 12.0003 12.4 12.0003 10C12.0003 7.6 10.067 5.66667 7.66699 5.66667Z" fill="#D03737" stroke="#D03737" stroke-width="0.5"/>
<path d="M7.66667 11.6669C6.73333 11.6669 6 10.9335 6 10.0002C6 9.06684 6.73333 8.3335 7.66667 8.3335C8.6 8.3335 9.33333 9.06684 9.33333 10.0002C9.33333 10.9335 8.6 11.6669 7.66667 11.6669ZM7.66667 9.00017C7.13333 9.00017 6.66667 9.46684 6.66667 10.0002C6.66667 10.5335 7.13333 11.0002 7.66667 11.0002C8.2 11.0002 8.66667 10.5335 8.66667 10.0002C8.66667 9.46684 8.2 9.00017 7.66667 9.00017Z" fill="#D03737" stroke="#D03737" stroke-width="0.5"/>
<path d="M7.66698 9.00001C7.46698 9.00001 7.33365 8.86668 7.33365 8.66668V7.33334C7.33365 7.13333 7.46698 7 7.66698 7C7.86698 7 8.00031 7.13333 8.00031 7.33334V8.66668C8.00031 8.86668 7.86698 9.00001 7.66698 9.00001ZM7.66698 13C7.46698 13 7.33365 12.8667 7.33365 12.6667V11.3334C7.33365 11.1334 7.46698 11 7.66698 11C7.86698 11 8.00031 11.1334 8.00031 11.3334V12.6667C8.00031 12.8667 7.86698 13 7.66698 13ZM10.3336 10.3333H9.0003C8.80031 10.3333 8.66697 10.2 8.66697 10C8.66697 9.80001 8.80031 9.66668 9.0003 9.66668H10.3336C10.5336 9.66668 10.667 9.80001 10.667 10C10.667 10.2 10.5336 10.3333 10.3336 10.3333ZM6.33365 10.3333H5.00032C4.80032 10.3333 4.66699 10.2 4.66699 10C4.66699 9.80001 4.80032 9.66668 5.00032 9.66668H6.33365C6.53365 9.66668 6.66698 9.80001 6.66698 10C6.66698 10.2 6.53365 10.3333 6.33365 10.3333ZM8.60031 9.40001C8.53364 9.40001 8.40031 9.40001 8.33364 9.33335C8.20031 9.20001 8.20031 9.00001 8.33364 8.86668L9.26697 7.93334C9.4003 7.8 9.6003 7.8 9.73363 7.93334C9.86697 8.06667 9.86697 8.26667 9.73363 8.40001L8.80031 9.33335C8.80031 9.33335 8.66697 9.40001 8.60031 9.40001ZM5.80032 12.2C5.73365 12.2 5.60032 12.2 5.53365 12.1334C5.40032 12 5.40032 11.8 5.53365 11.6667L6.46698 10.7334C6.60032 10.6 6.80032 10.6 6.93365 10.7334C7.06698 10.8667 7.06698 11.0667 6.93365 11.2L6.00032 12.1334C5.93365 12.2 5.86699 12.2 5.80032 12.2ZM9.53364 12.2C9.46697 12.2 9.33364 12.2 9.26697 12.1334L8.33364 11.2C8.20031 11.0667 8.20031 10.8667 8.33364 10.7334C8.46697 10.6 8.66697 10.6 8.80031 10.7334L9.73363 11.6667C9.86697 11.8 9.86697 12 9.73363 12.1334C9.73363 12.2 9.66697 12.2 9.53364 12.2ZM6.73365 9.40001C6.66698 9.40001 6.53365 9.40001 6.46698 9.33335L5.53365 8.40001C5.40032 8.26667 5.40032 8.06667 5.53365 7.93334C5.66699 7.8 5.86699 7.8 6.00032 7.93334L6.93365 8.86668C7.06698 9.00001 7.06698 9.20001 6.93365 9.33335C6.86698 9.33335 6.80032 9.40001 6.73365 9.40001Z" fill="#D03737" stroke="#D03737" stroke-width="0.5"/>
<path d="M8.73333 9.26699C8.66666 9.26699 8.53333 9.26699 8.46667 9.20033C8.33333 9.06699 8.33333 8.86699 8.46667 8.73366L9.33333 7.86699C9.46666 7.73366 9.66666 7.73366 9.79999 7.86699C9.93333 8.00033 9.93333 8.20033 9.79999 8.33366L8.93333 9.20033C8.86666 9.26699 8.8 9.26699 8.73333 9.26699ZM15.4 15.0003H8.33333C8.13333 15.0003 8 14.867 8 14.667C8 14.467 8.13333 14.3337 8.33333 14.3337H15.4C16.0666 14.3337 16.6666 13.7337 16.6666 12.9337V8.00033C16.6666 7.80033 16.8 7.66699 17 7.66699C17.2 7.66699 17.3333 7.80033 17.3333 8.00033V12.9337C17.3333 14.067 16.4666 15.0003 15.4 15.0003Z" fill="#D03737" stroke="#D03737" stroke-width="0.5"/>
<path d="M17 8.33301C15.3333 8.33301 14 6.99967 14 5.33301C14 3.66634 15.3333 2.33301 17 2.33301C18.6667 2.33301 20 3.66634 20 5.33301C20 6.99967 18.6667 8.33301 17 8.33301ZM17 2.99967C15.7333 2.99967 14.6667 4.06634 14.6667 5.33301C14.6667 6.59967 15.7333 7.66634 17 7.66634C18.2667 7.66634 19.3333 6.59967 19.3333 5.33301C19.3333 4.06634 18.2667 2.99967 17 2.99967ZM7.66667 17.6663C3.46667 17.6663 0 14.1997 0 9.99967C0 5.79967 3.46667 2.33301 7.66667 2.33301C9.66667 2.33301 11.5333 3.06634 13 4.46634C13.0667 4.53301 13.1333 4.66634 13.0667 4.79967C12.9333 5.19967 12.8667 5.53301 12.8667 5.93301C12.8667 7.39967 13.7333 8.73301 15.0667 9.33301C15.2 9.39967 15.2667 9.46634 15.2667 9.59967V9.99967C15.3333 14.1997 11.8667 17.6663 7.66667 17.6663ZM7.66667 2.99967C3.8 2.99967 0.666667 6.13301 0.666667 9.99967C0.666667 13.8663 3.8 16.9997 7.66667 16.9997C11.5333 16.9997 14.6667 13.8663 14.6667 9.99967V9.86634C13.2 9.13301 12.2 7.59967 12.2 5.93301C12.2 5.59967 12.2667 5.19967 12.3333 4.86634C11.0667 3.66634 9.4 2.99967 7.66667 2.99967Z" fill="#D03737" stroke="#D03737" stroke-width="0.5"/>
<path d="M17 5.66671C16.9333 5.66671 16.8 5.66671 16.7333 5.60004C16.6 5.46671 16.6 5.2667 16.7333 5.13337L17.4 4.4667C17.5333 4.33337 17.7333 4.33337 17.8666 4.4667C18 4.60003 18 4.80004 17.8666 4.93337L17.2 5.60004C17.2 5.66671 17.0666 5.66671 17 5.66671Z" fill="#D03737" stroke="#D03737" stroke-width="0.5"/>
</g>
<defs>
<clipPath id="clip0">
<rect width="20" height="20" fill="white"/>
</clipPath>
</defs>
</svg>
