<svg width="21" height="20" viewBox="0 0 21 20" fill="none" xmlns="http://www.w3.org/2000/svg">
<path d="M19.159 4.5302C19.159 3.25038 18.1176 2.20898 16.8378 2.20898C15.558 2.20898 14.5166 3.25038 14.5166 4.5302C14.5166 5.70897 15.4006 6.68327 16.5398 6.83017V9.62802H10.9217V6.83017C12.0612 6.68327 12.9452 5.70897 12.9452 4.5302C12.9452 3.25038 11.9038 2.20898 10.6239 2.20898C9.34413 2.20898 8.30273 3.25038 8.30273 4.5302C8.30273 5.70897 9.1867 6.68327 10.3262 6.83017V9.62802H4.70785V6.83017C5.84732 6.68327 6.7313 5.70897 6.7313 4.5302C6.7313 3.25038 5.6899 2.20898 4.41008 2.20898C3.13007 2.20898 2.08887 3.25038 2.08887 4.5302C2.08887 5.70897 2.97285 6.68327 4.11231 6.83017V13.0214C2.97285 13.1683 2.08887 14.1424 2.08887 15.3212C2.08887 16.601 3.13027 17.6424 4.41008 17.6424C5.6899 17.6424 6.7313 16.601 6.7313 15.3212C6.7313 14.1424 5.84732 13.1683 4.70785 13.0214V10.2236H10.3262V13.0214C9.1867 13.1683 8.30273 14.1424 8.30273 15.3212C8.30273 16.601 9.34413 17.6424 10.6239 17.6424C11.9038 17.6424 12.9452 16.601 12.9452 15.3212C12.9452 14.1424 12.0612 13.1683 10.9217 13.0214V10.2236H16.8378C17.0022 10.2236 17.1356 10.0902 17.1356 9.92579V6.83017C18.275 6.68327 19.159 5.70897 19.159 4.5302ZM8.89826 4.5302C8.89826 3.57872 9.67227 2.80452 10.6239 2.80452C11.5756 2.80452 12.3496 3.57853 12.3496 4.5302C12.3496 5.48187 11.5756 6.25587 10.6239 6.25587C9.67247 6.25587 8.89826 5.48167 8.89826 4.5302ZM2.68441 4.5302C2.68441 3.57872 3.45861 2.80452 4.41008 2.80452C5.36156 2.80452 6.13576 3.57853 6.13576 4.5302C6.13576 5.48187 5.36175 6.25587 4.41008 6.25587C3.45841 6.25587 2.68441 5.48167 2.68441 4.5302ZM6.13576 15.3212C6.13576 16.2728 5.36175 17.0469 4.41008 17.0469C3.45841 17.0469 2.68441 16.2728 2.68441 15.3212C2.68441 14.3697 3.45861 13.5957 4.41008 13.5957C5.36156 13.5957 6.13576 14.3697 6.13576 15.3212ZM12.3496 15.3212C12.3496 16.2728 11.5756 17.0469 10.6239 17.0469C9.67247 17.0469 8.89826 16.2728 8.89826 15.3212C8.89826 14.3697 9.67227 13.5957 10.6239 13.5957C11.5756 13.5955 12.3496 14.3697 12.3496 15.3212ZM16.8378 6.25587C15.8863 6.25587 15.1123 5.48167 15.1123 4.5302C15.1123 3.57872 15.8863 2.80452 16.8378 2.80452C17.7895 2.80452 18.5635 3.57853 18.5635 4.5302C18.5635 5.48187 17.7895 6.25587 16.8378 6.25587Z" fill="#D03737" stroke="#D03737" stroke-width="0.55"/>
</svg>
