<svg width="134" height="134" viewBox="0 0 134 134" fill="none" xmlns="http://www.w3.org/2000/svg">
<g clip-path="url(#clip0)">
<path d="M129.921 75.7658C115.843 54.2104 117.34 32.1153 110.554 21.7266C103.768 11.3379 83.5454 -6.57348 35.7633 24.6374C-12.0189 55.8482 0.134151 89.7762 7.60093 101.2C42.5452 154.696 154.856 113.941 129.921 75.7658Z" fill="#EFEFEF"/>
<path d="M106.971 13.3906L102.594 12.2178L104.939 3.46381L109.316 4.63661L106.971 13.3906Z" fill="#A4AFC1"/>
<path d="M93.356 20.3223L84.602 17.9766L85.7748 13.5996L94.5288 15.9453L93.356 20.3223Z" fill="#A4AFC1"/>
<path d="M118.523 27.0635L109.769 24.7178L110.942 20.3408L119.696 22.6865L118.523 27.0635Z" fill="#A4AFC1"/>
<path d="M99.7915 101.919C117.776 83.9343 117.776 54.7757 99.7915 36.7912C81.807 18.8067 52.6484 18.8067 34.6639 36.7912C16.6794 54.7757 16.6794 83.9343 34.6639 101.919C52.6484 119.903 81.807 119.903 99.7915 101.919Z" fill="#0C1248"/>
<path d="M95.9045 98.0323C111.743 82.1943 111.743 56.5157 95.9045 40.6777C80.0665 24.8396 54.3879 24.8396 38.5499 40.6777C22.7118 56.5157 22.7118 82.1943 38.5499 98.0323C54.3879 113.87 80.0665 113.87 95.9045 98.0323Z" fill="#CDDFFA"/>
<path d="M34.375 69C34.375 47.742 50.9017 30.2632 72.0625 28.2077C70.6853 28.0729 69.2894 28 67.875 28C44.7488 28 26 46.3571 26 69C26 91.6429 44.7488 110 67.875 110C69.2894 110 70.6853 109.927 72.0625 109.792C50.9017 107.737 34.375 90.258 34.375 69Z" fill="#467BCB" fill-opacity="0.5"/>
<path d="M37.9854 65.1693L74.7538 94.1644L130 46.1035L37.9854 65.1693Z" fill="#6390D4"/>
<path d="M106.609 53.9072L53.7515 78.0428L53.9516 97.59L66.7162 88.0153L59.736 81.2327L106.609 53.9072Z" fill="#4976BA"/>
<path opacity="0.42" d="M59.7588 81.2838L106.434 54.0571L57.3417 79.6395L53.9517 97.5904L64.1724 85.6214L59.7588 81.2838Z" fill="#88B4F8"/>
<path d="M95.9117 100.665C95.6862 100.665 90.3985 100.589 90.3985 93.8575C90.3985 93.6776 90.2541 93.5332 90.0742 93.5332C89.8943 93.5332 89.7499 93.6776 89.7499 93.8575C89.7499 100.569 84.4622 100.665 84.2367 100.665C84.0644 100.665 83.9225 100.802 83.9149 100.975C83.9073 101.147 84.034 101.296 84.2063 101.312C88.7618 101.768 89.6181 105.206 89.7499 107.005V107.071C89.7093 107.699 89.7474 108.119 89.7524 108.152C89.755 108.17 89.7626 108.183 89.7676 108.201C89.7727 108.218 89.7752 108.239 89.7828 108.256C89.793 108.277 89.8056 108.292 89.8183 108.309C89.8284 108.325 89.8386 108.34 89.8512 108.353C89.8664 108.368 89.8842 108.378 89.9019 108.391C89.9171 108.401 89.9298 108.411 89.9475 108.418C89.9678 108.429 89.9906 108.431 90.0134 108.434C90.0286 108.436 90.0413 108.444 90.059 108.444C90.0641 108.444 90.0691 108.444 90.0742 108.444C90.0793 108.444 90.0843 108.444 90.0894 108.444C90.1046 108.444 90.1198 108.436 90.135 108.434C90.1578 108.429 90.1806 108.426 90.2009 108.418C90.2186 108.411 90.2313 108.401 90.2465 108.391C90.2642 108.378 90.282 108.368 90.2972 108.353C90.3098 108.34 90.32 108.325 90.3301 108.309C90.3428 108.292 90.3554 108.277 90.3656 108.256C90.3732 108.239 90.3757 108.221 90.3808 108.201C90.3858 108.185 90.3934 108.17 90.3934 108.152C90.396 108.119 90.434 107.709 90.396 107.098C90.4365 106.508 90.5531 105.718 90.8596 104.912C91.6729 102.776 93.3806 101.565 95.9396 101.309C96.1119 101.291 96.2386 101.142 96.231 100.969C96.2285 100.8 96.084 100.665 95.9117 100.665Z" fill="white"/>
<path d="M87.5152 113.668C87.5152 114.081 87.1807 114.413 86.7703 114.413C86.3573 114.413 86.0254 114.079 86.0254 113.668C86.0254 113.255 86.3598 112.923 86.7703 112.923C87.1807 112.921 87.5152 113.255 87.5152 113.668Z" fill="white"/>
<path d="M96.4649 106.209C96.4649 106.622 96.1304 106.954 95.72 106.954C95.307 106.954 94.9751 106.62 94.9751 106.209C94.9751 105.799 95.3095 105.464 95.72 105.464C96.1304 105.464 96.4649 105.799 96.4649 106.209Z" fill="white"/>
<path d="M83.7861 105.837C83.7861 106.455 83.2844 106.955 82.6687 106.955C82.0505 106.955 81.5488 106.453 81.5488 105.837C81.5488 105.219 82.0505 104.717 82.6687 104.717C83.2844 104.72 83.7861 105.219 83.7861 105.837Z" fill="white"/>
<path d="M74.7487 28.4281C74.5232 28.4281 69.2354 28.3521 69.2354 21.6202C69.2354 21.4403 69.091 21.2959 68.9111 21.2959C68.7312 21.2959 68.5868 21.4403 68.5868 21.6202C68.5868 28.3319 63.2991 28.4281 63.0736 28.4281C62.9013 28.4281 62.7594 28.565 62.7518 28.7372C62.7442 28.9095 62.8709 29.059 63.0432 29.0742C67.5987 29.5303 68.4551 32.9685 68.5868 34.7674V34.8332C68.5463 35.4616 68.5843 35.8822 68.5893 35.9151C68.5919 35.9328 68.5995 35.9455 68.6045 35.9632C68.6096 35.981 68.6121 36.0012 68.6197 36.019C68.6299 36.0392 68.6425 36.0545 68.6552 36.0722C68.6653 36.0874 68.6755 36.1026 68.6881 36.1153C68.7033 36.1305 68.7211 36.1406 68.7388 36.1533C68.754 36.1634 68.7667 36.1735 68.7844 36.1811C68.8047 36.1913 68.8275 36.1938 68.8503 36.1963C68.8655 36.1989 68.8782 36.2065 68.8959 36.2065C68.901 36.2065 68.906 36.2065 68.9111 36.2065C68.9162 36.2065 68.9212 36.2065 68.9263 36.2065C68.9415 36.2065 68.9567 36.1989 68.9719 36.1963C68.9947 36.1913 69.0175 36.1887 69.0378 36.1811C69.0555 36.1735 69.0682 36.1634 69.0834 36.1533C69.1011 36.1406 69.1189 36.1305 69.1341 36.1153C69.1467 36.1026 69.1569 36.0874 69.167 36.0722C69.1797 36.0545 69.1923 36.0392 69.2025 36.019C69.2101 36.0012 69.2126 35.9835 69.2177 35.9632C69.2227 35.948 69.2303 35.9328 69.2303 35.9151C69.2329 35.8822 69.2709 35.4717 69.2329 34.8611C69.2734 34.2708 69.39 33.4803 69.6965 32.6746C70.5098 30.5387 72.2175 29.3276 74.7765 29.0717C74.9488 29.054 75.0755 28.9045 75.0679 28.7322C75.0654 28.565 74.9235 28.4281 74.7487 28.4281Z" fill="white"/>
<path d="M66.3521 41.4309C66.3521 41.8439 66.0176 42.1758 65.6072 42.1758C65.1942 42.1758 64.8623 41.8414 64.8623 41.4309C64.8623 41.0179 65.1967 40.686 65.6072 40.686C66.0176 40.686 66.3521 41.0179 66.3521 41.4309Z" fill="white"/>
<path d="M75.3018 33.9749C75.3018 34.3879 74.9674 34.7198 74.5569 34.7198C74.1439 34.7198 73.812 34.3853 73.812 33.9749C73.812 33.5619 74.1465 33.23 74.5569 33.23C74.9674 33.2275 75.3018 33.5619 75.3018 33.9749Z" fill="white"/>
<path d="M78.2046 44.7176C78.2046 45.1306 77.8702 45.4625 77.4597 45.4625C77.0467 45.4625 76.7148 45.128 76.7148 44.7176C76.7148 44.3071 77.0493 43.9727 77.4597 43.9727C77.8702 43.9701 78.2046 44.3046 78.2046 44.7176Z" fill="white"/>
<path d="M62.623 33.5999C62.623 34.2181 62.1213 34.7172 61.5056 34.7172C60.8874 34.7172 60.3857 34.2155 60.3857 33.5999C60.3857 32.9816 60.8874 32.48 61.5056 32.48C62.1238 32.4825 62.623 32.9842 62.623 33.5999Z" fill="white"/>
<path d="M78.1136 18.7448C78.1136 19.363 77.6119 19.8647 76.9962 19.8647C76.3806 19.8647 75.8789 19.363 75.8789 18.7448C75.8789 18.1266 76.3806 17.6274 76.9962 17.6274C77.6119 17.6274 78.1136 18.1291 78.1136 18.7448Z" fill="white"/>
<path d="M83.7665 25.8112C83.7665 26.4294 83.2648 26.9285 82.6492 26.9285C82.031 26.9285 81.5293 26.4269 81.5293 25.8112C81.5293 25.1955 82.031 24.6939 82.6492 24.6939C83.2648 24.6913 83.7665 25.193 83.7665 25.8112Z" fill="white"/>
</g>
<defs>
<clipPath id="clip0">
<rect width="134" height="134" fill="white"/>
</clipPath>
</defs>
</svg>
