<svg width="134" height="134" viewBox="0 0 134 134" fill="none" xmlns="http://www.w3.org/2000/svg">
<path d="M129.921 75.766C115.843 54.2106 117.34 32.1155 110.554 21.7268C103.768 11.3381 83.5455 -6.57324 35.7633 24.6376C-12.0188 55.8484 0.134212 89.7765 7.60099 101.2C42.5452 154.696 154.856 113.941 129.921 75.766Z" fill="#EFEFEF"/>
<path d="M67 108.875C90.1269 108.875 108.875 90.1269 108.875 67C108.875 43.8731 90.1269 25.125 67 25.125C43.8731 25.125 25.125 43.8731 25.125 67C25.125 90.1269 43.8731 108.875 67 108.875Z" fill="#2FDF84"/>
<path d="M33.5 67C33.5 45.2883 50.0267 27.4365 71.1875 25.3372C69.8103 25.1994 68.4144 25.125 67 25.125C43.8738 25.125 25.125 43.8738 25.125 67C25.125 90.1262 43.8738 108.875 67 108.875C68.4144 108.875 69.8103 108.801 71.1875 108.663C50.0267 106.564 33.5 88.7117 33.5 67Z" fill="#00B871"/>
<path d="M104.223 117.25C101.145 117.25 98.6395 114.745 98.6395 111.667C98.6395 108.589 101.145 106.083 104.223 106.083C107.301 106.083 109.806 108.589 109.806 111.667C109.806 114.745 107.301 117.25 104.223 117.25ZM104.223 109.806C103.195 109.806 102.362 110.639 102.362 111.667C102.362 112.694 103.195 113.528 104.223 113.528C105.25 113.528 106.084 112.694 106.084 111.667C106.084 110.639 105.25 109.806 104.223 109.806Z" fill="#A4AFC1"/>
<path d="M66.9998 111.667C42.3698 111.667 22.3331 91.6301 22.3331 67.0002C22.3331 42.3702 42.3698 22.3335 66.9998 22.3335C91.6297 22.3335 111.666 42.3702 111.666 67.0002C111.666 91.6301 91.6297 111.667 66.9998 111.667ZM66.9998 27.9168C45.4481 27.9168 27.9165 45.4485 27.9165 67.0002C27.9165 88.5518 45.4481 106.083 66.9998 106.083C88.5515 106.083 106.083 88.5518 106.083 67.0002C106.083 45.4485 88.5515 27.9168 66.9998 27.9168Z" fill="#0C1248"/>
<path d="M62.8119 81.8894C62.0972 81.8894 61.3825 81.6176 60.8391 81.0705L48.7419 68.9733L52.6912 65.024L62.8156 75.1484L85.0373 52.9268L88.9866 56.876L64.7921 81.0705C64.2412 81.6176 63.5266 81.8894 62.8119 81.8894Z" fill="#0C1248"/>
<path d="M98.5443 13.3909L94.1672 12.2181L96.5129 3.46405L100.89 4.63686L98.5443 13.3909Z" fill="#A4AFC1"/>
<path d="M84.9296 20.322L76.1756 17.9764L77.3484 13.5994L86.1024 15.945L84.9296 20.322Z" fill="#A4AFC1"/>
<path d="M110.097 27.0635L101.343 24.7178L102.516 20.3408L111.27 22.6865L110.097 27.0635Z" fill="#A4AFC1"/>
</svg>
