<svg width="22" height="37" viewBox="0 0 22 37" fill="none" xmlns="http://www.w3.org/2000/svg">
<path d="M19.3719 31.2163C19.3719 32.9998 17.9209 34.4509 16.1373 34.4509C14.3538 34.4509 12.9028 32.9998 12.9028 31.2163C12.9028 29.4327 14.3538 27.9817 16.1373 27.9817C17.9209 27.9817 19.3719 29.4327 19.3719 31.2163ZM18.9482 3.12311C19.0169 4.41423 18.9405 6.42612 17.9719 7.56546C17.4722 8.15338 16.8073 8.45148 15.9958 8.45148C15.1836 8.45148 14.5237 8.15323 14.0344 7.56502C13.1057 6.44918 13.0529 4.49551 13.1416 3.19996C12.3599 3.93257 11.3687 5.13176 11.3172 6.53594C11.2694 7.84775 12.0593 9.13457 13.6654 10.3608C13.7919 10.4573 13.867 10.6069 13.8687 10.7662L14.0604 28.0835C14.0622 28.2394 13.9936 28.3877 13.8738 28.4871C13.0588 29.164 12.5915 30.1587 12.5915 31.2163C12.5915 33.1714 14.1822 34.762 16.1373 34.762C18.0925 34.762 19.683 33.1714 19.683 31.2163C19.683 30.0548 19.112 28.9651 18.1553 28.3014C18.0159 28.2047 17.9329 28.0458 17.9329 27.8763V10.7074C17.9329 10.5203 18.034 10.3478 18.1971 10.2562C18.2231 10.2415 20.8611 8.72815 20.9566 6.57747C21.0074 5.43459 20.3326 4.27575 18.9482 3.12311Z" fill="#D03737"/>
<path d="M20.9564 6.57734C20.8609 8.72802 18.223 10.2414 18.197 10.256C18.0338 10.3477 17.9327 10.5202 17.9327 10.7073V27.8762C17.9327 28.0457 18.0158 28.2046 18.1551 28.3012C19.1118 28.965 19.6829 30.0546 19.6829 31.2161C19.6829 33.1713 18.0923 34.7618 16.1372 34.7618C14.182 34.7618 12.5913 33.1713 12.5913 31.2161C12.5913 30.1585 13.0587 29.1639 13.8736 28.487C13.9934 28.3875 14.062 28.2393 14.0602 28.0834L13.8686 10.7661C13.8668 10.6068 13.7917 10.4572 13.6652 10.3607C12.0591 9.13445 11.2692 7.84762 11.3171 6.53581C11.3685 5.13163 12.3597 3.93244 13.1414 3.19983C13.0527 4.49538 13.1055 6.44905 14.0342 7.56489C14.5236 8.1531 15.1835 8.45135 15.9956 8.45135C16.8071 8.45135 17.472 8.15325 17.9717 7.56533C18.9404 6.426 19.0168 4.4141 18.948 3.12299C20.3324 4.27562 21.0072 5.43446 20.9564 6.57734ZM18.6105 1.57441C18.4398 1.45706 18.2156 1.45277 18.0406 1.56362C17.8656 1.67447 17.7735 1.87901 17.8066 2.08356C17.9611 3.03682 18.15 5.75975 17.183 6.89598C16.8847 7.2464 16.4963 7.4168 15.9956 7.4168C15.4987 7.4168 15.1174 7.24891 14.83 6.90381C13.8876 5.77261 14.1361 3.0485 14.3113 2.09435C14.3487 1.89098 14.2617 1.68496 14.0897 1.57027C13.9178 1.45573 13.6942 1.45426 13.5208 1.56688C13.3931 1.64979 10.3917 3.63287 10.2836 6.4928C10.2225 8.10152 11.0813 9.62571 12.8368 11.0263L13.0232 27.8574C12.0883 28.7239 11.5568 29.9342 11.5568 31.2161C11.5568 33.7418 13.6116 35.7964 16.1372 35.7964C18.6627 35.7964 20.7174 33.7418 20.7174 31.2161C20.7174 29.808 20.068 28.4818 18.9673 27.6156V10.9969C19.7339 10.5021 21.8853 8.91468 21.9898 6.62818C22.07 4.87285 20.933 3.17249 18.6105 1.57441Z" fill="#04071A"/>
<path d="M16.1372 33.4164C14.9241 33.4164 13.9371 32.4294 13.9371 31.2163C13.9371 30.0031 14.9241 29.0163 16.1372 29.0163C17.3503 29.0163 18.3372 30.0031 18.3372 31.2163C18.3372 32.4294 17.3503 33.4164 16.1372 33.4164ZM12.9026 31.2163C12.9026 32.9999 14.3536 34.4509 16.1372 34.4509C17.9207 34.4509 19.3718 32.9999 19.3718 31.2163C19.3718 29.4328 17.9207 27.9817 16.1372 27.9817C14.3536 27.9817 12.9026 29.4328 12.9026 31.2163Z" fill="#04071A"/>
<path d="M5.09512 22.605V20.3811C5.09512 20.0955 5.32672 19.8639 5.6124 19.8639H6.77183V18.8991H5.2577C4.97201 18.8991 4.74042 18.6676 4.74042 18.3818V6.77314C4.74042 6.6552 4.78062 6.54081 4.85467 6.44889L5.93355 5.10752V1.0345H1.8731V5.10752L2.95198 6.44889C3.02588 6.54081 3.06623 6.6552 3.06623 6.77314V18.3818C3.06623 18.6676 2.83464 18.8991 2.54895 18.8991H1.03467V19.8639H2.19425C2.47993 19.8639 2.71152 20.0955 2.71152 20.3811V22.605H5.09512Z" fill="#D03737"/>
<path d="M2.29091 26.2517H1.03467V34.8328C1.03467 35.1316 1.27779 35.3748 1.57662 35.3748H2.29091V26.2517Z" fill="#0C1248"/>
<path d="M6.77153 34.8328V26.2517H5.66309V35.3748H6.22972C6.52841 35.3748 6.77153 35.1316 6.77153 34.8328Z" fill="#0C1248"/>
<path d="M4.90182 26.2517H3.05249V35.3748H4.90182V26.2517Z" fill="#0C1248"/>
<path d="M5.66327 26.2515H6.77171V34.8327C6.77171 35.1315 6.52859 35.3746 6.2299 35.3746H5.66327V26.2515ZM1.03455 34.8327V26.2515H2.29079V35.3746H1.5765C1.27767 35.3746 1.03455 35.1315 1.03455 34.8327ZM3.05236 35.3746V26.2515H4.90169V35.3746H3.05236ZM2.19413 19.8639H1.03455V18.8992H2.54883C2.83452 18.8992 3.06611 18.6677 3.06611 18.3819V6.77321C3.06611 6.65527 3.02576 6.54088 2.95186 6.44896L1.87298 5.10759V1.03457H5.93343V5.10759L4.85455 6.44896C4.7805 6.54088 4.7403 6.65527 4.7403 6.77321V18.3819C4.7403 18.6677 4.97189 18.8992 5.25758 18.8992H6.77171V19.8639H5.61228C5.3266 19.8639 5.09501 20.0955 5.09501 20.3812V22.6051H2.7114V20.3812C2.7114 20.0955 2.47981 19.8639 2.19413 19.8639ZM1.5765 36.4092H6.2299C7.09907 36.4092 7.80626 35.702 7.80626 34.8327V25.7343V24.3104V23.1223C7.80626 22.8366 7.57467 22.6051 7.28899 22.6051H6.12955V20.8985H7.28899C7.57467 20.8985 7.80626 20.6669 7.80626 20.3812V18.3819C7.80626 18.0962 7.57467 17.8646 7.28899 17.8646H5.77485V6.95529L6.85374 5.61407C6.92778 5.52214 6.96798 5.40775 6.96798 5.28982V0.517296C6.96798 0.231613 6.73639 2.28882e-05 6.45071 2.28882e-05H1.3557C1.07002 2.28882e-05 0.838429 0.231613 0.838429 0.517296V5.28982C0.838429 5.40775 0.878628 5.52214 0.952673 5.61407L2.03156 6.95529V17.8646H0.517274C0.231443 17.8646 0 18.0962 0 18.3819V20.3812C0 20.6669 0.231443 20.8985 0.517274 20.8985H1.67686V22.6051H0.517274C0.231443 22.6051 0 22.8366 0 23.1223V24.3104V25.7343V34.8327C0 35.702 0.707188 36.4092 1.5765 36.4092Z" fill="#04071A"/>
</svg>
