<svg width="30" height="36" viewBox="0 0 30 36" fill="none" xmlns="http://www.w3.org/2000/svg">
<path d="M5.98368 22.7559V10.7641H1.25195V27.7234H5.98368V22.7559Z" fill="#D03737"/>
<path d="M27.2508 2.07667C26.1503 1.90943 24.5958 1.71412 23.1057 1.66851V4.57447L28.7479 8.19409V3.81681C28.7479 2.94039 28.1183 2.20849 27.2508 2.07667Z" fill="#CCD4EB"/>
<path d="M23.1057 6.06213V10.2702L28.7479 13.8896V9.68175L23.1057 6.06213Z" fill="#CCD4EB"/>
<path d="M21.8538 17.4537L16.2114 21.0731V25.281L21.8538 21.6616V17.4537Z" fill="#CCD4EB"/>
<path d="M21.8538 11.7579L16.2114 15.3774V19.5854L21.8538 15.966V11.7579Z" fill="#CCD4EB"/>
<path d="M16.2114 3.81681V8.19409L21.8538 4.57447V1.66851C20.3637 1.71412 18.8092 1.90943 17.7085 2.07667C16.841 2.20849 16.2114 2.94039 16.2114 3.81681Z" fill="#CCD4EB"/>
<path d="M21.8538 6.06213L16.2114 9.68175V13.8896L21.8538 10.2702V6.06213Z" fill="#CCD4EB"/>
<path d="M28.7479 25.281V21.0731L23.1057 17.4537V21.6616L28.7479 25.281Z" fill="#CCD4EB"/>
<path d="M28.7479 26.7682L23.1057 23.1488V27.3567L28.7479 30.9763V26.7682Z" fill="#CCD4EB"/>
<path d="M21.8538 23.1488L16.2114 26.7682V30.9763L21.8538 27.3567V23.1488Z" fill="#CCD4EB"/>
<path d="M23.1057 15.966L28.7479 19.5854V15.3774L23.1057 11.7579V15.966Z" fill="#CCD4EB"/>
<path d="M17.7076 34.3313C18.8029 34.4978 20.3544 34.6926 21.8538 34.738V28.8444L16.2114 32.464V32.5911C16.2114 33.4674 16.8407 34.1991 17.7076 34.3313Z" fill="#CCD4EB"/>
<path d="M28.7479 32.5911V32.464L23.1057 28.8444V34.738C24.6049 34.6926 26.1564 34.4978 27.2519 34.3313C28.1187 34.1991 28.7479 33.4674 28.7479 32.5911Z" fill="#CCD4EB"/>
<path d="M28.748 8.19417L23.1058 4.57455V1.66858C24.5959 1.71419 26.1504 1.90951 27.2509 2.07675C28.1184 2.20857 28.748 2.94046 28.748 3.81689V8.19417ZM23.1058 34.7381V28.8444L28.748 32.4641V32.5912C28.748 33.4675 28.1187 34.1992 27.252 34.3313C26.1564 34.4979 24.605 34.6927 23.1058 34.7381ZM16.2114 32.4641L21.8538 28.8444V34.7381C20.3544 34.6927 18.8029 34.4979 17.7076 34.3313C16.8406 34.1992 16.2114 33.4675 16.2114 32.5912V32.4641ZM16.2114 22.756V21.0729L21.8538 17.4535V21.6614L16.2114 25.2808V22.756ZM21.8538 1.66858V4.57455L16.2114 8.19417V3.81689C16.2114 2.94046 16.841 2.20857 17.7085 2.07675C18.8092 1.90951 20.3637 1.71419 21.8538 1.66858ZM23.1058 10.2702V6.06214L28.748 9.68176V13.8897L23.1058 10.2702ZM16.2114 26.7684L21.8538 23.149V27.3569L16.2114 30.9765V26.7684ZM16.2114 15.7316V15.3772L21.8538 11.7578V15.9659L16.2114 19.5853V15.7316ZM16.2114 9.68176L21.8538 6.06214V10.2702L16.2114 13.8897V9.68176ZM23.1058 23.149L28.748 26.7684V30.9765L23.1058 27.3569V23.149ZM28.748 21.0729V25.2808L23.1058 21.6614V17.4535L28.748 21.0729ZM28.748 19.5853L23.1058 15.9659V11.7578L28.748 15.3772V19.5853ZM1.25203 10.7642H5.98376V27.7235H1.25203V10.7642ZM27.4389 0.83902C26.1403 0.64156 24.2258 0.406536 22.4798 0.406536C20.7337 0.406536 18.8192 0.64156 17.5205 0.83902C16.0365 1.06421 14.9594 2.3166 14.9594 3.81689V15.1056H7.23579V10.1382C7.23579 9.79247 6.95555 9.5122 6.60978 9.5122H0.626015C0.28024 9.5122 0 9.79247 0 10.1382V28.3495C0 28.6953 0.28024 28.9756 0.626015 28.9756H6.60978C6.95555 28.9756 7.23579 28.6953 7.23579 28.3495V23.382H14.9594V32.5912C14.9594 34.0908 16.0359 35.3432 17.519 35.5689C18.811 35.7657 20.7201 36 22.4798 36C24.2392 36 26.1484 35.7657 27.4403 35.5689C28.9236 35.3432 30 34.091 30 32.5912V3.81689C30 2.3166 28.9229 1.06421 27.4389 0.83902Z" fill="#0C1248"/>
</svg>
