<svg width="48" height="20" viewBox="0 0 48 20" fill="none" xmlns="http://www.w3.org/2000/svg">
<path d="M45.6704 10.7549C45.5304 9.01482 44.2668 6.80789 42.5393 6.54233L35.3605 5.73127L29.8307 0.797132C29.4961 0.298896 28.9353 6.77109e-05 28.3352 6.77109e-05H18.1211C17.1258 6.77109e-05 16.9436 0.425826 16.3191 1.80204L15.0107 5.95849H1.04663V11.9983C1.04663 14.0538 2.71285 15.72 4.7683 15.72H45.7845C46.4402 15.72 46.9713 15.1879 46.9713 14.5331V12.0424C46.9713 11.331 46.3942 10.7549 45.6828 10.7549H45.6704Z" fill="#D03737"/>
<path d="M46.0712 15.718H3.84403C3.42814 15.718 3.09106 15.3806 3.09106 14.9645V14.9491C3.09106 14.534 3.42814 14.1966 3.84403 14.1966H47.3473V14.442C47.3473 15.1466 46.7759 15.718 46.0712 15.718Z" fill="#0C1248"/>
<path d="M14.6541 13.2493C14.6541 10.5525 12.4682 8.36665 9.77165 8.36665H9.673C6.97646 8.36665 4.79053 10.5525 4.79053 13.2493V15.6758H14.6541V13.2493Z" fill="#182B31"/>
<path d="M43.7616 13.2493C43.7616 10.5525 41.5757 8.36665 38.8798 8.36665H38.7811C36.0843 8.36665 33.8984 10.5525 33.8984 13.2493V15.6758H43.7616V13.2493Z" fill="#182B31"/>
<path d="M32.492 4.36897L29.8968 1.86513C29.4711 1.47255 28.9966 1.27879 28.6361 1.27879H22.8791C22.6538 1.27879 22.4717 1.46133 22.4717 1.68643V5.55105C22.4717 5.77538 22.6538 5.9585 22.8791 5.9585H31.6062C32.422 5.9585 32.9215 5.06307 32.492 4.36897Z" fill="#9CD1DD"/>
<path d="M22.8792 1.37674C22.7086 1.37674 22.5696 1.51565 22.5696 1.6863V5.55092C22.5696 5.72157 22.7086 5.85962 22.8792 5.85962H31.6063C31.9533 5.85962 32.2611 5.67938 32.4308 5.37548C32.5976 5.07636 32.5918 4.72356 32.4145 4.43077L29.8289 1.93556C29.4502 1.58631 29.0034 1.37674 28.6362 1.37674H22.8792ZM31.6063 6.05615H22.8792C22.6003 6.05615 22.373 5.8299 22.373 5.55092V1.6863C22.373 1.40741 22.6003 1.18049 22.8792 1.18049H28.6362C29.0514 1.18049 29.548 1.40943 29.9631 1.79291L32.5688 4.30672L32.5755 4.31717C32.796 4.67371 32.8056 5.10512 32.6014 5.47135C32.3982 5.83757 32.0252 6.05615 31.6063 6.05615Z" fill="#182B31"/>
<path d="M21.3283 1.27879H18.4808C18.2351 1.27879 18.025 1.45538 17.9827 1.69726L17.3416 5.36602C17.2877 5.67472 17.5257 5.9585 17.8397 5.9585H21.3283C21.6075 5.9585 21.8338 5.73224 21.8338 5.45326V1.78431C21.8338 1.50514 21.6075 1.27879 21.3283 1.27879Z" fill="#9CD1DD"/>
<path d="M18.4806 1.37674C18.2822 1.37674 18.1135 1.51863 18.0794 1.71401L17.4383 5.38219C17.4175 5.50106 17.4501 5.62282 17.5276 5.71485C17.6053 5.80689 17.7189 5.85962 17.8396 5.85962H21.3282C21.5528 5.85962 21.7357 5.67747 21.7357 5.45313V1.78428C21.7357 1.55956 21.5528 1.37674 21.3282 1.37674H18.4806ZM21.3282 6.05615H17.8396C17.6609 6.05615 17.4924 5.97754 17.3774 5.8414C17.2624 5.70431 17.2141 5.52503 17.2449 5.34863L17.886 1.68026C17.9365 1.39064 18.1867 1.18049 18.4806 1.18049H21.3282C21.6611 1.18049 21.9319 1.45132 21.9319 1.78428V5.45313C21.9319 5.7858 21.6611 6.05615 21.3282 6.05615Z" fill="#182B31"/>
<path d="M14.103 15.274C14.0409 17.6708 12.0476 19.5633 9.65074 19.5009C7.25399 19.4386 5.36133 17.4455 5.42336 15.0487C5.48548 12.652 7.4788 10.7595 9.87556 10.8209C12.2724 10.8832 14.1651 12.8763 14.103 15.274Z" fill="#182B31"/>
<path d="M14.1032 15.4209C14.1018 15.4209 14.1006 15.4209 14.0992 15.4209C14.018 15.419 13.9539 15.3509 13.956 15.2694C13.985 14.1497 13.5762 13.0855 12.8048 12.2735C12.0334 11.4615 10.9918 10.9975 9.87186 10.9687C8.75306 10.9409 7.68793 11.3483 6.87543 12.1201C6.06303 12.8909 5.5996 13.933 5.57055 15.0528C5.56854 15.1342 5.50095 15.2023 5.41965 15.1956C5.33835 15.1937 5.27431 15.1266 5.27642 15.0451C5.30738 13.8467 5.80333 12.7317 6.67267 11.9063C7.54222 11.0809 8.68144 10.6418 9.87953 10.6744C11.0781 10.7051 12.1928 11.2017 13.0182 12.0712C13.8438 12.9398 14.2814 14.0787 14.2502 15.2771C14.2482 15.3576 14.1827 15.4209 14.1032 15.4209Z" fill="#EEE1E1"/>
<path d="M13.24 15.2511C13.1902 17.1714 11.5933 18.6881 9.67315 18.6382C7.75288 18.5884 6.23659 16.9912 6.28635 15.0709C6.33601 13.1506 7.93301 11.6349 9.85319 11.6848C11.7735 11.7346 13.2898 13.3308 13.24 15.2511Z" fill="#424B55"/>
<path d="M12.8782 15.2415C12.8337 16.9624 11.4029 18.3209 9.68242 18.2768C7.96203 18.2317 6.60346 16.8013 6.64804 15.0805C6.69262 13.3606 8.12338 12.0011 9.84386 12.0462C11.5642 12.0903 12.9228 13.5216 12.8782 15.2415Z" fill="#182B31"/>
<path d="M12.6513 15.2003C12.6108 16.764 11.3105 17.9988 9.74694 17.9585C8.1834 17.9173 6.94879 16.6173 6.98925 15.0537C7.0297 13.49 8.33009 12.2562 9.89363 12.2964C11.4572 12.3367 12.6918 13.6367 12.6513 15.2003Z" fill="#424B55"/>
<path d="M11.0653 15.1946C11.0459 15.9462 10.4212 16.5397 9.67002 16.5195C8.91888 16.5003 8.32573 15.8753 8.34519 15.1246C8.36465 14.373 8.98934 13.7805 9.74048 13.7997C10.4916 13.8189 11.0848 14.4439 11.0653 15.1946Z" fill="#182B31"/>
<path d="M8.07614 11.8171C8.05246 11.8171 8.02868 11.8085 8.0098 11.7913C7.96992 11.7548 7.96722 11.6925 8.00375 11.6522C8.14449 11.4989 8.35972 11.4135 8.56814 11.4327C8.62221 11.4365 8.66219 11.4845 8.65759 11.5382C8.65298 11.5928 8.60611 11.6331 8.55146 11.6283C8.40229 11.6158 8.2489 11.6753 8.14852 11.7845C8.12915 11.8056 8.1027 11.8171 8.07614 11.8171Z" fill="#EEE1E1"/>
<path d="M8.35171 12.1047C8.31461 12.1047 8.27914 12.0836 8.26256 12.0482C8.23974 11.9983 8.26112 11.9408 8.3103 11.9178L8.50607 11.8267C8.55525 11.8037 8.61373 11.8258 8.63645 11.8746C8.65927 11.9235 8.63789 11.982 8.58871 12.005L8.39295 12.0951C8.37962 12.1019 8.36552 12.1047 8.35171 12.1047Z" fill="#EEE1E1"/>
<path d="M43.0839 15.274C43.0216 17.6708 41.0284 19.5633 38.6317 19.5009C36.2349 19.4386 34.3424 17.4455 34.4038 15.0487C34.4661 12.652 36.4593 10.7595 38.856 10.8209C41.2528 10.8832 43.1462 12.8763 43.0839 15.274Z" fill="#182B31"/>
<path d="M43.0841 15.4209C43.0832 15.4209 43.0812 15.4209 43.0803 15.4209C42.9988 15.419 42.9346 15.3509 42.9365 15.2694C42.9662 14.1497 42.5568 13.0855 41.786 12.2735C41.0143 11.4615 39.9731 10.9975 38.8524 10.9687C37.7336 10.9409 36.6685 11.3483 35.8565 12.1201C35.0435 12.8909 34.5804 13.933 34.5517 15.0528C34.5498 15.1342 34.4788 15.2023 34.4002 15.1956C34.3197 15.1937 34.2554 15.1266 34.2574 15.0451C34.288 13.8467 34.7837 12.7317 35.6532 11.9063C36.5228 11.0809 37.6617 10.6418 38.8601 10.6744C40.0585 10.7051 41.1734 11.2017 41.9989 12.0712C42.8243 12.9398 43.2624 14.0787 43.2308 15.2771C43.2289 15.3576 43.1637 15.4209 43.0841 15.4209Z" fill="#EEE1E1"/>
<path d="M42.2212 15.2511C42.1713 17.1714 40.5741 18.6881 38.6539 18.6382C36.7336 18.5884 35.2179 16.9912 35.2668 15.0709C35.3166 13.1506 36.9138 11.6349 38.8341 11.6848C40.7544 11.7346 42.271 13.3308 42.2212 15.2511Z" fill="#424B55"/>
<path d="M41.8587 15.2415C41.8146 16.9624 40.3832 18.3209 38.6633 18.2768C36.9424 18.2317 35.584 16.8013 35.629 15.0805C35.6731 13.3606 37.1045 12.0011 38.8244 12.0462C40.5452 12.0903 41.9037 13.5216 41.8587 15.2415Z" fill="#182B31"/>
<path d="M41.6323 15.2003C41.5911 16.764 40.2911 17.9988 38.7275 17.9585C37.1638 17.9173 35.929 16.6173 35.9702 15.0537C36.0105 13.49 37.3105 12.2562 38.8741 12.2964C40.4378 12.3367 41.6726 13.6367 41.6323 15.2003Z" fill="#424B55"/>
<path d="M40.046 15.1946C40.0268 15.9462 39.4017 16.5397 38.6511 16.5195C37.8994 16.5003 37.307 15.8753 37.3261 15.1246C37.3453 14.373 37.9704 13.7805 38.721 13.7997C39.4727 13.8189 40.0661 14.4439 40.046 15.1946Z" fill="#182B31"/>
<path d="M37.0565 11.8171C37.0335 11.8171 37.0095 11.8085 36.9904 11.7913C36.951 11.7548 36.9482 11.6925 36.9846 11.6522C37.1255 11.4989 37.3403 11.4135 37.5493 11.4327C37.603 11.4365 37.6432 11.4845 37.6384 11.5382C37.6336 11.5928 37.5876 11.6331 37.532 11.6283C37.3834 11.6158 37.23 11.6753 37.1294 11.7845C37.1102 11.8056 37.0833 11.8171 37.0565 11.8171Z" fill="#EEE1E1"/>
<path d="M37.3328 12.1047C37.2954 12.1047 37.26 12.0836 37.2437 12.0482C37.2207 11.9983 37.2418 11.9408 37.2916 11.9178L37.4872 11.8267C37.5361 11.8037 37.5946 11.8258 37.6176 11.8746C37.6406 11.9235 37.6185 11.982 37.5696 12.005L37.3741 12.0951C37.3606 12.1019 37.3463 12.1047 37.3328 12.1047Z" fill="#EEE1E1"/>
<path d="M14.9157 6.50977H0V5.52901H14.9157V6.50977Z" fill="#0C1248"/>
<path d="M3.70145 11.3743C3.6911 11.3743 3.68055 11.3733 3.6701 11.3695C3.61872 11.3522 3.59111 11.2966 3.60846 11.2448C4.4385 8.77907 6.83151 6.93357 9.42748 6.75813C12.0242 6.58364 14.6433 8.08785 15.7981 10.4194C15.8222 10.4683 15.8023 10.5277 15.7537 10.5517C15.7047 10.5757 15.6463 10.5555 15.6222 10.5066C14.5017 8.24411 11.9598 6.7821 9.44071 6.9537C6.92173 7.12435 4.59995 8.9152 3.79435 11.3081C3.78064 11.3484 3.74239 11.3743 3.70145 11.3743Z" fill="#EEE1E1"/>
<path d="M31.8642 11.3743C31.8546 11.3743 31.8441 11.3733 31.8335 11.3695C31.7818 11.3522 31.754 11.2966 31.7712 11.2448C32.6015 8.77907 34.9944 6.93357 37.5905 6.75813C40.1877 6.58364 42.8068 8.08785 43.9611 10.4194C43.9851 10.4683 43.9659 10.5277 43.917 10.5517C43.8681 10.5757 43.8096 10.5555 43.7857 10.5066C42.6649 8.24411 40.1225 6.7821 37.604 6.9537C35.0845 7.12435 32.7635 8.9152 31.9572 11.3081C31.9438 11.3484 31.9054 11.3743 31.8642 11.3743Z" fill="#EEE1E1"/>
<path d="M43.1751 7.32848C43.3774 7.97177 43.8174 8.54795 44.3878 8.90458C44.4137 8.92088 44.5038 8.97457 44.5498 8.95539C44.6074 8.93142 44.6007 8.80584 44.5661 8.69942C44.3974 8.18556 43.8893 7.82892 43.3965 7.48475C43.3237 7.43394 43.2489 7.38121 43.1751 7.32848ZM44.5249 9.15576C44.4329 9.15576 44.3476 9.1107 44.2843 9.0714C43.5911 8.63806 43.0792 7.90178 42.9143 7.10223C42.9057 7.06196 42.9229 7.02074 42.9584 6.99869C42.9939 6.97759 43.0389 6.97951 43.0706 7.0054C43.2067 7.11277 43.3534 7.21535 43.5097 7.32464C44.0274 7.68703 44.5633 8.06188 44.7531 8.63902C44.8307 8.87582 44.7809 9.07044 44.6265 9.13563C44.5949 9.14905 44.5604 9.15576 44.5249 9.15576Z" fill="#EEE1E1"/>
<path d="M34.934 7.67065H17.7123C17.6582 7.67065 17.6143 7.62751 17.6143 7.57287C17.6143 7.51822 17.6582 7.47508 17.7123 7.47508H34.934C34.9887 7.47508 35.0318 7.51822 35.0318 7.57287C35.0318 7.62751 34.9887 7.67065 34.934 7.67065Z" fill="#EEE1E1"/>
<path d="M22.9983 7.19809C22.9302 7.2489 22.9072 7.34382 22.9235 7.42722C22.9388 7.50967 22.9867 7.58349 23.0385 7.64964C23.1651 7.81166 23.3233 7.94971 23.4997 8.05421C23.6233 8.12611 23.7652 8.18364 23.9052 8.15775C24.0317 8.13474 24.1362 8.04654 24.2264 7.95451C24.4152 7.76277 24.5696 7.53843 24.6837 7.29492C24.2321 7.21631 23.4565 7.17413 22.9983 7.19809Z" fill="#182B31"/>
<path d="M23.0325 7.91217C23.74 7.90833 24.4485 7.9045 25.157 7.90066C25.1627 7.74247 25.2078 7.58525 25.2854 7.4472C24.4236 7.46925 23.5636 7.53156 22.7085 7.6351C22.6519 7.70509 22.695 7.81726 22.7717 7.86423C22.8475 7.91217 22.9424 7.91313 23.0325 7.91217Z" fill="#0C1248"/>
<path d="M22.2753 14.9492H22.0791V0.949224H22.2753V14.9492Z" fill="#182B31"/>
<path d="M25.721 1.92387C25.4612 2.07764 25.2618 2.31233 25.072 2.54625C24.3299 3.45941 23.6579 4.42933 23.0645 5.4446C23.2504 5.56347 23.5045 5.51842 23.6886 5.39666C23.8726 5.27586 24.004 5.09084 24.1353 4.91252C25.0538 3.67359 26.1965 2.60186 27.4936 1.76626C26.8935 1.68572 26.2416 1.61497 25.721 1.92387Z" fill="white"/>
<path d="M29.6623 2.87767C29.7562 2.42056 29.4092 1.95013 28.9663 1.80412C28.5233 1.65821 28.0258 1.78446 27.6298 2.03047C27.2329 2.27647 26.9175 2.6311 26.6079 2.98064C25.8208 3.87022 25.0337 4.75998 24.2466 5.64966C25.1017 5.59885 25.9742 5.54516 26.7728 5.23454C27.6241 4.90379 28.3374 4.3022 29.0334 3.71107C29.3037 3.48136 29.5904 3.2253 29.6623 2.87767Z" fill="white"/>
</svg>
