<svg width="36" height="36" viewBox="0 0 36 36" fill="none" xmlns="http://www.w3.org/2000/svg">
<path d="M17.9987 30.8175C10.9314 30.8175 5.18167 25.0677 5.18167 18.0003C5.18167 10.933 10.9314 5.1832 17.9987 5.1832C25.0662 5.1832 30.8163 10.933 30.8163 18.0003C30.8163 25.0677 25.0662 30.8175 17.9987 30.8175ZM34.4991 18.0003C34.4991 8.90243 27.0966 1.50055 17.9987 1.50055C8.90075 1.50055 1.49902 8.90243 1.49902 18.0003C1.49902 27.0983 8.90075 34.5 17.9987 34.5C27.0966 34.5 34.4991 27.0983 34.4991 18.0003Z" fill="#D03737"/>
<path d="M1.49901 18.0003C1.49901 8.90244 8.90074 1.50056 17.9987 1.50056C27.0966 1.50056 34.499 8.90244 34.499 18.0003C34.499 27.0983 27.0966 34.5 17.9987 34.5C8.90074 34.5 1.49901 27.0983 1.49901 18.0003ZM17.9987 0.50058C8.34932 0.50058 0.499023 8.35088 0.499023 18.0003C0.499023 27.6497 8.34932 35.5 17.9987 35.5C27.6481 35.5 35.499 27.6497 35.499 18.0003C35.499 8.35088 27.6481 0.50058 17.9987 0.50058Z" fill="#0C1248"/>
<path d="M27.5543 17.7704C27.3964 17.7704 27.2686 17.8982 27.2686 18.0561C27.2686 18.2138 27.3964 18.3418 27.5543 18.3418H29.8072C29.7205 21.3763 28.4856 24.1266 26.5209 26.1742L24.9575 24.6107C24.8459 24.4991 24.6651 24.4991 24.5535 24.6107C24.4418 24.7224 24.4418 24.9031 24.5535 25.0148L26.1156 26.5768C24.0613 28.5219 21.3128 29.7379 18.2844 29.8103V27.6115C18.2844 27.4538 18.1564 27.3258 17.9987 27.3258C17.8409 27.3258 17.713 27.4538 17.713 27.6115V29.8103C14.6846 29.7379 11.9361 28.5219 9.882 26.5768L11.444 25.0148C11.5555 24.9031 11.5555 24.7224 11.444 24.6107C11.3324 24.4991 11.1516 24.4991 11.04 24.6107L9.47672 26.1742C7.51203 24.1266 6.27706 21.3763 6.19034 18.3418H8.44331C8.60116 18.3418 8.72902 18.2138 8.72902 18.0561C8.72902 17.8982 8.60116 17.7704 8.44331 17.7704H6.18748C6.2462 14.72 7.46547 11.9503 9.42243 9.88365L11.04 11.5013C11.0958 11.5572 11.1688 11.5851 11.242 11.5851C11.3151 11.5851 11.3883 11.5572 11.444 11.5013C11.5555 11.3898 11.5555 11.2089 11.444 11.0973L9.82515 9.47823C11.8853 7.50169 14.6566 6.26371 17.713 6.19057V8.50053C17.713 8.65838 17.8409 8.78624 17.9987 8.78624C18.1564 8.78624 18.2844 8.65838 18.2844 8.50053V6.19057C21.341 6.26371 24.1123 7.50169 26.1725 9.47823L24.5535 11.0973C24.4418 11.2089 24.4418 11.3898 24.5535 11.5013C24.6092 11.5572 24.6823 11.5851 24.7555 11.5851C24.8286 11.5851 24.9016 11.5572 24.9575 11.5013L26.5752 9.88365C28.5321 11.9503 29.7513 14.72 29.8101 17.7704H27.5543ZM17.9987 5.1833C10.9314 5.1833 5.18164 10.9331 5.18164 18.0004C5.18164 25.0678 10.9314 30.8176 17.9987 30.8176C25.0662 30.8176 30.8162 25.0678 30.8162 18.0004C30.8162 10.9331 25.0662 5.1833 17.9987 5.1833Z" fill="#0C1248"/>
<path d="M19.9274 18.0004C19.9274 16.9354 19.064 16.0718 17.9989 16.0718C17.9231 16.0718 17.8487 16.0774 17.7753 16.0858L13.7412 10.3659L16.5342 16.748C16.2456 17.085 16.0703 17.5219 16.0703 18.0004C16.0703 19.0405 16.8943 19.8859 17.9247 19.9252L18.2804 20.738L20.2571 19.6049L19.7268 18.8529C19.8541 18.5956 19.9274 18.3069 19.9274 18.0004Z" fill="#0C1248"/>
</svg>
