<svg width="23" height="35" viewBox="0 0 23 35" fill="none" xmlns="http://www.w3.org/2000/svg">
<path d="M7.21645 7.79419H6.50879V4.64892H7.21645V7.79419Z" fill="#121212"/>
<path d="M12.9171 7.79419H12.2095V4.64892H12.9171V7.79419Z" fill="#121212"/>
<path d="M14.6262 3.42644C14.7677 4.71153 13.8057 5.80762 12.4703 5.80762H6.82835C5.49302 5.80762 4.53103 4.71153 4.67249 3.42644L4.8267 2.02619C4.95231 0.883331 6.00009 0.00019598 7.17232 0.00019598H12.126C13.2986 0.00019598 14.3464 0.883331 14.472 2.02619L14.6262 3.42644Z" fill="#D03737"/>
<path d="M14.2486 3.4793C14.2486 4.65191 13.2982 5.60229 12.1256 5.60229H7.17193C5.9997 5.60229 5.04932 4.65191 5.04932 3.4793V2.1231C5.04932 0.950483 5.9997 9.82285e-05 7.17193 9.82285e-05H12.1256C13.2982 9.82285e-05 14.2486 0.950483 14.2486 2.1231V3.4793Z" fill="#AD2929"/>
<path d="M18.2805 29.0283C18.0587 30.2006 17.5041 28.0675 15.7958 28.0675H3.64564C1.93735 28.0675 1.70082 29.6985 1.35568 28.5564C-1.88737 17.824 1.70661 13.2873 1.70661 13.2873L2.03165 8.99264C2.1105 8.13849 3.31326 7.45865 4.7197 7.45865H14.7221C16.1285 7.45865 17.3313 8.13849 17.4101 8.99264L17.7259 13.1671C17.7259 13.1671 20.5801 16.8801 18.2805 29.0283Z" fill="#D03737"/>
<path d="M18.2528 25.9405C18.3571 27.1579 17.1258 28.167 15.5006 28.167H3.94176C2.31657 28.167 1.43111 27.1381 1.18994 25.9405C-0.511008 17.4952 2.01394 13.345 2.01394 13.345L2.40623 8.61903C2.48121 7.74362 3.62561 7.04717 4.96326 7.04717H14.4791C15.8171 7.04717 16.9615 7.74362 17.0361 8.61903C17.0361 8.61903 17.256 11.7465 17.358 13.2041C19.9723 18.9484 18.2528 25.9405 18.2528 25.9405Z" fill="#AD2929"/>
<path d="M13.7371 14.0144C13.7371 14.1184 13.6281 14.2026 13.4936 14.2026H6.27279C6.13829 14.2026 6.0293 14.1184 6.0293 14.0144C6.0293 13.9104 6.13829 13.8261 6.27279 13.8261H13.4936C13.6281 13.8261 13.7371 13.9104 13.7371 14.0144Z" fill="#D03737"/>
<path d="M13.7371 15.8974C13.7371 16.0014 13.6281 16.0857 13.4936 16.0857H6.27279C6.13829 16.0857 6.0293 16.0014 6.0293 15.8974C6.0293 15.7936 6.13829 15.7093 6.27279 15.7093H13.4936C13.6281 15.7093 13.7371 15.7936 13.7371 15.8974Z" fill="#D03737"/>
<path d="M13.7371 17.7802C13.7371 17.8842 13.6281 17.9685 13.4936 17.9685H6.27279C6.13829 17.9685 6.0293 17.8842 6.0293 17.7802C6.0293 17.6764 6.13829 17.5921 6.27279 17.5921H13.4936C13.6281 17.5921 13.7371 17.6764 13.7371 17.7802Z" fill="#D03737"/>
<path d="M13.7371 19.6633C13.7371 19.7673 13.6281 19.8516 13.4936 19.8516H6.27279C6.13829 19.8516 6.0293 19.7673 6.0293 19.6633C6.0293 19.5593 6.13829 19.475 6.27279 19.475H13.4936C13.6281 19.475 13.7371 19.5593 13.7371 19.6633Z" fill="#D03737"/>
<path d="M13.7371 21.5464C13.7371 21.6504 13.6281 21.7346 13.4936 21.7346H6.27279C6.13829 21.7346 6.0293 21.6504 6.0293 21.5464C6.0293 21.4425 6.13829 21.3581 6.27279 21.3581H13.4936C13.6281 21.3581 13.7371 21.4425 13.7371 21.5464Z" fill="#D03737"/>
<path d="M13.7371 23.4292C13.7371 23.5332 13.6281 23.6179 13.4936 23.6179H6.27279C6.13829 23.6179 6.0293 23.5332 6.0293 23.4292C6.0293 23.3253 6.13829 23.2411 6.27279 23.2411H13.4936C13.6281 23.2411 13.7371 23.3253 13.7371 23.4292Z" fill="#D03737"/>
<path d="M13.7371 25.3127C13.7371 25.4167 13.6281 25.501 13.4936 25.501H6.27279C6.13829 25.501 6.0293 25.4167 6.0293 25.3127C6.0293 25.2084 6.13829 25.1241 6.27279 25.1241H13.4936C13.6281 25.1241 13.7371 25.2084 13.7371 25.3127Z" fill="#D03737"/>
<path d="M13.8993 27.7916C13.8993 27.8439 13.8448 27.886 13.7775 27.886C13.7103 27.886 13.6558 27.8439 13.6558 27.7916V13.9832C13.6558 13.9309 13.7103 13.8888 13.7775 13.8888C13.8448 13.8888 13.8993 13.9309 13.8993 13.9832V27.7916Z" fill="#D03737"/>
<path d="M6.23226 27.7916C6.23226 27.8439 6.17777 27.886 6.11052 27.886C6.04327 27.886 5.98877 27.8439 5.98877 27.7916V13.9832C5.98877 13.9309 6.04327 13.8888 6.11052 13.8888C6.17777 13.8888 6.23226 13.9309 6.23226 13.9832V27.7916Z" fill="#D03737"/>
<path d="M6.33998 14.0657C6.33998 14.0657 5.59985 14.8079 4.47787 15.3049C4.93315 14.9713 5.72198 14.2669 5.78691 14.1601C5.35597 14.3046 3.85986 14.2166 3.85986 14.2166C3.85986 14.2166 5.49434 14.0152 5.67328 13.9274C5.12833 13.6066 4.67304 13.2352 4.67304 13.2352C4.67304 13.2352 5.73821 13.6882 6.05552 13.6882C6.25843 13.1285 6.75469 12.7637 6.75469 12.7637C6.75469 12.7637 6.31563 13.6252 6.33998 14.0657Z" fill="#D03737"/>
<path d="M13.6066 14.0657C13.6066 14.0657 14.3463 14.8079 15.4687 15.3049C15.0134 14.9713 14.2246 14.2669 14.1597 14.1601C14.5906 14.3046 16.0863 14.2166 16.0863 14.2166C16.0863 14.2166 14.4522 14.0152 14.2733 13.9274C14.8182 13.6066 15.2735 13.2352 15.2735 13.2352C15.2735 13.2352 14.2084 13.6882 13.8911 13.6882C13.6878 13.1285 13.1919 12.7637 13.1919 12.7637C13.1919 12.7637 13.6309 13.6252 13.6066 14.0657Z" fill="#D03737"/>
<path d="M16.5561 8.14504C17.1699 8.83377 16.9561 9.48926 15.9733 9.48926H3.3153C2.33245 9.48926 2.11911 8.83377 2.73247 8.14504C3.25346 7.55989 4.2135 7.14635 4.94358 7.14635H14.345C15.0751 7.14635 16.0351 7.55989 16.5561 8.14504Z" fill="#AD2929"/>
<path d="M16.5561 11.4058C17.1699 10.7171 16.9561 10.0616 15.9733 10.0616H3.3153C2.33245 10.0616 2.11911 10.7171 2.73247 11.4058C3.25346 11.991 4.2135 12.4045 4.94358 12.4045H14.345C15.0751 12.4045 16.0351 11.991 16.5561 11.4058Z" fill="#AD2929"/>
<path d="M13.8474 1.1863C14.2208 1.87542 14.0909 2.53052 13.493 2.53052H5.79527C5.19737 2.53052 5.0679 1.87542 5.44086 1.1863C5.75778 0.601156 6.34139 0.187994 6.78546 0.187994H12.5028C12.9469 0.187994 13.5305 0.601156 13.8474 1.1863Z" fill="#AD2929"/>
<path d="M13.8474 4.4475C14.2208 3.75838 14.0909 3.10328 13.493 3.10328H5.79527C5.19737 3.10328 5.0679 3.75838 5.44086 4.4475C5.75778 5.03264 6.34139 5.4458 6.78546 5.4458H12.5028C12.9469 5.4458 13.5305 5.03264 13.8474 4.4475Z" fill="#AD2929"/>
<path d="M13.4466 14.7473C13.4466 15.0347 13.1455 15.2678 12.7737 15.2678H6.98635C6.61494 15.2678 6.31348 15.0347 6.31348 14.7473C6.31348 14.4597 6.61494 14.2266 6.98635 14.2266H12.7737C13.1455 14.2266 13.4466 14.4597 13.4466 14.7473Z" fill="#AD2929"/>
<path d="M13.4466 16.6213C13.4466 16.9089 13.1455 17.1418 12.7737 17.1418H6.98635C6.61494 17.1418 6.31348 16.9089 6.31348 16.6213C6.31348 16.3337 6.61494 16.1008 6.98635 16.1008H12.7737C13.1455 16.1008 13.4466 16.3337 13.4466 16.6213Z" fill="#AD2929"/>
<path d="M13.4466 18.4956C13.4466 18.783 13.1455 19.0161 12.7737 19.0161H6.98635C6.61494 19.0161 6.31348 18.783 6.31348 18.4956C6.31348 18.208 6.61494 17.9749 6.98635 17.9749H12.7737C13.1455 17.9749 13.4466 18.208 13.4466 18.4956Z" fill="#AD2929"/>
<path d="M13.4466 20.3693C13.4466 20.6569 13.1455 20.8899 12.7737 20.8899H6.98635C6.61494 20.8899 6.31348 20.6569 6.31348 20.3693C6.31348 20.0817 6.61494 19.8488 6.98635 19.8488H12.7737C13.1455 19.8488 13.4466 20.0817 13.4466 20.3693Z" fill="#AD2929"/>
<path d="M13.4466 22.2439C13.4466 22.5311 13.1455 22.7642 12.7737 22.7642H6.98635C6.61494 22.7642 6.31348 22.5311 6.31348 22.2439C6.31348 21.9563 6.61494 21.7229 6.98635 21.7229H12.7737C13.1455 21.7229 13.4466 21.9563 13.4466 22.2439Z" fill="#AD2929"/>
<path d="M13.4466 24.118C13.4466 24.4056 13.1455 24.6387 12.7737 24.6387H6.98635C6.61494 24.6387 6.31348 24.4056 6.31348 24.118C6.31348 23.8305 6.61494 23.5974 6.98635 23.5974H12.7737C13.1455 23.5974 13.4466 23.8305 13.4466 24.118Z" fill="#AD2929"/>
<path d="M13.4466 25.9921C13.4466 26.2796 13.1455 26.5127 12.7737 26.5127H6.98635C6.61494 26.5127 6.31348 26.2796 6.31348 25.9921C6.31348 25.7045 6.61494 25.4716 6.98635 25.4716H12.7737C13.1455 25.4716 13.4466 25.7045 13.4466 25.9921Z" fill="#AD2929"/>
<path d="M18.2521 25.9405L17.5406 25.3382L17.2187 14.8361C15.4891 17.7453 15.3766 25.3213 15.3766 25.8862L14.0425 28.167H15.4999C17.1251 28.167 18.3565 27.1579 18.2521 25.9405Z" fill="#AD2929"/>
<path d="M0.996896 25.9405L1.70843 25.3382L2.02999 14.8361C3.75992 17.7453 3.87239 25.3213 3.87239 25.8862L5.20656 28.167H3.74872C2.12352 28.167 0.892543 27.1579 0.996896 25.9405Z" fill="#AD2929"/>
<path d="M18.2062 25.281C17.96 26.2353 16.8701 26.9522 15.5004 26.9522H3.94159C2.57186 26.9522 1.48234 26.2353 1.23576 25.281L1.18977 25.9405C1.08541 27.1579 2.31639 28.167 3.94159 28.167H15.5004C17.1256 28.167 18.3569 27.1579 18.2526 25.9405L18.2062 25.281Z" fill="#AD2929"/>
<path d="M18.1999 33.9366C18.1999 34.524 17.7179 35.0002 17.1231 35.0002H2.31857C1.72415 35.0002 1.24219 34.524 1.24219 33.9366V31.0117C1.24219 30.4245 1.72415 29.9479 2.31857 29.9479H17.1231C17.7179 29.9479 18.1999 30.4245 18.1999 31.0117V33.9366Z" fill="#0C1248"/>
<path d="M18.9699 30.6604C18.9699 31.4284 18.4876 32.0505 17.8932 32.0505H1.54844C0.953634 32.0505 0.47168 31.4284 0.47168 30.6604V27.6245C0.47168 26.8566 0.953634 26.2343 1.54844 26.2343H17.8932C18.4876 26.2343 18.9699 26.8566 18.9699 27.6245V30.6604Z" fill="#AD2929"/>
<path d="M17.8932 25.3282C15.413 25.3282 15.1773 26.7434 10.047 26.7434C4.20866 26.7434 3.91377 25.3282 1.54844 25.3282C0.953634 25.3282 0.47168 26.8568 0.47168 27.6247V29.408C0.47168 28.64 0.953634 28.0178 1.54844 28.0178C1.54844 28.0178 4.91634 28.8666 9.98788 28.8666C15.2952 28.8666 17.8932 28.0178 17.8932 28.0178C18.4876 28.0178 18.9699 28.64 18.9699 29.408V27.6247C18.9699 26.8568 18.4876 25.3282 17.8932 25.3282Z" fill="#AD2929"/>
<path d="M9.92874 31.0481C1.79078 31.0481 0.47168 29.5748 0.47168 28.8068V30.6604C0.47168 31.4279 0.953634 32.0505 1.54844 32.0505H17.8932C18.4876 32.0505 18.9699 31.4279 18.9699 30.6604V28.8068C18.9699 29.5748 17.8309 31.0481 9.92874 31.0481Z" fill="#D03737"/>
<path d="M17.1231 33.2278H2.31857C1.72415 33.2278 1.24219 32.7516 1.24219 32.1641V33.9366C1.24219 34.524 1.72415 35.0002 2.31857 35.0002H17.1231C17.7179 35.0002 18.1999 34.524 18.1999 33.9366V32.1641C18.1999 32.7516 17.7179 33.2278 17.1231 33.2278Z" fill="#121212"/>
<path d="M18.1185 24.748C17.32 24.748 16.6669 24.4312 16.4272 24.1629C15.2477 22.8419 16.2502 19.6159 17.4116 15.8805C18.4791 12.4453 19.8079 8.17031 18.1657 7.69956C17.9999 7.65241 17.8518 7.66285 17.6895 7.73357C16.6375 8.19273 15.7254 10.6442 15.0595 12.4341L14.9335 12.7723L13.9614 12.5036L14.087 12.1666C14.8875 10.015 15.7949 7.57589 17.2273 6.95093C17.6304 6.77508 18.0667 6.74647 18.4888 6.86706C21.0423 7.59907 19.7576 11.7318 18.398 16.1069C17.4445 19.1741 16.3639 22.6506 17.2369 23.6284C17.3309 23.7335 17.504 23.8739 17.9187 23.8739C18.6129 23.8739 19.0979 23.7375 19.4005 23.4568C20.0266 22.8763 19.9188 21.64 19.8145 20.4433C19.6974 19.0971 19.576 17.7054 20.4607 16.8857C20.9252 16.4555 21.6159 16.2368 22.5133 16.2368V17.1148C21.9027 17.1148 21.4764 17.235 21.2089 17.4828C20.6272 18.0216 20.7316 19.2197 20.8329 20.378C20.9534 21.7621 21.0783 23.1929 20.1488 24.0539C19.6494 24.5166 19.0987 24.748 18.1185 24.748Z" fill="#0C1248"/>
<path d="M19.8148 20.4431C19.9191 21.6398 20.027 22.8761 19.4008 23.4566C19.0982 23.7372 18.6132 23.8737 17.919 23.8737C17.5109 23.8737 17.3378 23.738 17.2427 23.6332C17.2941 23.7982 18.2568 24.5271 19.5527 23.7858C20.3191 23.3473 20.1417 22.0614 20.0374 20.8648C19.9199 19.5186 19.7989 18.1269 20.6832 17.3071C21.1084 16.9132 21.7248 16.6992 22.5136 16.6652V16.2366C21.6162 16.2366 20.9256 16.4553 20.461 16.8854C19.5763 17.7052 19.6977 19.0969 19.8148 20.4431Z" fill="#0C1248"/>
<path d="M17.6339 16.302C18.5862 13.2381 19.7445 9.50895 18.8189 8.40359C19.285 9.84945 18.2654 13.1323 17.4116 15.8803C16.2966 19.4668 15.3331 22.5793 16.3024 23.9912C15.7281 22.4351 16.6201 19.5627 17.6339 16.302Z" fill="#0C1248"/>
<path d="M14.3097 12.5878C15.1101 10.4362 16.0176 7.99745 17.4499 7.37249C17.853 7.19625 18.2894 7.16804 18.7114 7.28863C19.1767 7.42197 19.5122 7.67125 19.7453 8.01137C19.5285 7.44902 19.1296 7.05093 18.4888 6.86696C18.0667 6.74638 17.6304 6.77498 17.2273 6.95084C15.7949 7.57579 14.8875 10.0149 14.087 12.1665L13.9614 12.5036L14.3054 12.5986L14.3097 12.5878Z" fill="#0C1248"/>
<path d="M12.5187 20.9983L10.9248 20.4634L13.7814 11.9509L15.3752 12.4858L12.5187 20.9983Z" fill="#0C1248"/>
<path d="M11.9877 20.8201L11.0308 20.499L13.8877 11.9868L14.8447 12.308L11.9877 20.8201Z" fill="#CCD4EB"/>
<path d="M11.6349 20.7131L11.1943 20.5655L14.0513 12.053L14.4915 12.201L11.6349 20.7131Z" fill="#CCD4EB"/>
<path d="M6.56885 24.229L6.94066 26.1538C6.94066 26.1538 7.56716 26.621 8.79659 26.783C8.91679 26.5626 9.12666 26.7571 9.12666 26.7571C9.12666 26.7571 9.62097 26.8772 10.3986 26.8549C10.4411 26.7424 10.6502 26.5985 10.6908 26.841C10.9018 26.827 11.1318 26.8034 11.3397 26.7679C11.3494 26.575 11.6041 26.5619 11.7764 26.6968C12.4698 26.6056 12.7574 26.5093 12.7574 26.5093L12.6959 24.7813L6.56885 24.229Z" fill="#0C1248"/>
<path d="M6.56885 24.2289L6.94066 26.1537C6.94066 26.1537 7.0767 26.2553 7.34609 26.3797C7.41334 26.4111 7.36657 25.8071 7.36657 25.8071C7.36657 25.8071 7.73142 26.536 7.8207 26.565C8.08661 26.6519 8.41203 26.7323 8.79659 26.783C8.83253 26.3006 8.78654 25.7142 8.78654 25.7142L9.12666 26.757C9.12666 26.757 9.69673 26.9314 10.3986 26.8548C10.4972 26.8444 10.4125 26.1294 10.4338 25.4093C10.5509 26.2689 10.7113 26.8417 10.7113 26.8417C10.9111 26.8281 11.1225 26.805 11.3397 26.7679C11.3273 26.1421 11.3154 25.5165 11.3154 25.5165C11.3154 25.5165 11.6466 26.449 11.7764 26.6968C12.4698 26.6056 12.7574 26.5092 12.7574 26.5092L12.6959 24.7812L6.56885 24.2289Z" fill="#0C1248"/>
<path d="M13.1739 19.5033L11.2221 18.8795L10.0275 22.0874C10.0275 22.0874 9.91268 22.3784 10.7328 22.5361C11.5537 22.6939 12.227 22.5103 12.227 22.5103L13.1739 19.5033Z" fill="#CCD4EB"/>
<path d="M10.3589 22.4315C10.4536 22.4692 10.5726 22.5053 10.733 22.5361C10.8265 22.5539 10.9162 22.5651 11.0051 22.5745C11.3444 21.4274 11.724 20.2937 12.2013 19.1927L11.6652 19.021C11.2378 20.1611 10.8034 21.2983 10.3589 22.4315Z" fill="#CCD4EB"/>
<path d="M12.2881 22.211L10.1044 21.8957C9.16253 22.2289 6.80648 23.5962 6.30713 24.113C6.30713 24.113 7.3182 24.9088 8.58705 25.0921C8.88697 25.1353 9.4868 25.2222 9.78671 25.2656C10.9906 25.4395 12.8288 25.0557 12.8288 25.0557C13.0251 24.4794 12.6866 22.685 12.2881 22.211Z" fill="#CCD4EB"/>
<path d="M10.5547 25.3104C17.2371 25.3104 11.0842 23.122 12.2985 22.2238L10.1044 21.8956C9.16253 22.2288 6.80648 23.5962 6.30713 24.113C6.30713 24.113 7.3182 24.9087 8.58705 25.092C8.88697 25.1352 9.48679 25.2222 9.78671 25.2655C10.0244 25.2995 10.2868 25.3123 10.5547 25.3104Z" fill="#CCD4EB"/>
</svg>
