<svg width="35" height="41" viewBox="0 0 35 41" fill="none" xmlns="http://www.w3.org/2000/svg">
<path d="M6.51209 0.799393C5.79968 0.744394 5.0928 0.721798 4.38848 0.714125L4.06404 4.92766L5.03482 5.15447L4.00307 5.7198L3.03271 18.3254C3.73191 18.2756 4.44306 18.2726 5.16272 18.328C10.078 18.7066 14.2174 21.5324 16.4804 25.5195L32.8715 18.9517C28.0291 9.28956 18.0728 1.68917 6.51209 0.799393Z" fill="#CCD4EB"/>
<path d="M26.0981 29.8042L28.2576 28.9298L32.6531 39.7733L30.4937 40.6482L26.0981 29.8042Z" fill="#0C1248"/>
<path d="M26.8179 29.5131L28.1144 28.9879L32.5095 39.8319L31.213 40.3567L26.8179 29.5131Z" fill="#0C1248"/>
<path d="M27.2861 29.308L27.883 29.0667L32.2782 39.9103L31.6813 40.1516L27.2861 29.308Z" fill="#0C1248"/>
<path d="M16.1618 25.2688L15.854 27.4973L34.4109 19.9728L32.6378 18.5881L16.1618 25.2688Z" fill="#0C1248"/>
<path d="M17.3268 28.9514C16.6617 29.2213 15.9036 28.9007 15.6337 28.2356L15.4892 27.8788C15.2193 27.2137 15.54 26.4556 16.2055 26.1862L33.0669 19.349C33.732 19.0795 34.49 19.4001 34.7594 20.0652L34.9044 20.4216C35.1738 21.0871 34.8532 21.8448 34.1881 22.1146L17.3268 28.9514Z" fill="#D03737"/>
<path d="M28.7541 29.3691L29.0457 24.9458C29.0359 24.6784 29.0078 24.4175 28.9664 24.1732L33.3164 22.4095C33.8314 22.2005 34.0949 21.6514 33.9052 21.1833C33.7155 20.7152 33.1437 20.505 32.6291 20.7135L17.5857 26.8131C17.0707 27.022 16.8072 27.5712 16.9973 28.0393C17.1871 28.5074 17.7583 28.718 18.2734 28.5091L22.4174 26.8285C22.5581 27.0327 22.7193 27.2395 22.8983 27.4386L26.1001 30.4451C26.1696 30.4899 26.3444 30.4746 26.4949 30.4136L28.4489 29.621C28.5989 29.5601 28.7354 29.4496 28.7541 29.3691Z" fill="#D03737"/>
<path d="M8.98245 -2.38419e-05C8.98245 -2.38419e-05 9.15981 2.27451 9.63135 2.82449C10.1029 3.3749 12.3237 3.89802 12.3237 3.89802C12.3237 3.89802 10.0487 4.07537 9.49875 4.5469C8.94835 5.01844 8.42523 7.23926 8.42523 7.23926C8.42523 7.23926 8.24787 4.96473 7.77633 4.41432C7.3048 3.86391 5.08398 3.34078 5.08398 3.34078C5.08398 3.34078 7.35894 3.16344 7.90892 2.6919C8.45933 2.2208 8.98245 -2.38419e-05 8.98245 -2.38419e-05Z" fill="white"/>
<path d="M17.1553 18.9257C17.1553 18.9257 17.302 20.8063 17.6917 21.2612C18.0818 21.7161 19.9176 22.1484 19.9176 22.1484C19.9176 22.1484 18.037 22.295 17.5821 22.6851C17.1272 23.0748 16.6949 24.9106 16.6949 24.9106C16.6949 24.9106 16.5482 23.0301 16.1585 22.5756C15.7684 22.1207 13.9326 21.6879 13.9326 21.6879C13.9326 21.6879 15.8132 21.5413 16.2681 21.1516C16.723 20.7619 17.1553 18.9257 17.1553 18.9257Z" fill="white"/>
<path d="M24.5444 8.13462C24.5444 8.13462 24.35 12.4057 24.5303 12.6159C24.7102 12.8261 28.9604 13.2874 28.9604 13.2874C28.9604 13.2874 24.6898 13.0934 24.4796 13.2733C24.2694 13.4532 23.8077 17.7039 23.8077 17.7039C23.8077 17.7039 24.0021 13.4328 23.8221 13.2226C23.6418 13.0124 19.3916 12.5511 19.3916 12.5511C19.3916 12.5511 23.6627 12.7451 23.8724 12.5652C24.0826 12.3852 24.5444 8.13462 24.5444 8.13462Z" fill="white"/>
<path d="M18.555 4.8475C18.555 4.8475 18.4395 7.38081 18.5465 7.5053C18.6531 7.62979 21.1741 7.9035 21.1741 7.9035C21.1741 7.9035 18.6412 7.78839 18.5162 7.89497C18.3918 8.00199 18.118 10.5229 18.118 10.5229C18.118 10.5229 18.2332 7.98962 18.1266 7.86513C18.0196 7.74064 15.499 7.46693 15.499 7.46693C15.499 7.46693 18.0319 7.58205 18.1564 7.47503C18.2809 7.36845 18.555 4.8475 18.555 4.8475Z" fill="white"/>
<path d="M8.31139 11.8941C8.31139 11.8941 8.19585 14.427 8.30286 14.5519C8.40945 14.6764 10.9304 14.9501 10.9304 14.9501C10.9304 14.9501 8.39751 14.835 8.27259 14.9415C8.1481 15.0486 7.87439 17.5691 7.87439 17.5691C7.87439 17.5691 7.9895 15.0362 7.88291 14.9117C7.7759 14.7872 5.25537 14.5131 5.25537 14.5131C5.25537 14.5131 7.78827 14.6286 7.91276 14.5216C8.03725 14.415 8.31139 11.8941 8.31139 11.8941Z" fill="white"/>
<path d="M6.18366 6.81745C6.18366 6.81745 5.95088 11.9429 6.1666 12.1949C6.38276 12.4469 11.4835 13.0011 11.4835 13.0011C11.4835 13.0011 6.35804 12.7679 6.10607 12.9841C5.8541 13.1998 5.29985 18.3005 5.29985 18.3005C5.29985 18.3005 5.53306 13.1755 5.31691 12.9231C5.10075 12.6711 0 12.1169 0 12.1169C0 12.1169 5.12548 12.3501 5.37787 12.1344C5.62984 11.9182 6.18366 6.81745 6.18366 6.81745Z" fill="white"/>
</svg>
