<svg width="35" height="34" viewBox="0 0 35 34" fill="none" xmlns="http://www.w3.org/2000/svg">
<path d="M32.4121 0.417641C32.4121 0.417641 24.746 0.417641 18.55 0.417641C9.30871 0.417641 0.41748 14.9796 0.41748 14.9796V25.0612C0.41748 29.2949 3.8497 32.7273 8.08355 32.7273H27.6817C30.6065 32.7273 33.0951 30.6001 33.5535 27.7117C34.0625 24.5044 34.5823 22.6875 34.5823 17.9201C34.5823 15.7849 34.5823 13.7579 34.5823 9.37882C34.5823 5.24822 32.4121 0.417641 32.4121 0.417641Z" fill="#D03737"/>
<path d="M32.4124 0.417641C32.4124 0.417641 31.8425 0.417641 30.8896 0.417641C30.8896 0.417641 33.0599 5.24822 33.0599 9.37882C33.0599 13.7579 33.0599 15.7849 33.0599 17.9201C33.0599 22.6875 32.5401 24.5044 32.0311 27.7117C31.5725 30.6001 29.084 32.7273 26.1592 32.7273H27.682C30.6068 32.7273 33.0953 30.6001 33.5537 27.7117C34.0627 24.5044 34.5825 22.6875 34.5825 17.9201C34.5825 15.7849 34.5825 13.7579 34.5825 9.37882C34.5825 5.24822 32.4124 0.417641 32.4124 0.417641Z" fill="#D03737"/>
<path d="M32.4121 0.417603C32.4121 0.417603 24.746 0.417603 18.55 0.417603C9.30871 0.417603 0.41748 14.9796 0.41748 14.9796V16.1348C0.41748 16.1348 9.30871 1.57281 18.55 1.57281C24.746 1.57281 32.4121 1.57281 32.4121 1.57281C32.4121 1.57281 34.5823 6.4034 34.5823 10.534C34.5823 10.1677 34.5823 9.78346 34.5823 9.37878C34.5823 5.24818 32.4121 0.417603 32.4121 0.417603Z" fill="white"/>
<path d="M0.41748 24.291V25.0612C0.41748 29.2949 3.8497 32.7273 8.08355 32.7273H27.6817C30.6065 32.7273 33.0951 30.6001 33.5535 27.7117C33.7548 26.4435 33.9576 25.3926 34.1295 24.291H0.41748Z" fill="#D03737"/>
<path d="M0.835141 15.0989V25.061C0.835141 29.0577 4.08682 32.3095 8.08368 32.3095H27.6818C30.4164 32.3095 32.7122 30.3481 33.1412 27.6459C33.2418 27.0122 33.3424 26.4347 33.4397 25.8763C33.8289 23.6427 34.165 21.7139 34.165 17.92V9.37867C34.165 5.90854 32.5677 1.86258 32.137 0.835075H18.5502C13.927 0.835075 9.35003 4.72186 6.32451 7.98245C3.31847 11.2223 1.21398 14.4959 0.835141 15.0989ZM27.6818 33.1445H8.08368C3.62634 33.1445 0 29.5182 0 25.061V14.9795C0 14.9027 0.0212131 14.8274 0.0611525 14.7619C0.083609 14.7252 2.34479 11.0436 5.71226 7.41449C7.6976 5.27485 9.6762 3.56796 11.5932 2.34103C14.0205 0.787514 16.3612 -0.000106812 18.5502 -0.000106812H32.4122C32.5767 -0.000106812 32.7257 0.0963326 32.7931 0.24633C32.8832 0.446884 35 5.20668 35 9.37867V17.92C35 21.7862 34.6582 23.748 34.2624 26.0196C34.1658 26.5752 34.0656 27.1493 33.9659 27.7769C33.7287 29.2722 32.9643 30.6371 31.8138 31.62C30.663 32.6032 29.1957 33.1445 27.6818 33.1445Z" fill="#0C1248"/>
<path d="M30.9072 14.6995V9.37863C30.9072 7.07645 30.0905 4.42352 29.5121 2.83274H18.5503C15.4762 2.83274 11.7733 5.06358 7.84221 9.28425C5.95827 11.3069 4.43597 13.3549 3.50098 14.6995H30.9072Z" fill="#CCD4EB"/>
<path d="M23.0831 2.83274L19.6353 14.6995H21.3154L24.7634 2.83274H23.0831Z" fill="white"/>
<path d="M25.7088 2.83274L22.2607 14.6995H23.101L26.549 2.83274H25.7088Z" fill="white"/>
<path d="M4.30772 14.282H30.4897V9.37876C30.4897 7.22639 29.7339 4.71447 29.2182 3.25046H18.5504C15.5949 3.25046 11.9978 5.43542 8.14782 9.56902C6.56897 11.2641 5.24483 12.9787 4.30772 14.282ZM30.9072 15.1172H3.50104C3.34559 15.1172 3.20295 15.0309 3.13099 14.893C3.05901 14.7552 3.06946 14.5887 3.1582 14.4612C4.11021 13.0921 5.64263 11.0334 7.53673 8.99975C11.5486 4.69219 15.3572 2.41528 18.5504 2.41528H29.5122C29.6876 2.41528 29.8445 2.5252 29.9047 2.69018C30.5524 4.47159 31.3247 7.07808 31.3247 9.37876V14.6996C31.3247 14.9301 31.1378 15.1172 30.9072 15.1172Z" fill="#0C1248"/>
<path d="M30.592 18.3401H26.0414C25.2875 18.3401 24.6763 18.9513 24.6763 19.7052C24.6763 20.4593 25.2875 21.0706 26.0414 21.0706H30.592C31.3461 21.0706 31.9573 20.4593 31.9573 19.7052C31.9573 18.9513 31.3461 18.3401 30.592 18.3401Z" fill="#D03737"/>
<path d="M30.592 17.2899H26.0414C25.2875 17.2899 24.6763 17.9011 24.6763 18.6549C24.6763 19.409 25.2875 20.0203 26.0414 20.0203H30.592C31.3461 20.0203 31.9573 19.409 31.9573 18.6549C31.9573 17.9011 31.3461 17.2899 30.592 17.2899Z" fill="#D03737"/>
<path d="M26.0415 17.7076C25.5191 17.7076 25.094 18.1326 25.094 18.655C25.094 19.1776 25.5191 19.6028 26.0415 19.6028H30.5921C31.1148 19.6028 31.5399 19.1776 31.5399 18.655C31.5399 18.1326 31.1148 17.7076 30.5921 17.7076H26.0415ZM30.5921 20.4377H26.0415C25.0586 20.4377 24.2588 19.6382 24.2588 18.655C24.2588 17.6721 25.0586 16.8723 26.0415 16.8723H30.5921C31.5753 16.8723 32.3749 17.6721 32.3749 18.655C32.3749 19.6382 31.5753 20.4377 30.5921 20.4377Z" fill="#0C1248"/>
</svg>
