<svg width="36" height="36" viewBox="0 0 36 36" fill="none" xmlns="http://www.w3.org/2000/svg">
<path d="M21.966 19.504L28.7541 18.2879L28.3646 15.1229L21.4866 15.585C20.7207 14.4812 19.4442 13.7576 17.9987 13.7576C16.5533 13.7576 15.2775 14.4812 14.5116 15.585L7.63288 15.1229L7.24414 18.2879L14.0322 19.504C14.4008 20.4753 15.1153 21.2754 16.026 21.7548L16.4044 28.6191H19.593L19.9717 21.7548C20.8818 21.2754 21.5971 20.4753 21.966 19.504Z" fill="#D03737"/>
<path d="M17.9987 22.6269C17.3025 22.6269 16.6426 22.4722 16.0503 22.1968L16.4044 28.6191H19.593L19.9473 22.1968C19.3548 22.4722 18.6951 22.6269 17.9987 22.6269Z" fill="#D03737"/>
<path d="M16.7996 28.2017H19.198L19.5549 21.7321C19.563 21.5855 19.6474 21.4539 19.7772 21.3855C20.6047 20.9496 21.2432 20.2288 21.5747 19.356C21.6271 19.2187 21.7469 19.1189 21.8911 19.0931L28.2916 17.9467L27.9976 15.5663L21.5147 16.0018C21.3668 16.012 21.2264 15.944 21.1421 15.8234C20.4271 14.7914 19.2517 14.1753 17.9988 14.1753C16.7459 14.1753 15.5706 14.7914 14.8547 15.8234C14.771 15.944 14.631 16.012 14.4836 16.0018L7.99923 15.5663L7.70691 17.9467L14.1059 19.0931C14.2503 19.1189 14.3705 19.2187 14.4225 19.356C14.7538 20.2288 15.3923 20.9496 16.2204 21.3855C16.3504 21.4539 16.4348 21.5855 16.4429 21.7321L16.7996 28.2017ZM19.5931 29.0369H16.4045C16.1828 29.0369 15.9998 28.8635 15.9876 28.6421L15.6216 22.0072C14.784 21.5098 14.124 20.7648 13.7329 19.8747L7.17061 18.6991C6.95246 18.66 6.80283 18.4574 6.8298 18.2371L7.21836 15.0723C7.24532 14.8523 7.43764 14.6912 7.66085 14.7064L14.3106 15.1532C15.1912 14.0135 16.5524 13.3402 17.9988 13.3402C19.4452 13.3402 20.8069 14.0135 21.687 15.1532L28.3366 14.7064C28.5556 14.6912 28.7523 14.8523 28.7785 15.0723L29.168 18.2371C29.1942 18.4574 29.0444 18.66 28.8272 18.6991L22.2656 19.8747C21.8743 20.7648 21.2133 21.5098 20.376 22.0072L20.0101 28.6421C19.998 28.8635 19.8148 29.0369 19.5931 29.0369Z" fill="#030411"/>
<path d="M15.351 27.9501L14.9238 32.5623H21.0726L20.6457 27.9501H15.351Z" fill="#D03737"/>
<path d="M20.7301 28.8604H15.3511V27.9501H20.7301V28.8604Z" fill="#D03737"/>
<path d="M28.2183 19.415L32.8473 19.2768L32.0983 13.1732L27.5723 14.1589L28.2183 19.415Z" fill="#0C1248"/>
<path d="M7.77967 19.415L3.1499 19.2768L3.8993 13.1732L8.42496 14.1589L7.77967 19.415Z" fill="#0C1248"/>
<path d="M15.3819 32.1446H20.6157L20.2657 28.3676H15.7317L15.3819 32.1446ZM21.0727 32.9797H14.9239C14.8064 32.9797 14.6945 32.9303 14.6152 32.8434C14.5362 32.7567 14.4973 32.6406 14.5081 32.5236L14.9351 27.9114C14.9549 27.6966 15.1353 27.5324 15.351 27.5324H20.6457C20.8629 27.5324 21.0427 27.6966 21.0614 27.9114L21.4884 32.5236C21.4996 32.6406 21.4603 32.7567 21.3816 32.8434C21.303 32.9303 21.1906 32.9797 21.0727 32.9797Z" fill="#030411"/>
<path d="M28.0329 14.4862L28.5853 18.9864L32.3773 18.8733L31.7387 13.6787L28.0329 14.4862ZM28.2164 19.8328C28.0067 19.8328 27.8288 19.676 27.8026 19.4661L27.1584 14.21C27.1322 13.9959 27.2726 13.7971 27.4824 13.7512L32.0084 12.7653C32.1226 12.7402 32.2443 12.7647 32.3398 12.8325C32.4353 12.9005 32.4971 13.0057 32.5121 13.1224L33.2611 19.226C33.2761 19.3427 33.2405 19.4598 33.1638 19.5489C33.087 19.638 32.9765 19.6908 32.8604 19.6944L28.2295 19.8326C28.2258 19.8326 28.222 19.8328 28.2164 19.8328Z" fill="#030411"/>
<path d="M3.6203 18.8733L7.41189 18.9864L7.9643 14.4862L4.25809 13.6787L3.6203 18.8733ZM7.78004 19.8328C7.77592 19.8328 7.77162 19.8326 7.76731 19.8326L3.13755 19.6944C3.02014 19.6908 2.90965 19.638 2.83325 19.5489C2.75666 19.4598 2.72128 19.3427 2.73551 19.226L3.48491 13.1224C3.49932 13.0057 3.56207 12.9005 3.65775 12.8325C3.75363 12.7647 3.87365 12.7402 3.98825 12.7653L8.5141 13.7512C8.72476 13.7971 8.86595 13.9959 8.83973 14.21L8.19426 19.4661C8.16842 19.6758 7.99015 19.8328 7.78004 19.8328Z" fill="#030411"/>
<path d="M17.9987 31.4945C10.5457 31.4945 4.50381 25.4526 4.50381 17.9997C4.50381 10.5467 10.5457 4.50482 17.9987 4.50482C25.4527 4.50482 31.4937 10.5467 31.4937 17.9997C31.4937 25.4526 25.4527 31.4945 17.9987 31.4945ZM17.9987 0.917522C8.5645 0.917522 0.916504 8.56551 0.916504 17.9997C0.916504 27.4338 8.5645 35.0818 17.9987 35.0818C27.4339 35.0818 35.0815 27.4338 35.0815 17.9997C35.0815 8.56551 27.4339 0.917522 17.9987 0.917522Z" fill="#D03737"/>
<path d="M17.9987 33.6092C8.81131 33.6092 1.31912 26.3558 0.933364 17.2633C0.923065 17.5076 0.916504 17.7529 0.916504 17.9997C0.916504 27.4338 8.5645 35.0818 17.9987 35.0818C27.4339 35.0818 35.0815 27.4338 35.0815 17.9997C35.0815 17.7529 35.074 17.5076 35.0647 17.2633C34.6789 26.3558 27.1867 33.6092 17.9987 33.6092Z" fill="#D03737"/>
<path d="M17.9987 2.30685C8.81131 2.30685 1.31912 9.56009 0.933364 18.6526C0.923065 18.4084 0.916504 18.1631 0.916504 17.9163C0.916504 8.48205 8.5645 0.834066 17.9987 0.834066C27.4339 0.834066 35.0815 8.48205 35.0815 17.9163C35.0815 18.1631 35.074 18.4084 35.0647 18.6526C34.6789 9.56009 27.1867 2.30685 17.9987 2.30685Z" fill="#D03737"/>
<path d="M17.9987 4.92235C10.7879 4.92235 4.92131 10.789 4.92131 17.9999C4.92131 25.2106 10.7879 31.0772 17.9987 31.0772C25.2092 31.0772 31.076 25.2106 31.076 17.9999C31.076 10.789 25.2092 4.92235 17.9987 4.92235ZM17.9987 31.9122C10.3275 31.9122 4.08615 25.6711 4.08615 17.9999C4.08615 10.3285 10.3275 4.08718 17.9987 4.08718C25.6699 4.08718 31.9112 10.3285 31.9112 17.9999C31.9112 25.6711 25.6699 31.9122 17.9987 31.9122ZM17.9987 1.33524C8.80991 1.33524 1.334 8.81077 1.334 17.9999C1.334 27.1886 8.80991 34.6643 17.9987 34.6643C27.1867 34.6643 34.6639 27.1886 34.6639 17.9999C34.6639 8.81077 27.1867 1.33524 17.9987 1.33524ZM17.9987 35.4995C13.3243 35.4995 8.92975 33.6792 5.62446 30.3741C2.31936 27.0688 0.499023 22.6742 0.499023 17.9999C0.499023 13.3254 2.31936 8.9308 5.62446 5.62551C8.92975 2.32041 13.3243 0.500076 17.9987 0.500076C22.6737 0.500076 27.0668 2.32041 30.3738 5.62551C33.6789 8.9308 35.499 13.3254 35.499 17.9999C35.499 22.6742 33.6789 27.0688 30.3738 30.3741C27.0668 33.6792 22.6737 35.4995 17.9987 35.4995Z" fill="#030411"/>
<path d="M17.9988 15.5227C16.6309 15.5227 15.522 16.6316 15.522 17.9997C15.522 19.3676 16.6309 20.4766 17.9988 20.4766C19.3668 20.4766 20.4759 19.3676 20.4759 17.9997C20.4759 16.6316 19.3668 15.5227 17.9988 15.5227Z" fill="#CCD4EB"/>
<path d="M17.9985 15.9404C16.8629 15.9404 15.9392 16.8641 15.9392 17.9998C15.9392 19.1352 16.8629 20.0591 17.9985 20.0591C19.134 20.0591 20.0579 19.1352 20.0579 17.9998C20.0579 16.8641 19.134 15.9404 17.9985 15.9404ZM17.9985 20.8943C16.4025 20.8943 15.104 19.5958 15.104 17.9998C15.104 16.4038 16.4025 15.1052 17.9985 15.1052C19.5945 15.1052 20.8927 16.4038 20.8927 17.9998C20.8927 19.5958 19.5945 20.8943 17.9985 20.8943Z" fill="#030411"/>
<path d="M31.4934 17.9999C31.4934 20.3704 30.8811 22.5976 29.8081 24.5337H33.7855C34.6188 22.5209 35.0813 20.3142 35.0813 17.9999C35.0813 15.6852 34.6188 13.4787 33.7855 11.4659H29.8081C30.8811 13.402 31.4934 15.6292 31.4934 17.9999Z" fill="#0C1248"/>
<path d="M4.50381 17.9999C4.50381 15.6292 5.11595 13.402 6.18931 11.4659H2.21197C1.37792 13.4787 0.916504 15.6852 0.916504 17.9999C0.916504 20.3142 1.37792 22.5209 2.21197 24.5337H6.18931C5.11595 22.5976 4.50381 20.3704 4.50381 17.9999Z" fill="#0C1248"/>
<path d="M30.4974 24.116H33.5047C34.2725 22.1687 34.6639 20.1124 34.6639 17.9998C34.6639 15.8871 34.2725 13.8309 33.5047 11.8834H30.4974C31.4243 13.7777 31.9112 15.8778 31.9112 17.9998C31.9112 20.1218 31.4243 22.2219 30.4974 24.116ZM33.7856 24.9512H29.8083C29.6603 24.9512 29.5236 24.8729 29.4487 24.7456C29.3738 24.618 29.372 24.4606 29.4431 24.3312C30.5105 22.4043 31.076 20.2149 31.076 17.9998C31.076 15.7845 30.5105 13.5951 29.4431 11.6682C29.372 11.5388 29.3738 11.3812 29.4487 11.2538C29.5236 11.1263 29.6603 11.0482 29.8083 11.0482H33.7856C33.9541 11.0482 34.1058 11.1499 34.1714 11.3059C35.0515 13.4312 35.499 15.6834 35.499 17.9998C35.499 20.3162 35.0515 22.5683 34.1714 24.6935C34.1058 24.8495 33.9541 24.9512 33.7856 24.9512Z" fill="#030411"/>
<path d="M2.49332 24.116H5.50069C4.57358 22.2219 4.08615 20.1218 4.08615 17.9998C4.08615 15.8778 4.57358 13.7777 5.50069 11.8834H2.49332C1.72406 13.8309 1.334 15.8871 1.334 17.9998C1.334 20.1124 1.72406 22.1687 2.49332 24.116ZM6.18923 24.9512H2.21188C2.04298 24.9512 1.89073 24.8495 1.82612 24.6935C0.945449 22.5683 0.499023 20.3162 0.499023 17.9998C0.499023 15.6834 0.945449 13.4312 1.82612 11.3059C1.89073 11.1499 2.04298 11.0482 2.21188 11.0482H6.18923C6.33717 11.0482 6.47405 11.1263 6.54895 11.2538C6.62404 11.3812 6.6261 11.5388 6.55439 11.6682C5.48608 13.5951 4.92131 15.7845 4.92131 17.9998C4.92131 20.2149 5.48608 22.4043 6.55439 24.3312C6.6261 24.4606 6.62404 24.618 6.54895 24.7456C6.47405 24.8729 6.33717 24.9512 6.18923 24.9512Z" fill="#030411"/>
</svg>
