<svg width="24" height="44" viewBox="0 0 24 44" fill="none" xmlns="http://www.w3.org/2000/svg">
<path d="M19.8014 41.541C19.5154 41.541 19.2837 41.3093 19.2837 41.0233V30.2319C19.2837 29.946 19.5154 29.7142 19.8014 29.7142C20.0872 29.7142 20.3191 29.946 20.3191 30.2319V41.0233C20.3191 41.3093 20.0872 41.541 19.8014 41.541Z" fill="#0C1248"/>
<path d="M4.19839 41.541C3.91237 41.541 3.68066 41.3093 3.68066 41.0233V30.2319C3.68066 29.946 3.91237 29.7142 4.19839 29.7142C4.48418 29.7142 4.71588 29.946 4.71588 30.2319V41.0233C4.71588 41.3093 4.48418 41.541 4.19839 41.541Z" fill="#0C1248"/>
<path d="M12 41.6327C8.68331 41.6327 5.99487 38.944 5.99487 35.6276C5.99487 32.3111 8.68331 29.6226 12 29.6226C15.3164 29.6226 18.0051 32.3111 18.0051 35.6276C18.0051 38.944 15.3164 41.6327 12 41.6327ZM18.6674 31.4751C18.1801 30.6943 17.5596 30.0051 16.8376 29.4395C15.0826 28.0653 14.0377 25.9768 14.0377 23.7478V12.6744H9.96206V23.748C9.96206 25.9768 8.9171 28.0653 7.16241 29.4395C6.44016 30.0051 5.81959 30.6943 5.33228 31.4751H2.99951V39.78H5.34226C6.71481 41.9677 9.13394 43.4433 11.8878 43.4816C14.7476 43.5215 17.2624 42.0324 18.6681 39.78H21.0004V31.4751H18.6674Z" fill="#D03737"/>
<path d="M14.0375 15.6907H9.96191V13.695H14.0375V15.6907Z" fill="#CCD4EB"/>
<path d="M12.0001 30.1402C8.97435 30.1402 6.51274 32.6017 6.51274 35.6276C6.51274 38.6533 8.97435 41.1149 12.0001 41.1149C15.0259 41.1149 17.4873 38.6533 17.4873 35.6276C17.4873 32.6017 15.0259 30.1402 12.0001 30.1402ZM12.0001 42.1504C8.40346 42.1504 5.47729 39.2242 5.47729 35.6276C5.47729 32.0309 8.40346 29.105 12.0001 29.105C15.5968 29.105 18.5227 32.0309 18.5227 35.6276C18.5227 39.2242 15.5968 42.1504 12.0001 42.1504ZM3.51738 39.2623H5.3424C5.52047 39.2623 5.686 39.3539 5.78072 39.5049C7.11821 41.6361 9.40385 42.9291 11.8952 42.9639C11.9302 42.9643 11.966 42.9648 12.0013 42.9648C14.552 42.9648 16.8739 41.6775 18.229 39.506C18.3235 39.3544 18.4895 39.2623 18.6683 39.2623H20.4829V31.9928H18.6676C18.4891 31.9928 18.3231 31.9009 18.2283 31.7493C17.7721 31.0184 17.1968 30.3783 16.5185 29.8469C14.6131 28.3551 13.5201 26.1318 13.5201 23.7477V13.1921H10.4799V23.7477C10.4799 26.1318 9.38714 28.3551 7.48155 29.8469C6.80317 30.3783 6.22786 31.0184 5.77167 31.7493C5.67694 31.9009 5.51095 31.9928 5.33242 31.9928H3.51738V39.2623ZM12.0017 44C11.9613 44 11.921 43.9997 11.8806 43.9991C9.13269 43.9607 6.60491 42.5831 5.06172 40.2977H2.99965C2.71363 40.2977 2.48193 40.066 2.48193 39.78V31.4753C2.48193 31.1893 2.71363 30.9576 2.99965 30.9576H5.05103C5.54415 30.2249 6.14592 29.5778 6.84333 29.0318C8.49656 27.7373 9.4447 25.8115 9.4447 23.7477V12.6743C9.4447 12.3885 9.6764 12.1566 9.96219 12.1566H14.0378C14.3238 12.1566 14.5555 12.3885 14.5555 12.6743V23.7477C14.5555 25.8115 15.5037 27.7373 17.1567 29.0318C17.8541 29.5778 18.4559 30.2249 18.949 30.9576H21.0006C21.2864 30.9576 21.5181 31.1893 21.5181 31.4753V39.78C21.5181 40.066 21.2864 40.2977 21.0006 40.2977H18.9497C17.3851 42.6274 14.8153 44 12.0017 44Z" fill="#0C1248"/>
<path d="M0.517578 1.12545V16.2004H5.07516L6.00891 13.6949H17.9908L18.9246 16.2004H23.4821V1.12545H0.517578Z" fill="#D03737"/>
<path d="M19.9316 1.12545V16.2004H23.4823V1.12545H19.9316Z" fill="#CCD4EB"/>
<path d="M0.517578 1.12545V16.2004H2.29293V1.12545H0.517578Z" fill="white"/>
<path d="M3.41797 1.12545V16.2004H4.57436V1.12545H3.41797Z" fill="white"/>
<path d="M0.517578 2.3021V3.61475H23.888V2.3021H0.517578Z" fill="#D03737"/>
<path d="M14.6917 8.66304C14.6917 10.1496 13.4868 11.3545 12.0003 11.3545C10.5137 11.3545 9.30859 10.1496 9.30859 8.66304C9.30859 7.1765 10.5137 5.97135 12.0003 5.97135C13.4868 5.97135 14.6917 7.1765 14.6917 8.66304Z" fill="#CCD4EB"/>
<path d="M11.9999 6.48917C10.8013 6.48917 9.82597 7.46448 9.82597 8.66314C9.82597 9.86179 10.8013 10.8371 11.9999 10.8371C13.1986 10.8371 14.1739 9.86179 14.1739 8.66314C14.1739 7.46448 13.1986 6.48917 11.9999 6.48917ZM11.9999 11.8723C10.2302 11.8723 8.79053 10.4327 8.79053 8.66314C8.79053 6.89336 10.2302 5.45372 11.9999 5.45372C13.7695 5.45372 15.2091 6.89336 15.2091 8.66314C15.2091 10.4327 13.7695 11.8723 11.9999 11.8723Z" fill="#0C1248"/>
<path d="M23.4823 4.13257H0.517717C0.231693 4.13257 0 3.90064 0 3.61485C0 3.32905 0.231693 3.09713 0.517717 3.09713H23.4823C23.7681 3.09713 24 3.32905 24 3.61485C24 3.90064 23.7681 4.13257 23.4823 4.13257Z" fill="#0C1248"/>
<path d="M19.2843 15.6826H22.9646V1.64303H1.03543V15.6826H4.71567L5.52407 13.5139C5.59952 13.3115 5.7929 13.1771 6.00905 13.1771H17.9909C18.2071 13.1771 18.4005 13.3115 18.4759 13.5139L19.2843 15.6826ZM23.4823 16.718H18.9247C18.7086 16.718 18.5152 16.5838 18.4397 16.3811L17.6313 14.2125H6.36867L5.56029 16.3811C5.48483 16.5838 5.29144 16.718 5.0753 16.718H0.517717C0.231693 16.718 0 16.4863 0 16.2003V1.1253C0 0.839511 0.231693 0.60758 0.517717 0.60758H23.4823C23.7681 0.60758 24 0.839511 24 1.1253V16.2003C24 16.4863 23.7681 16.718 23.4823 16.718Z" fill="#0C1248"/>
<path d="M21.0001 36.1453H18.0045C17.7187 36.1453 17.4868 35.9135 17.4868 35.6275C17.4868 35.3417 17.7187 35.1098 18.0045 35.1098H21.0001C21.2859 35.1098 21.5176 35.3417 21.5176 35.6275C21.5176 35.9135 21.2859 36.1453 21.0001 36.1453Z" fill="#0C1248"/>
<path d="M5.99501 36.1453H2.99965C2.71363 36.1453 2.48193 35.9135 2.48193 35.6275C2.48193 35.3417 2.71363 35.1098 2.99965 35.1098H5.99501C6.2808 35.1098 6.51274 35.3417 6.51274 35.6275C6.51274 35.9135 6.2808 36.1453 5.99501 36.1453Z" fill="#0C1248"/>
</svg>
