<svg width="36" height="36" viewBox="0 0 36 36" fill="none" xmlns="http://www.w3.org/2000/svg">
<path d="M17.999 11.1784C14.2317 11.1784 11.1777 14.2324 11.1777 17.9998C11.1777 21.7671 14.2317 24.821 17.999 24.821C21.7659 24.821 24.82 21.7671 24.82 17.9998C24.82 14.2324 21.7659 11.1784 17.999 11.1784Z" fill="#D03737"/>
<path d="M17.9986 11.5958C14.4677 11.5958 11.5947 14.4686 11.5947 17.9997C11.5947 21.5306 14.4677 24.4035 17.9986 24.4035C21.5295 24.4035 24.4021 21.5306 24.4021 17.9997C24.4021 14.4686 21.5295 11.5958 17.9986 11.5958ZM17.9986 25.2385C14.007 25.2385 10.7598 21.9913 10.7598 17.9997C10.7598 14.0081 14.007 10.7607 17.9986 10.7607C21.9902 10.7607 25.2372 14.0081 25.2372 17.9997C25.2372 21.9913 21.9902 25.2385 17.9986 25.2385Z" fill="#030411"/>
<path d="M24.8179 18.5862C24.0165 18.713 23.2656 18.1666 23.1382 17.3658C22.6757 14.4504 19.9288 12.4541 17.0134 12.9158C16.2127 13.0428 15.4607 12.4964 15.3337 11.6955C15.2069 10.8948 15.7533 10.1427 16.5541 10.016C21.069 9.30084 25.3235 12.3921 26.0389 16.9065C26.1643 17.7074 25.6194 18.4595 24.8179 18.5862Z" fill="#D03737"/>
<path d="M17.8599 12.4314C19.0681 12.4314 20.2428 12.8112 21.2411 13.5366C22.4901 14.4435 23.3103 15.7804 23.55 17.3005C23.6417 17.8728 24.181 18.2649 24.7522 18.1737C25.3252 18.0833 25.7165 17.544 25.6248 16.9719C25.2971 14.8986 24.1791 13.0754 22.4751 11.838C20.7729 10.6006 18.6927 10.0997 16.6192 10.4283C16.0471 10.519 15.6554 11.0581 15.746 11.6303C15.8366 12.2024 16.3765 12.5949 16.9478 12.5035C17.2525 12.4554 17.5573 12.4314 17.8599 12.4314ZM24.5874 19.022C23.6754 19.022 22.8721 18.3587 22.726 17.4312C22.52 16.1313 21.8178 14.9881 20.7505 14.2123C19.6823 13.4363 18.3781 13.1222 17.0785 13.3284C16.0514 13.4909 15.0838 12.7878 14.9211 11.7609C14.8423 11.2635 14.9619 10.765 15.258 10.3575C15.554 9.95008 15.9911 9.6823 16.4887 9.60346C18.7824 9.24018 21.0819 9.7939 22.9657 11.1624C24.8495 12.5309 26.0873 14.5476 26.4506 16.8411C26.6135 17.8681 25.9094 18.836 24.8832 18.9987C24.784 19.0145 24.6847 19.022 24.5874 19.022Z" fill="#030411"/>
<path d="M17.9987 30.4168C11.141 30.4168 5.58166 24.8575 5.58166 17.9998C5.58166 11.142 11.141 5.58272 17.9987 5.58272C24.8572 5.58272 30.4151 11.142 30.4151 17.9998C30.4151 24.8575 24.8572 30.4168 17.9987 30.4168ZM17.9987 0.917561C8.5645 0.917561 0.916504 8.56555 0.916504 17.9998C0.916504 27.434 8.5645 35.082 17.9987 35.082C27.4339 35.082 35.0815 27.434 35.0815 17.9998C35.0815 8.56555 27.4339 0.917561 17.9987 0.917561Z" fill="#0C1248"/>
<path d="M1.50975 18.9391C1.50975 9.50492 9.15773 1.85693 18.592 1.85693C24.4752 1.85693 29.6623 4.83096 32.7352 9.35736C29.7671 4.30776 24.2786 0.917458 17.9987 0.917458C8.5645 0.917458 0.916504 8.56544 0.916504 17.9997C0.916504 21.551 2.00055 24.8488 3.85534 27.5813C2.36533 25.046 1.50975 22.0926 1.50975 18.9391Z" fill="white"/>
<path d="M32.3195 8.68633C33.3682 10.8995 33.9543 13.3732 33.9543 15.9843C33.9543 25.4186 26.3067 33.0664 16.8719 33.0664C10.8736 33.0664 5.5984 29.9743 2.55078 25.2976C5.28774 31.0811 11.1757 35.082 17.9988 35.082C27.434 35.082 35.0816 27.434 35.0816 17.9998C35.0816 14.5638 34.0648 11.3652 32.3195 8.68633Z" fill="#0C1248"/>
<path d="M17.9987 6.00016C11.3821 6.00016 5.99918 11.3831 5.99918 17.9996C5.99918 24.6162 11.3821 29.9991 17.9987 29.9991C24.6156 29.9991 29.9974 24.6162 29.9974 17.9996C29.9974 11.3831 24.6156 6.00016 17.9987 6.00016ZM17.9987 30.8343C10.9216 30.8343 5.16399 25.0767 5.16399 17.9996C5.16399 10.9226 10.9216 5.16499 17.9987 5.16499C25.0763 5.16499 30.8326 10.9226 30.8326 17.9996C30.8326 25.0767 25.0763 30.8343 17.9987 30.8343ZM17.9987 1.335C8.80991 1.335 1.334 8.81071 1.334 17.9996C1.334 27.1884 8.80991 34.6643 17.9987 34.6643C27.1867 34.6643 34.6639 27.1884 34.6639 17.9996C34.6639 8.81071 27.1867 1.335 17.9987 1.335ZM17.9987 35.4993C13.3243 35.4993 8.92975 33.6791 5.62446 30.3738C2.31936 27.0686 0.499023 22.674 0.499023 17.9996C0.499023 13.3253 2.31936 8.93074 5.62446 5.62545C8.92975 2.32016 13.3243 0.499828 17.9987 0.499828C22.6737 0.499828 27.0668 2.32016 30.3738 5.62545C33.6789 8.93074 35.499 13.3253 35.499 17.9996C35.499 22.674 33.6789 27.0686 30.3738 30.3738C27.0668 33.6791 22.6737 35.4993 17.9987 35.4993Z" fill="#030411"/>
<path d="M17.9982 6.0001C11.3817 6.0001 5.99876 11.383 5.99876 17.9996C5.99876 24.6162 11.3817 29.9991 17.9982 29.9991C24.6152 29.9991 29.997 24.6162 29.997 17.9996C29.997 11.383 24.6152 6.0001 17.9982 6.0001ZM17.9982 30.8342C10.9212 30.8342 5.16357 25.0766 5.16357 17.9996C5.16357 10.9226 10.9212 5.16493 17.9982 5.16493C25.0758 5.16493 30.8321 10.9226 30.8321 17.9996C30.8321 25.0766 25.0758 30.8342 17.9982 30.8342Z" fill="#030411"/>
<path d="M30.0615 17.4168C26.4343 18.5957 22.912 18.3688 20.9552 17.0391C21.7566 14.8137 24.4719 12.5595 28.1009 11.3807C28.2133 11.344 28.3256 11.3088 28.438 11.2749C26.7808 8.70686 24.2022 6.79008 21.1686 5.99143C21.1705 6.1094 21.1724 6.22793 21.1724 6.34684C21.1724 10.1618 19.8681 13.4419 17.9991 14.891C16.1301 13.4419 14.8256 10.1618 14.8256 6.34684C14.8256 6.22793 14.827 6.1094 14.8296 5.99143C11.7964 6.79008 9.21709 8.70686 7.55949 11.2749C7.67203 11.3088 7.78457 11.344 7.8973 11.3807C11.5256 12.5595 14.242 14.8137 15.0427 17.0391C13.087 18.3688 9.56427 18.5957 5.93596 17.4168C5.82379 17.3802 5.71237 17.3428 5.60189 17.3042C5.58916 17.5346 5.58203 17.7662 5.58203 17.9997C5.58203 20.9775 6.63068 23.71 8.37817 25.8492C8.44502 25.7531 8.513 25.6573 8.58247 25.5617C10.8249 22.4753 13.8081 20.5883 16.172 20.5146C16.8323 22.7856 15.9595 26.2059 13.7171 29.2923C13.6471 29.3887 13.5765 29.4839 13.5049 29.5779C14.8987 30.1193 16.4142 30.4167 17.9991 30.4167C19.5843 30.4167 21.0994 30.1193 22.4926 29.5779C22.4214 29.4839 22.3521 29.3887 22.281 29.2923C20.0387 26.2059 19.1661 22.7856 19.8264 20.5146C22.1911 20.5883 25.1741 22.4753 27.4156 25.5617C27.4848 25.6573 27.5541 25.7531 27.6197 25.8492C29.3668 23.71 30.4154 20.9775 30.4154 17.9997C30.4154 17.7662 30.4098 17.5346 30.3967 17.3042C30.2862 17.3428 30.1739 17.3802 30.0615 17.4168Z" fill="#CCD4EB"/>
<path d="M14.1705 29.3752C15.4006 29.7893 16.6856 29.9991 17.9982 29.9991C19.3109 29.9991 20.5966 29.7893 21.8269 29.3752C19.6631 26.3223 18.7212 22.8166 19.4244 20.3978C19.4776 20.2149 19.6467 20.0915 19.8384 20.097C22.355 20.1757 25.3979 22.1539 27.6319 25.1528C29.1618 23.094 29.997 20.575 29.997 17.9996C29.997 17.9586 29.997 17.9172 29.997 17.8755C26.426 18.9878 22.8025 18.8001 20.7202 17.3843C20.5629 17.2771 20.4974 17.077 20.561 16.8976C21.4149 14.5278 24.2369 12.2457 27.7798 11.0469C26.2555 8.90353 24.0871 7.32795 21.5872 6.54671C21.5442 10.2879 20.2448 13.6775 18.2542 15.2211C18.1035 15.3377 17.893 15.3377 17.7424 15.2211C15.7517 13.6775 14.4533 10.2879 14.4085 6.54671C11.9092 7.32795 9.74166 8.90353 8.21719 11.0471C11.7607 12.2457 14.5819 14.5278 15.4347 16.8976C15.4993 17.077 15.4343 17.2771 15.2766 17.3843C13.1941 18.8001 9.57033 18.9878 5.99951 17.8755C5.99894 17.9172 5.99876 17.9586 5.99876 17.9996C5.99876 20.575 6.83523 23.094 8.364 25.1528C10.5991 22.1537 13.6411 20.1757 16.158 20.097C16.3462 20.0915 16.5189 20.2149 16.5721 20.3978C17.2754 22.8166 16.3335 26.3221 14.1705 29.3752ZM17.9982 30.8342C16.3974 30.8342 14.8343 30.5423 13.3529 29.9668C13.2308 29.9195 13.138 29.8175 13.1024 29.6912C13.0666 29.5651 13.0923 29.4296 13.1717 29.3251C13.2411 29.2335 13.3102 29.1409 13.3784 29.0469C15.3781 26.2945 16.3249 23.1664 15.8515 20.9543C13.6014 21.1878 10.9191 23.0548 8.91941 25.8069C8.85181 25.9002 8.78532 25.9936 8.72016 26.0872C8.64544 26.1949 8.52448 26.2613 8.39359 26.2664C8.2627 26.2719 8.13687 26.2148 8.05391 26.1133C6.19013 23.8317 5.16357 20.95 5.16357 17.9996C5.16357 17.7682 5.1705 17.5264 5.18398 17.2813C5.19129 17.1502 5.25946 17.0303 5.36844 16.9573C5.47743 16.8841 5.61431 16.8667 5.73828 16.9098C5.84614 16.9474 5.95474 16.9841 6.06409 17.0196C9.29954 18.0709 12.567 18.0046 14.5246 16.8708C13.6074 14.8031 11.0028 12.8288 7.76739 11.7776C7.65747 11.742 7.54756 11.7075 7.43782 11.6744C7.31236 11.6366 7.2118 11.5418 7.16667 11.4188C7.12135 11.2956 7.13671 11.1585 7.20768 11.0482C8.95405 8.34289 11.6228 6.40346 14.7223 5.58757C14.8489 5.55405 14.9841 5.58233 15.0871 5.66341C15.1901 5.74449 15.2489 5.86921 15.2461 6.00029C15.2437 6.11526 15.2424 6.2308 15.2424 6.34671C15.2424 9.74863 16.3152 12.8358 17.9982 14.3471C19.6815 12.8358 20.7539 9.74863 20.7539 6.34671C20.7539 6.2308 20.7521 6.11526 20.7502 6.00029C20.7483 5.86921 20.8064 5.74449 20.9093 5.66341C21.0123 5.58233 21.1472 5.55424 21.2745 5.58757C24.3736 6.40346 27.042 8.34289 28.7892 11.0482C28.8603 11.1585 28.8753 11.2956 28.8304 11.4188C28.7854 11.5418 28.6843 11.6366 28.5588 11.6744C28.4483 11.7075 28.3397 11.742 28.2292 11.7778C24.9934 12.8288 22.3887 14.8031 21.4711 16.8708C23.4298 18.0046 26.6975 18.0708 29.9333 17.0196C30.0419 16.9841 30.1505 16.9474 30.2591 16.9098C30.3827 16.8667 30.5194 16.8843 30.628 16.9573C30.7366 17.0303 30.8059 17.1502 30.8134 17.2813C30.8265 17.5264 30.8321 17.7682 30.8321 17.9996C30.8321 20.95 29.806 23.8317 27.9427 26.1133C27.8604 26.2148 27.733 26.2721 27.6038 26.2664C27.4727 26.2613 27.351 26.1949 27.2761 26.0872C27.2106 25.9936 27.145 25.9002 27.0776 25.8069C25.0777 23.0548 22.3943 21.1878 20.1451 20.9543C19.6717 23.1664 20.6191 26.2945 22.619 29.0467C22.6864 29.1409 22.7557 29.2335 22.825 29.3251C22.9036 29.4296 22.9299 29.5651 22.8943 29.6912C22.8587 29.8175 22.7651 29.9195 22.6433 29.9668C21.1621 30.5423 19.5993 30.8342 17.9982 30.8342Z" fill="#030411"/>
<path d="M17.9983 19.8979C17.6708 19.8979 17.4053 20.1635 17.4053 20.4912C17.4053 20.8187 17.6708 21.0842 17.9983 21.0842C18.326 21.0842 18.5915 20.8187 18.5915 20.4912C18.5915 20.1635 18.326 19.8979 17.9983 19.8979Z" fill="#030411"/>
<path d="M19.8041 18.5861C19.7028 18.8977 19.8732 19.2323 20.1848 19.3336C20.4961 19.4348 20.8312 19.2644 20.9324 18.9527C21.0335 18.6411 20.8631 18.3066 20.5522 18.2053C20.2399 18.1041 19.9053 18.2745 19.8041 18.5861Z" fill="#030411"/>
<path d="M19.1142 16.4642C19.3793 16.6569 19.7503 16.5981 19.9428 16.3331C20.1353 16.068 20.0765 15.697 19.8115 15.5045C19.5465 15.312 19.1756 15.3706 18.9829 15.6358C18.7904 15.9008 18.8492 16.2717 19.1142 16.4642Z" fill="#030411"/>
<path d="M16.8828 16.4642C17.1479 16.2717 17.2065 15.9008 17.014 15.6358C16.8215 15.3706 16.4506 15.312 16.1854 15.5045C15.9204 15.697 15.8616 16.068 16.0543 16.3331C16.2468 16.5981 16.6178 16.6569 16.8828 16.4642Z" fill="#030411"/>
<path d="M16.1931 18.5861C16.0918 18.2745 15.7572 18.1041 15.4457 18.2053C15.1341 18.3066 14.9636 18.6411 15.0649 18.9527C15.166 19.2644 15.5006 19.4348 15.8122 19.3336C16.1238 19.2323 16.2944 18.8977 16.1931 18.5861Z" fill="#030411"/>
</svg>
