<svg width="52" height="16" viewBox="0 0 52 16" fill="none" xmlns="http://www.w3.org/2000/svg">
<path d="M5.08647 4.10727C5.08647 4.10727 8.98994 1.78102 18.9507 0.313225L27.9877 0.000686646C29.8213 -0.0155926 31.6417 0.314337 33.3499 0.980947C34.6625 1.49244 36.1929 2.14453 37.3473 2.79847C38.0302 3.18602 38.7822 3.43298 39.5632 3.5116C41.4112 3.69752 46.6593 4.15814 50.4685 5.17281C51.2646 5.38462 51.8628 6.04504 52.0002 6.85714L50.8293 9.51729L51.4408 10.0066L51.2739 10.9251C51.0872 11.9518 50.1935 12.6973 49.1505 12.6973H8.38882L6.38455 12.0665C5.57669 11.8121 4.95605 11.1609 4.741 10.3414L4.06709 7.77469C3.90078 7.1411 4.04896 6.46589 4.46528 5.96087L4.65841 5.72593L5.08647 4.10727Z" fill="#D03737"/>
<path d="M5.52148 11.5864C5.77011 11.8001 6.06165 11.9656 6.38372 12.0665L8.388 12.6973H49.1497C49.9511 12.6973 50.6629 12.2561 51.035 11.5864H5.52148Z" fill="#2A4262"/>
<path d="M18.3998 11.2849C18.3998 8.60997 16.2311 6.44097 13.556 6.44097H13.4581C10.783 6.44097 8.61426 8.60997 8.61426 11.2849V12.812H18.3998V11.2849Z" fill="#182B31"/>
<path d="M17.4429 10.9079C17.4429 13.1722 15.6075 15.0073 13.3435 15.0073C11.0795 15.0073 9.24414 13.1722 9.24414 10.9079C9.24414 8.64367 11.0795 6.80857 13.3435 6.80857C15.6075 6.80857 17.4429 8.64367 17.4429 10.9079Z" fill="#182B31"/>
<path d="M17.4442 11.0503C17.3658 11.0503 17.3023 10.9865 17.3023 10.9079C17.3023 8.7259 15.527 6.95092 13.3449 6.95092C11.1628 6.95092 9.38757 8.7259 9.38757 10.9079C9.38757 10.9865 9.32402 11.0503 9.24559 11.0503C9.16706 11.0503 9.10352 10.9865 9.10352 10.9079C9.10352 8.56958 11.0062 6.66604 13.3449 6.66604C15.6836 6.66604 17.5862 8.56958 17.5862 10.9079C17.5862 10.9865 17.5227 11.0503 17.4442 11.0503Z" fill="#EEE1E1"/>
<path d="M16.6286 10.9089C16.6286 12.7227 15.1582 14.1934 13.3444 14.1934C11.5306 14.1934 10.0603 12.7227 10.0603 10.9089C10.0603 9.09505 11.5306 7.62438 13.3444 7.62438C15.1582 7.62438 16.6286 9.09505 16.6286 10.9089Z" fill="#424B55"/>
<path d="M16.2878 10.9078C16.2878 12.533 14.9704 13.8501 13.3453 13.8501C11.7202 13.8501 10.4028 12.533 10.4028 10.9078C10.4028 9.2827 11.7202 7.96557 13.3453 7.96557C14.9704 7.96557 16.2878 9.2827 16.2878 10.9078Z" fill="#182B31"/>
<path d="M16.069 10.8758C16.069 12.3529 14.8718 13.5498 13.3948 13.5498C11.918 13.5498 10.7207 12.3529 10.7207 10.8758C10.7207 9.39863 11.918 8.20175 13.3948 8.20175C14.8718 8.20175 16.069 9.39863 16.069 10.8758Z" fill="white"/>
<path d="M14.0808 10.9101C14.0808 11.3467 13.7268 11.7009 13.2902 11.7009C12.8536 11.7009 12.4998 11.3467 12.4998 10.9101C12.4998 10.4735 12.8536 10.1193 13.2902 10.1193C13.7268 10.1193 14.0808 10.4735 14.0808 10.9101Z" fill="#182B31"/>
<path d="M11.6683 7.79419C11.6463 7.79419 11.6242 7.78679 11.6063 7.77107C11.5668 7.73684 11.5627 7.67765 11.597 7.63787C11.7266 7.48896 11.929 7.40294 12.1261 7.41589C12.1782 7.41866 12.218 7.46398 12.2149 7.51578C12.2118 7.56758 12.1678 7.60827 12.1148 7.60457C11.9755 7.59718 11.8317 7.65637 11.7398 7.76182C11.721 7.78402 11.6948 7.79419 11.6683 7.79419Z" fill="#EEE1E1"/>
<path d="M11.9341 8.05908C11.8992 8.05908 11.8658 8.03966 11.8492 8.00636C11.826 7.95919 11.8452 7.90276 11.892 7.87964L12.0746 7.789C12.1214 7.76587 12.1782 7.7853 12.2014 7.83154C12.2246 7.87872 12.2055 7.93606 12.1586 7.95919L11.9761 8.04891C11.9626 8.05631 11.9483 8.05908 11.9341 8.05908Z" fill="#EEE1E1"/>
<path d="M49.2669 11.2849C49.2669 8.60997 47.0983 6.44097 44.4231 6.44097H44.3252C41.6501 6.44097 39.4814 8.60997 39.4814 11.2849V12.812H49.2669V11.2849Z" fill="#182B31"/>
<path d="M48.3101 10.9079C48.3101 13.1722 46.4747 15.0073 44.2107 15.0073C41.9467 15.0073 40.1113 13.1722 40.1113 10.9079C40.1113 8.64367 41.9467 6.80857 44.2107 6.80857C46.4747 6.80857 48.3101 8.64367 48.3101 10.9079Z" fill="#182B31"/>
<path d="M48.3114 11.0503C48.233 11.0503 48.1694 10.9865 48.1694 10.9079C48.1694 8.7259 46.3941 6.95092 44.2121 6.95092C42.0299 6.95092 40.2547 8.7259 40.2547 10.9079C40.2547 10.9865 40.1911 11.0503 40.1127 11.0503C40.0342 11.0503 39.9707 10.9865 39.9707 10.9079C39.9707 8.56958 41.8733 6.66604 44.2121 6.66604C46.5507 6.66604 48.4534 8.56958 48.4534 10.9079C48.4534 10.9865 48.3899 11.0503 48.3114 11.0503Z" fill="#EEE1E1"/>
<path d="M47.4958 10.9089C47.4958 12.7227 46.0254 14.1934 44.2117 14.1934C42.3979 14.1934 40.9275 12.7227 40.9275 10.9089C40.9275 9.09505 42.3979 7.62438 44.2117 7.62438C46.0254 7.62438 47.4958 9.09505 47.4958 10.9089Z" fill="#424B55"/>
<path d="M47.155 10.9078C47.155 12.533 45.8376 13.8501 44.2126 13.8501C42.5874 13.8501 41.27 12.533 41.27 10.9078C41.27 9.2827 42.5874 7.96557 44.2126 7.96557C45.8376 7.96557 47.155 9.2827 47.155 10.9078Z" fill="#182B31"/>
<path d="M46.9365 10.8758C46.9365 12.3529 45.7392 13.5498 44.2623 13.5498C42.7854 13.5498 41.5881 12.3529 41.5881 10.8758C41.5881 9.39863 42.7854 8.20175 44.2623 8.20175C45.7392 8.20175 46.9365 9.39863 46.9365 10.8758Z" fill="white"/>
<path d="M44.948 10.9101C44.948 11.3467 44.5941 11.7009 44.1575 11.7009C43.7209 11.7009 43.3669 11.3467 43.3669 10.9101C43.3669 10.4735 43.7209 10.1193 44.1575 10.1193C44.5941 10.1193 44.948 10.4735 44.948 10.9101Z" fill="#182B31"/>
<path d="M42.5356 7.79419C42.5134 7.79419 42.4913 7.78679 42.4734 7.77107C42.434 7.73684 42.4298 7.67765 42.4642 7.63787C42.5938 7.48896 42.7957 7.40294 42.9932 7.41589C43.0454 7.41866 43.0853 7.46398 43.0821 7.51578C43.0791 7.56758 43.035 7.60827 42.9819 7.60457C42.8428 7.59718 42.6988 7.65637 42.607 7.76182C42.5883 7.78402 42.562 7.79419 42.5356 7.79419Z" fill="#EEE1E1"/>
<path d="M42.8013 8.05908C42.7664 8.05908 42.7329 8.03966 42.7164 8.00636C42.6932 7.96011 42.7123 7.90276 42.7592 7.87964L42.9417 7.789C42.9885 7.76587 43.0454 7.7853 43.0686 7.83247C43.0918 7.87872 43.0726 7.93606 43.0258 7.95919L42.8432 8.04891C42.8297 8.05631 42.8154 8.05908 42.8013 8.05908Z" fill="#EEE1E1"/>
<path d="M30.0527 0.670876C29.0892 0.517334 28.1414 0.542308 27.1857 0.553408C23.1388 0.601505 23.1775 0.693998 19.1336 0.854939L18.2453 0.911362C16.0965 1.34979 14.3172 2.00557 12.2539 2.74831C19.9836 5.86076 27.9617 6.4037 36.0007 4.37067C36.5078 4.2421 36.6217 3.57151 36.1862 3.282C34.4957 2.15912 32.0164 0.983508 30.0527 0.670876Z" fill="#9CD1DD"/>
<path d="M12.5188 2.75258C17.0923 4.56178 21.8008 5.47933 26.5175 5.47933C26.5176 5.47933 26.5181 5.47933 26.5183 5.47933C29.643 5.47933 32.8249 5.07513 35.9757 4.27875C36.1732 4.2288 36.3173 4.07248 36.3517 3.87084C36.3862 3.66921 36.302 3.47404 36.1319 3.3612C34.5307 2.29658 32.0247 1.0812 30.036 0.763939C29.3455 0.65387 28.675 0.639071 28.1101 0.639071C27.8704 0.639071 27.6305 0.642772 27.3903 0.645547L27.185 0.64832C24.6069 0.678843 23.6947 0.726943 22.3139 0.800014C21.5512 0.840711 20.6019 0.890657 19.1355 0.948929L18.256 1.00443C16.2065 1.42343 14.5076 2.03575 12.541 2.74426L12.5188 2.75258ZM26.5183 5.66895C26.5179 5.66895 26.5178 5.66895 26.5175 5.66895C21.6968 5.66895 16.8853 4.71532 12.2166 2.83583L11.9863 2.74333L12.4768 2.56667C14.4525 1.85446 16.1587 1.23936 18.2246 0.818512L18.2375 0.816663L19.1258 0.76024C20.5931 0.701968 21.5417 0.651095 22.3039 0.611322C23.687 0.537326 24.6008 0.489229 27.1828 0.458706L27.3878 0.455933C27.6289 0.453158 27.8695 0.450382 28.1101 0.450382C28.6824 0.450382 29.3622 0.465181 30.0657 0.5771C32.2208 0.920256 34.7368 2.20594 36.2367 3.20303C36.4701 3.35842 36.5857 3.62666 36.5384 3.90322C36.4911 4.17885 36.2933 4.39344 36.0221 4.46189C32.8563 5.26289 29.6585 5.66895 26.5183 5.66895Z" fill="#182B31"/>
<path d="M15.1572 3.41178C21.5815 5.64183 28.1827 5.92024 34.8305 4.23961C35.2125 4.14249 35.3452 3.70406 35.1485 3.41178H15.1572Z" fill="#424B55"/>
<path d="M26.953 9.96899C24.8605 9.17169 22.9174 8.03585 20.9607 6.94811C19.0039 5.85945 17.0048 4.80593 14.8509 4.19361C12.6972 3.5813 10.3559 3.43331 8.23633 4.15569C11.5147 3.75057 14.7782 4.91415 17.7776 6.29787C20.7772 7.6816 23.7139 9.32153 26.953 9.96899Z" fill="#182B31"/>
<path d="M38.5738 6.35498C38.7721 6.27913 38.9147 6.09137 38.9213 5.86846L38.9216 5.85736C38.9312 5.53733 38.6618 5.28112 38.3427 5.30331C37.0499 5.39396 35.7619 5.55305 34.4864 5.78244C34.0684 5.85828 33.6459 5.94338 33.2414 6.07287C33.0844 6.12282 33.1206 6.35498 33.2855 6.35498H38.5738Z" fill="#182B31"/>
<path d="M34.7898 6.34396C34.9874 6.1118 35.2261 5.91386 35.4918 5.7631C35.5502 5.7298 35.6114 5.69835 35.6546 5.64655C35.6979 5.59568 35.7188 5.51798 35.6854 5.45971C35.6397 5.38017 35.5261 5.37739 35.4365 5.39774C35.1618 5.45786 34.9208 5.6336 34.7478 5.85559C34.5748 6.07758 34.4653 6.34304 34.3926 6.61497C34.5588 6.62237 34.6822 6.47161 34.7898 6.34396Z" fill="white"/>
<path d="M36.1473 6.26499C36.3448 6.0319 36.5837 5.83489 36.8492 5.68412C36.9076 5.65082 36.9688 5.61845 37.012 5.56758C37.0553 5.51578 37.0762 5.43901 37.0428 5.38074C36.9971 5.30119 36.8835 5.29842 36.7939 5.31784C36.5192 5.37889 36.2782 5.55463 36.1052 5.77661C35.9322 5.99768 35.8227 6.26406 35.75 6.53507C35.9162 6.5434 36.0396 6.39171 36.1473 6.26499Z" fill="white"/>
<path d="M20.6104 8.5752C20.59 8.5752 20.5696 8.56872 20.5523 8.55485C16.9493 5.7467 12.4483 4.23071 7.88206 4.29083C7.88159 4.29083 7.88123 4.29083 7.88076 4.29083C7.82915 4.29083 7.78688 4.24921 7.78614 4.19741C7.78549 4.14469 7.82739 4.10214 7.87965 4.10122C12.4898 4.04295 17.032 5.57096 20.6686 8.40593C20.7099 8.4383 20.7173 8.4975 20.6851 8.53912C20.6664 8.56225 20.6386 8.5752 20.6104 8.5752Z" fill="#EEE1E1"/>
<path d="M29.2963 10.4463C26.8573 10.4463 24.4247 10.0282 22.1158 9.20316C22.0665 9.18559 22.0409 9.13101 22.0586 9.08199C22.0761 9.03297 22.1306 9.00707 22.1795 9.02464C25.6378 10.2613 29.377 10.5749 32.9928 9.93109C33.0442 9.92092 33.0934 9.95607 33.1026 10.0069C33.1118 10.0587 33.0774 10.1078 33.026 10.117C31.7919 10.3371 30.543 10.4463 29.2963 10.4463Z" fill="#EEE1E1"/>
<path d="M35.9638 11.4614C35.9415 11.4614 35.9192 11.454 35.9012 11.4383C35.8619 11.4032 35.8582 11.344 35.8928 11.3042C37.0044 10.0453 38.5163 8.44054 40.3576 7.18724C42.1915 5.93856 44.148 5.20137 46.0158 5.05615C48.179 4.88781 50.2654 5.52048 51.7403 6.79228C51.7798 6.82651 51.7842 6.88663 51.7501 6.9264C51.7159 6.96525 51.6561 6.96987 51.6165 6.93565C50.1798 5.69622 48.1438 5.07928 46.0305 5.24484C44.1956 5.38821 42.2708 6.11337 40.4641 7.34355C38.6402 8.58483 37.1389 10.1794 36.0348 11.43C36.016 11.4513 35.99 11.4614 35.9638 11.4614Z" fill="#EEE1E1"/>
<path d="M49.6709 10.2041C50.6064 9.44287 51.1366 8.20991 51.0454 7.00748C50.6709 7.47273 50.2936 7.9426 50.0215 8.47445C49.7495 9.00722 49.5868 9.61213 49.6709 10.2041Z" fill="#182B31"/>
<path d="M4.59995 7.73096C5.49105 6.99377 6.44819 6.33521 7.45629 5.76729C6.9052 5.38806 6.14832 5.512 5.53822 5.78579C5.22272 5.92823 4.91591 6.11229 4.70419 6.38608C4.30674 6.89943 4.56841 7.08257 4.59995 7.73096Z" fill="#182B31"/>
<path d="M6.21881 4.49735C8.28218 3.39388 10.4402 2.46708 12.6613 1.73082C12.2529 1.50236 11.7469 1.59115 11.2911 1.69752C9.04101 2.22567 6.85748 3.03593 4.80854 4.10517C4.68302 4.403 4.98641 4.73783 5.30718 4.7739C5.62786 4.80998 5.93411 4.64996 6.21881 4.49735Z" fill="#182B31"/>
<path d="M21.8598 3.18055C21.6785 3.38312 21.5004 3.62268 21.5107 3.89461C21.5226 4.21187 21.7834 4.45698 22.025 4.66324C22.3234 4.91853 22.6568 5.18769 23.0494 5.19232C23.5049 5.19787 23.8766 4.85008 24.2048 4.53375C25.5923 3.19905 27.1704 2.01512 28.9836 1.36673C26.5347 0.495426 23.594 1.24463 21.8598 3.18055Z" fill="white"/>
<path d="M24.2704 7.38623L23.2429 0.614678L23.4301 0.586004L24.4577 7.35756L24.2704 7.38623Z" fill="#182B31"/>
</svg>
