<svg width="44" height="22" viewBox="0 0 44 22" fill="none" xmlns="http://www.w3.org/2000/svg">
<path d="M21.2266 0.334589H7.45262C5.37323 0.334589 2.78665 1.36978 2.22178 3.24632L1.30898 6.02733C1.10018 6.78257 1.01426 7.56644 1.05449 8.34883L1.11296 9.4846C1.18025 10.7928 0.376953 14.9319 0.376953 15.8973V18.9094H3.10911L3.11209 18.9404H41.281L43.056 13.682C43.056 12.2423 42.4028 10.8818 41.2794 9.98139C38.1583 7.48003 31.3285 3.31628 24.4882 0.989731C23.8158 0.761011 22.657 0.515543 21.2266 0.334589Z" fill="#D03737"/>
<path d="M0.418476 15.3339C0.392512 15.5707 0.376953 15.7647 0.376953 15.8973V18.9094H3.10911L3.11209 18.9404H41.281L42.4984 15.3339H0.418476Z" fill="#182B31"/>
<path d="M10.9133 17.5556C10.9133 15.1835 8.99037 13.2606 6.61833 13.2606H6.53152C4.15949 13.2606 2.23657 15.1835 2.23657 17.5556V18.9092H10.9133V17.5556Z" fill="#182B31"/>
<path d="M39.4716 17.5556C39.4716 15.1835 37.5487 13.2606 35.1767 13.2606H35.0899C32.7178 13.2606 30.7949 15.1835 30.7949 17.5556V18.9092H39.4716V17.5556Z" fill="#182B31"/>
<path d="M38.8159 17.8274C38.8159 19.8577 37.1701 21.5034 35.1399 21.5034C33.1096 21.5034 31.4639 19.8577 31.4639 17.8274C31.4639 15.7972 33.1096 14.1514 35.1399 14.1514C37.1701 14.1514 38.8159 15.7972 38.8159 17.8274Z" fill="#182B31"/>
<path d="M38.8159 17.9795C38.7319 17.9795 38.6638 17.9114 38.6638 17.8274C38.6638 15.8842 37.083 14.3035 35.1399 14.3035C33.1968 14.3035 31.616 15.8842 31.616 17.8274C31.616 17.9114 31.5479 17.9795 31.4639 17.9795C31.3798 17.9795 31.3118 17.9114 31.3118 17.8274C31.3118 15.7166 33.0291 13.9992 35.1399 13.9992C37.2508 13.9992 38.9681 15.7166 38.9681 17.8274C38.9681 17.9114 38.9 17.9795 38.8159 17.9795Z" fill="#EEE1E1"/>
<path d="M38.0849 17.8274C38.0849 19.454 36.7664 20.7725 35.1399 20.7725C33.5133 20.7725 32.1948 19.454 32.1948 17.8274C32.1948 16.2009 33.5133 14.8824 35.1399 14.8824C36.7664 14.8824 38.0849 16.2009 38.0849 17.8274Z" fill="#424B55"/>
<path d="M37.7785 17.8275C37.7785 19.2847 36.5972 20.4661 35.1398 20.4661C33.6826 20.4661 32.5012 19.2847 32.5012 17.8275C32.5012 16.3702 33.6826 15.1887 35.1398 15.1887C36.5972 15.1887 37.7785 16.3702 37.7785 17.8275Z" fill="#182B31"/>
<path d="M37.5855 17.7973C37.5855 19.1218 36.5119 20.1953 35.1875 20.1953C33.8631 20.1953 32.7896 19.1218 32.7896 17.7973C32.7896 16.473 33.8631 15.3993 35.1875 15.3993C36.5119 15.3993 37.5855 16.473 37.5855 17.7973Z" fill="white"/>
<path d="M35.7996 17.8275C35.7996 18.2191 35.4822 18.5364 35.0908 18.5364C34.6993 18.5364 34.3818 18.2191 34.3818 17.8275C34.3818 17.436 34.6993 17.1187 35.0908 17.1187C35.4822 17.1187 35.7996 17.436 35.7996 17.8275Z" fill="#182B31"/>
<path d="M33.6363 15.0518C33.6126 15.0518 33.589 15.0435 33.5697 15.0268C33.5275 14.99 33.5231 14.9259 33.5598 14.8836C33.6792 14.7465 33.8671 14.6674 34.0476 14.6787C34.1036 14.682 34.1462 14.7301 34.1429 14.786C34.1396 14.842 34.0902 14.8841 34.0357 14.8812C33.9161 14.8748 33.7918 14.9262 33.7128 15.017C33.6927 15.04 33.6646 15.0518 33.6363 15.0518Z" fill="#EEE1E1"/>
<path d="M33.876 15.2893C33.8386 15.2893 33.8027 15.2686 33.785 15.2329C33.7601 15.1827 33.7806 15.1218 33.8308 15.0971L33.9946 15.0158C34.0448 14.991 34.1056 15.0116 34.1304 15.0617C34.1553 15.1119 34.1348 15.1727 34.0846 15.1976L33.921 15.2787C33.9065 15.2859 33.891 15.2893 33.876 15.2893Z" fill="#EEE1E1"/>
<path d="M10.4141 17.8274C10.4141 19.8577 8.76833 21.5034 6.73809 21.5034C4.70785 21.5034 3.06201 19.8577 3.06201 17.8274C3.06201 15.7972 4.70785 14.1514 6.73809 14.1514C8.76833 14.1514 10.4141 15.7972 10.4141 17.8274Z" fill="#182B31"/>
<path d="M10.4142 17.9795C10.33 17.9795 10.262 17.9114 10.262 17.8274C10.262 15.8842 8.68124 14.3035 6.73811 14.3035C4.79507 14.3035 3.21425 15.8842 3.21425 17.8274C3.21425 17.9114 3.14617 17.9795 3.06213 17.9795C2.97799 17.9795 2.90991 17.9114 2.90991 17.8274C2.90991 15.7166 4.6272 13.9992 6.73811 13.9992C8.84892 13.9992 10.5663 15.7166 10.5663 17.8274C10.5663 17.9114 10.4982 17.9795 10.4142 17.9795Z" fill="#EEE1E1"/>
<path d="M9.68326 17.8274C9.68326 19.454 8.36475 20.7725 6.73824 20.7725C5.11172 20.7725 3.79321 19.454 3.79321 17.8274C3.79321 16.2009 5.11172 14.8824 6.73824 14.8824C8.36475 14.8824 9.68326 16.2009 9.68326 17.8274Z" fill="#424B55"/>
<path d="M9.37693 17.8275C9.37693 19.2847 8.19557 20.4661 6.73832 20.4661C5.28107 20.4661 4.09961 19.2847 4.09961 17.8275C4.09961 16.3702 5.28107 15.1887 6.73832 15.1887C8.19557 15.1887 9.37693 16.3702 9.37693 17.8275Z" fill="#182B31"/>
<path d="M9.18394 17.7973C9.18394 19.1218 8.1104 20.1953 6.78594 20.1953C5.46158 20.1953 4.38794 19.1218 4.38794 17.7973C4.38794 16.473 5.46158 15.3993 6.78594 15.3993C8.1104 15.3993 9.18394 16.473 9.18394 17.7973Z" fill="white"/>
<path d="M7.39803 17.8275C7.39803 18.2191 7.08062 18.5364 6.68908 18.5364C6.29764 18.5364 5.98022 18.2191 5.98022 17.8275C5.98022 17.436 6.29764 17.1187 6.68908 17.1187C7.08062 17.1187 7.39803 17.436 7.39803 17.8275Z" fill="#182B31"/>
<path d="M5.23465 15.0518C5.21106 15.0518 5.18738 15.0435 5.16815 15.0268C5.12584 14.99 5.12148 14.9259 5.15824 14.8836C5.27766 14.7465 5.46535 14.6674 5.64601 14.6787C5.7019 14.682 5.74461 14.7301 5.74134 14.786C5.73797 14.842 5.68902 14.8841 5.63412 14.8812C5.51391 14.8748 5.39023 14.9262 5.31115 15.017C5.29113 15.04 5.26299 15.0518 5.23465 15.0518Z" fill="#EEE1E1"/>
<path d="M5.47435 15.2893C5.43699 15.2893 5.40112 15.2686 5.38338 15.2329C5.3585 15.1827 5.37901 15.1218 5.42916 15.0971L5.59287 15.0158C5.64321 14.991 5.70396 15.0116 5.72883 15.0617C5.75371 15.1119 5.7332 15.1727 5.68295 15.1976L5.51934 15.2787C5.50487 15.2859 5.48941 15.2893 5.47435 15.2893Z" fill="#EEE1E1"/>
<path d="M6.38903 2.44536C5.56284 2.64931 4.63022 3.06939 4.5001 3.86922C4.42548 4.32765 4.65697 4.79381 5.00045 5.1242C5.34403 5.4545 5.78888 5.67104 6.23215 5.86775C9.97076 7.52676 14.16 8.16198 18.2865 8.04911C22.4128 7.93624 26.4879 7.09568 30.4242 5.9168C30.7527 5.81849 31.1506 5.62247 31.1138 5.29783C31.0969 5.14789 30.9846 5.0253 30.8745 4.91649C29.3632 3.42307 27.2853 2.5292 25.1536 2.08197C23.0218 1.63473 20.8194 1.60352 18.6361 1.62116C16.056 1.64187 13.4765 1.72808 10.9013 1.8797C9.38459 1.96889 7.85966 2.08226 6.38903 2.44536Z" fill="#9CD1DD"/>
<path d="M19.4447 1.71926C19.1753 1.71926 18.906 1.72065 18.637 1.72283C16.0701 1.74355 13.4695 1.83045 10.9073 1.98118C9.37586 2.07126 7.87976 2.18216 6.41349 2.54407C5.79283 2.69728 4.73208 3.07534 4.60028 3.88577C4.53745 4.27186 4.71345 4.7076 5.0709 5.05137C5.40992 5.37731 5.85081 5.58769 6.27337 5.77529C9.54096 7.2253 13.2725 7.96062 17.3644 7.96072C17.3645 7.96072 17.3647 7.96072 17.3648 7.96072C17.6685 7.96072 17.9776 7.95646 18.2838 7.94803C21.9906 7.84666 25.9523 7.15049 30.3952 5.81998C30.5918 5.76112 31.0452 5.59364 31.0131 5.30952C30.9999 5.19199 30.9021 5.08675 30.8032 4.98894C29.4436 3.64526 27.4827 2.67448 25.1329 2.18146C23.1913 1.77416 21.1679 1.71926 19.4447 1.71926ZM17.3648 8.16357C17.3646 8.16357 17.3645 8.16357 17.3644 8.16357C13.244 8.16348 9.48477 7.42231 6.19111 5.9607C5.77123 5.7744 5.29298 5.54637 4.93028 5.19754C4.52476 4.80759 4.32657 4.30505 4.4001 3.85316C4.5431 2.97406 5.54747 2.54892 6.36483 2.34716C7.84785 1.98109 9.35416 1.8694 10.8954 1.77872C13.461 1.6277 16.065 1.54069 18.6354 1.51998C18.9049 1.5178 19.1747 1.51641 19.4447 1.51641C21.1783 1.51641 23.2147 1.57181 25.1745 1.98297C27.5626 2.48391 29.5584 3.47352 30.9458 4.84465C31.0651 4.96248 31.194 5.1035 31.2147 5.28663C31.25 5.5984 30.9795 5.85675 30.4534 6.01432C25.9932 7.35007 22.0143 8.04892 18.2893 8.15079C17.9813 8.15921 17.6702 8.16357 17.3648 8.16357Z" fill="#182B31"/>
<path d="M13.412 6.32067C13.3982 6.64869 13.6176 6.95232 13.8965 7.12555C14.1754 7.29877 14.5065 7.36408 14.8312 7.41333C17.0386 7.74779 19.3358 7.46823 21.3987 6.6143C20.2547 6.68258 19.0344 6.30283 18.3182 5.40806C17.6019 4.5134 17.5559 3.06854 18.3864 2.27872C17.8267 2.10926 17.2085 2.27198 16.7111 2.57978C16.2138 2.88758 15.815 3.32788 15.4233 3.76223C14.9083 4.33334 14.3933 4.90435 13.8783 5.47545C13.6581 5.71953 13.4257 5.99226 13.412 6.32067Z" fill="white"/>
<path d="M37.3145 8.47556C36.3765 6.76155 34.2146 6.0518 32.2643 6.17082C30.3141 6.28984 28.4745 7.06459 26.605 7.63253C20.1484 9.5939 13.2122 9.10227 6.53516 8.12594C8.77479 9.57011 11.5646 9.81965 14.2291 9.86513C18.3151 9.935 22.3967 9.62175 26.4712 9.30869C30.0856 9.03102 33.7001 8.75324 37.3145 8.47556Z" fill="#0C1248"/>
<path d="M2.42105 11.169C2.43809 10.8504 2.4484 10.5241 2.35346 10.2195C2.29717 10.0389 2.15824 9.8435 1.97035 9.865C1.54065 11.071 1.38556 12.374 1.52034 13.6472C1.87293 13.3624 2.10185 12.9467 2.23108 12.5121C2.3602 12.0777 2.39687 11.6216 2.42105 11.169Z" fill="#0C1248"/>
<path d="M2.02734 7.78098C2.11702 7.43542 2.01664 7.07291 1.93052 6.72656C1.66394 6.97589 1.54255 7.37051 1.62282 7.72657C1.65274 7.85956 1.76037 8.01286 1.88989 7.97065C1.96748 7.94548 2.00682 7.85996 2.02734 7.78098Z" fill="#0C1248"/>
<path d="M14.2889 18.3066C14.236 18.3066 14.1915 18.2657 14.1878 18.2123C14.0002 15.5361 12.7308 12.9923 10.7053 11.2331C8.67996 9.47384 5.98377 8.57363 3.3073 8.76221C3.25062 8.76558 3.20295 8.72396 3.19899 8.66817C3.19502 8.61228 3.23714 8.56382 3.29303 8.55985C6.02242 8.36711 8.77261 9.28566 10.8384 11.0798C12.9043 12.874 14.1988 15.4685 14.3901 18.198C14.3941 18.254 14.352 18.3025 14.296 18.3063C14.2936 18.3065 14.2912 18.3066 14.2889 18.3066Z" fill="#EEE1E1"/>
<path d="M40.7168 17.1016C41.1506 17.0385 41.4719 16.5552 41.3623 16.1309C40.9747 16.2783 40.7028 16.6871 40.7168 17.1016Z" fill="#ACADA5"/>
<path d="M41.2819 16.2807C41.0337 16.4219 40.858 16.6862 40.8237 16.9698C40.9546 16.9206 41.0728 16.8249 41.1588 16.6955C41.2447 16.5662 41.2872 16.4203 41.2819 16.2807ZM40.7167 17.2031C40.6931 17.2031 40.67 17.1949 40.6517 17.1795C40.6296 17.161 40.6163 17.134 40.6153 17.1051C40.5999 16.6482 40.8987 16.1986 41.3261 16.0362C41.353 16.0259 41.383 16.0276 41.4087 16.0409C41.4343 16.0541 41.4531 16.0777 41.4603 16.1056C41.5198 16.3356 41.4714 16.5916 41.3277 16.8078C41.1839 17.0241 40.9665 17.1678 40.7314 17.202C40.7265 17.2027 40.7216 17.2031 40.7167 17.2031Z" fill="#231F20"/>
<path d="M29.5148 15.2156H10.6478C10.5918 15.2156 10.5464 15.1702 10.5464 15.1142C10.5464 15.0581 10.5918 15.0127 10.6478 15.0127H29.5148C29.5708 15.0127 29.6163 15.0581 29.6163 15.1142C29.6163 15.1702 29.5708 15.2156 29.5148 15.2156Z" fill="#182B31"/>
<path d="M32.2039 15.0635H31.0363C30.9802 15.0635 30.9348 15.0181 30.9348 14.962C30.9348 14.9059 30.9802 14.8606 31.0363 14.8606H32.2039C32.2599 14.8606 32.3053 14.9059 32.3053 14.962C32.3053 15.0181 32.2599 15.0635 32.2039 15.0635Z" fill="#182B31"/>
<path d="M18.2027 14.9622C18.1544 14.9622 18.1116 14.9276 18.1029 14.8785C17.2818 10.2422 16.9699 5.50633 17.1757 0.802199C17.1782 0.746307 17.227 0.70419 17.2815 0.705379C17.3374 0.707758 17.3808 0.755225 17.3783 0.811117C17.1731 5.50038 17.4841 10.2214 18.3026 14.843C18.3125 14.8981 18.2756 14.9509 18.2205 14.9606C18.2144 14.9617 18.2085 14.9622 18.2027 14.9622Z" fill="#182B31"/>
<path d="M20.9248 9.22346L18.5282 9.38994C18.4984 9.39203 18.4365 9.39639 18.4194 9.41651C18.4144 9.42235 18.4148 9.43246 18.4161 9.43999C18.4203 9.46437 18.4387 9.49113 18.4599 9.50361C18.4935 9.52333 18.5383 9.53215 18.6053 9.53215C18.6304 9.53215 18.6556 9.53097 18.6805 9.52978L20.5858 9.43504C20.7079 9.42899 20.8147 9.41928 20.8842 9.3623C20.9142 9.33772 20.9339 9.29045 20.931 9.24982C20.9302 9.23952 20.9282 9.23069 20.9248 9.22346ZM18.6053 9.73511C18.54 9.73511 18.4434 9.72926 18.3571 9.67852C18.2843 9.63581 18.2303 9.55733 18.2161 9.47388C18.2041 9.40333 18.2214 9.33633 18.2647 9.2852C18.3371 9.19987 18.4523 9.19185 18.5141 9.18759L20.955 9.01803C20.9757 9.01654 20.9967 9.0216 21.0147 9.0324C21.0838 9.07432 21.1272 9.14834 21.1333 9.23545C21.1409 9.34169 21.0936 9.45307 21.0128 9.51917C20.8858 9.62322 20.7183 9.63165 20.5959 9.63769L18.6906 9.73243C18.6625 9.73382 18.6337 9.73511 18.6053 9.73511Z" fill="#182B31"/>
<path d="M3.94648 4.06007C3.9326 4.06463 3.91665 4.07593 3.90961 4.08961C3.88633 4.13489 3.89485 4.20199 3.90555 4.2669C3.95004 4.53555 4.02169 4.80094 4.11841 5.05542C4.16598 5.18069 4.22316 5.30723 4.3178 5.38562C4.37776 5.43517 4.46298 5.46054 4.52967 5.44984L3.94648 4.06007ZM4.49678 5.65527C4.38787 5.65527 4.27558 5.61394 4.18848 5.5419C4.05757 5.43358 3.98632 5.2787 3.92884 5.12757C3.82726 4.8604 3.75214 4.58203 3.70537 4.29999C3.68981 4.20585 3.67752 4.09704 3.72935 3.99665C3.77276 3.91242 3.86403 3.85573 3.95659 3.85573C4.00653 3.85573 4.05231 3.87228 4.08908 3.9037C4.10107 3.914 4.11059 3.92689 4.11673 3.94155L4.75493 5.46223C4.77287 5.50504 4.75959 5.55449 4.72262 5.58243C4.65969 5.63 4.5816 5.65527 4.49678 5.65527Z" fill="#182B31"/>
<path d="M30.8609 13.0317C30.8404 13.0317 30.8197 13.0255 30.8017 13.0127C30.7562 12.98 30.7459 12.9166 30.7786 12.8711C31.6574 11.6501 32.7347 10.6037 33.9807 9.76078C34.8868 9.14785 35.7173 8.76969 36.5196 8.60478C37.5293 8.39727 38.5067 8.53324 39.2718 8.98751C39.32 9.01615 39.3358 9.07838 39.3073 9.12654C39.2786 9.17471 39.2163 9.19066 39.1683 9.16202C38.4465 8.73351 37.5203 8.60617 36.5605 8.80358C35.7847 8.96293 34.978 9.33108 34.0944 9.92885C32.8682 10.7583 31.8081 11.7881 30.9433 12.9896C30.9235 13.0171 30.8924 13.0317 30.8609 13.0317Z" fill="#EEE1E1"/>
<path d="M18.4032 10.498C14.7661 10.498 11.1327 10.2045 7.54062 9.39656C7.48602 9.38427 7.45163 9.32997 7.46392 9.27536C7.4763 9.22066 7.53071 9.18637 7.58511 9.19856C16.0215 11.0962 24.7091 10.1443 33.1109 9.22363C33.1664 9.21769 33.2167 9.25762 33.2228 9.31342C33.2289 9.36911 33.1886 9.41916 33.133 9.4253C28.2852 9.95647 23.3414 10.498 18.4032 10.498Z" fill="#EEE1E1"/>
<path d="M42.4301 14.8652C42.8979 13.9 42.9043 12.7231 42.4467 11.7529C41.9892 10.7828 41.0771 10.039 40.0347 9.78601C40.0614 10.2037 40.3227 10.5628 40.5411 10.9198C40.9145 11.5305 41.1853 12.2037 41.3386 12.9029C41.4232 13.2888 41.4735 13.686 41.6246 14.0509C41.7756 14.4159 42.0505 14.7554 42.4301 14.8652Z" fill="white"/>
<path d="M11.1209 6.53754C11.3218 6.5094 11.489 6.37403 11.6446 6.24381C12.9855 5.12082 14.3143 3.98346 15.6309 2.83203C15.3043 2.37657 14.6398 2.27757 14.1068 2.45099C13.574 2.62442 13.1414 3.0106 12.726 3.38668C11.8662 4.16501 11.0065 4.94324 10.1467 5.72156C10.35 6.12767 10.6712 6.60047 11.1209 6.53754Z" fill="white"/>
</svg>
