<svg width="48" height="28" viewBox="0 0 48 28" fill="none" xmlns="http://www.w3.org/2000/svg">
<path d="M6.32698 8.22076C6.13509 7.15798 6.10036 5.96695 6.51718 4.94397C6.91439 3.96927 7.66029 3.28047 8.73433 2.89693C9.20183 2.72984 9.66342 2.64527 10.1061 2.64527C12.1128 2.64527 13.3902 4.31494 14.1381 5.83482C14.5733 5.80736 15.0204 5.79284 15.4802 5.79284C15.7231 5.79284 15.9698 5.79744 16.2182 5.80555C16.0376 5.41148 15.8234 4.99914 15.571 4.58862C14.0454 2.10577 11.9056 0.846868 9.21128 0.846868C8.90069 0.846868 8.57837 0.864169 8.25351 0.898046C6.45124 1.08619 5.24448 1.76192 4.66651 2.90673C3.79513 4.63266 4.40928 7.13208 5.13934 9.03394C5.5115 8.75263 5.90714 8.48028 6.32698 8.22076Z" fill="#D03737"/>
<path d="M42.8486 14.315C42.7181 14.234 42.5539 14.23 42.4195 14.3047C42.2852 14.3795 42.2018 14.5212 42.2018 14.6748C42.2018 14.7017 42.1862 17.3691 40.8363 18.8226C39.8673 19.8662 38.9425 22.2688 39.7262 24.0658C40.1148 24.957 41.0807 26.0194 43.4755 26.0195H43.4758C43.536 26.0195 43.5964 26.0189 43.6582 26.0175C45.7827 25.9712 47.3455 24.867 47.8385 23.0636C48.4961 20.6588 47.208 17.0211 42.8486 14.315Z" fill="#CCD4EB"/>
<path d="M17.7392 24.709C13.3383 21.993 7.15135 18.071 1.66855 14.2198C1.32723 14.7978 1.0642 15.3245 0.868434 15.7595C0.817497 15.8725 0.8567 16.0721 0.978779 16.3212C2.3513 19.1227 12.5466 25.6122 15.4818 26.3207C15.5287 26.3321 15.576 26.3376 15.6264 26.3376H15.6266C16.1912 26.3374 16.925 25.6966 17.7392 24.709Z" fill="#D03737"/>
<path d="M31.6128 9.31888C35.5011 9.31888 39.3639 12.166 40.4603 13.0419L41.0459 12.4694C39.7983 11.2375 34.9454 6.62151 32.2838 6.62151C32.2001 6.62151 32.1191 6.6266 32.0428 6.6364C30.0148 6.89907 27.5871 7.17928 24.4382 7.17928H24.4372C22.0343 7.17928 19.4722 7.01147 16.822 6.6808C16.37 6.65358 15.9185 6.6399 15.4801 6.6399C13.4133 6.6399 11.6122 6.94287 10.0461 7.4451C13.1055 9.80562 18.3017 13.7195 22.986 16.7908C25.2002 13.3406 27.446 10.2556 29.5912 9.60696C30.2235 9.41579 30.9037 9.31888 31.6128 9.31888Z" fill="#D03737"/>
<path d="M22.9861 16.7908C18.3018 13.7195 13.1056 9.80562 10.0463 7.44509C11.6124 6.94286 13.4134 6.6399 15.4802 6.6399C15.9187 6.6399 16.3701 6.65357 16.8221 6.68079C19.4723 7.01146 22.0344 7.17928 24.4374 7.17928H24.4383C27.5872 7.17928 30.0149 6.89906 32.0429 6.63639C32.1192 6.62659 32.2002 6.62151 32.284 6.62151C34.9455 6.62151 39.7984 11.2375 41.046 12.4693L40.4604 13.0419C39.364 12.166 35.5012 9.31887 31.6129 9.31887C30.9038 9.31887 30.2236 9.41579 29.5913 9.60695C27.4461 10.2556 25.2003 13.3406 22.9861 16.7908ZM9.02401 6.8993L9.01554 6.90184C8.95202 6.92568 8.89007 6.95085 8.8274 6.97528C8.7836 6.99247 8.73932 7.00916 8.69588 7.02658C8.61627 7.05853 8.53775 7.09132 8.45947 7.12423C8.42583 7.13838 8.39208 7.1523 8.3588 7.16657C8.27617 7.20202 8.1945 7.23808 8.11319 7.27449C8.08657 7.28647 8.05983 7.29845 8.03322 7.31055C7.94731 7.34975 7.86226 7.38944 7.77793 7.42973C7.75953 7.43844 7.74126 7.44727 7.72299 7.4561C7.63177 7.50014 7.54127 7.54467 7.45185 7.59004L7.43601 7.59814C7.32627 7.65404 7.21786 7.71067 7.11091 7.76826C6.98725 6.92048 6.99233 6.02249 7.30147 5.26375C7.60818 4.51119 8.16993 3.99795 9.01917 3.69463C9.39508 3.56045 9.76084 3.49233 10.1061 3.49233C11.5554 3.49233 12.5676 4.69425 13.2219 5.9142C11.661 6.086 10.2669 6.43228 9.02401 6.8993ZM22.531 17.5056C22.1868 18.0493 21.8438 18.5981 21.5101 19.1319C20.3619 20.9689 19.2729 22.7112 18.2699 24.0412C13.863 21.323 7.62584 17.3718 2.1146 13.4984C3.38125 11.5818 5.57287 9.16582 9.0937 7.77915C12.0887 10.099 17.5907 14.2671 22.531 17.5056ZM4.66653 2.90686C5.2445 1.76204 6.45126 1.08631 8.25354 0.89817C8.5784 0.864294 8.90072 0.846992 9.2113 0.846992C11.9056 0.846992 14.0455 2.1059 15.571 4.58875C15.8234 4.99927 16.0376 5.4116 16.2182 5.80567C15.9698 5.79756 15.7231 5.79296 15.4802 5.79296C15.0204 5.79296 14.5734 5.80748 14.1382 5.83495C13.3902 4.31507 12.1128 2.6454 10.1061 2.6454C9.66344 2.6454 9.20186 2.72997 8.73435 2.89705C7.66032 3.2806 6.91442 3.9694 6.5172 4.9441C6.10039 5.96707 6.13512 7.1581 6.32701 8.22088C5.90717 8.48041 5.51153 8.75276 5.13936 9.03406C4.4093 7.13221 3.79516 4.63279 4.66653 2.90686ZM15.6263 26.3376C15.576 26.3376 15.5287 26.3321 15.4818 26.3207C12.5465 25.6122 2.35126 19.1227 0.97874 16.3212C0.856661 16.0721 0.817458 15.8724 0.868395 15.7594C1.06416 15.3245 1.32719 14.7978 1.66851 14.2198C7.15132 18.071 13.3383 21.993 17.7392 24.709C16.9249 25.6966 16.1911 26.3374 15.6266 26.3376H15.6263ZM40.7806 13.9132L41.944 12.7758C42.1107 12.6126 42.1143 12.3453 41.9518 12.1779C41.6979 11.9165 35.6958 5.77457 32.284 5.77457C32.1639 5.77457 32.0463 5.78196 31.9343 5.79647C29.9323 6.05576 27.5371 6.33234 24.4383 6.33234H24.4374C22.1436 6.33234 19.7003 6.17554 17.1725 5.86919C16.9482 5.33453 16.664 4.75257 16.3068 4.1683C14.64 1.44142 12.1865 5.72205e-05 9.2113 5.72205e-05C8.87144 5.72205e-05 8.51959 0.0188122 8.1657 0.0557156C6.05828 0.275675 4.62661 1.10664 3.91046 2.52513C2.857 4.61198 3.61561 7.51478 4.44331 9.59304C2.96226 10.853 1.90359 12.2289 1.17982 13.3865C1.17293 13.3973 1.16857 13.4092 1.16277 13.4205C0.692113 14.1743 0.343298 14.8624 0.0961147 15.4118C-0.0646817 15.7691 -0.0235469 16.2003 0.218192 16.6939C1.19773 18.6933 5.43083 21.6546 7.20528 22.8349C10.4832 25.0152 13.8048 26.7871 15.2831 27.1441C15.3943 27.1708 15.5098 27.1846 15.6263 27.1846H15.6268C16.5591 27.1842 17.5806 26.2888 18.6908 24.8791L18.7065 24.8633C19.0999 24.3605 19.5046 23.7936 19.9195 23.1817C19.9274 23.17 19.9354 23.1585 19.9433 23.1466C19.9991 23.0642 20.0552 22.9806 20.1113 22.8967C20.1303 22.8682 20.1492 22.8402 20.1683 22.8115C20.2154 22.7407 20.2628 22.6689 20.3101 22.5971C20.3377 22.5552 20.3653 22.5139 20.393 22.4716C20.4362 22.4057 20.4798 22.3388 20.5233 22.2721C20.554 22.2248 20.5848 22.1779 20.6157 22.1302C20.6622 22.0585 20.709 21.9857 20.7557 21.9133C20.7833 21.8704 20.8108 21.8282 20.8384 21.7851C20.9043 21.6825 20.9705 21.5788 21.0368 21.4748C21.0441 21.4635 21.0511 21.4524 21.0582 21.4412C21.4409 20.8403 21.831 20.2163 22.2282 19.5808C22.633 18.9331 23.0517 18.2636 23.4686 17.6093C25.6141 14.2438 27.8967 11.0042 29.8363 10.4178C30.3892 10.2506 30.9869 10.1658 31.6129 10.1658C35.7924 10.1658 40.1643 13.8934 40.208 13.9312C40.3742 14.0744 40.6232 14.0669 40.7806 13.9132Z" fill="#04071A"/>
<path d="M9.0936 7.77916C5.57278 9.16583 3.38115 11.5818 2.1145 13.4984C7.62574 17.3718 13.8629 21.323 18.2698 24.0413C19.2728 22.7112 20.3618 20.9689 21.51 19.1319C21.8437 18.5981 22.1867 18.0493 22.5309 17.5056C17.5906 14.2672 12.0886 10.099 9.0936 7.77916Z" fill="#0C1248"/>
</svg>
