<svg width="48" height="20" viewBox="0 0 48 20" fill="none" xmlns="http://www.w3.org/2000/svg">
<path d="M3.82959 13.1417V7.5635C3.82959 6.60797 4.20911 5.69185 4.88461 5.01662L4.89527 5.00588L5.82321 1.82049C6.12178 0.796006 7.06101 0.0912218 8.1283 0.0912218H26.2729C27.3262 0.0912218 28.3606 0.377797 29.2621 0.922277C31.9786 2.56288 33.1621 3.45483 35.4078 5.8835L44.9376 7.1238C45.9134 7.17485 46.7634 7.80619 47.0948 8.725L47.5844 13.2241L3.82959 13.1417Z" fill="#D03737"/>
<path d="M3.92135 13.0506L47.4824 13.1321L47.005 8.74669C46.6827 7.8655 45.8706 7.2646 44.9329 7.21534L35.3632 5.97056L35.3406 5.94639C33.0925 3.51414 31.8976 2.62129 29.2149 1.00039C28.3292 0.465759 27.312 0.182775 26.2732 0.182775H8.12845C7.10844 0.182775 6.1967 0.866955 5.9113 1.84666L4.97691 5.05444L4.94968 5.08131C4.28655 5.744 3.92135 6.62609 3.92135 7.56371V13.0506ZM47.6867 13.3157H47.5844L3.73804 13.2333V7.56371C3.73804 6.57952 4.12016 5.65444 4.81401 4.95772L5.73533 1.79562C6.0433 0.738007 7.0274 9.25064e-05 8.12845 9.25064e-05H26.2732C27.3454 9.25064e-05 28.3954 0.292027 29.3096 0.843672C32.0002 2.46905 33.204 3.36727 35.4528 5.79683L44.9495 7.03266C45.9576 7.0855 46.8364 7.73834 47.1813 8.69386L47.1861 8.71535L47.6867 13.3157Z" fill="#182B31"/>
<path d="M6.70256 16.5554H43.8457C45.1922 16.5554 46.5052 16.6884 47.5758 15.8718C47.838 15.6718 48.0158 15.5134 47.9988 15.4625C47.9576 15.339 47.9737 13.4436 47.9873 12.6466C47.993 12.3197 47.7291 12.051 47.4016 12.051H4.06935C3.5152 12.051 3.06592 12.5006 3.06592 13.0549V13.9994C3.06592 14.7024 3.42977 15.3554 4.02762 15.7254L4.23485 15.8536C4.97617 16.3124 5.83077 16.5554 6.70256 16.5554Z" fill="#182B31"/>
<path d="M0.939323 12.0073H2.9822C3.4502 12.0073 3.82973 11.6276 3.82973 11.1593V4.28341C3.82973 3.81505 3.4502 3.43534 2.9822 3.43534H0.939323C0.471232 3.43534 0.0917969 3.81505 0.0917969 4.28341V11.1593C0.0917969 11.6276 0.471232 12.0073 0.939323 12.0073Z" fill="#D03737"/>
<path d="M0.939228 3.52754C0.52245 3.52754 0.183314 3.86605 0.183314 4.28337V11.1592C0.183314 11.5765 0.52245 11.915 0.939228 11.915H2.9821C3.39888 11.915 3.73793 11.5765 3.73793 11.1592V4.28337C3.73793 3.86605 3.39888 3.52754 2.9821 3.52754H0.939228ZM2.9821 12.0986H0.939228C0.421345 12.0986 0 11.6768 0 11.1592V4.28337C0 3.76486 0.421345 3.34396 0.939228 3.34396H2.9821C3.49999 3.34396 3.92124 3.76486 3.92124 4.28337V11.1592C3.92124 11.6768 3.49999 12.0986 2.9821 12.0986Z" fill="#182B31"/>
<path d="M32.3329 4.76681L29.5717 2.16888C29.1073 1.73187 28.4936 1.48918 27.8559 1.48918H8.33006C7.53314 1.48918 6.83445 2.02113 6.62328 2.78949L6.61146 2.83336C6.4191 3.53367 6.48367 4.24382 6.74803 4.86442C6.96627 5.37666 7.47931 5.69995 8.03606 5.69995H31.9627C32.452 5.69995 32.6892 5.10174 32.3329 4.76681Z" fill="#182B31"/>
<path d="M8.03615 5.42505C7.5806 5.42505 7.17429 5.16266 7.0011 4.75609C6.74937 4.16594 6.70638 3.52564 6.87671 2.90593L6.88853 2.86294C7.06629 2.21548 7.65904 1.76414 8.33015 1.76414H27.8559C28.4258 1.76414 28.9683 1.97906 29.3834 2.36951L32.1445 4.96743C32.2662 5.08116 32.2249 5.21818 32.2094 5.25758C32.1938 5.29699 32.1299 5.42505 31.9628 5.42505H8.03615Z" fill="#9CD1DD"/>
<path d="M8.33007 1.85552C7.70016 1.85552 7.14368 2.28 6.97684 2.88717L6.96502 2.93015C6.80024 3.53016 6.84179 4.14897 7.08529 4.72032C7.24406 5.09285 7.61732 5.33375 8.03607 5.33375H31.9628C32.0691 5.33375 32.111 5.25673 32.124 5.22449C32.1371 5.19136 32.1591 5.10629 32.0817 5.03375L29.3205 2.43583C28.9224 2.0615 28.4023 1.85552 27.8559 1.85552H8.33007ZM31.9628 5.51733H8.03607C7.54371 5.51733 7.10436 5.23255 6.91666 4.79285C6.65678 4.183 6.61236 3.5221 6.78824 2.8818L6.80006 2.83882C6.98866 2.15195 7.61786 1.67194 8.33007 1.67194H27.8559C28.4492 1.67194 29.0139 1.89582 29.4461 2.30239L32.2073 4.90031C32.3374 5.023 32.3376 5.18241 32.2945 5.29166C32.2513 5.40091 32.1415 5.51733 31.9628 5.51733Z" fill="#182B31"/>
<path d="M20.2305 1.97281C19.8374 1.82684 19.3876 1.96296 19.043 2.20206C18.6984 2.44117 18.4305 2.77162 18.1356 3.06983C17.0809 4.13461 15.6822 4.77491 14.3164 5.39282C15.6114 5.1161 16.935 4.97282 18.2593 4.96745C19.1173 3.82296 20.1801 2.83251 21.3821 2.05699L20.2305 1.97281Z" fill="white"/>
<path d="M15.5409 14.2893C15.5409 11.7701 13.4989 9.72826 10.98 9.72826H10.888C8.36913 9.72826 6.32715 11.7701 6.32715 14.2893V16.5557H15.5409V14.2893Z" fill="#182B31"/>
<path d="M44.7347 14.2893C44.7347 11.7701 42.6927 9.72826 40.1739 9.72826H40.0817C37.5629 9.72826 35.521 11.7701 35.521 14.2893V16.5557H44.7347V14.2893Z" fill="#182B31"/>
<path d="M15.0043 15.2564C15.0043 17.534 13.1579 19.3804 10.8803 19.3804C8.60274 19.3804 6.75635 17.534 6.75635 15.2564C6.75635 12.979 8.60274 11.1324 10.8803 11.1324C13.1579 11.1324 15.0043 12.979 15.0043 15.2564Z" fill="#182B31"/>
<path d="M15.0043 15.3938C14.9283 15.3938 14.8668 15.3322 14.8668 15.2562C14.8668 13.0585 13.0785 11.2702 10.8803 11.2702C8.68219 11.2702 6.89391 13.0585 6.89391 15.2562C6.89391 15.3322 6.8323 15.3938 6.75636 15.3938C6.68042 15.3938 6.6189 15.3322 6.6189 15.2562C6.6189 12.9063 8.53058 10.9943 10.8803 10.9943C13.2301 10.9943 15.1418 12.9063 15.1418 15.2562C15.1418 15.3322 15.0803 15.3938 15.0043 15.3938Z" fill="#EEE1E1"/>
<path d="M14.1842 15.2563C14.1842 17.0811 12.705 18.5603 10.8803 18.5603C9.05556 18.5603 7.57642 17.0811 7.57642 15.2563C7.57642 13.4321 9.05556 11.9527 10.8803 11.9527C12.705 11.9527 14.1842 13.4321 14.1842 15.2563Z" fill="#0C1248"/>
<path d="M13.8405 15.2561C13.8405 16.891 12.5152 18.2163 10.8803 18.2163C9.24546 18.2163 7.92017 16.891 7.92017 15.2561C7.92017 13.6208 9.24546 12.2963 10.8803 12.2963C12.5152 12.2963 13.8405 13.6208 13.8405 15.2561Z" fill="#182B31"/>
<path d="M13.6241 15.2227C13.6241 16.7084 12.4196 17.9128 10.9338 17.9128C9.44805 17.9128 8.24365 16.7084 8.24365 15.2227C8.24365 13.7365 9.44805 12.5321 10.9338 12.5321C12.4196 12.5321 13.6241 13.7365 13.6241 15.2227Z" fill="white"/>
<path d="M11.6205 15.2562C11.6205 15.6954 11.2644 16.0515 10.8253 16.0515C10.386 16.0515 10.03 15.6954 10.03 15.2562C10.03 14.817 10.386 14.461 10.8253 14.461C11.2644 14.461 11.6205 14.817 11.6205 15.2562Z" fill="#182B31"/>
<path d="M0.855076 11.3374H0.846837C0.621253 11.3374 0.438477 11.1547 0.438477 10.929V4.41319C0.438477 4.18752 0.621253 4.00482 0.846837 4.00482H0.855076C1.08057 4.00482 1.26344 4.18752 1.26344 4.41319V10.929C1.26344 11.1547 1.08057 11.3374 0.855076 11.3374Z" fill="white"/>
<path d="M14.9174 7.68628H13.0002C12.7913 7.68628 12.6221 7.51702 12.6221 7.30837V7.3003C12.6221 7.09164 12.7913 6.9224 13.0002 6.9224H14.9174C15.1262 6.9224 15.2956 7.09164 15.2956 7.3003V7.30837C15.2956 7.51702 15.1262 7.68628 14.9174 7.68628Z" fill="#D03737"/>
<path d="M13.0001 7.0146C12.8421 7.0146 12.7136 7.14265 12.7136 7.30027C12.7136 7.46594 12.8421 7.5949 13.0001 7.5949H14.9174C15.0753 7.5949 15.2038 7.46594 15.2038 7.30833C15.2038 7.14266 15.0753 7.0146 14.9174 7.0146H13.0001ZM14.9174 7.77759H13.0001C12.741 7.77759 12.5303 7.56714 12.5303 7.30833C12.5303 7.04146 12.741 6.83101 13.0001 6.83101H14.9174C15.1764 6.83101 15.3871 7.04146 15.3871 7.30027C15.3871 7.56713 15.1764 7.77759 14.9174 7.77759Z" fill="#182B31"/>
<path d="M23.8086 7.68628H21.8914C21.6825 7.68628 21.5132 7.51702 21.5132 7.30837V7.3003C21.5132 7.09164 21.6825 6.9224 21.8914 6.9224H23.8086C24.0174 6.9224 24.1867 7.09164 24.1867 7.3003V7.30837C24.1867 7.51702 24.0174 7.68628 23.8086 7.68628Z" fill="#D03737"/>
<path d="M21.8913 7.0146C21.7335 7.0146 21.6049 7.14265 21.6049 7.30027C21.6049 7.46594 21.7335 7.5949 21.8913 7.5949H23.8087C23.9666 7.5949 24.0951 7.46594 24.0951 7.30833C24.0951 7.14266 23.9666 7.0146 23.8087 7.0146H21.8913ZM23.8087 7.77759H21.8913C21.6323 7.77759 21.4216 7.56714 21.4216 7.30833C21.4216 7.04146 21.6323 6.83101 21.8913 6.83101H23.8087C24.0677 6.83101 24.2785 7.04146 24.2785 7.30027C24.2785 7.56713 24.0677 7.77759 23.8087 7.77759Z" fill="#182B31"/>
<path d="M12.2783 7.39624H12.095V1.51442H12.2783V7.39624Z" fill="#182B31"/>
<path d="M21.1696 7.39624H20.9863V1.51442H21.1696V7.39624Z" fill="#182B31"/>
<path d="M45.3881 8.53442C45.384 8.53442 45.3799 8.53442 45.3758 8.53352C32.0232 6.75053 18.431 6.18993 4.97683 6.86695C4.92775 6.87143 4.88325 6.83113 4.88074 6.78008C4.87814 6.72993 4.91701 6.68695 4.9676 6.68426C18.4331 6.00635 32.0365 6.56695 45.4 8.35173C45.4502 8.3589 45.4855 8.40457 45.4788 8.45472C45.4726 8.50129 45.4332 8.53442 45.3881 8.53442Z" fill="#EEE1E1"/>
<path d="M4.38003 15.5542C4.32943 15.5542 4.28833 15.5132 4.28833 15.4625V9.83912C4.28833 9.78897 4.32943 9.74778 4.38003 9.74778C4.43063 9.74778 4.47173 9.78897 4.47173 9.83912V15.4625C4.47173 15.5132 4.43063 15.5542 4.38003 15.5542Z" fill="#EEE1E1"/>
<path d="M46.7566 11.7815C46.7474 11.7815 46.7381 11.7797 46.7293 11.777C46.3142 11.6481 46.1424 11.1788 46.0494 10.8376C45.8697 10.1776 45.751 9.4979 45.6966 8.81641C45.683 8.64536 45.6781 8.45103 45.7934 8.30058C45.8671 8.20476 46.0009 8.15103 46.1262 8.16984C46.2272 8.18417 46.3047 8.24148 46.3388 8.32924C46.3573 8.37581 46.3341 8.42954 46.2869 8.44745C46.2398 8.46626 46.1865 8.44297 46.1681 8.39551C46.1584 8.37133 46.1357 8.35611 46.1006 8.35073C46.0413 8.34267 45.972 8.36864 45.939 8.41163C45.8631 8.51103 45.868 8.65879 45.8794 8.80207C45.9328 9.47193 46.0496 10.14 46.2263 10.7893C46.2997 11.0588 46.4256 11.417 46.6891 11.5621C46.8486 10.7507 46.8754 9.92506 46.7687 9.10476C46.7621 9.05461 46.7975 9.00804 46.8477 9.00178C46.8971 8.99551 46.9439 9.03044 46.9505 9.08059C47.0646 9.9591 47.0296 10.843 46.8462 11.709C46.8409 11.734 46.8251 11.7555 46.8029 11.769C46.7886 11.777 46.7726 11.7815 46.7566 11.7815Z" fill="#EEE1E1"/>
<path d="M47.2327 12.7585H44.574C44.5234 12.7585 44.4824 12.7174 44.4824 12.6672C44.4824 12.6162 44.5234 12.575 44.574 12.575H47.2327C47.2834 12.575 47.3244 12.6162 47.3244 12.6672C47.3244 12.7174 47.2834 12.7585 47.2327 12.7585Z" fill="#EEE1E1"/>
<path d="M47.0492 13.3083H46.545C46.4944 13.3083 46.4534 13.2672 46.4534 13.217C46.4534 13.166 46.4944 13.1248 46.545 13.1248H47.0492C47.0998 13.1248 47.1408 13.166 47.1408 13.217C47.1408 13.2672 47.0998 13.3083 47.0492 13.3083Z" fill="#EEE1E1"/>
<path d="M47.1428 13.9958H46.6366C46.5859 13.9958 46.5449 13.9548 46.5449 13.9042C46.5449 13.8536 46.5859 13.8125 46.6366 13.8125H47.1428C47.1934 13.8125 47.2345 13.8536 47.2345 13.9042C47.2345 13.9548 47.1934 13.9958 47.1428 13.9958Z" fill="#EEE1E1"/>
<path d="M31.6403 12.8193H15.4865C15.4359 12.8193 15.3948 12.7781 15.3948 12.728C15.3948 12.6769 15.4359 12.6358 15.4865 12.6358H31.6403C31.6909 12.6358 31.7319 12.6769 31.7319 12.728C31.7319 12.7781 31.6909 12.8193 31.6403 12.8193Z" fill="#EEE1E1"/>
<path d="M34.4057 12.8499H33.1774C33.1268 12.8499 33.0857 12.8087 33.0857 12.7585C33.0857 12.7075 33.1268 12.6672 33.1774 12.6672H34.4057C34.4563 12.6672 34.4973 12.7075 34.4973 12.7585C34.4973 12.8087 34.4563 12.8499 34.4057 12.8499Z" fill="#EEE1E1"/>
<path d="M20.9626 1.26978H7.75625C7.70557 1.26978 7.66455 1.22858 7.66455 1.17843C7.66455 1.12738 7.70557 1.08619 7.75625 1.08619H20.9626C21.0132 1.08619 21.0542 1.12738 21.0542 1.17843C21.0542 1.22858 21.0132 1.26978 20.9626 1.26978Z" fill="#EEE1E1"/>
<path d="M24.6221 1.39258H21.8722C21.8215 1.39258 21.7805 1.35138 21.7805 1.30033C21.7805 1.25018 21.8215 1.209 21.8722 1.209H24.6221C24.6727 1.209 24.7137 1.25018 24.7137 1.30033C24.7137 1.35138 24.6727 1.39258 24.6221 1.39258Z" fill="#EEE1E1"/>
<path d="M34.6329 8.50391C34.5445 8.50391 34.4599 8.47794 34.3918 8.42779C34.3707 8.41167 34.3572 8.38748 34.355 8.36151C34.3458 8.25316 34.3886 8.14301 34.4725 8.05973C34.5562 7.97644 34.6665 7.93346 34.7751 7.9442C34.8255 7.94868 34.8627 7.99345 34.858 8.0436C34.8534 8.09375 34.8103 8.13137 34.7583 8.12689C34.7043 8.12152 34.6462 8.1457 34.6016 8.18958C34.5689 8.22182 34.5474 8.26211 34.54 8.30241C34.5928 8.3248 34.6578 8.3266 34.7216 8.306C34.8022 8.28003 34.8632 8.2236 34.8847 8.15554C34.8999 8.10629 34.9517 8.08032 34.9996 8.09465C35.048 8.11077 35.0747 8.16182 35.0596 8.21018C35.0204 8.33465 34.9152 8.43585 34.7783 8.48063C34.7301 8.49585 34.6809 8.50391 34.6329 8.50391Z" fill="#EEE1E1"/>
<path d="M6.46407 7.6344C6.38661 7.6344 6.3121 7.64514 6.24261 7.66843C5.82834 7.80276 5.6486 8.29619 5.68989 8.69201C5.72105 8.99112 5.8544 9.26694 6.05589 9.44962C6.22595 9.60366 6.44956 9.69142 6.66933 9.69142C6.72512 9.69142 6.78037 9.68605 6.83347 9.67441C7.03801 9.63053 7.22052 9.4953 7.34724 9.2947C7.49581 9.06007 7.54855 8.76634 7.48846 8.50932C7.41861 8.21111 7.2276 7.94604 6.96431 7.78395C6.80786 7.68723 6.63019 7.6344 6.46407 7.6344ZM6.66933 9.875C6.4047 9.875 6.13631 9.76933 5.93284 9.58575C5.69831 9.37351 5.54329 9.0547 5.50756 8.71082C5.45884 8.24335 5.68013 7.65768 6.18592 7.4938C6.4552 7.40604 6.7861 7.45798 7.06067 7.62813C7.36506 7.81619 7.58608 8.12156 7.66694 8.46813C7.73805 8.77171 7.67643 9.11739 7.50216 9.39321C7.34885 9.635 7.12506 9.79889 6.87216 9.85351C6.80643 9.86784 6.73819 9.875 6.66933 9.875Z" fill="#EEE1E1"/>
<path d="M8.49694 12.6592C8.47348 12.6592 8.44993 12.6502 8.43202 12.6323C8.39628 12.5965 8.39637 12.5383 8.4322 12.5025L8.75342 12.1819C8.78924 12.146 8.84736 12.146 8.88309 12.1819C8.91883 12.2177 8.91874 12.2759 8.88291 12.3117L8.56169 12.6323C8.54378 12.6502 8.52032 12.6592 8.49694 12.6592Z" fill="#EEE1E1"/>
<path d="M8.82741 12.7595C8.81012 12.7595 8.79266 12.755 8.77717 12.7443C8.73481 12.7165 8.72308 12.6601 8.75102 12.618L8.84191 12.4801C8.86968 12.4371 8.92645 12.4255 8.96881 12.4532C9.01117 12.481 9.0229 12.5383 8.99496 12.5804L8.90406 12.7183C8.88651 12.7452 8.85723 12.7595 8.82741 12.7595Z" fill="#EEE1E1"/>
<path d="M44.2016 15.2564C44.2016 17.534 42.3552 19.3804 40.0776 19.3804C37.8 19.3804 35.9536 17.534 35.9536 15.2564C35.9536 12.979 37.8 11.1324 40.0776 11.1324C42.3552 11.1324 44.2016 12.979 44.2016 15.2564Z" fill="#182B31"/>
<path d="M44.2016 15.3938C44.1257 15.3938 44.0641 15.3322 44.0641 15.2562C44.0641 13.0585 42.2758 11.2702 40.0776 11.2702C37.8795 11.2702 36.0912 13.0585 36.0912 15.2562C36.0912 15.3322 36.0296 15.3938 35.9536 15.3938C35.8777 15.3938 35.8162 15.3322 35.8162 15.2562C35.8162 12.9063 37.7278 10.9943 40.0776 10.9943C42.4274 10.9943 44.3391 12.9063 44.3391 15.2562C44.3391 15.3322 44.2775 15.3938 44.2016 15.3938Z" fill="#EEE1E1"/>
<path d="M43.3813 15.2563C43.3813 17.0811 41.9021 18.5603 40.0774 18.5603C38.2527 18.5603 36.7734 17.0811 36.7734 15.2563C36.7734 13.4321 38.2527 11.9527 40.0774 11.9527C41.9021 11.9527 43.3813 13.4321 43.3813 15.2563Z" fill="#0C1248"/>
<path d="M43.0378 15.2561C43.0378 16.891 41.7125 18.2163 40.0776 18.2163C38.4427 18.2163 37.1174 16.891 37.1174 15.2561C37.1174 13.6208 38.4427 12.2963 40.0776 12.2963C41.7125 12.2963 43.0378 13.6208 43.0378 15.2561Z" fill="#182B31"/>
<path d="M42.8211 15.2227C42.8211 16.7084 41.6166 17.9128 40.1308 17.9128C38.6451 17.9128 37.4407 16.7084 37.4407 15.2227C37.4407 13.7365 38.6451 12.5321 40.1308 12.5321C41.6166 12.5321 42.8211 13.7365 42.8211 15.2227Z" fill="white"/>
<path d="M40.8176 15.2562C40.8176 15.6954 40.4615 16.0515 40.0224 16.0515C39.5831 16.0515 39.2271 15.6954 39.2271 15.2562C39.2271 14.817 39.5831 14.461 40.0224 14.461C40.4615 14.461 40.8176 14.817 40.8176 15.2562Z" fill="#182B31"/>
<path d="M38.3907 12.1201C38.3693 12.1201 38.3479 12.113 38.3306 12.0977C38.2923 12.0646 38.2884 12.0064 38.3216 11.9688C38.4511 11.8192 38.6536 11.7341 38.8509 11.7458C38.9014 11.7494 38.94 11.7924 38.9369 11.8434C38.934 11.8936 38.8891 11.933 38.84 11.9294C38.6993 11.9213 38.5529 11.9822 38.4599 12.0888C38.4418 12.1094 38.4163 12.1201 38.3907 12.1201Z" fill="#EEE1E1"/>
<path d="M38.6596 12.387C38.6259 12.387 38.5934 12.3682 38.5774 12.3359C38.5549 12.2903 38.5735 12.2356 38.6189 12.2132L38.8025 12.1219C38.8479 12.0995 38.9029 12.1183 38.9253 12.1631C38.9478 12.2088 38.9293 12.2643 38.8839 12.2867L38.7002 12.3771C38.6871 12.3834 38.6732 12.387 38.6596 12.387Z" fill="#EEE1E1"/>
<path d="M13.3251 3.70654L13.2117 3.56237C13.8995 3.02057 14.4812 2.36773 14.9403 1.62265L15.0964 1.71847C14.6259 2.48236 14.0299 3.15132 13.3251 3.70654Z" fill="#182B31"/>
<path d="M13.6094 4.89673L13.4839 4.76329C14.4128 3.89284 15.1638 2.86926 15.7162 1.72209L15.8813 1.80178C15.3192 2.96955 14.5548 4.01105 13.6094 4.89673Z" fill="#182B31"/>
<path d="M18.2133 5.52539L18.1079 5.37494C20.2627 3.8597 22.622 2.66776 25.1202 1.83223L25.1784 2.00597C22.697 2.83612 20.3536 4.02001 18.2133 5.52539Z" fill="#182B31"/>
<path d="M22.2273 4.42041C23.9812 3.76757 25.6998 3.01981 27.3732 2.18159C26.819 1.94786 26.1813 1.9792 25.6041 2.14846C25.0267 2.31682 24.4968 2.61503 23.9728 2.91056C23.2916 3.29384 22.5713 3.71832 22.2273 4.42041Z" fill="white"/>
</svg>
