<svg width="35" height="43" viewBox="0 0 35 43" fill="none" xmlns="http://www.w3.org/2000/svg">
<path d="M31.649 34.7602C31.649 35.1046 31.369 35.3845 31.0246 35.3845H24.6479C24.3036 35.3845 24.0235 35.1046 24.0235 34.7602V33.5416C24.0235 33.1973 24.3036 32.9172 24.6479 32.9172H31.0246C31.369 32.9172 31.649 33.1973 31.649 33.5416V34.7602ZM22.9181 36.7292C22.9181 37.5969 22.2083 38.3065 21.3408 38.3065H13.3985C12.5311 38.3065 11.8212 37.5969 11.8212 36.7292V34.9546C11.8212 34.0871 12.5311 33.3773 13.3985 33.3773H21.3408C22.2083 33.3773 22.9181 34.0871 22.9181 34.9546V36.7292ZM10.7158 34.7602C10.7158 35.1046 10.4357 35.3845 10.0914 35.3845H3.71519C3.37094 35.3845 3.09083 35.1046 3.09083 34.7602V33.5416C3.09083 33.1973 3.37094 32.9172 3.71519 32.9172H10.0914C10.4357 32.9172 10.7158 33.1973 10.7158 33.5416V34.7602ZM6.14506 26.4932C6.37535 25.8111 7.60751 22.4088 9.25648 22.4088H25.483C27.1318 22.4088 28.3641 25.8111 28.5944 26.4932C28.6103 26.5406 28.6184 26.5903 28.6184 26.6402C28.6184 27.3738 28.0215 27.9707 27.2879 27.9707H7.45123C6.71764 27.9707 6.12088 27.3738 6.12088 26.6402C6.12088 26.5903 6.12916 26.5406 6.14506 26.4932ZM33.8112 28.9377C33.8507 28.3054 33.7455 27.8366 33.5063 27.5822C33.3446 27.4097 33.1146 27.326 32.8004 27.326H30.1952C29.8495 27.326 29.5268 27.1409 29.3525 26.8429L27.0814 22.9631C26.748 22.3934 26.1307 22.0396 25.4706 22.0396H17.4162L17.3925 22.0413C17.3771 22.0421 17.3616 22.0421 17.3464 22.0413L17.3244 22.0396H9.2687C8.60872 22.0396 7.99146 22.3934 7.65798 22.9631L5.38664 26.8431C5.21234 27.141 4.88965 27.326 4.54461 27.326H1.93926C1.62537 27.326 1.39416 27.4097 1.23248 27.5822C0.993518 27.8366 0.888496 28.3054 0.928455 28.9377C0.929901 28.9594 0.953692 28.9786 0.980506 28.9794C2.06742 29.0143 2.76867 29.3368 3.00855 29.9124C3.22228 30.4252 2.94861 31.0142 2.57019 31.8294C2.14431 32.7462 1.56122 34.0018 1.56122 35.5047C1.56122 36.1221 1.54532 36.7675 1.52994 37.3916C1.51509 37.9948 1.49747 38.7126 1.50431 39.3921C1.54282 39.4555 1.56819 39.5277 1.57187 39.6065C1.57305 39.6316 1.57358 39.6596 1.57358 39.6897L1.57371 39.691L1.57384 39.6941C1.60972 39.7393 1.9545 40.0864 4.06129 40.0864C5.29015 40.0864 6.56292 39.9677 7.09553 39.9116C7.17414 39.8914 7.25551 39.8799 7.33897 39.8799H17.3232L17.346 39.8781C17.3614 39.8773 17.3769 39.8773 17.3929 39.8781L17.4149 39.8799H27.4003C27.4654 39.8799 27.5294 39.8864 27.5918 39.8987C28.026 39.9464 29.4123 40.0864 30.746 40.0864C32.8044 40.0864 33.1803 39.7552 33.2303 39.6979C33.2473 38.9327 33.2263 38.0861 33.2092 37.3916C33.1948 36.7675 33.1777 36.1221 33.1777 35.5047C33.1777 34.0018 32.5954 32.7462 32.1695 31.8294C31.7909 31.0142 31.5175 30.4253 31.7305 29.9124C31.971 29.3368 32.6716 29.0143 33.7587 28.9794C33.7863 28.9786 33.8099 28.9596 33.8112 28.9377Z" fill="#D03737"/>
<path d="M1.94649 41.7668C1.88878 41.7267 1.73157 41.5456 1.6393 40.7497C2.30756 40.9647 3.21913 41.0065 4.06129 41.0065C4.91344 41.0065 5.78491 40.9515 6.43187 40.8978C6.44607 41.4368 6.33093 41.6929 6.24969 41.7335C6.00784 41.8545 4.90792 42.0301 3.73465 42.0301C2.69664 42.0301 2.13038 41.894 1.94649 41.7668ZM31.7305 29.9124C31.5175 30.4253 31.7909 31.0142 32.1695 31.8294C32.5954 32.7462 33.1777 34.0018 33.1777 35.5047C33.1777 36.1221 33.1948 36.7675 33.2092 37.3916C33.2263 38.0861 33.2473 38.9327 33.2303 39.6979C33.1803 39.7552 32.8044 40.0864 30.746 40.0864C29.4123 40.0864 28.026 39.9464 27.5918 39.8987C27.5294 39.8864 27.4654 39.8799 27.4003 39.8799H17.4149L17.3929 39.8781C17.3769 39.8773 17.3614 39.8773 17.3461 39.8781L17.3232 39.8799H7.33898C7.25551 39.8799 7.17414 39.8914 7.09554 39.9116C6.56293 39.9677 5.29016 40.0864 4.06129 40.0864C1.95451 40.0864 1.60973 39.7393 1.57384 39.6941L1.57371 39.691L1.57358 39.6897C1.57358 39.6596 1.57305 39.6316 1.57187 39.6065C1.56819 39.5277 1.54282 39.4555 1.50431 39.3921C1.49747 38.7126 1.51509 37.9948 1.52994 37.3916C1.54532 36.7675 1.56122 36.1221 1.56122 35.5047C1.56122 34.0018 2.14431 32.7462 2.57019 31.8294C2.94862 31.0142 3.22228 30.4252 3.00856 29.9124C2.76867 29.3368 2.06742 29.0143 0.980509 28.9794C0.953694 28.9786 0.929903 28.9594 0.928457 28.9377C0.888499 28.3054 0.993521 27.8366 1.23249 27.5822C1.39416 27.4097 1.62537 27.326 1.93926 27.326H4.54461C4.88965 27.326 5.21234 27.141 5.38664 26.8431L7.65799 22.9631C7.99146 22.3934 8.60872 22.0396 9.2687 22.0396H17.3244L17.3464 22.0413C17.3616 22.0421 17.3771 22.0421 17.3925 22.0413L17.4162 22.0396H25.4706C26.1307 22.0396 26.748 22.3934 27.0814 22.9631L29.3525 26.8429C29.5268 27.1409 29.8495 27.326 30.1952 27.326H32.8004C33.1146 27.326 33.3446 27.4097 33.5063 27.5822C33.7455 27.8366 33.8507 28.3054 33.8112 28.9377C33.8099 28.9596 33.7863 28.9786 33.7587 28.9794C32.6716 29.0143 31.971 29.3368 31.7305 29.9124ZM28.3752 40.8978C29.0225 40.9515 29.8938 41.0065 30.746 41.0065C31.5885 41.0065 32.4994 40.9647 33.1685 40.7496C33.0751 41.5456 32.9187 41.7267 32.8609 41.7668C32.6769 41.894 32.1104 42.0301 31.0719 42.0301C29.8993 42.0301 28.7993 41.8545 28.5576 41.7335C28.4762 41.6929 28.361 41.4368 28.3752 40.8978ZM34.178 26.9524C33.8428 26.5949 33.3656 26.4059 32.8004 26.4059H30.1952C30.1755 26.4059 30.1571 26.3954 30.1466 26.3783L27.8755 22.4983C27.3776 21.6477 26.456 21.1195 25.4706 21.1195H17.3921L17.368 21.12L17.3472 21.1195H9.2687C8.28326 21.1195 7.36184 21.6477 6.86393 22.4983L4.59258 26.3783C4.58272 26.3952 4.56419 26.4059 4.54461 26.4059H1.93926C1.37353 26.4059 0.897169 26.5949 0.561461 26.9524C0.138475 27.4033 -0.0472548 28.0907 0.0101862 28.9961C0.0419956 29.4948 0.446584 29.883 0.951197 29.899C1.68978 29.9227 2.09015 30.1005 2.15903 30.2657C2.21121 30.4178 1.93624 31.0097 1.73552 31.4419C1.27363 32.4364 0.641117 33.7985 0.641117 35.5047C0.641117 36.1106 0.625342 36.7504 0.609963 37.369C0.540429 40.1967 0.539117 41.9584 1.35499 42.5233C1.76431 42.8065 2.54206 42.9502 3.66682 42.9502L3.70074 42.9499L3.73465 42.9502C4.77161 42.9502 6.14967 42.8122 6.66124 42.5565C6.9934 42.3904 7.38288 41.9617 7.35159 40.8631C7.35054 40.8295 7.37249 40.8067 7.39457 40.8019L7.40022 40.8H17.3472L17.3714 40.7994L17.3921 40.8H27.4003L27.4114 40.8015L27.4127 40.8019L27.4215 40.8057L27.4332 40.8129L27.4409 40.82L27.4453 40.8266L27.4509 40.8371L27.4557 40.8633C27.4537 40.9319 27.4534 40.998 27.4546 41.0615C27.4679 41.7602 27.666 42.1543 27.8935 42.3763C27.9763 42.457 28.0629 42.515 28.146 42.5565C28.6575 42.8122 30.0355 42.9502 31.0719 42.9502H31.0733C31.5649 42.9502 31.9907 42.9227 32.3483 42.868C32.807 42.7977 33.154 42.6826 33.384 42.5233L33.3854 42.5223C33.4314 42.4903 33.4747 42.4529 33.5168 42.4129L33.5352 42.395C33.7455 42.1828 33.8967 41.8613 33.9966 41.393L33.9979 41.3815C34.015 41.3003 34.0308 41.2142 34.0452 41.124L34.0505 41.0924C34.107 40.7213 34.1399 40.2757 34.153 39.7394V39.7116V39.7108L34.1543 39.6352L34.153 39.6115C34.1648 38.9606 34.1504 38.2135 34.1293 37.369C34.1136 36.7504 34.0978 36.1106 34.0978 35.5047C34.0978 33.7985 33.4655 32.4364 33.0042 31.4419C32.8031 31.0097 32.5283 30.4178 32.5796 30.2663C32.6493 30.1005 33.0489 29.9227 33.7876 29.899C34.2923 29.883 34.6972 29.4947 34.7287 28.996C34.7866 28.0909 34.6012 27.4033 34.178 26.9524Z" fill="#0C1248"/>
<path d="M9.79539 34.4644H4.01068V33.8373H9.79539V34.4644ZM10.0911 32.9172H3.71493C3.37068 32.9172 3.09058 33.1973 3.09058 33.5415V34.7602C3.09058 35.1045 3.37068 35.3845 3.71493 35.3845H10.0911C10.4354 35.3845 10.7155 35.1045 10.7155 34.7602V33.5415C10.7155 33.1973 10.4354 32.9172 10.0911 32.9172Z" fill="#0C1248"/>
<path d="M30.7288 34.4644H24.9435V33.8373H30.7288V34.4644ZM31.0245 32.9172H24.6478C24.3035 32.9172 24.0234 33.1973 24.0234 33.5415V34.7602C24.0234 35.1045 24.3035 35.3845 24.6478 35.3845H31.0245C31.3689 35.3845 31.6489 35.1045 31.6489 34.7602V33.5415C31.6489 33.1973 31.3689 32.9172 31.0245 32.9172Z" fill="#0C1248"/>
<path d="M27.6936 26.7031C27.6633 26.8996 27.493 27.0506 27.2879 27.0506H7.4512C7.24641 27.0506 7.07605 26.8996 7.04569 26.7029C7.52914 25.3109 8.53981 23.3289 9.25645 23.3289H25.4829C26.198 23.3289 27.2093 25.3109 27.6936 26.7031ZM7.4512 27.9707H27.2879C28.0215 27.9707 28.6184 27.3738 28.6184 26.6402C28.6184 26.5903 28.6102 26.5406 28.5943 26.4931C28.364 25.8111 27.1318 22.4088 25.4829 22.4088H9.25645C7.60748 22.4088 6.37532 25.8111 6.14503 26.4931C6.12913 26.5406 6.12085 26.5903 6.12085 26.6402C6.12085 27.3738 6.71761 27.9707 7.4512 27.9707Z" fill="#0C1248"/>
<path d="M32.8609 41.767C32.9187 41.7269 33.0751 41.5458 33.1685 40.7497C32.4994 40.9649 31.5885 41.0067 30.7459 41.0067C29.8938 41.0067 29.0224 40.9516 28.3752 40.898C28.361 41.4369 28.4762 41.6931 28.5575 41.7337C28.7993 41.8547 29.8993 42.0303 31.0719 42.0303C32.1103 42.0303 32.6768 41.8942 32.8609 41.767Z" fill="#D03737"/>
<path d="M6.24955 41.7337C6.33079 41.6931 6.44593 41.4369 6.43173 40.898C5.78477 40.9516 4.9133 41.0067 4.06115 41.0067C3.21899 41.0067 2.30742 40.9649 1.63916 40.7499C1.73143 41.5458 1.88864 41.7269 1.94635 41.767C2.13024 41.8942 2.6965 42.0303 3.73451 42.0303C4.90778 42.0303 6.0077 41.8547 6.24955 41.7337Z" fill="#D03737"/>
<path d="M21.3406 33.3774H13.3984C12.531 33.3774 11.821 34.0872 11.821 34.9547V36.7293C11.821 37.597 12.531 38.3066 13.3984 38.3066H21.3406C22.2081 38.3066 22.9179 37.597 22.9179 36.7293V34.9547C22.9179 34.0872 22.2081 33.3774 21.3406 33.3774Z" fill="#0C1248"/>
<path d="M12.4411 11.1007C12.355 10.992 12.2243 10.9279 12.0855 10.9263C11.9441 10.9259 11.8149 10.986 11.7263 11.0927C11.4091 11.4751 10.4057 12.7929 10.8128 13.6924C10.9442 13.983 11.2685 14.3341 12.0674 14.357C12.0945 14.3578 12.1213 14.3582 12.1472 14.3582H12.1473C12.8934 14.3582 13.2075 14.0323 13.3399 13.7589C13.7643 12.8814 12.7592 11.5024 12.4411 11.1007Z" fill="#0C1248"/>
<path d="M10.0205 19.8306C10.0478 19.8314 10.0743 19.8318 10.1005 19.8318C10.8464 19.8318 11.1608 19.5059 11.2931 19.2325C11.7174 18.355 10.7125 16.9762 10.3944 16.5743C10.3083 16.4656 10.1776 16.4015 10.039 16.3999H10.0337C9.89686 16.3999 9.76699 16.4609 9.67945 16.5663C9.36228 16.9488 8.35897 18.2666 8.76579 19.166C8.89736 19.4566 9.22177 19.8077 10.0205 19.8306Z" fill="#0C1248"/>
<path d="M17.0213 14.357C17.0484 14.3578 17.0752 14.3582 17.1011 14.3582H17.1012C17.8473 14.3582 18.1616 14.0323 18.294 13.7589C18.7183 12.8814 17.7133 11.5024 17.3952 11.1007C17.3089 10.992 17.1783 10.9279 17.0397 10.9263H17.0345C16.8976 10.9263 16.7678 10.9873 16.6802 11.0927C16.3631 11.4751 15.3596 12.7929 15.7666 13.6924C15.8981 13.983 16.2225 14.3341 17.0213 14.357Z" fill="#0C1248"/>
<path d="M21.8372 14.357C21.8644 14.3578 21.8866 14.3582 21.9171 14.3582C22.6632 14.3582 22.9773 14.0323 23.1097 13.7589C23.5341 12.8814 22.529 11.5024 22.2109 11.1007C22.1248 10.992 21.9941 10.9279 21.8553 10.9263C21.714 10.9259 21.5847 10.986 21.4961 11.0927C21.1789 11.4751 20.1755 12.7929 20.5825 13.6924C20.714 13.983 21.0384 14.3341 21.8372 14.357Z" fill="#0C1248"/>
<path d="M14.5764 19.8306C14.6037 19.8314 14.6303 19.8318 14.6564 19.8318C15.4024 19.8318 15.7167 19.5059 15.849 19.2325C16.2734 18.355 15.2684 16.9762 14.9503 16.5743C14.8642 16.4656 14.7335 16.4015 14.5949 16.3999H14.5896C14.4528 16.3999 14.323 16.4609 14.2355 16.5663C13.9183 16.9488 12.9149 18.2666 13.3217 19.166C13.4533 19.4566 13.7777 19.8077 14.5764 19.8306Z" fill="#0C1248"/>
<path d="M19.3922 19.6289C19.4194 19.6297 19.4459 19.6301 19.472 19.6301C20.218 19.6301 20.5325 19.3041 20.6647 19.0309C21.0891 18.1534 20.0841 16.7745 19.766 16.3728C19.6799 16.264 19.5491 16.2 19.4106 16.1984H19.4053C19.2685 16.1984 19.1386 16.2593 19.0511 16.3647C18.7339 16.7472 17.7305 18.0649 18.1374 18.9644C18.269 19.255 18.5934 19.6061 19.3922 19.6289Z" fill="#0C1248"/>
<path d="M23.5876 18.9644C23.7192 19.255 24.0436 19.6061 24.8424 19.6289C24.8696 19.6297 24.8961 19.6301 24.9222 19.6301C25.6682 19.6301 25.9826 19.3041 26.1149 19.0309C26.5393 18.1534 25.5343 16.7745 25.2162 16.3728C25.13 16.264 24.9993 16.2 24.8608 16.1984H24.8555C24.7187 16.1984 24.5888 16.2593 24.5013 16.3647C24.1841 16.7472 23.1807 18.0649 23.5876 18.9644Z" fill="#0C1248"/>
<path d="M10.055 8.59912H24.0137C24.2678 8.59912 24.4738 8.39315 24.4738 8.13907V5.86075C24.4738 5.60667 24.2678 5.4007 24.0137 5.4007H22.7442C22.7044 4.57733 22.4673 2.8821 21.2567 1.59658C20.2588 0.537272 18.8349 6.19888e-05 17.0246 6.19888e-05C15.2148 6.19888e-05 13.7855 0.536878 12.7764 1.59579C11.5505 2.88223 11.2952 4.57996 11.2466 5.4007H10.055C9.80094 5.4007 9.59497 5.60667 9.59497 5.86075V8.13907C9.59497 8.39315 9.80094 8.59912 10.055 8.59912Z" fill="#0C1248"/>
</svg>
