<svg width="46" height="22" viewBox="0 0 46 22" fill="none" xmlns="http://www.w3.org/2000/svg">
<path d="M4.70242 14.2703H2.69775V11.4834H4.70242V14.2703Z" fill="#182B31"/>
<path d="M28.5794 9.43042C28.524 9.43042 28.4686 9.41226 28.4228 9.37405L26.7929 8.02124C26.6887 7.93526 26.6754 7.78049 26.7614 7.67731C26.8473 7.57317 27.0012 7.55884 27.1053 7.64482L28.7352 8.99764C28.8393 9.08362 28.8536 9.23839 28.7676 9.34157C28.7189 9.39985 28.6492 9.43042 28.5794 9.43042Z" fill="#D03737"/>
<path d="M25.7915 9.59277C25.7361 9.59277 25.6807 9.57462 25.6349 9.53545C25.5317 9.44851 25.5183 9.2947 25.6052 9.19152L28.1475 6.17636C28.2344 6.07222 28.3892 6.0598 28.4924 6.14674C28.5956 6.23368 28.6089 6.38845 28.5211 6.49163L25.9788 9.50584C25.931 9.56316 25.8613 9.59277 25.7915 9.59277Z" fill="#D03737"/>
<path d="M27.1559 11.2887C26.9209 11.0021 26.6897 10.6505 26.7661 10.2884C26.833 9.96644 27.1205 9.74576 27.3871 9.55373C28.0301 9.09228 28.673 8.62988 29.317 8.16844C29.8443 8.60695 30.4882 8.88401 31.0347 9.29959C31.5812 9.71518 32.0465 10.3476 31.9719 11.0298C31.9318 11.3928 31.7436 11.7205 31.5564 12.0348C30.7185 13.4402 29.8138 14.8073 28.8479 16.1284C29.4478 15.4095 29.338 14.3096 28.8985 13.4832C28.4581 12.6568 27.7511 12.0119 27.1559 11.2887Z" fill="#0C1248"/>
<path d="M28.0788 10.2874C27.8486 9.89947 27.6623 9.48483 27.5266 9.05396C27.8008 8.77786 28.1046 8.53328 28.4323 8.3231C28.824 8.59251 29.2004 8.88486 29.5577 9.19918C29.0294 9.50968 28.5326 9.87463 28.0788 10.2874Z" fill="#0C1248"/>
<path d="M26.4118 12.2584C26.3239 11.8991 25.9885 11.6441 25.6341 11.5418C25.2796 11.4386 24.9032 11.4587 24.5335 11.4711C23.7243 11.4969 23.2791 11.4759 22.4697 11.4539C21.8149 11.4367 21.1208 11.4071 20.5763 11.0422C20.0231 10.6724 19.73 10.0276 19.4843 9.40943C19.2633 8.85245 19.0582 8.28973 18.8696 7.72128C18.7982 7.50537 18.7282 7.278 18.7692 7.0554C18.8276 6.73726 19.0944 6.50223 19.2254 6.20798C19.4113 5.78952 19.2953 5.27553 19.0013 4.92491C18.7073 4.57429 18.2614 4.37557 17.8089 4.30965C17.4927 4.26283 17.124 4.29723 16.9268 4.54849C16.7896 4.72332 16.7701 4.96026 16.7599 5.18286C16.6144 8.36617 17.2547 11.539 18.1563 14.5952C18.3194 15.1484 18.5046 15.7216 18.911 16.1305C19.0648 16.2853 19.2413 16.4065 19.432 16.5037H24.9749C24.8851 15.5415 24.9462 14.5723 25.5796 13.8462C25.785 13.6102 26.0191 13.3991 26.1949 13.1411C26.3707 12.8832 26.4853 12.5612 26.4118 12.2584Z" fill="#0C1248"/>
<path d="M1.29592 16.9656H2.08917C2.80474 16.9656 3.38485 16.3855 3.38485 15.6699V9.8404C3.38485 9.12482 2.80474 8.54491 2.08917 8.54491H1.29592C0.580344 8.54491 0.000244141 9.12482 0.000244141 9.8404V15.6699C0.000244141 16.3855 0.580344 16.9656 1.29592 16.9656Z" fill="#0C1248"/>
<path d="M42.2461 9.93886L32.3876 8.41504C31.566 8.28797 30.8676 7.74627 30.5389 6.98293L28.5135 0.336388C28.4266 0.131937 28.226 0.000102997 28.0043 0.000102997H27.9919C27.5925 0.000102997 28.0139 0.849428 28.1715 1.21629L29.5893 8.2574L29.2473 14.3575C29.2473 15.3042 28.4801 16.0709 27.5343 16.0709H21.5771C20.8601 16.0709 20.219 15.6245 19.9703 14.9517L18.3492 10.5694C18.2012 10.1691 18.1255 9.74587 18.1255 9.31978V2.53375H16.4334C16.1542 2.53375 15.9098 2.72005 15.8367 2.98946L14.7395 7.03452H4.02051V16.4027C4.02051 17.0859 4.57434 17.6396 5.25743 17.6396H14.7395H43.7642L43.7154 11.6385C43.7078 10.7882 43.0858 10.0688 42.2461 9.93886Z" fill="#D03737"/>
<path d="M43.9161 18.0356H3.82227V16.471H43.9161V18.0356Z" fill="#182B31"/>
<path d="M15.4134 16.0559C15.4134 13.4593 13.3082 11.3537 10.7112 11.3537H10.6162C8.01933 11.3537 5.91406 13.4593 5.91406 16.0559V18.3926H15.4134V16.0559Z" fill="#182B31"/>
<path d="M41.8496 16.0559C41.8496 13.4593 39.744 11.3537 37.1473 11.3537H37.0527C34.456 11.3537 32.3503 13.4593 32.3503 16.0559V18.3926H41.8496V16.0559Z" fill="#182B31"/>
<path d="M15.057 17.1247C15.057 19.514 13.12 21.4509 10.7308 21.4509C8.34146 21.4509 6.40454 19.514 6.40454 17.1247C6.40454 14.7356 8.34146 12.7981 10.7308 12.7981C13.12 12.7981 15.057 14.7356 15.057 17.1247Z" fill="#182B31"/>
<path d="M15.057 17.2715C14.976 17.2715 14.9103 17.2059 14.9103 17.1248C14.9103 14.8198 13.0353 12.9454 10.7307 12.9454C8.42603 12.9454 6.55121 14.8198 6.55121 17.1248C6.55121 17.2059 6.48548 17.2715 6.40447 17.2715C6.32355 17.2715 6.25781 17.2059 6.25781 17.1248C6.25781 14.6583 8.26429 12.6521 10.7307 12.6521C13.1971 12.6521 15.2036 14.6583 15.2036 17.1248C15.2036 17.2059 15.1379 17.2715 15.057 17.2715Z" fill="#EEE1E1"/>
<path d="M14.1968 17.1247C14.1968 19.0389 12.645 20.5906 10.7308 20.5906C8.8166 20.5906 7.26489 19.0389 7.26489 17.1247C7.26489 15.2104 8.8166 13.6589 10.7308 13.6589C12.645 13.6589 14.1968 15.2104 14.1968 17.1247Z" fill="#424B55"/>
<path d="M13.8362 17.1249C13.8362 18.8399 12.4459 20.2302 10.7308 20.2302C9.01584 20.2302 7.62549 18.8399 7.62549 17.1249C7.62549 15.4098 9.01584 14.0192 10.7308 14.0192C12.4459 14.0192 13.8362 15.4098 13.8362 17.1249Z" fill="#182B31"/>
<path d="M13.6089 17.0895C13.6089 18.6481 12.3454 19.9116 10.7868 19.9116C9.22808 19.9116 7.9646 18.6481 7.9646 17.0895C7.9646 15.5309 9.22808 14.2677 10.7868 14.2677C12.3454 14.2677 13.6089 15.5309 13.6089 17.0895Z" fill="#424B55"/>
<path d="M12.0288 17.1247C12.0288 17.8734 11.4217 18.4805 10.6729 18.4805C9.92418 18.4805 9.31714 17.8734 9.31714 17.1247C9.31714 16.3759 9.92418 15.7688 10.6729 15.7688C11.4217 15.7688 12.0288 16.3759 12.0288 17.1247Z" fill="#182B31"/>
<path d="M8.96136 13.8367C8.93853 13.8367 8.9157 13.8281 8.89716 13.8128C8.85637 13.7765 8.85207 13.7153 8.88761 13.6743C9.02385 13.5176 9.23823 13.4287 9.44421 13.4402C9.49809 13.444 9.53927 13.4899 9.53602 13.5443C9.53287 13.5978 9.48558 13.6399 9.43275 13.636C9.28266 13.6265 9.13228 13.6915 9.03512 13.8032C9.01582 13.8252 8.98869 13.8367 8.96136 13.8367Z" fill="#EEE1E1"/>
<path d="M9.24324 14.1167C9.20722 14.1167 9.17254 14.0966 9.15544 14.0622C9.13146 14.0135 9.15133 13.9552 9.19967 13.9314L9.39228 13.8358C9.44052 13.811 9.49928 13.831 9.52326 13.8798C9.54733 13.9275 9.52756 13.9868 9.47922 14.0107L9.28652 14.1062C9.27257 14.1129 9.25767 14.1167 9.24324 14.1167Z" fill="#EEE1E1"/>
<path d="M41.5247 17.1247C41.5247 19.514 39.5881 21.4509 37.1987 21.4509C34.8093 21.4509 32.8728 19.514 32.8728 17.1247C32.8728 14.7356 34.8093 12.7981 37.1987 12.7981C39.5881 12.7981 41.5247 14.7356 41.5247 17.1247Z" fill="#182B31"/>
<path d="M41.5248 17.2715C41.4446 17.2715 41.3787 17.2059 41.3787 17.1248C41.3787 14.8198 39.5033 12.9454 37.1989 12.9454C34.8945 12.9454 33.0191 14.8198 33.0191 17.1248C33.0191 17.2059 32.9542 17.2715 32.873 17.2715C32.7918 17.2715 32.7258 17.2059 32.7258 17.1248C32.7258 14.6583 34.7331 12.6521 37.1989 12.6521C39.6657 12.6521 41.672 14.6583 41.672 17.1248C41.672 17.2059 41.606 17.2715 41.5248 17.2715Z" fill="#EEE1E1"/>
<path d="M40.6649 17.1247C40.6649 19.0389 39.1133 20.5906 37.1988 20.5906C35.2851 20.5906 33.7327 19.0389 33.7327 17.1247C33.7327 15.2104 35.2851 13.6589 37.1988 13.6589C39.1133 13.6589 40.6649 15.2104 40.6649 17.1247Z" fill="#424B55"/>
<path d="M40.3046 17.1249C40.3046 18.8399 38.9136 20.2302 37.1987 20.2302C35.4838 20.2302 34.0938 18.8399 34.0938 17.1249C34.0938 15.4098 35.4838 14.0192 37.1987 14.0192C38.9136 14.0192 40.3046 15.4098 40.3046 17.1249Z" fill="#182B31"/>
<path d="M40.0775 17.0895C40.0775 18.6481 38.8135 19.9116 37.2553 19.9116C35.6961 19.9116 34.4331 18.6481 34.4331 17.0895C34.4331 15.5309 35.6961 14.2677 37.2553 14.2677C38.8135 14.2677 40.0775 15.5309 40.0775 17.0895Z" fill="#424B55"/>
<path d="M38.4972 17.1247C38.4972 17.8734 37.8896 18.4805 37.1416 18.4805C36.3926 18.4805 35.7859 17.8734 35.7859 17.1247C35.7859 16.3759 36.3926 15.7688 37.1416 15.7688C37.8896 15.7688 38.4972 16.3759 38.4972 17.1247Z" fill="#182B31"/>
<path d="M35.4295 13.8367C35.4065 13.8367 35.3836 13.8281 35.3654 13.8128C35.3244 13.7765 35.3205 13.7153 35.3559 13.6743C35.4916 13.5176 35.7065 13.4287 35.9119 13.4402C35.9664 13.444 36.0075 13.4899 36.0036 13.5443C36.0008 13.5978 35.9559 13.6399 35.9005 13.636C35.7524 13.6274 35.6005 13.6915 35.503 13.8032C35.4839 13.8252 35.4572 13.8367 35.4295 13.8367Z" fill="#EEE1E1"/>
<path d="M35.7112 14.1167C35.6749 14.1167 35.6405 14.0966 35.6233 14.0622C35.5995 14.0135 35.6195 13.9552 35.6683 13.9314L35.8603 13.8358C35.909 13.811 35.9673 13.831 35.9912 13.8798C36.016 13.9275 35.9959 13.9868 35.9472 14.0107L35.7542 14.1062C35.7409 14.1129 35.7256 14.1167 35.7112 14.1167Z" fill="#EEE1E1"/>
<path d="M3.43091 7.66968H14.8234V6.59392H3.43091V7.66968Z" fill="#0C1248"/>
<path d="M44.5562 17.7913H44.5466C44.2791 17.7913 44.0623 17.5746 44.0623 17.3073V14.1195C44.0623 13.852 44.2791 13.6351 44.5466 13.6351H44.5562C44.8237 13.6351 45.0406 13.852 45.0406 14.1195V17.3073C45.0406 17.5746 44.8237 17.7913 44.5562 17.7913Z" fill="#0C1248"/>
<path d="M44.1892 16.4712H42.4686C42.2144 16.4712 42.009 16.2653 42.009 16.0114V16.0021C42.009 15.7481 42.2144 15.5422 42.4686 15.5422H44.1892C44.4433 15.5422 44.6487 15.7481 44.6487 16.0021V16.0114C44.6487 16.2653 44.4433 16.4712 44.1892 16.4712Z" fill="#0C1248"/>
<path d="M18.2015 8.20752H4.40901C4.35494 8.20752 4.31128 8.16453 4.31128 8.11007C4.31128 8.05561 4.35494 8.01262 4.40901 8.01262H18.2015C18.2555 8.01262 18.2992 8.05561 18.2992 8.11007C18.2992 8.16453 18.2555 8.20752 18.2015 8.20752Z" fill="#EEE1E1"/>
<path d="M6.94389 8.19417C6.90138 8.26105 6.8773 8.34322 6.87673 8.43111C6.87616 8.51901 6.89918 8.60308 6.94074 8.66995C7.00227 8.51996 7.00332 8.34416 6.94389 8.19417ZM6.96003 8.93555C6.93806 8.93555 6.91656 8.9279 6.89918 8.91453C6.76141 8.80466 6.67992 8.62409 6.68117 8.43015C6.68241 8.23621 6.76629 8.0566 6.90539 7.94865C6.92669 7.93241 6.95383 7.92572 6.98049 7.92954C7.00705 7.93432 7.03073 7.94864 7.04593 7.97157C7.23241 8.24385 7.22993 8.62314 7.04 8.89351C7.02452 8.91548 7.00073 8.93076 6.97398 8.93459C6.9694 8.93554 6.96472 8.93555 6.96003 8.93555Z" fill="#EEE1E1"/>
<path d="M12.168 8.14923C12.0939 8.24095 12.0233 8.34413 12.0074 8.45591C11.9975 8.52565 12.0218 8.60876 12.0682 8.66226C12.0895 8.68615 12.1249 8.71577 12.1729 8.71577V8.81322L12.1741 8.71577C12.2222 8.71481 12.2571 8.6852 12.2781 8.66036C12.3237 8.6059 12.3467 8.52278 12.3352 8.45208C12.3168 8.34126 12.244 8.23904 12.168 8.14923ZM12.1729 8.91162C12.0779 8.91162 11.9882 8.86863 11.9205 8.79029C11.8366 8.69379 11.7958 8.55526 11.8137 8.4282C11.843 8.22279 11.9814 8.0642 12.0927 7.93618C12.1111 7.91516 12.1375 7.90274 12.1654 7.90274C12.1926 7.90179 12.22 7.91421 12.2388 7.93523C12.3528 8.06038 12.4945 8.21611 12.5281 8.42056C12.549 8.54762 12.5106 8.68806 12.4278 8.78646C12.3611 8.86576 12.2717 8.91067 12.1762 8.91162C12.1758 8.91162 12.1732 8.91162 12.1729 8.91162Z" fill="#EEE1E1"/>
<path d="M31.5449 17.009C31.4914 17.009 31.4475 16.9653 31.4475 16.9112V13.5864L31.3596 13.5902C31.3194 13.5931 31.2812 13.5702 31.265 13.5329C31.2488 13.4956 31.2564 13.4527 31.2851 13.424L33.6257 11.0719C33.6639 11.0336 33.726 11.0327 33.7642 11.0709C33.8025 11.1091 33.8025 11.1712 33.7652 11.2094L31.5889 13.3953C31.5975 13.4001 31.6061 13.4058 31.6127 13.4125C31.6328 13.4307 31.6433 13.4565 31.6433 13.4832V16.9112C31.6433 16.9653 31.5994 17.009 31.5449 17.009Z" fill="#EEE1E1"/>
<path d="M5.43584 16.8623C5.38177 16.8623 5.33801 16.8185 5.33801 16.7645L5.33811 13.0484L5.16538 13.0676C5.11904 13.0733 5.07653 13.0456 5.06181 13.0026C5.0471 12.9586 5.06458 12.9109 5.10394 12.887C6.3658 12.1265 7.54474 11.2237 8.60797 10.2043C8.64705 10.167 8.70895 10.168 8.74631 10.2072C8.78376 10.2463 8.78242 10.3084 8.74344 10.3457C7.75434 11.2944 6.66627 12.1418 5.50492 12.8698C5.52326 12.8889 5.53367 12.9137 5.53367 12.9395L5.53358 16.7645C5.53358 16.8185 5.48973 16.8623 5.43584 16.8623Z" fill="#EEE1E1"/>
<path d="M43.0916 11.1548C43.06 11.1548 43.0266 11.1653 43.0008 11.1844C42.9378 11.2312 42.8986 11.3144 42.8642 11.3946C42.6196 11.9688 42.5078 12.6013 42.5403 13.2251C42.5575 13.5633 42.6196 13.7945 42.739 13.976C42.8623 14.1633 43.0658 14.2846 43.2569 14.2846H43.2578C43.2607 14.2846 43.2645 14.2846 43.2683 14.2846L43.1852 11.3296C43.1833 11.2685 43.1795 11.2055 43.1518 11.1758C43.1346 11.1577 43.1097 11.1548 43.0916 11.1548ZM43.2578 14.4805H43.2569C43.0018 14.4805 42.7343 14.3247 42.5757 14.084C42.3961 13.8117 42.3578 13.4878 42.3445 13.2347C42.311 12.5821 42.4276 11.9191 42.6846 11.3182C42.7276 11.2169 42.782 11.1032 42.8852 11.0268C42.9435 10.9838 43.019 10.959 43.0916 10.959C43.1718 10.959 43.2435 10.9886 43.2941 11.0421C43.3753 11.129 43.3782 11.2513 43.3811 11.3249L43.467 14.3677C43.468 14.4155 43.4355 14.4566 43.3887 14.4661C43.3457 14.4757 43.3018 14.4805 43.2578 14.4805Z" fill="#EEE1E1"/>
<path d="M17.4638 8.15894C17.4097 8.15894 17.366 8.11499 17.366 8.06149V2.53656C17.366 2.4821 17.4097 2.43815 17.4638 2.43815C17.5179 2.43815 17.5616 2.4821 17.5616 2.53656V8.06149C17.5616 8.11499 17.5179 8.15894 17.4638 8.15894Z" fill="#EEE1E1"/>
<path d="M19.9418 14.447C19.9132 14.447 19.8848 14.4346 19.8655 14.4107C19.8317 14.3687 19.8382 14.3066 19.8802 14.2732C20.2439 13.9799 20.4154 13.4601 20.2974 13.0082C20.1796 12.5563 19.7757 12.1857 19.3154 12.1083C19.2621 12.0987 19.2263 12.0481 19.2353 11.9955C19.2443 11.942 19.2946 11.9057 19.3481 11.9153C19.8818 12.006 20.35 12.435 20.4868 12.9586C20.6234 13.4821 20.4245 14.0859 20.0031 14.425C19.9849 14.4394 19.9633 14.447 19.9418 14.447Z" fill="#EEE1E1"/>
<path d="M23.6782 13.168C22.6609 13.168 21.6431 12.9807 20.7014 12.6072C20.6512 12.5871 20.6267 12.5298 20.6465 12.4801C20.6666 12.4295 20.7235 12.4046 20.7735 12.4256C22.5281 13.1221 24.5534 13.1555 26.3304 12.5183C26.38 12.5002 26.4364 12.526 26.4555 12.5775C26.4737 12.6282 26.4469 12.6846 26.3963 12.7017C25.5288 13.0132 24.604 13.168 23.6782 13.168Z" fill="#EEE1E1"/>
<path d="M26.939 10.5425C26.9113 10.5425 26.8836 10.531 26.8645 10.5081C26.8292 10.467 26.8339 10.4059 26.875 10.3705L28.8479 8.6795C28.889 8.64415 28.951 8.64893 28.9854 8.69001C29.0208 8.73109 29.016 8.79224 28.9749 8.82758L27.0021 10.5186C26.9839 10.5348 26.961 10.5425 26.939 10.5425Z" fill="#EEE1E1"/>
<path d="M30.0296 8.59937C29.9875 8.59937 29.9493 8.57261 29.9359 8.53058C29.9197 8.47899 29.9484 8.42453 30 8.40829L30.7824 8.16372C30.834 8.14748 30.8894 8.17613 30.9047 8.22772C30.9209 8.27931 30.8923 8.33377 30.8407 8.35002L30.0582 8.59459C30.0487 8.59745 30.0391 8.59937 30.0296 8.59937Z" fill="#EEE1E1"/>
<path d="M32.9138 17.009H16.4357C16.3816 17.009 16.3379 16.9653 16.3379 16.9112C16.3379 16.8572 16.3816 16.8135 16.4357 16.8135H32.9138C32.9683 16.8135 33.0122 16.8572 33.0122 16.9112C33.0122 16.9653 32.9683 17.009 32.9138 17.009Z" fill="#EEE1E1"/>
<path d="M20.1919 15.6643C20.1595 15.6643 20.1278 15.6483 20.1092 15.6189C18.7371 13.4556 17.7945 10.9754 17.3831 8.44655C17.3744 8.39305 17.4106 8.34241 17.464 8.33382C17.5172 8.32522 17.5676 8.36152 17.5763 8.41502C17.9834 10.9181 18.9164 13.3725 20.2745 15.5141C20.3033 15.5598 20.2898 15.6203 20.2442 15.6491C20.2279 15.6594 20.2099 15.6643 20.1919 15.6643Z" fill="#182B31"/>
<path d="M29.8662 14.7776C29.8127 14.7776 29.7688 14.7336 29.7688 14.6792V8.28964C29.7688 8.23518 29.8127 8.19124 29.8662 8.19124C29.9207 8.19124 29.9647 8.23518 29.9647 8.28964V14.6792C29.9647 14.7336 29.9207 14.7776 29.8662 14.7776Z" fill="#182B31"/>
<path d="M27.8458 16.6755C27.7932 16.6755 27.7493 16.6331 27.7483 16.5797C27.7474 16.5257 27.7903 16.4811 27.8438 16.48C28.6788 16.4634 29.4823 15.8462 29.7145 15.0443C29.7298 14.9927 29.7833 14.9622 29.8358 14.9775C29.8874 14.9927 29.917 15.0472 29.9027 15.0988C29.6438 15.9938 28.7792 16.6569 27.8477 16.6755C27.8477 16.6755 27.8467 16.6755 27.8458 16.6755Z" fill="#182B31"/>
<path d="M42.8345 10.7717C42.8317 10.7717 42.8288 10.7717 42.825 10.7717L35.1189 10.0428C34.6135 9.995 34.0403 9.94055 33.5416 9.70171C33.0955 9.48866 32.6044 9.04059 32.5604 8.42055C32.5576 8.36705 32.5977 8.32024 32.6522 8.31642C32.7047 8.3126 32.7525 8.35368 32.7563 8.40718C32.7869 8.84856 33.1279 9.28708 33.6257 9.52497C34.0929 9.74852 34.6241 9.79916 35.1371 9.84788L42.8441 10.5768C42.8976 10.5816 42.9368 10.6294 42.932 10.6838C42.9272 10.7345 42.8842 10.7717 42.8345 10.7717Z" fill="#182B31"/>
<path d="M4.85183 13.5386C4.8503 13.5386 4.84878 13.5386 4.84734 13.5386C4.79337 13.5357 4.75162 13.4898 4.754 13.4363L4.9874 8.28497C4.98979 8.23051 5.03909 8.18943 5.08943 8.19134C5.14341 8.19421 5.18526 8.23911 5.18277 8.29357L4.94947 13.4449C4.94708 13.4975 4.9038 13.5386 4.85183 13.5386Z" fill="#182B31"/>
<path d="M1.05145 16.2783C0.997372 16.2783 0.953613 16.2345 0.953613 16.1805V8.94143C0.953613 8.88697 0.997372 8.84398 1.05145 8.84398C1.10552 8.84398 1.14927 8.88697 1.14927 8.94143V16.1805C1.14927 16.2345 1.10552 16.2783 1.05145 16.2783Z" fill="#182B31"/>
</svg>
