<svg width="35" height="26" viewBox="0 0 35 26" fill="none" xmlns="http://www.w3.org/2000/svg">
<path d="M28.8702 4.38892V1.30892H24.5391V4.38892H28.8702Z" fill="#0C1248"/>
<path d="M10.8796 4.38892V1.30892H6.54858V4.38892H10.8796Z" fill="#0C1248"/>
<path d="M13.5902 16.4537L18.1536 8.7468L22.8183 6.61715L18.7621 12.7017L22.5141 11.5862L12.3951 24.9294L17.5451 15.2369L13.5902 16.4537ZM29.356 11.0794H28.1007V12.3346H26.427V11.0794H25.1719V9.40578H26.427V8.15051H28.1007V9.40578H29.356V11.0794ZM10.2483 11.0794H6.06421V9.40564H10.2483V11.0794ZM2.81977 25.0303H32.182C33.2021 25.0303 34.0319 24.2003 34.0319 23.1802V7.20735C34.0319 6.18723 33.2021 5.3573 32.182 5.3573H2.81977C1.79966 5.3573 0.969727 6.18723 0.969727 7.20735V23.1802C0.969727 24.2003 1.79966 25.0303 2.81977 25.0303Z" fill="#D03737"/>
<path d="M28.8707 1.30923V4.38923H24.5396V1.30923H28.8707ZM10.8788 1.30923V4.38923H6.54783V1.30923H10.8788ZM0.9689 7.20818C0.9689 6.18807 1.79883 5.35813 2.81894 5.35813H32.1812C33.2013 5.35813 34.0311 6.18807 34.0311 7.20818V23.1811C34.0311 24.2012 33.2013 25.0311 32.1812 25.0311H2.81894C1.79883 25.0311 0.9689 24.2012 0.9689 23.1811V7.20818ZM2.81894 26H32.1812C33.7354 26 35 24.7355 35 23.1811V7.20818C35 5.65379 33.7354 4.38923 32.1812 4.38923H29.8396V0.824785C29.8396 0.55723 29.6227 0.340334 29.3552 0.340334H24.0552C23.7876 0.340334 23.5707 0.55723 23.5707 0.824785V4.38923H11.8477V0.824785C11.8477 0.55723 11.6308 0.340334 11.3633 0.340334H6.06338C5.79582 0.340334 5.57893 0.55723 5.57893 0.824785V4.38923H2.81894C1.26469 4.38923 0 5.65379 0 7.20818V23.1811C0 24.7355 1.26469 26 2.81894 26Z" fill="#04071A"/>
<path d="M22.5134 11.5868L18.7614 12.7023L22.8177 6.61772L18.153 8.74737L13.5896 16.4543L17.5445 15.2375L12.3945 24.9299L22.5134 11.5868Z" fill="#04071A"/>
</svg>
