<svg width="48" height="22" viewBox="0 0 48 22" fill="none" xmlns="http://www.w3.org/2000/svg">
<path d="M41.1473 6.90632C40.2877 5.70102 39.678 4.61653 39.0586 3.64272C37.6104 1.36868 35.094 7.82013e-05 32.3982 7.82013e-05H5.91189C3.40504 7.82013e-05 1.28259 1.84951 0.939453 4.33269L0.39624 8.26489V18.9639H32.9718H37.2769H46.9332L47.8632 13.7248C48.2353 11.6289 47.2103 9.53265 45.3275 8.53931C45.3275 8.53931 42.2392 6.90632 41.7324 6.90632H41.1473Z" fill="#D03737"/>
<path d="M11.8955 13.8328H47.7417C48.3893 13.8328 47.637 16.8526 47.4672 17.4773L47.8358 18.2196C47.7197 18.6476 47.3317 18.9448 46.8882 18.9448H0.982765C0.440077 18.9448 0.000244141 18.5049 0.000244141 17.9623V14.8154C0.000244141 14.2727 0.440077 13.8328 0.982765 13.8328H5.60141H11.8955Z" fill="#0C1248"/>
<path d="M11.0942 16.9098C11.0942 14.6156 9.23437 12.7557 6.94009 12.7557H6.85624C4.56196 12.7557 2.70215 14.6156 2.70215 16.9098V18.9741H11.0942V16.9098Z" fill="#0C1248"/>
<path d="M45.096 16.9098C45.096 14.6156 43.2361 12.7557 40.9414 12.7557H40.8578C38.5632 12.7557 36.7041 14.6156 36.7041 16.9098V18.9741H45.096V16.9098Z" fill="#0C1248"/>
<path d="M38.0818 7.00806H12.1862C10.1654 7.00806 8.17967 6.47944 6.42614 5.47484L4.97299 4.64224C4.40602 4.31741 4.05012 3.71982 4.03464 3.06653L4.03393 3.03829C4.01132 2.08313 4.77942 1.29664 5.73485 1.29664H33.3377C34.7059 1.29664 36.0195 1.86176 36.9398 2.87473C37.7026 3.7148 38.2807 4.67418 38.8368 5.77592C39.1218 6.34061 38.7145 7.00806 38.0818 7.00806Z" fill="#9CD1DD"/>
<path d="M5.73489 1.38648C5.29725 1.38648 4.88777 1.55893 4.58203 1.87207C4.27628 2.18512 4.1136 2.59855 4.12398 3.03592L4.1246 3.06434C4.1392 3.68208 4.48146 4.25671 5.01773 4.56395L6.47088 5.39655C8.20795 6.39174 10.1843 6.91779 12.1862 6.91779H38.0818C38.3458 6.91779 38.5868 6.78344 38.725 6.55838C38.8649 6.33182 38.8763 6.0544 38.7558 5.81632C38.1223 4.55955 37.5416 3.67091 36.8729 2.93509C35.979 1.9509 34.6909 1.38648 33.3377 1.38648H5.73489ZM38.0818 7.0979H12.1862C10.1529 7.0979 8.14566 6.56366 6.38131 5.5528L4.92816 4.72021C4.33752 4.38182 3.96068 3.74895 3.94449 3.06848L3.94388 3.04006C3.93235 2.55386 4.11316 2.09432 4.45313 1.74616C4.7931 1.3981 5.24825 1.20638 5.73489 1.20638H33.3377C34.741 1.20638 36.0784 1.79236 37.0066 2.81403C37.6859 3.56234 38.2754 4.46329 38.9168 5.7352C39.0655 6.0295 39.0514 6.37255 38.8789 6.65278C38.7074 6.93152 38.4091 7.0979 38.0818 7.0979Z" fill="#0C1248"/>
<path d="M36.9707 4.80936H5.76636L6.42404 5.1862C8.09565 6.14391 9.98863 6.64771 11.9151 6.64771H36.6012C37.2039 6.64771 37.5928 6.01149 37.3209 5.4732C37.2056 5.24514 37.0895 5.02475 36.9707 4.80936Z" fill="#424B55"/>
<path d="M10.9093 17.6276C10.9093 19.828 9.12551 21.6118 6.92511 21.6118C4.72462 21.6118 2.94092 19.828 2.94092 17.6276C2.94092 15.4272 4.72462 13.6434 6.92511 13.6434C9.12551 13.6434 10.9093 15.4272 10.9093 17.6276Z" fill="#0C1248"/>
<path d="M10.9092 17.7625C10.8346 17.7625 10.7741 17.702 10.7741 17.6274C10.7741 15.505 9.04745 13.7783 6.925 13.7783C4.80256 13.7783 3.07578 15.505 3.07578 17.6274C3.07578 17.702 3.01533 17.7625 2.94072 17.7625C2.86611 17.7625 2.80566 17.702 2.80566 17.6274C2.80566 15.356 4.6536 13.5081 6.925 13.5081C9.19641 13.5081 11.0443 15.356 11.0443 17.6274C11.0443 17.702 10.9837 17.7625 10.9092 17.7625Z" fill="#EEE1E1"/>
<path d="M10.117 17.6274C10.117 19.3903 8.68799 20.8193 6.92514 20.8193C5.16228 20.8193 3.73315 19.3903 3.73315 17.6274C3.73315 15.8646 5.16228 14.4355 6.92514 14.4355C8.68799 14.4355 10.117 15.8646 10.117 17.6274Z" fill="#424B55"/>
<path d="M9.78496 17.6275C9.78496 19.207 8.50452 20.4873 6.92511 20.4873C5.34562 20.4873 4.06519 19.207 4.06519 17.6275C4.06519 16.048 5.34562 14.7676 6.92511 14.7676C8.50452 14.7676 9.78496 16.048 9.78496 17.6275Z" fill="#0C1248"/>
<path d="M9.57556 17.5949C9.57556 19.0303 8.41188 20.1938 6.9765 20.1938C5.54113 20.1938 4.37744 19.0303 4.37744 17.5949C4.37744 16.1594 5.54113 14.9958 6.9765 14.9958C8.41188 14.9958 9.57556 16.1594 9.57556 17.5949Z" fill="#424B55"/>
<path d="M8.1203 17.6276C8.1203 18.3173 7.56125 18.8762 6.87172 18.8762C6.1821 18.8762 5.62305 18.3173 5.62305 17.6276C5.62305 16.938 6.1821 16.3791 6.87172 16.3791C7.56125 16.3791 8.1203 16.938 8.1203 17.6276Z" fill="#0C1248"/>
<path d="M5.29543 14.5991C5.2744 14.5991 5.25329 14.5918 5.23622 14.577C5.19874 14.5443 5.19478 14.4874 5.22751 14.4498C5.35298 14.3058 5.54865 14.2228 5.74011 14.2346C5.78964 14.2375 5.82756 14.2802 5.82457 14.3299C5.82167 14.3796 5.77777 14.4167 5.72937 14.4144C5.59432 14.4076 5.45301 14.4651 5.36327 14.5682C5.3455 14.5887 5.32051 14.5991 5.29543 14.5991Z" fill="#EEE1E1"/>
<path d="M5.55497 14.8569C5.52188 14.8569 5.49003 14.8386 5.47429 14.807C5.45211 14.7624 5.47033 14.7083 5.51494 14.6862L5.69231 14.5983C5.73692 14.5761 5.79085 14.5945 5.81303 14.6389C5.83511 14.6835 5.81681 14.7375 5.77229 14.7597L5.59491 14.8475C5.58207 14.8539 5.56843 14.8569 5.55497 14.8569Z" fill="#EEE1E1"/>
<path d="M44.7801 17.6276C44.7801 19.828 42.9967 21.6118 40.7962 21.6118C38.5957 21.6118 36.8123 19.828 36.8123 17.6276C36.8123 15.4272 38.5957 13.6434 40.7962 13.6434C42.9967 13.6434 44.7801 15.4272 44.7801 17.6276Z" fill="#0C1248"/>
<path d="M44.7801 17.7625C44.7062 17.7625 44.6455 17.702 44.6455 17.6274C44.6455 15.505 42.9184 13.7783 40.7962 13.7783C38.674 13.7783 36.9469 15.505 36.9469 17.6274C36.9469 17.702 36.887 17.7625 36.8123 17.7625C36.7375 17.7625 36.6768 17.702 36.6768 17.6274C36.6768 15.356 38.5253 13.5081 40.7962 13.5081C43.0679 13.5081 44.9156 15.356 44.9156 17.6274C44.9156 17.702 44.8549 17.7625 44.7801 17.7625Z" fill="#EEE1E1"/>
<path d="M43.9884 17.6274C43.9884 19.3903 42.5595 20.8193 40.7963 20.8193C39.034 20.8193 37.6042 19.3903 37.6042 17.6274C37.6042 15.8646 39.034 14.4355 40.7963 14.4355C42.5595 14.4355 43.9884 15.8646 43.9884 17.6274Z" fill="#424B55"/>
<path d="M43.6566 17.6275C43.6566 19.207 42.3756 20.4873 40.7963 20.4873C39.2169 20.4873 37.9368 19.207 37.9368 17.6275C37.9368 16.048 39.2169 14.7676 40.7963 14.7676C42.3756 14.7676 43.6566 16.048 43.6566 17.6275Z" fill="#0C1248"/>
<path d="M43.4471 17.5949C43.4471 19.0303 42.2831 20.1938 40.8481 20.1938C39.4122 20.1938 38.249 19.0303 38.249 17.5949C38.249 16.1594 39.4122 14.9958 40.8481 14.9958C42.2831 14.9958 43.4471 16.1594 43.4471 17.5949Z" fill="#424B55"/>
<path d="M42.1266 17.6276C42.1266 18.3173 41.5679 18.8762 40.8781 18.8762C40.1883 18.8762 39.6296 18.3173 39.6296 17.6276C39.6296 16.938 40.1883 16.3791 40.8781 16.3791C41.5679 16.3791 42.1266 16.938 42.1266 17.6276Z" fill="#0C1248"/>
<path d="M39.1666 14.5991C39.1455 14.5991 39.1244 14.5918 39.1077 14.577C39.0698 14.5443 39.0663 14.4874 39.0989 14.4498C39.2238 14.3058 39.42 14.2228 39.6109 14.2346C39.6611 14.2375 39.6989 14.2802 39.6954 14.3299C39.6928 14.3796 39.6505 14.4167 39.6004 14.4144C39.4649 14.4076 39.3241 14.4651 39.2344 14.5682C39.2168 14.5887 39.1921 14.5991 39.1666 14.5991Z" fill="#EEE1E1"/>
<path d="M39.4264 14.8569C39.393 14.8569 39.3613 14.8386 39.3455 14.807C39.3235 14.7624 39.3419 14.7083 39.3868 14.6862L39.5637 14.5983C39.6085 14.5761 39.6622 14.5945 39.6842 14.639C39.7071 14.6836 39.6886 14.7376 39.6437 14.7597L39.466 14.8475C39.4537 14.8539 39.4396 14.8569 39.4264 14.8569Z" fill="#EEE1E1"/>
<path d="M44.8126 8.64049C44.7237 8.64049 44.5636 8.65844 44.4915 8.77871C44.4281 8.88315 44.4536 9.02912 44.4827 9.15775C44.8108 10.6223 45.6203 11.966 46.7606 12.9414C46.9348 13.0899 47.0773 13.1622 47.1979 13.1622C47.2313 13.1622 47.263 13.1566 47.2938 13.1452C47.5815 13.0376 47.4926 12.5344 47.4724 12.4346C47.263 11.4248 46.8292 10.4519 46.2186 9.62099C45.7936 9.04425 45.3915 8.73692 44.9525 8.65377C44.9059 8.64497 44.8584 8.64049 44.8126 8.64049ZM47.1979 13.3423C46.9779 13.3423 46.7764 13.1916 46.6444 13.0782C45.4734 12.0779 44.6437 10.6995 44.3067 9.19717C44.268 9.02252 44.2442 8.83969 44.3366 8.68589C44.4246 8.54045 44.5935 8.46038 44.8126 8.46038C44.8698 8.46038 44.9279 8.46593 44.9859 8.47684C45.4725 8.56896 45.9106 8.89864 46.3629 9.51426C46.9893 10.366 47.4337 11.3632 47.6483 12.398C47.6853 12.5737 47.7715 13.1589 47.3562 13.3139C47.3061 13.3327 47.2524 13.3423 47.1979 13.3423Z" fill="#EEE1E1"/>
<path d="M7.69005 7.04956C7.67624 7.04956 7.66216 7.04639 7.64905 7.03962C6.04932 6.21942 4.54505 5.36281 3.71994 3.90843C3.45695 3.44475 3.32251 3.0014 3.32058 2.59069C3.31811 2.07589 3.53174 1.60676 3.89177 1.33585C3.93172 1.30594 3.98811 1.31395 4.01794 1.35363C4.04785 1.39331 4.03994 1.44979 4.00017 1.47971C3.68993 1.71313 3.49857 2.13854 3.50068 2.58981C3.50244 2.96928 3.62896 3.38299 3.87673 3.81956C4.67721 5.23066 6.15684 6.07214 7.73124 6.87931C7.77549 6.90201 7.79299 6.95629 7.7703 7.00055C7.75437 7.0317 7.72278 7.04956 7.69005 7.04956Z" fill="#EEE1E1"/>
<path d="M14.4726 18.7273C14.436 18.7273 14.4015 18.7047 14.3882 18.6682C13.6692 16.7059 12.8792 15.26 11.9022 14.1181C10.6775 12.6867 9.13138 11.7612 7.54872 11.5123C5.75322 11.2296 3.93723 11.8772 2.92092 13.1615C2.89021 13.2005 2.83373 13.2072 2.79449 13.1763C2.75542 13.1454 2.74882 13.0887 2.7797 13.0498C3.8356 11.7155 5.71856 11.0419 7.5767 11.3343C9.20177 11.59 10.7865 12.5371 12.039 14.001C13.0304 15.1598 13.8306 16.6231 14.5573 18.6062C14.5744 18.6529 14.5503 18.7047 14.5036 18.7217C14.4934 18.7255 14.4829 18.7273 14.4726 18.7273Z" fill="#EEE1E1"/>
<path d="M43.5133 7.6311H9.58325C9.53345 7.6311 9.49316 7.59081 9.49316 7.5411C9.49316 7.4913 9.53345 7.451 9.58325 7.451H43.5133C43.5634 7.451 43.603 7.4913 43.603 7.5411C43.603 7.59081 43.5634 7.6311 43.5133 7.6311Z" fill="#EEE1E1"/>
<path d="M28.1492 8.27424C28.056 8.34348 28.0234 8.47449 28.0454 8.58905C28.0665 8.7036 28.1334 8.80452 28.2047 8.89646C28.3798 9.12012 28.5962 9.31052 28.8408 9.45446C29.0106 9.55414 29.2059 9.63351 29.3995 9.5977C29.5746 9.56514 29.7189 9.44355 29.8429 9.31641C30.1025 9.05184 30.3163 8.7431 30.4738 8.40744C29.8509 8.29826 28.7801 8.24028 28.1492 8.27424Z" fill="#0C1248"/>
<path d="M28.1969 9.25895C29.1727 9.25359 30.1493 9.24822 31.1259 9.24286C31.1347 9.02457 31.1963 8.80857 31.3037 8.61817C30.1159 8.64782 28.929 8.73395 27.75 8.87622C27.6726 8.97283 27.7315 9.12742 27.8371 9.19288C27.9418 9.25825 28.0729 9.25957 28.1969 9.25895Z" fill="white"/>
<path d="M18.4533 8.27424C18.3595 8.34348 18.3277 8.47449 18.3492 8.58905C18.3709 8.7036 18.437 8.80452 18.5087 8.89646C18.6834 9.12012 18.9005 9.31052 19.1451 9.45446C19.3142 9.55414 19.5103 9.63351 19.7034 9.5977C19.8784 9.56514 20.0225 9.44355 20.1471 9.31641C20.4065 9.05184 20.6205 8.7431 20.7774 8.40744C20.155 8.29826 19.0843 8.24028 18.4533 8.27424Z" fill="#0C1248"/>
<path d="M18.5003 9.25895C19.4768 9.25359 20.4533 9.24822 21.4297 9.24286C21.4387 9.02457 21.5001 8.80857 21.6074 8.61817C20.4195 8.64782 19.233 8.73395 18.0533 8.87622C17.976 8.97283 18.0353 9.12742 18.1403 9.19288C18.2453 9.25825 18.3765 9.25957 18.5003 9.25895Z" fill="white"/>
<path d="M12.7051 7.70508C12.6553 7.70508 12.615 7.66478 12.615 7.61507V1.23709C12.615 1.18738 12.6553 1.14708 12.7051 1.14708C12.7549 1.14708 12.7951 1.18738 12.7951 1.23709V7.61507C12.7951 7.66478 12.7549 7.70508 12.7051 7.70508Z" fill="#0C1248"/>
<path d="M25.8239 15.7185H25.6436V0.876866H25.8239V15.7185Z" fill="#0C1248"/>
<path d="M34.6127 15.7263L34.4385 15.679C35.1168 13.1881 37.5742 11.2563 40.1548 11.1854C40.2041 11.1841 40.2534 11.1834 40.3026 11.1834C42.8331 11.1834 45.3107 12.9556 46.1096 15.3587L45.938 15.4156C45.1488 13.0379 42.6633 11.298 40.1601 11.3655C37.6561 11.4342 35.2708 13.3089 34.6127 15.7263Z" fill="#0C1248"/>
<path d="M0.846765 6.17127C0.474415 7.23729 0.428311 8.41743 0.718659 9.5087C0.767842 9.69338 0.83119 9.7906 0.918295 9.81462C0.995105 9.83591 1.09347 9.78857 1.15356 9.70534C1.21894 9.6148 1.24577 9.49532 1.27173 9.3798C1.40124 8.80192 1.53507 8.20442 1.49292 7.60859C1.45034 7.00554 1.21674 6.48934 0.846765 6.17127ZM0.957622 10C0.927883 10 0.898585 9.99604 0.870342 9.98821C0.666746 9.93208 0.586858 9.71405 0.544538 9.55497C0.234129 8.38795 0.296507 7.12247 0.72024 5.99161L0.76177 5.88092L0.85741 5.95025C1.32558 6.2897 1.6227 6.88949 1.67249 7.59591C1.71657 8.21796 1.57976 8.82866 1.44743 9.41921C1.41893 9.54635 1.38664 9.6903 1.29953 9.81083C1.21524 9.9275 1.08423 10 0.957622 10Z" fill="#0C1248"/>
<path d="M1.00936 10.631C0.914693 10.9028 0.916275 11.2052 1.0164 11.4762C1.05353 11.5767 1.12172 11.6527 1.17503 11.6527C1.18049 11.6527 1.18595 11.652 1.19167 11.6505C1.24639 11.6362 1.27745 11.5489 1.28819 11.5121C1.38057 11.1973 1.26162 10.837 1.00936 10.631ZM1.17503 11.8328C1.01332 11.8328 0.897535 11.6743 0.847383 11.5385C0.71831 11.1891 0.732389 10.794 0.88601 10.4548L0.927888 10.3624L1.01464 10.4148C1.39394 10.644 1.58584 11.1375 1.46107 11.5627C1.41875 11.7071 1.34133 11.7977 1.2368 11.8248C1.21639 11.83 1.19554 11.8328 1.17503 11.8328Z" fill="#0C1248"/>
<path d="M35.0412 1.05688H4.85522V0.876783H35.0412V1.05688Z" fill="#0C1248"/>
<path d="M36.7858 5.09213C36.6617 5.15073 36.623 5.30585 36.6045 5.44152C36.5253 6.01887 36.5394 6.6089 36.645 7.18194C36.6837 7.38879 36.7558 7.62115 36.9477 7.70624C37.0796 7.76422 37.2318 7.73554 37.37 7.69867C37.8249 7.57796 38.2595 7.37981 38.6484 7.11533C38.2542 6.44735 37.7791 5.82716 37.2371 5.27268C37.1157 5.14853 36.9424 5.01788 36.7858 5.09213Z" fill="#D03737"/>
</svg>
